P2
# CREATOR: GIMP PNM Filter Version 1.1
92 112
255
244
239
254
246
249
251
240
251
251
241
253
242
248
241
249
228
238
232
223
232
221
221
215
214
215
215
215
212
210
212
214
212
211
206
208
211
213
205
208
208
211
214
213
218
216
216
227
218
225
225
226
224
226
228
232
236
229
236
242
250
232
230
241
244
234
235
226
227
228
221
218
215
221
216
210
214
205
206
205
206
203
206
208
204
202
200
201
202
201
201
201
167
248
250
238
248
245
251
250
251
249
251
251
238
247
246
247
231
236
233
226
233
221
226
219
214
221
218
219
215
213
210
215
212
209
208
210
208
211
206
206
211
206
214
211
217
220
213
222
221
226
224
229
225
232
230
221
230
232
234
238
243
226
223
235
237
228
232
232
224
221
216
218
216
213
213
209
208
202
208
204
205
207
208
205
204
206
202
205
203
203
202
201
168
241
246
245
247
247
250
253
241
248
252
243
239
246
245
248
236
233
234
231
229
222
230
216
217
218
213
219
220
217
214
217
209
217
215
210
207
209
208
197
211
207
195
206
214
212
210
216
217
219
219
223
221
223
224
225
230
234
230
235
236
227
222
232
229
224
228
221
220
223
217
216
217
211
214
204
209
204
205
205
205
203
207
202
203
205
203
202
204
202
204
202
169
242
245
250
248
242
249
247
248
251
246
241
245
246
242
250
237
237
232
229
236
220
227
223
221
218
222
217
214
217
213
210
212
209
213
208
208
206
201
193
197
196
199
199
208
215
213
217
217
216
216
219
219
225
222
218
226
227
225
232
232
220
226
235
221
224
224
222
216
219
216
216
210
209
212
209
205
206
206
202
206
202
204
203
203
202
203
202
203
201
203
203
169
239
236
236
250
248
243
250
243
246
251
244
245
247
245
250
234
236
235
236
228
226
220
224
223
224
220
215
210
214
215
211
214
210
216
209
205
202
189
193
186
173
168
170
163
171
198
202
216
219
210
216
220
218
220
214
217
222
220
222
231
214
219
219
230
221
218
215
215
217
210
215
210
211
211
206
208
206
207
204
205
203
204
203
201
202
202
202
203
201
203
203
168
235
235
242
245
252
243
246
249
247
252
248
245
232
244
249
232
239
230
227
236
229
219
222
223
224
217
212
212
218
219
212
212
210
210
210
207
202
203
191
176
184
163
169
155
146
162
169
186
189
199
208
215
205
215
208
210
211
219
221
221
216
218
218
219
214
215
216
214
212
208
211
208
211
210
205
204
206
206
202
206
203
204
204
204
201
201
202
204
202
203
202
170
228
237
238
239
233
237
245
246
250
234
244
239
233
243
247
231
236
233
227
237
226
223
220
224
229
212
213
213
212
217
211
208
209
205
211
203
203
182
181
180
177
177
161
162
149
127
135
137
153
170
174
188
193
187
155
177
176
208
213
217
217
212
217
210
175
214
212
212
207
207
209
209
208
211
204
204
204
205
203
205
204
204
204
202
203
202
203
204
201
203
202
170
225
233
232
235
233
233
243
237
238
233
245
236
235
236
236
231
232
229
228
230
226
230
221
219
226
212
220
214
210
213
210
203
192
194
173
138
138
138
128
133
145
128
143
139
137
126
112
117
118
125
119
109
108
125
131
131
166
188
216
220
214
219
217
202
202
184
213
212
210
209
209
210
207
206
207
203
204
204
203
204
204
204
203
204
202
203
203
203
203
204
202
170
225
225
230
232
229
227
228
240
250
247
251
232
238
235
237
237
229
226
225
232
226
227
222
223
222
214
219
211
210
207
204
185
158
136
127
120
122
115
120
124
123
134
122
127
123
128
109
96
94
96
80
71
81
103
118
113
131
163
210
215
209
214
210
210
197
173
213
203
198
201
211
208
207
208
204
204
203
202
203
204
203
203
204
205
203
203
203
203
204
204
203
170
225
221
222
236
233
227
234
234
231
245
249
236
233
234
238
240
230
232
224
231
217
222
226
216
217
217
213
212
209
209
196
165
144
136
113
113
137
118
121
117
130
120
122
90
84
86
111
91
73
81
71
77
59
61
84
116
102
120
177
196
204
209
204
201
200
172
200
185
195
209
208
208
209
205
208
205
203
202
204
205
203
204
203
205
203
204
202
204
204
203
203
168
219
218
220
225
219
226
230
227
233
231
232
234
227
228
231
232
229
225
224
223
217
219
222
218
209
221
213
213
212
210
185
152
137
105
89
97
125
108
86
107
120
132
117
83
88
82
82
90
69
71
68
64
63
62
50
74
86
84
118
177
209
189
207
212
212
144
201
172
197
208
213
205
208
207
208
204
204
203
204
205
204
202
203
204
203
204
203
203
203
204
204
169
215
214
216
215
219
222
218
220
224
231
225
226
225
229
228
224
227
222
224
222
224
217
225
213
213
209
200
207
213
211
166
102
90
92
69
84
80
110
99
89
84
109
116
98
96
80
74
86
76
63
65
66
68
56
52
38
64
60
83
135
187
197
197
150
137
183
191
153
165
208
208
206
206
205
206
204
205
203
207
204
204
203
204
203
204
203
204
204
202
202
204
169
214
213
215
217
214
214
219
219
223
222
229
223
222
220
221
222
223
217
217
221
221
218
219
216
211
184
161
160
173
190
132
84
94
95
84
63
73
91
101
87
67
80
83
105
92
72
62
62
80
76
55
61
66
46
48
35
32
52
52
53
144
151
158
155
138
144
156
146
169
210
209
208
206
205
207
203
204
204
205
206
204
204
203
205
206
205
203
204
204
204
202
170
212
210
213
214
216
216
214
216
218
219
224
219
219
217
221
219
221
217
216
218
219
217
214
211
184
141
114
109
136
113
120
78
77
63
84
72
77
85
88
85
79
81
70
65
69
87
55
48
67
77
62
57
49
49
46
44
34
33
41
40
77
139
172
172
137
109
109
108
184
210
212
211
206
205
206
203
205
205
205
205
205
204
205
203
207
206
205
203
204
203
204
169
209
207
210
210
214
214
212
214
216
218
218
219
218
217
217
218
223
217
214
213
210
204
203
170
105
103
110
104
124
136
115
75
69
53
55
65
66
68
76
74
68
62
67
65
61
38
75
49
46
64
60
50
55
46
48
38
36
26
30
36
33
100
148
151
152
85
63
87
167
215
208
206
204
208
206
207
205
206
205
206
205
205
206
206
207
207
204
204
205
204
203
169
210
214
210
210
215
212
214
216
213
220
219
218
217
217
218
218
220
219
219
216
215
221
183
116
109
101
104
99
115
104
122
92
91
73
49
55
58
59
64
49
55
57
46
50
51
48
44
57
48
51
56
49
46
48
34
36
32
43
33
31
31
43
109
159
137
65
45
63
160
212
206
207
205
209
206
205
204
209
205
206
206
206
206
204
206
207
205
205
205
205
205
171
210
213
210
211
210
208
217
215
216
217
218
217
218
218
218
218
217
218
221
213
213
207
152
92
98
108
92
107
118
103
92
90
70
69
65
58
62
57
47
57
49
51
51
46
51
45
48
37
42
46
53
45
43
33
34
38
34
42
45
34
35
37
54
123
123
67
52
45
142
204
204
205
208
206
207
205
204
205
205
206
206
206
206
206
206
205
206
205
203
205
205
172
209
209
208
210
217
213
213
215
215
212
216
218
218
220
218
219
219
219
222
217
224
184
164
57
67
80
98
107
88
91
86
62
57
50
45
46
43
49
53
42
42
44
46
57
49
48
43
35
34
42
48
40
42
29
26
27
40
29
28
52
40
36
36
38
71
53
46
51
99
178
207
207
208
206
209
206
205
206
206
206
205
207
205
205
204
206
205
205
203
205
206
171
214
206
213
214
215
211
213
218
215
217
214
218
218
216
222
222
225
220
221
221
222
173
130
72
68
64
54
53
82
78
66
65
62
49
46
40
46
37
44
50
44
36
35
40
49
47
49
43
61
36
39
57
37
39
23
25
18
29
26
32
50
34
36
26
28
28
28
34
65
137
202
212
209
205
207
204
205
205
205
204
205
205
205
206
204
205
205
205
206
205
205
172
214
211
213
212
208
210
215
214
213
214
215
217
217
220
220
225
223
220
222
216
205
147
106
85
78
76
80
77
72
70
63
65
71
74
63
53
46
42
38
41
49
44
42
42
32
45
42
43
46
35
32
40
35
31
29
24
24
22
19
24
36
41
28
28
32
23
15
19
35
84
174
200
209
202
208
210
206
206
205
204
207
205
205
207
205
206
205
205
204
204
205
170
213
215
213
211
209
212
212
210
215
212
214
217
218
221
222
226
223
211
228
211
177
106
96
85
86
98
107
105
105
101
93
74
68
58
56
51
54
58
50
53
59
63
60
53
53
48
48
41
48
33
32
27
29
35
33
28
26
19
19
18
21
41
46
26
30
18
16
15
20
37
153
193
207
198
209
208
206
205
206
204
205
206
204
205
205
206
205
205
204
203
204
170
213
212
214
213
207
210
211
212
211
213
213
218
224
222
220
228
218
218
197
167
91
73
60
63
67
91
114
109
72
64
67
59
52
55
65
64
58
59
65
66
76
61
64
54
44
49
56
58
58
50
47
33
25
28
33
35
34
23
21
21
18
21
42
35
31
25
18
14
16
31
99
189
203
200
209
205
205
203
205
207
207
207
206
206
204
205
204
204
203
203
203
169
215
215
208
213
210
210
213
216
212
209
215
216
219
226
223
228
220
210
139
112
83
70
68
61
77
102
107
96
73
50
56
41
37
28
41
37
38
39
42
53
70
82
64
73
64
57
59
46
38
44
48
38
35
18
20
27
40
29
23
24
13
20
36
55
40
27
20
15
14
22
41
123
186
197
205
206
205
206
204
207
205
206
206
207
204
203
205
204
203
202
203
169
215
211
212
210
217
212
209
215
212
214
213
218
218
222
226
227
212
166
121
106
92
60
60
70
77
73
89
71
62
62
56
55
56
54
55
34
37
36
26
23
28
33
54
44
36
38
37
46
46
55
45
39
44
46
32
27
43
40
38
36
32
21
18
33
41
28
23
30
22
27
43
79
167
191
203
204
204
205
205
205
205
206
205
206
205
205
203
203
202
202
202
170
217
211
215
209
212
212
209
208
213
211
215
215
212
216
223
219
186
131
103
104
90
73
74
68
79
64
84
79
62
62
62
51
42
43
37
32
40
25
23
24
23
24
36
42
50
46
48
38
48
58
30
27
26
29
37
48
41
25
23
22
19
10
10
21
31
30
23
35
24
26
41
62
153
173
195
202
204
207
205
206
204
205
204
205
204
204
203
203
203
203
203
169
216
212
210
214
207
213
209
214
213
212
213
211
214
217
217
212
178
94
82
82
73
79
67
67
64
79
107
92
80
86
65
51
45
33
30
28
36
23
24
28
28
34
41
42
49
43
41
65
58
39
48
52
32
32
44
46
42
39
34
25
13
13
7
11
18
27
25
40
21
24
41
47
98
139
178
201
206
206
206
206
204
204
205
204
202
204
202
202
202
201
201
169
218
211
213
211
209
223
213
213
211
207
213
209
211
216
214
199
122
85
88
68
75
75
67
89
64
71
96
86
98
86
78
53
40
32
30
28
21
23
27
28
33
34
50
48
57
57
49
47
56
46
57
40
40
47
43
47
39
47
46
38
32
18
9
13
14
24
27
27
23
20
37
36
69
139
168
200
206
206
206
205
206
207
205
205
204
203
203
202
202
203
203
168
216
210
216
208
215
215
210
212
211
214
211
209
208
206
204
159
81
79
83
76
80
65
74
57
69
82
71
79
58
57
51
53
54
42
32
30
27
31
28
33
29
36
34
44
44
39
55
52
41
47
62
48
45
35
55
63
63
60
57
61
47
31
17
15
9
14
21
18
25
19
26
34
53
147
168
193
203
207
205
205
205
205
204
204
204
202
203
202
201
201
200
168
217
211
215
207
210
209
209
211
209
212
209
211
205
206
193
139
77
77
68
75
67
75
59
84
92
77
81
91
100
64
52
42
38
41
39
39
31
36
35
37
28
31
45
47
48
64
55
51
52
58
57
55
54
61
59
85
90
86
75
75
70
59
40
19
11
12
17
15
19
20
21
27
39
88
164
198
200
205
203
204
205
205
204
205
203
200
201
201
202
202
200
169
212
213
211
211
209
210
211
211
207
206
205
209
202
191
132
104
81
61
70
73
51
64
74
83
81
77
81
101
114
92
62
50
45
39
38
36
59
44
39
35
34
40
44
50
63
59
46
43
50
56
57
61
70
74
74
94
96
104
99
102
97
84
64
44
25
15
14
16
15
17
18
18
33
40
138
204
200
203
203
206
205
204
204
204
203
202
202
201
201
200
201
168
211
210
208
211
209
207
208
210
209
208
206
204
197
165
123
100
63
55
71
56
54
70
61
64
64
31
55
57
65
47
67
60
53
49
44
42
40
42
41
34
34
42
47
64
50
54
46
47
51
60
55
69
82
92
88
106
120
124
128
128
119
121
102
85
53
30
18
18
12
13
15
16
23
26
83
195
200
202
202
203
204
204
203
204
202
203
202
201
202
202
201
169
208
210
208
207
208
206
209
206
207
208
209
203
203
179
130
89
54
68
56
55
78
75
69
67
57
72
68
70
74
67
52
44
40
51
48
41
42
42
36
42
38
46
59
68
65
57
46
56
64
66
75
76
97
108
116
129
135
143
143
151
143
134
129
128
98
49
24
17
12
11
12
14
16
17
45
146
201
201
203
204
204
201
203
203
203
200
202
201
200
201
200
168
206
204
205
204
206
204
206
205
210
205
205
199
199
133
120
75
67
57
46
66
65
60
68
57
58
73
71
74
64
57
39
39
43
51
48
50
51
41
51
45
49
58
60
58
56
48
43
48
67
66
81
99
99
114
127
136
146
153
151
160
164
155
158
152
135
97
34
18
13
12
11
12
12
15
28
75
197
200
203
203
203
201
203
203
202
201
201
200
201
201
199
166
207
205
205
204
206
206
204
209
205
205
193
193
177
134
121
72
55
43
51
73
61
51
65
54
69
74
87
63
55
48
53
42
58
47
50
46
46
62
56
49
57
56
58
61
57
53
46
63
63
80
96
98
111
125
134
136
149
161
155
166
174
170
176
173
157
138
79
27
12
11
11
11
10
14
23
61
185
196
202
203
201
201
202
202
202
201
202
201
201
201
199
167
205
204
205
204
204
204
205
206
205
201
198
194
154
136
109
80
55
43
55
63
80
67
67
65
50
39
48
61
48
50
50
45
48
42
51
58
52
67
56
63
57
50
58
60
58
38
39
65
82
88
93
114
124
135
141
151
149
156
163
180
180
176
186
184
174
163
133
49
19
14
14
10
9
9
26
70
174
192
201
202
202
203
200
200
202
201
202
200
199
198
198
165
204
205
207
206
205
205
205
203
204
203
195
185
140
113
82
60
50
56
67
65
75
84
62
54
57
38
35
44
52
58
58
53
57
66
64
58
57
65
75
73
59
61
61
50
31
33
50
74
93
105
118
112
124
140
145
155
161
174
174
180
188
188
190
191
189
178
164
108
36
20
16
13
11
13
19
59
185
202
201
202
201
201
200
200
202
201
200
198
199
201
198
165
205
203
202
205
203
203
204
205
206
205
177
164
110
103
79
68
62
52
52
46
53
77
74
51
47
68
70
66
67
64
66
80
70
66
70
73
66
80
78
68
80
72
50
42
50
60
87
101
104
119
128
127
131
147
155
156
170
180
179
187
186
192
195
197
202
196
185
157
78
29
15
13
11
18
21
70
188
202
202
202
201
201
201
201
199
200
199
199
199
200
199
165
205
204
204
203
204
203
205
204
205
206
160
120
102
86
78
80
66
57
54
46
67
85
69
63
49
52
65
69
81
92
93
87
83
77
72
68
68
68
70
82
62
57
55
49
65
83
97
114
121
128
132
136
140
158
164
173
174
181
183
185
189
195
197
201
203
204
193
184
131
54
28
16
17
23
25
54
175
202
200
201
201
202
200
202
199
199
198
198
198
201
199
166
204
204
204
203
203
203
205
205
205
204
175
145
108
77
71
72
67
58
49
52
48
75
85
75
74
75
78
82
90
92
91
85
97
102
96
91
81
83
76
65
77
56
57
72
77
101
122
129
133
134
139
149
152
164
168
178
182
185
187
183
194
196
198
201
204
205
191
195
165
107
69
27
17
29
32
52
137
198
200
201
200
200
199
199
199
198
197
197
198
199
199
165
204
204
203
203
203
204
204
203
204
204
202
159
120
57
42
61
65
65
55
56
53
70
89
73
69
71
81
87
94
96
101
109
117
115
111
93
93
87
84
82
78
62
77
93
107
122
124
129
135
148
153
157
164
169
178
183
183
185
187
188
188
194
199
196
203
204
203
199
188
153
122
70
25
33
48
49
117
198
200
202
201
201
199
200
199
199
197
198
198
198
197
164
205
204
203
203
203
205
204
204
206
201
200
180
104
68
52
56
58
73
65
66
74
94
91
97
79
76
92
91
98
103
103
114
113
117
105
100
97
97
96
86
82
91
105
117
140
141
153
158
154
157
165
170
171
175
184
188
191
191
190
184
187
196
197
198
208
207
208
206
200
187
160
125
45
37
53
52
86
197
199
199
200
200
199
199
201
199
197
197
199
196
198
164
206
205
204
203
203
204
203
204
204
205
202
190
103
81
80
66
38
49
44
57
63
75
74
86
91
104
100
92
93
111
123
118
115
110
116
106
121
111
102
76
106
103
119
140
150
163
170
169
168
164
165
174
180
185
188
189
192
193
189
186
189
196
199
204
208
210
212
212
208
203
182
155
73
40
46
57
88
188
200
199
200
199
199
198
199
199
198
197
197
197
198
164
206
205
205
203
204
204
204
204
205
202
205
201
178
50
74
57
28
39
46
74
123
92
97
112
101
87
100
107
107
93
112
121
123
129
112
119
115
93
96
116
119
127
138
157
173
178
183
180
180
166
179
181
184
186
189
196
196
195
194
190
193
200
202
206
208
209
212
216
214
208
200
175
103
43
51
50
79
200
198
198
199
199
201
197
199
197
195
197
197
196
198
164
207
205
203
205
203
202
204
204
204
204
204
202
201
186
114
61
58
50
58
111
157
149
141
140
139
117
95
100
120
118
104
105
108
109
108
104
111
101
120
120
132
147
158
175
187
194
195
194
191
187
190
188
186
189
196
198
196
198
194
197
204
203
207
208
211
210
209
209
212
212
202
182
116
54
42
40
92
191
197
198
199
197
199
198
197
198
196
195
196
196
198
164
205
205
204
204
203
204
203
204
204
205
204
203
205
204
199
126
62
54
70
130
168
178
174
162
152
157
130
109
115
128
123
120
122
114
125
103
98
120
135
138
151
163
174
179
189
194
200
201
198
195
195
196
195
199
202
204
204
205
203
203
198
207
204
207
209
206
207
207
210
209
203
187
126
58
42
39
86
200
197
197
196
196
198
196
197
196
196
196
195
194
194
163
205
205
204
203
204
204
204
204
204
205
203
204
206
204
203
180
88
61
78
135
180
198
197
185
176
169
163
159
125
101
125
135
137
119
94
145
152
145
151
148
160
171
182
191
188
200
204
206
199
204
200
203
201
205
208
205
203
206
210
206
208
207
209
208
207
207
201
205
200
196
207
187
135
62
42
41
100
194
196
196
195
197
196
196
198
196
195
195
196
194
195
163
205
205
205
204
204
204
205
203
203
203
204
203
203
201
202
199
133
61
88
139
186
207
206
202
194
187
179
177
180
166
147
146
155
157
172
160
156
154
146
152
163
180
189
195
199
210
211
214
211
215
215
211
209
212
212
212
214
212
212
215
213
212
207
206
204
206
204
205
196
191
196
181
130
68
45
45
125
196
197
196
197
196
196
194
197
196
194
195
196
194
194
162
205
204
205
204
204
203
204
203
202
203
204
203
202
204
204
205
154
70
87
146
181
208
211
208
200
195
192
189
189
187
189
187
182
189
183
178
176
167
170
174
183
192
202
210
214
218
216
221
223
222
222
222
222
216
217
216
219
216
214
212
213
210
209
206
205
201
200
199
195
193
192
177
128
70
49
49
126
198
194
196
196
194
194
194
196
196
195
194
195
194
193
162
205
204
204
204
203
204
202
204
202
203
203
202
204
203
203
205
178
73
89
133
178
211
208
205
203
196
196
192
197
199
197
195
205
202
195
186
182
180
179
182
184
198
206
211
216
216
220
224
222
220
224
225
223
219
219
215
217
210
208
212
213
213
211
211
210
204
201
200
197
192
187
180
131
67
45
51
139
196
195
194
193
194
193
193
193
196
194
194
194
193
192
161
201
201
203
203
202
203
203
202
204
204
203
202
203
203
202
202
182
84
88
148
198
208
211
204
199
200
201
202
201
201
191
194
202
198
196
190
174
184
186
191
195
200
213
205
215
223
223
218
221
221
225
225
221
218
217
219
208
200
206
205
211
212
212
215
218
214
209
204
200
195
194
182
151
84
44
51
165
194
193
194
193
196
193
194
194
193
192
192
193
192
192
161
201
203
201
204
199
202
200
199
199
200
202
199
200
201
203
202
189
89
97
148
185
208
210
207
201
204
203
206
207
208
201
201
201
195
197
190
182
185
189
192
199
204
215
216
223
225
225
221
224
222
227
226
221
212
214
206
202
201
198
200
206
209
215
218
217
219
218
210
202
198
192
185
172
111
42
50
163
193
192
193
192
193
192
192
190
191
194
193
192
191
191
160
201
201
200
201
200
199
198
200
201
200
201
199
202
199
200
199
195
102
97
153
192
211
211
207
205
203
208
211
214
205
210
206
201
190
191
190
186
185
187
195
203
209
213
216
225
223
221
219
224
220
217
217
211
207
206
198
195
192
197
201
208
211
217
217
217
219
214
211
201
201
190
190
183
144
50
44
165
192
190
191
192
191
191
191
190
190
190
190
190
190
191
160
199
200
199
199
198
200
199
199
199
199
199
199
199
201
201
198
195
117
108
167
208
215
209
208
206
207
212
214
213
213
211
212
202
200
191
182
180
181
179
196
202
204
208
212
215
213
209
207
206
204
207
209
206
199
196
193
191
200
203
210
210
214
219
217
214
211
208
204
201
192
185
191
190
170
74
49
169
190
190
189
189
191
190
189
189
189
190
188
190
190
191
158
198
199
200
199
199
198
196
198
198
198
197
198
199
199
199
201
199
126
112
198
216
217
211
207
207
210
209
218
213
213
210
217
216
204
196
191
186
178
177
187
193
183
197
205
205
197
190
197
193
195
193
189
187
188
191
189
199
204
204
202
200
200
202
197
198
195
202
201
202
186
163
186
190
184
111
48
167
188
187
187
188
188
190
188
189
189
189
188
187
190
189
157
198
197
197
197
198
196
196
197
198
196
195
197
198
198
199
199
201
127
124
212
218
215
212
210
211
214
219
218
212
212
216
218
212
205
193
187
187
179
178
179
174
176
179
187
189
181
176
179
179
174
174
169
169
178
171
180
189
181
180
164
165
159
157
165
157
166
183
185
187
184
168
184
187
187
158
53
180
205
187
188
187
188
187
188
189
188
190
188
188
188
189
158
199
198
197
196
197
195
193
196
198
199
194
197
197
197
200
222
198
128
139
216
217
212
206
207
211
210
213
206
197
198
196
195
187
176
171
169
168
162
166
167
156
149
156
160
171
169
166
158
161
155
147
144
144
147
137
129
123
119
121
118
117
117
128
134
127
127
142
152
153
155
170
174
177
183
178
68
166
202
185
187
187
187
187
189
187
190
188
187
187
188
189
158
197
196
198
195
198
195
195
198
194
195
194
194
195
196
210
218
202
128
157
219
216
212
204
207
200
198
193
188
177
169
156
151
137
129
117
117
116
99
116
128
128
125
130
146
155
160
162
155
146
149
132
118
112
115
89
59
62
54
58
63
72
83
94
110
115
106
105
110
123
131
150
171
169
178
185
91
148
184
181
186
184
185
187
185
187
186
189
189
187
187
187
156
198
194
196
196
197
193
196
195
198
194
196
194
195
195
202
145
204
133
176
218
212
206
203
199
173
168
168
153
140
135
127
99
92
77
64
53
52
56
65
70
79
93
102
123
144
155
149
153
144
135
118
91
83
80
70
55
38
30
30
31
43
53
62
74
86
94
101
108
109
115
132
157
165
179
182
123
113
150
181
182
183
184
183
188
185
186
187
187
189
188
187
156
198
194
193
195
194
196
193
193
196
196
196
195
195
195
206
114
169
123
191
219
214
203
191
166
144
140
129
121
111
116
106
83
59
39
32
31
32
40
47
57
62
74
87
106
133
148
149
148
142
129
111
85
82
65
52
40
32
33
45
56
66
72
82
94
99
101
103
98
100
107
121
145
167
178
185
141
80
145
182
183
183
184
184
185
186
187
186
187
186
187
187
155
196
194
193
194
194
196
193
193
195
196
196
195
196
195
203
150
99
107
199
219
212
201
180
152
134
127
110
100
97
92
83
80
61
59
55
44
35
33
35
49
59
65
81
104
129
150
151
147
145
134
114
92
72
55
31
25
34
40
44
52
61
61
61
59
59
79
102
112
111
116
121
142
168
178
183
159
78
149
180
180
183
183
184
184
185
186
187
187
188
189
187
156
196
195
194
193
192
193
193
195
193
193
197
196
200
195
199
177
107
103
200
218
208
191
170
134
119
118
119
112
100
86
84
70
57
51
49
47
43
43
35
27
45
54
73
113
137
163
172
172
161
144
117
94
61
40
34
46
42
17
19
23
16
27
47
56
65
55
63
91
108
118
128
148
160
179
182
160
83
161
179
179
180
181
182
184
184
185
185
188
188
186
188
158
194
195
194
193
192
193
196
193
196
194
197
194
195
197
200
190
129
100
207
219
206
188
165
142
133
124
113
99
67
52
52
49
38
23
20
27
16
30
42
46
35
54
71
120
148
180
192
190
181
157
126
86
64
55
44
46
78
37
32
31
41
52
96
48
37
59
70
83
96
113
130
148
165
180
183
168
85
182
179
178
180
180
182
182
184
185
186
187
187
187
186
156
194
194
194
193
195
194
195
194
194
196
196
196
196
196
199
199
159
117
208
216
209
188
164
138
120
102
80
63
52
46
30
46
56
30
23
30
37
53
81
38
50
73
87
122
167
204
222
221
210
184
139
91
93
73
61
86
111
33
34
24
53
62
119
85
69
62
71
92
110
128
144
159
172
180
185
172
115
179
178
179
180
181
182
181
184
183
186
187
185
185
188
156
193
193
193
194
194
191
192
195
195
195
193
196
198
197
199
200
188
131
210
215
208
196
173
153
129
111
94
79
59
42
45
121
111
29
34
21
45
81
111
72
65
97
105
129
182
219
236
239
223
202
157
107
92
86
73
78
115
75
43
47
48
108
108
93
91
103
119
129
135
147
157
171
182
187
184
171
134
182
179
179
180
181
181
181
182
184
185
185
185
188
186
155
191
193
191
193
193
192
191
194
193
194
196
195
197
198
199
197
198
135
208
216
210
202
188
173
161
146
134
125
120
117
104
110
120
73
45
44
41
107
87
86
93
99
115
148
199
231
243
244
225
206
168
123
101
92
85
98
99
114
110
98
115
114
96
103
112
122
129
141
151
155
167
181
188
185
179
170
135
181
179
179
179
180
180
181
182
185
185
185
186
187
187
156
192
191
191
192
192
193
193
192
193
192
192
195
195
196
199
198
198
140
205
216
212
209
202
197
181
171
166
156
149
148
114
102
120
120
120
118
115
101
89
88
84
113
142
173
212
235
242
246
230
207
176
148
127
101
82
78
83
84
88
87
83
84
110
119
121
125
137
151
160
165
177
189
192
188
174
163
133
181
180
179
179
180
182
183
183
184
186
184
187
187
184
155
192
191
191
191
192
191
193
194
192
194
193
194
196
197
196
197
197
135
204
217
213
212
210
209
197
184
176
164
159
153
142
126
102
90
89
85
85
79
73
80
99
137
173
199
218
233
244
247
231
208
186
166
149
128
99
89
83
83
87
93
97
105
111
117
127
142
153
161
168
175
183
193
191
183
170
159
128
177
177
179
178
180
181
182
182
182
184
185
184
186
187
154
191
191
189
191
191
192
191
192
193
193
194
194
194
194
194
195
195
160
202
216
216
216
216
215
210
202
187
180
171
159
143
130
119
106
98
93
86
90
98
105
138
167
195
212
222
236
243
245
229
209
196
186
170
150
131
108
107
111
109
107
108
113
125
139
147
159
167
177
183
185
186
192
191
182
169
160
129
178
178
180
178
180
180
181
181
181
183
184
187
185
185
155
189
189
191
190
189
190
192
191
190
190
191
191
192
194
195
195
196
162
193
215
214
215
218
215
220
212
204
193
178
181
169
156
140
132
128
127
125
118
117
146
171
186
208
221
231
236
247
250
234
216
202
197
183
169
157
142
126
121
126
132
137
145
152
158
165
170
183
189
189
187
189
191
185
176
161
150
130
178
179
178
177
179
179
180
180
180
181
184
183
185
184
157
189
191
190
190
188
189
190
190
189
189
190
190
191
195
193
193
193
180
186
212
210
215
216
216
224
209
204
204
196
187
184
178
166
161
152
142
133
137
161
181
188
201
213
222
230
240
246
252
237
220
211
203
192
178
170
164
154
143
143
138
140
154
160
169
177
185
192
191
190
189
187
184
184
172
159
131
140
176
175
177
178
179
179
180
180
181
181
182
182
183
186
155
188
189
189
189
189
187
189
189
190
188
189
189
188
191
192
192
192
188
176
209
208
213
217
220
220
209
204
211
200
195
183
178
168
155
149
155
173
177
188
190
196
201
216
223
231
239
245
253
243
223
213
203
191
185
173
175
174
168
162
161
161
167
171
180
184
193
188
187
187
186
185
184
180
170
156
114
163
178
178
176
178
179
179
179
179
180
180
180
181
182
183
153
187
189
188
188
188
187
189
188
188
189
190
189
190
192
189
190
190
192
162
204
207
213
217
219
219
216
211
210
208
206
192
186
181
182
184
188
191
194
197
198
199
201
209
225
232
240
246
254
245
228
214
203
181
170
171
179
179
175
175
180
181
183
187
192
187
182
182
182
185
186
185
180
175
164
151
109
172
178
177
176
177
179
178
177
179
178
179
180
181
181
183
154
190
188
189
190
189
188
189
189
186
188
189
188
189
188
189
189
189
188
168
187
205
209
215
217
217
217
209
204
204
202
200
199
195
195
196
195
191
196
197
200
190
184
207
222
234
241
249
254
242
228
219
204
181
156
159
178
181
187
188
192
192
188
191
184
186
184
187
190
185
185
181
178
173
161
146
110
166
176
175
175
176
177
178
179
178
178
177
180
179
178
182
151
187
187
188
189
188
188
187
188
187
186
187
187
188
189
188
187
187
188
176
175
202
206
209
214
215
214
209
207
208
203
202
204
196
190
193
195
197
193
188
184
173
181
212
227
238
243
250
255
243
228
220
202
187
165
141
168
180
188
193
196
196
201
193
189
187
188
189
189
189
184
183
177
172
158
141
133
171
175
174
174
174
177
178
178
179
178
177
177
179
181
180
152
188
188
187
186
187
187
187
186
186
186
185
185
185
188
188
185
184
184
178
163
200
205
209
214
211
214
212
209
202
202
202
204
197
200
198
193
194
190
181
173
150
191
218
230
238
241
248
251
237
224
220
202
198
193
153
156
176
186
195
199
204
201
191
192
186
196
196
196
188
187
180
174
164
155
123
142
169
174
171
172
173
176
176
178
176
175
177
178
177
179
176
151
184
184
185
185
186
184
185
186
186
186
186
186
187
187
184
186
184
184
184
149
188
204
207
211
212
215
211
213
208
204
203
211
204
205
205
199
197
187
176
162
152
218
227
228
231
236
236
238
228
218
207
194
196
198
192
150
175
185
192
200
201
201
204
195
195
200
198
194
189
185
179
171
162
144
104
142
173
173
172
172
173
174
175
175
176
176
176
177
178
178
179
150
184
183
184
184
184
185
185
185
184
186
187
185
185
184
185
185
184
182
183
153
168
201
204
212
211
210
206
210
213
214
210
211
210
206
204
198
193
185
169
158
208
222
212
210
211
210
215
214
204
193
174
160
172
177
184
156
173
183
189
197
201
198
204
203
202
202
199
197
186
184
174
169
153
143
98
166
172
172
172
172
174
174
175
176
176
177
176
177
174
174
176
149
183
181
183
183
182
182
184
182
184
182
185
184
184
183
184
182
182
184
183
165
154
186
204
211
214
208
206
208
211
217
216
213
213
210
202
196
190
180
165
160
205
205
183
171
168
170
176
170
167
155
138
131
137
137
147
156
170
179
190
197
203
205
205
201
203
198
191
194
190
179
173
167
147
131
98
168
172
172
173
172
173
172
175
175
176
174
175
175
173
177
174
149
183
182
184
183
182
182
184
183
181
183
183
182
182
183
182
182
182
182
181
172
127
183
197
207
213
212
213
213
215
215
214
208
210
207
193
192
183
179
173
173
169
157
137
101
138
146
139
140
134
129
127
80
58
100
124
156
180
185
188
194
201
207
206
202
200
194
187
193
184
172
166
155
147
118
108
169
168
169
170
170
172
173
175
175
174
173
176
174
175
176
175
146
182
183
183
182
183
182
183
183
182
181
183
183
183
182
183
182
182
183
181
180
115
179
193
207
212
213
215
215
215
213
209
209
208
206
199
193
186
183
188
189
147
123
65
45
46
113
128
121
120
120
82
70
65
77
110
165
195
194
195
194
201
206
208
204
196
195
190
188
180
173
160
151
134
105
133
168
168
168
171
171
170
173
174
174
174
175
173
174
175
174
173
148
182
182
182
180
182
182
182
182
182
183
184
182
183
182
181
183
184
182
183
178
161
175
190
200
208
211
215
216
213
212
211
208
211
207
205
197
194
194
199
206
155
112
88
86
96
90
114
111
106
92
80
81
78
84
118
166
203
202
195
196
198
201
205
198
197
190
185
178
175
163
156
144
136
95
160
168
169
168
169
171
169
171
172
173
173
173
173
173
175
175
174
145
180
182
181
181
181
180
182
180
183
183
181
181
183
181
181
181
181
180
181
182
165
139
193
200
201
210
210
210
213
211
208
209
210
209
198
186
193
200
213
213
185
156
137
121
118
120
114
107
98
99
101
106
120
134
144
164
210
215
205
199
198
198
202
197
193
183
182
175
170
164
152
138
136
104
152
168
167
167
169
169
170
170
170
171
173
172
173
173
173
175
175
146
181
180
180
181
181
182
181
181
182
183
183
180
181
181
182
182
181
182
181
181
179
116
187
198
197
206
207
209
208
211
213
214
212
211
201
199
206
219
222
225
199
178
177
169
151
133
130
130
126
119
111
117
126
142
152
173
211
216
214
203
203
202
200
196
190
183
180
172
163
161
147
136
132
103
166
168
168
168
168
168
168
170
172
170
172
172
172
173
174
174
176
147
181
181
180
181
181
183
179
181
181
183
182
182
182
181
182
180
181
181
181
182
181
135
164
193
195
200
201
207
206
209
214
212
209
209
209
210
216
220
225
227
211
191
177
155
147
138
131
133
128
115
107
91
107
137
154
179
203
214
210
206
204
201
199
198
191
184
177
168
158
157
148
145
106
139
167
168
168
168
167
167
169
169
171
171
172
172
171
172
174
173
175
147
181
180
180
180
181
181
182
181
181
183
181
181
181
181
181
180
180
180
181
179
176
176
142
198
198
197
199
204
206
207
210
209
208
209
211
212
215
219
219
216
216
196
159
133
122
119
133
124
130
108
105
87
83
115
140
173
193
196
200
208
205
197
199
193
191
185
171
164
159
153
149
144
103
167
165
170
168
166
167
167
169
170
169
170
171
172
170
173
172
173
175
147
179
181
180
179
179
180
182
179
181
180
181
179
180
181
182
181
181
181
179
180
180
178
138
186
197
200
198
197
205
205
202
197
202
205
210
213
215
209
208
208
202
180
152
135
111
122
125
109
117
119
94
110
112
99
125
150
170
167
182
202
201
199
201
197
186
176
167
159
155
152
152
136
126
168
165
166
165
166
165
165
167
168
167
168
169
169
170
171
171
173
173
146
181
180
179
180
179
179
180
180
180
181
180
180
181
181
181
179
181
179
179
179
180
179
153
166
194
194
195
195
199
204
201
197
205
211
212
207
192
191
184
182
182
176
149
132
111
127
115
102
107
109
118
121
119
113
126
130
151
142
163
174
194
195
195
195
185
173
163
154
153
150
149
118
141
165
165
165
165
165
165
164
165
166
169
169
167
170
170
170
170
171
172
145
179
179
178
180
180
180
182
180
180
181
181
181
181
179
181
180
180
180
180
179
179
180
179
145
195
193
195
196
199
204
208
207
210
213
202
188
164
145
146
155
168
152
131
137
128
165
151
134
125
139
160
147
139
131
128
128
128
130
136
154
178
186
190
185
179
164
161
152
151
150
140
89
162
162
162
163
164
165
163
164
164
167
166
166
168
168
168
168
170
169
171
145
180
179
178
180
180
178
180
179
178
179
180
180
179
180
179
180
180
179
179
180
179
178
178
153
177
189
190
192
192
201
207
207
209
207
191
170
136
139
136
143
149
137
150
155
156
170
177
178
170
174
146
128
135
136
130
135
138
136
131
135
166
168
184
186
169
161
154
153
151
144
120
134
158
160
160
161
163
163
163
164
164
165
164
166
166
167
168
169
170
171
172
144
179
179
178
178
178
178
179
179
179
179
179
179
178
179
179
179
180
179
178
178
178
179
179
170
133
177
182
189
185
194
199
202
212
207
181
159
144
144
135
129
142
134
133
110
109
102
110
120
123
105
92
88
80
80
89
104
106
112
125
141
156
166
175
179
170
157
152
152
147
136
87
148
158
159
160
161
162
162
163
163
163
163
162
163
165
167
166
168
170
171
172
143
178
179
179
179
179
178
178
179
180
178
179
177
179
179
179
177
180
179
178
177
177
178
177
179
135
165
179
187
194
199
203
204
211
200
184
174
154
137
104
91
94
85
68
55
53
59
64
66
71
67
44
40
42
53
56
66
73
93
122
134
155
159
166
169
164
147
146
143
139
110
91
155
155
157
159
159
160
161
160
162
162
161
162
163
164
163
165
167
168
171
171
143
178
179
178
178
178
177
179
177
178
177
178
177
179
179
177
178
177
178
177
176
174
177
177
176
165
128
169
186
187
196
197
202
202
194
179
162
143
132
115
126
142
138
126
132
131
105
96
98
91
92
97
116
118
141
151
159
155
151
145
147
152
157
163
158
154
145
143
137
133
83
144
150
152
154
156
159
159
159
159
162
161
161
161
162
163
164
166
166
168
170
171
142
178
177
179
178
179
177
178
177
177
177
178
178
178
176
177
177
177
178
176
176
176
175
174
172
171
89
149
173
180
191
192
196
195
190
176
157
156
168
176
181
186
183
186
187
186
177
175
164
165
153
149
150
152
156
154
147
141
154
165
156
146
150
151
152
149
146
138
133
117
83
142
148
150
151
154
157
156
155
159
160
160
161
161
161
162
162
163
164
163
167
169
141
178
176
178
177
179
176
177
178
179
176
177
178
177
176
176
175
175
175
174
175
174
174
174
171
171
160
100
154
168
185
184
183
184
177
173
163
169
185
186
166
157
165
178
167
165
156
160
159
153
142
138
138
134
128
126
125
138
157
162
156
150
145
142
143
142
136
126
122
69
124
144
146
147
150
151
152
153
155
156
157
158
157
160
161
160
160
161
163
163
165
168
141
178
178
177
178
176
176
176
176
177
179
177
176
177
176
176
175
174
175
176
175
173
172
173
171
169
166
91
137
161
171
176
171
171
162
159
169
181
184
186
174
150
137
128
121
128
119
110
109
111
96
98
103
100
104
121
130
139
150
151
147
139
137
139
138
137
131
119
88
67
124
131
142
147
147
150
151
152
155
154
156
157
159
158
158
159
159
160
162
161
165
165
140
179
176
176
177
177
176
175
178
176
176
176
176
176
177
176
174
175
174
173
172
173
172
172
171
168
142
112
78
134
148
166
161
163
160
161
164
173
173
177
171
160
142
128
118
99
85
67
59
68
60
74
92
102
117
124
131
137
142
143
141
135
139
137
136
134
123
100
52
148
122
110
98
121
145
148
149
150
152
156
155
157
156
158
159
158
157
158
160
162
162
166
139
179
177
176
177
175
176
176
176
174
175
177
175
173
175
174
174
172
172
172
171
171
170
181
134
110
76
134
110
92
120
153
160
159
155
153
156
161
157
157
155
147
143
131
120
103
86
77
71
78
75
74
96
110
124
129
130
134
132
132
134
132
132
133
133
127
108
64
105
158
169
85
101
89
95
134
148
149
150
153
153
154
154
155
156
157
158
157
159
161
162
166
138
177
177
175
176
175
175
174
175
176
175
175
175
173
172
173
172
173
179
188
188
188
161
153
142
139
133
135
131
93
69
127
149
149
139
143
151
143
147
147
142
140
138
133
120
106
95
92
86
78
90
97
111
120
128
128
131
132
131
132
128
128
119
121
102
106
71
53
143
154
167
153
35
101
97
67
115
148
150
149
152
154
154
155
154
155
156
156
156
159
161
163
138
177
176
175
176
175
174
175
175
176
174
174
173
172
177
181
184
181
187
193
189
154
175
148
154
136
131
136
131
177
75
93
132
139
134
139
140
143
144
145
143
142
141
136
132
116
119
109
98
97
116
116
125
129
134
141
144
140
137
134
128
115
116
114
83
81
46
113
147
154
164
163
86
79
101
92
96
114
142
151
152
156
157
154
152
154
153
155
157
158
161
162
136
177
177
176
175
175
175
175
173
173
174
174
175
187
163
154
137
164
183
182
157
175
170
137
167
128
135
134
128
196
161
62
86
112
129
135
140
135
148
156
161
165
165
163
153
146
135
129
131
123
130
135
142
146
151
153
154
138
139
132
125
108
96
91
62
50
86
138
149
152
165
170
125
73
85
97
103
123
109
112
136
156
159
159
158
171
172
160
158
157
160
162
135
183
158
177
176
172
173
173
172
174
181
197
190
193
165
170
142
131
136
164
188
176
153
153
160
108
139
134
122
198
190
133
43
77
96
122
124
140
148
167
180
187
188
186
179
168
163
163
158
160
152
144
155
163
160
162
164
156
129
124
115
104
63
65
46
49
142
147
148
155
163
167
150
80
86
95
88
121
141
144
140
143
147
149
159
166
153
170
178
174
171
173
145
200
188
154
171
180
178
171
169
181
174
170
193
186
147
167
150
139
156
182
184
164
140
168
151
105
139
133
124
203
195
184
123
71
72
105
132
141
150
167
179
188
191
196
189
178
183
179
176
171
162
156
165
163
166
162
161
149
135
120
102
82
54
49
48
130
145
149
149
157
165
168
157
77
90
96
85
125
137
145
154
154
152
151
153
159
174
161
158
159
160
160
133
206
195
168
139
154
169
178
175
177
182
193
202
183
146
149
160
139
154
179
173
157
144
179
149
100
141
133
119
201
195
193
183
144
80
82
103
128
144
158
168
167
181
182
180
176
178
176
171
172
157
153
161
161
158
146
149
133
127
105
81
57
49
47
131
143
148
149
154
157
164
167
156
80
90
95
87
128
137
138
147
156
160
156
151
159
170
172
170
166
164
163
138
210
197
177
162
162
165
172
167
170
178
188
196
187
148
143
161
144
150
175
175
153
161
180
150
102
136
133
116
184
200
196
191
182
156
78
87
100
110
136
130
138
153
160
171
150
158
151
156
154
152
149
145
140
125
143
123
110
94
82
57
42
63
135
140
145
150
153
153
161
161
169
144
81
92
96
91
130
137
144
142
149
158
153
153
156
168
171
169
168
168
169
143
205
195
183
157
164
172
174
177
174
172
182
189
189
154
137
156
159
149
168
172
154
172
184
154
111
139
131
118
151
203
198
193
190
183
151
82
71
85
105
108
99
119
128
153
150
155
144
145
147
137
139
133
127
104
105
88
82
71
38
35
68
132
140
145
147
151
153
158
159
165
167
132
81
90
101
96
131
141
146
144
148
151
151
150
157
168
171
170
168
166
163
138
205
195
179
156
152
160
172
168
166
168
179
186
184
152
133
152
162
154
160
164
162
178
185
155
120
138
132
118
113
205
202
196
193
187
181
162
99
59
79
66
82
85
101
111
110
132
124
130
126
121
117
111
100
92
84
72
53
32
30
98
129
138
144
147
151
155
159
158
161
164
167
111
84
97
106
104
131
144
147
149
150
151
150
150
158
165
171
170
165
170
165
138
201
196
177
156
143
156
166
160
158
171
181
182
174
137
129
148
154
162
153
158
163
175
186
161
125
135
129
118
100
202
206
200
198
192
187
182
172
128
57
58
70
75
87
86
91
104
114
104
106
100
101
84
78
66
53
51
42
59
115
130
138
142
150
154
157
158
161
161
164
168
169
103
89
102
108
110
130
149
152
151
151
148
149
153
158
164
169
168
168
167
167
139
203
193
175
152
136
150
156
166
164
169
173
168
150
126
129
145
152
160
158
154
159
172
185
165
129
125
129
116
103
194
207
205
203
200
194
185
178
174
140
74
81
58
64
65
70
67
75
88
85
82
68
68
51
46
41
48
101
126
130
135
142
149
156
158
161
160
161
166
168
170
164
95
95
102
109
118
134
147
149
152
151
150
146
153
159
168
168
166
162
163
162
134
199
190
179
150
132
148
154
159
156
155
161
167
147
116
133
149
152
153
162
157
167
172
188
166
132
118
134
120
109
173
212
209
207
201
200
195
190
181
176
168
130
91
80
70
40
43
49
50
52
60
46
42
57
83
107
119
126
129
135
144
155
161
163
161
164
165
167
169
169
172
156
94
99
109
111
121
137
146
149
153
152
152
150
151
156
162
165
164
161
159
157
133
194
189
175
149
125
143
148
151
155
162
172
162
138
126
138
149
150
153
160
164
169
167
184
171
139
114
131
125
115
155
211
211
210
209
203
197
198
190
176
169
170
162
153
137
116
111
97
93
87
98
81
110
122
125
125
129
133
138
149
157
164
163
167
165
168
168
168
171
172
173
146
95
104
111
108
128
142
150
151
154
153
153
149
146
154
158
168
163
162
161
158
132
184
183
167
142
129
140
143
151
155
172
170
158
139
128
139
151
150
153
160
165
169
167
182
172
148
115
123
127
120
146
202
215
211
209
208
203
200
197
189
179
174
170
162
158
151
145
139
130
131
133
132
131
133
137
136
139
146
153
159
164
166
169
169
171
171
173
175
178
178
174
132
103
107
116
110
134
145
150
155
155
158
152
148
148
151
160
168
166
166
161
159
133
188
185
164
136
128
137
140
149
164
177
166
156
139
124
142
149
148
157
158
165
166
166
179
170
150
119
122
129
126
148
202
214
214
213
213
208
206
204
197
190
181
174
168
163
160
160
153
143
140
136
136
137
140
146
149
153
156
162
164
165
169
171
169
173
173
176
179
181
187
181
115
106
109
114
119
138
148
153
154
156
155
157
153
145
149
158
163
167
164
167
161
130
