P2
# CREATOR: GIMP PNM Filter Version 1.1
92 112
255
248
251
246
248
245
248
248
253
248
242
253
238
244
242
238
234
231
225
230
228
226
220
216
215
222
217
215
215
211
211
212
213
212
209
211
211
216
205
210
210
207
214
216
217
216
212
225
222
223
226
226
229
226
229
224
234
232
236
237
242
223
229
237
239
231
230
238
225
221
218
217
214
213
215
211
210
202
207
205
206
206
207
207
203
204
201
202
203
200
200
200
167
244
247
242
242
242
254
247
249
238
252
250
234
246
242
242
236
230
226
231
227
223
224
216
215
220
217
218
220
214
215
216
210
217
210
207
211
214
204
205
210
208
204
211
212
213
213
220
219
222
221
222
225
226
223
223
238
231
234
232
239
223
223
234
234
226
223
231
218
222
214
215
221
214
212
208
206
207
205
204
206
204
205
203
203
205
202
201
203
202
203
200
168
238
243
251
244
249
248
234
247
251
244
237
243
248
236
248
235
234
232
228
231
227
227
217
218
220
220
216
217
220
215
210
214
211
211
208
210
207
208
199
205
209
195
201
213
211
214
216
216
213
217
220
220
223
221
217
226
223
227
227
234
219
227
228
220
223
221
223
219
219
217
217
214
210
210
209
207
206
205
204
206
204
205
202
205
204
201
200
202
201
201
201
167
238
237
242
250
243
248
251
243
242
247
241
241
250
237
249
237
231
231
235
226
226
223
223
222
220
224
217
213
217
217
211
212
212
214
207
202
194
191
194
184
163
156
186
177
204
208
211
219
216
215
215
221
220
220
214
225
224
219
223
229
215
224
220
231
225
218
223
220
219
212
215
213
211
210
209
207
205
208
204
205
203
205
203
201
203
202
202
202
200
201
201
167
233
236
245
247
248
242
246
249
243
254
247
241
237
239
243
237
227
233
232
231
229
222
225
219
226
217
211
211
215
217
211
217
214
211
211
207
204
200
189
183
185
169
158
146
147
185
180
207
202
206
213
215
210
219
211
212
217
219
219
227
216
215
217
219
215
217
216
212
210
210
212
207
213
211
208
205
206
206
204
206
203
204
203
203
202
201
200
200
201
202
202
168
236
234
238
241
243
233
246
245
248
245
239
243
236
238
240
235
231
237
227
239
228
224
218
226
221
213
212
213
216
218
214
209
207
210
214
201
200
194
189
177
172
174
181
173
139
145
155
147
177
179
198
206
199
193
186
198
187
216
214
218
216
218
217
216
207
215
212
214
213
208
211
208
210
207
206
202
205
204
204
204
205
203
204
203
202
203
201
203
201
203
201
169
232
234
231
229
238
237
248
236
235
237
237
241
232
244
238
226
235
233
229
234
218
225
221
222
215
214
220
211
209
208
212
210
207
206
201
189
174
152
142
148
158
144
158
147
158
132
121
127
129
149
141
153
134
156
140
161
169
202
217
213
212
216
213
207
186
197
215
213
207
208
210
209
207
209
208
205
206
202
203
205
204
203
203
204
202
203
203
204
202
203
202
168
226
232
229
227
233
231
229
243
247
242
246
232
228
239
239
236
230
231
224
234
220
225
221
220
218
213
218
218
209
208
209
196
190
164
138
130
117
114
119
126
138
137
143
140
129
128
105
109
107
100
104
78
100
117
125
123
145
182
212
224
214
215
214
201
195
184
214
212
204
201
211
207
207
208
205
204
206
203
205
205
204
204
204
204
204
203
202
202
202
201
202
169
227
221
228
235
225
230
228
236
242
248
244
236
225
236
239
233
237
237
226
227
220
226
229
219
213
216
213
210
210
206
202
165
139
131
121
119
129
122
123
125
123
128
119
102
99
111
111
90
82
87
68
71
62
82
105
118
116
147
196
204
204
213
206
203
202
169
213
192
200
207
209
209
209
208
207
206
205
202
206
204
203
203
205
206
203
202
203
202
204
202
201
168
225
217
220
220
224
225
239
231
226
235
229
234
226
232
234
230
232
226
228
221
219
220
219
216
212
216
209
215
211
211
185
156
138
114
100
108
130
114
109
113
125
128
104
92
82
77
102
80
69
75
76
66
67
52
64
93
93
109
156
193
216
202
204
203
204
170
193
180
194
211
211
207
208
209
207
205
204
204
205
204
204
203
204
204
203
203
202
204
202
203
200
168
215
222
218
215
220
229
222
223
234
221
226
228
226
230
226
222
228
224
225
220
224
227
222
212
210
215
206
211
213
212
171
130
93
80
83
83
116
109
87
95
111
120
121
89
86
83
72
85
68
68
65
64
61
62
52
55
72
73
89
168
200
192
200
201
158
170
194
162
193
203
210
208
206
207
210
206
206
205
203
204
203
203
206
204
204
205
203
203
202
201
201
167
215
213
216
216
215
216
224
218
222
224
225
220
224
220
222
224
222
218
221
221
218
219
221
211
209
185
166
187
208
192
149
89
101
90
71
64
82
102
103
80
67
92
101
110
82
75
69
73
77
65
59
65
64
52
50
34
47
55
68
109
172
188
150
156
133
178
170
168
162
211
208
206
207
204
209
206
205
204
206
206
204
205
205
205
206
203
203
202
203
203
201
169
211
212
215
215
217
217
215
217
219
226
223
218
219
217
220
218
222
213
216
219
217
217
216
218
200
165
143
130
149
155
112
77
78
89
90
71
77
90
96
89
77
77
72
79
84
79
58
52
80
76
58
54
58
47
42
36
31
43
43
40
119
133
173
156
133
124
129
116
190
213
211
209
207
206
206
205
205
205
207
204
205
205
203
204
206
204
205
205
203
201
202
168
211
211
212
214
212
214
216
215
216
217
217
216
217
220
217
218
220
215
216
217
209
213
208
181
131
101
108
108
121
121
111
87
67
55
70
74
71
75
78
72
81
70
73
70
56
66
68
51
55
66
59
57
48
47
41
45
32
27
36
40
54
141
163
165
145
101
97
100
185
214
206
209
205
207
204
207
207
207
206
207
206
206
204
205
205
204
205
204
202
202
203
168
210
212
211
210
212
212
213
215
212
217
216
219
217
219
216
217
220
219
215
214
216
217
196
121
112
98
110
117
102
131
127
90
67
42
41
51
54
71
55
67
54
65
55
60
59
38
55
52
48
60
55
47
49
47
33
39
31
38
29
33
35
59
150
151
140
68
54
86
169
216
210
206
205
209
207
208
205
209
205
205
206
205
207
204
205
205
204
202
205
201
204
169
211
214
211
214
211
212
213
214
214
219
218
217
217
218
219
216
217
218
219
213
215
211
154
95
114
95
98
105
117
98
109
81
81
81
65
65
73
63
55
61
51
58
45
47
55
48
46
50
45
48
55
48
45
38
35
40
39
39
44
31
38
36
96
157
133
59
54
60
160
211
210
205
207
208
206
208
205
209
206
207
205
206
206
206
205
205
204
204
204
203
202
169
210
210
210
211
214
213
216
214
213
214
215
218
216
216
217
217
220
217
219
215
222
181
156
62
75
107
100
113
105
93
88
78
56
53
52
53
48
54
49
46
45
43
48
49
44
45
43
36
34
45
54
36
36
27
27
27
35
39
35
42
35
38
42
73
92
60
47
52
141
200
211
206
208
208
211
207
205
209
207
206
206
206
205
205
205
205
205
204
202
202
205
170
214
209
210
214
216
211
212
213
217
214
217
218
216
217
219
222
222
221
218
218
226
179
123
68
60
58
63
90
95
74
80
70
56
48
41
36
44
38
43
46
36
42
53
61
53
48
46
39
43
29
36
45
51
35
30
37
27
27
23
49
40
33
37
29
46
40
36
47
91
168
206
209
214
206
210
208
206
207
206
205
207
206
205
206
205
205
204
204
205
203
204
170
213
211
214
212
209
213
212
217
212
216
214
219
215
216
219
223
220
217
214
217
219
167
108
79
79
96
85
57
58
67
70
66
63
58
40
50
41
41
41
43
46
30
25
23
29
46
46
47
60
31
33
47
36
30
27
26
18
23
21
21
49
36
28
29
27
25
20
27
42
127
194
203
209
206
210
208
207
205
204
206
207
204
206
206
205
202
205
203
203
205
203
169
214
215
215
210
208
212
214
211
211
211
214
218
216
224
221
230
223
213
225
212
206
124
100
86
80
92
96
94
97
103
91
68
67
65
65
57
52
50
46
49
54
60
63
59
50
53
49
40
48
30
32
34
31
32
30
23
27
18
22
19
31
45
36
28
33
18
17
15
27
69
180
195
206
199
207
212
206
206
207
206
206
206
206
206
203
205
205
204
204
204
203
169
214
214
215
211
209
214
209
210
215
218
212
218
219
217
219
224
221
214
218
188
113
78
75
70
75
95
115
110
92
70
71
63
57
57
62
58
64
68
60
65
70
61
58
48
44
42
45
49
50
43
35
26
29
33
36
33
29
19
17
20
15
34
46
27
29
18
18
17
17
35
149
199
206
201
214
206
206
206
207
206
207
207
206
206
204
205
205
204
203
203
202
169
211
209
214
213
210
210
211
216
212
210
213
218
216
215
217
230
219
207
175
105
71
67
69
69
73
106
115
105
69
58
53
40
30
41
37
45
35
44
49
67
71
67
58
61
64
58
69
65
62
54
42
41
22
19
25
37
28
29
23
17
15
18
41
52
28
30
20
13
16
29
99
182
194
203
205
208
206
206
206
207
207
204
206
207
204
205
204
203
203
203
201
168
215
213
208
214
214
212
210
217
210
211
214
216
220
224
221
228
215
182
133
104
79
63
59
68
78
79
94
75
68
66
54
52
43
54
62
38
34
31
25
26
41
52
63
49
41
35
38
53
47
47
41
41
55
29
17
29
39
41
38
43
45
23
29
43
40
26
26
17
19
19
37
95
175
200
205
207
205
205
206
207
207
204
205
206
205
204
204
204
203
201
202
168
216
211
211
211
217
215
209
211
212
215
215
215
211
217
223
225
186
140
103
110
88
69
64
68
86
82
88
66
59
60
60
50
50
45
40
31
49
28
26
23
23
23
37
38
48
42
43
40
45
57
30
27
28
38
42
35
40
29
28
29
16
11
13
30
38
30
22
33
26
27
45
89
169
181
202
202
206
206
206
207
205
206
204
206
202
204
204
201
203
202
200
167
219
210
213
211
209
210
211
210
212
210
214
213
213
217
219
209
175
103
92
88
81
73
79
77
58
71
102
96
78
78
56
50
47
37
32
32
37
21
21
27
27
35
40
49
48
49
46
45
51
46
43
41
25
29
34
57
39
29
26
17
17
12
9
15
24
28
23
38
22
31
37
59
134
177
189
202
207
206
206
206
204
205
204
204
202
204
201
202
201
200
201
167
216
209
212
210
207
210
212
215
211
210
209
211
211
216
214
208
155
90
80
69
74
79
60
68
87
81
90
87
105
102
58
49
35
28
29
31
24
24
26
29
32
42
45
47
51
40
52
51
56
45
54
37
40
36
48
41
39
43
43
34
28
13
9
11
13
24
27
31
20
19
36
46
89
122
178
201
205
206
206
207
205
205
206
205
203
205
201
201
202
201
199
166
214
209
217
207
215
214
209
215
208
209
210
208
208
212
204
164
93
78
77
72
79
64
80
59
64
82
71
81
68
69
61
58
46
41
34
22
23
24
27
36
34
46
41
39
51
36
40
59
43
47
55
43
39
34
48
49
49
50
52
48
35
23
13
16
9
17
21
22
22
18
33
37
71
154
168
195
207
207
205
206
205
205
204
203
202
201
201
202
201
201
199
167
215
210
218
209
212
212
209
208
210
214
209
212
204
205
198
138
76
84
71
76
76
75
58
74
90
61
61
78
88
58
47
42
44
42
34
37
27
35
34
32
28
28
40
47
45
54
56
51
46
56
57
52
50
49
59
74
81
73
63
64
58
41
28
13
9
13
18
17
22
21
22
34
47
137
182
193
203
206
204
205
205
205
203
204
204
201
200
201
201
200
200
167
215
211
212
207
210
208
208
212
206
211
207
208
201
200
163
121
79
66
68
76
56
63
78
92
88
95
115
113
111
72
56
48
38
36
39
38
53
37
35
34
32
38
48
52
58
64
51
48
52
58
55
57
62
69
69
92
93
92
85
86
81
69
46
28
16
11
17
15
16
19
20
22
37
68
161
200
200
205
204
205
205
204
203
203
204
201
202
202
201
201
200
167
209
215
211
210
209
208
207
211
208
207
208
206
205
164
120
91
64
61
73
62
51
74
67
66
64
40
53
80
78
62
85
60
51
46
43
48
40
37
43
32
30
41
45
60
68
48
47
46
58
57
56
68
77
78
81
96
104
114
117
114
108
103
79
60
36
20
14
18
12
14
17
16
28
34
140
202
199
203
204
204
205
204
202
202
204
202
203
200
200
202
200
167
209
211
211
209
208
211
208
209
207
207
209
202
199
177
123
90
50
66
64
49
79
69
68
66
66
66
63
73
79
58
52
45
45
47
47
39
34
37
34
39
37
44
53
55
58
60
57
66
58
65
71
69
90
99
108
118
133
135
138
140
131
126
117
107
70
37
21
16
11
11
12
14
18
21
74
181
200
204
204
205
203
202
203
203
202
201
202
200
200
200
200
167
210
208
207
206
206
205
208
205
208
205
207
201
198
142
123
68
65
66
46
62
72
71
71
54
58
70
70
80
69
57
39
38
46
53
50
47
46
41
43
44
44
59
65
66
61
47
40
49
63
66
74
87
102
111
124
137
142
151
148
161
153
144
143
141
116
66
26
17
13
12
10
13
14
16
40
124
201
202
203
204
204
202
202
203
202
201
200
200
200
200
198
165
208
205
205
206
208
207
204
207
207
208
201
199
187
142
120
73
60
46
44
75
58
52
66
57
67
78
72
54
42
48
46
41
50
49
47
49
50
49
56
47
59
56
55
56
57
51
44
56
68
70
88
102
103
123
131
135
150
157
153
162
171
164
169
160
145
118
46
19
12
11
10
11
11
16
23
75
200
199
203
203
203
202
201
201
201
201
200
199
200
200
197
164
206
205
206
204
206
209
207
207
205
200
192
195
165
142
116
70
47
43
50
61
77
70
62
69
59
59
65
69
57
52
49
45
50
43
51
52
53
66
54
53
58
58
62
59
57
41
51
62
80
89
95
108
115
132
132
146
148
151
160
177
177
174
184
179
169
153
108
34
14
13
11
9
8
14
27
46
190
200
203
204
202
202
200
202
201
200
200
200
199
200
197
165
204
205
205
204
204
205
204
205
205
205
199
189
139
112
91
62
61
56
60
61
89
85
49
59
45
35
37
42
52
52
61
52
48
54
65
55
52
59
64
77
57
55
57
56
47
27
50
67
78
99
109
104
123
136
141
156
161
165
170
184
184
184
188
187
180
174
148
67
23
15
14
14
10
11
21
92
174
199
202
203
201
201
199
201
200
200
199
199
199
199
196
163
205
206
205
206
204
204
205
203
206
203
185
184
126
105
79
58
52
53
61
57
56
72
70
52
60
59
59
60
61
60
58
70
62
70
64
72
71
77
82
67
73
72
51
39
37
53
73
92
101
113
125
122
126
143
148
152
163
179
177
182
190
190
196
197
199
186
176
128
47
22
15
11
10
16
19
75
195
202
204
203
201
203
201
202
200
199
199
199
198
198
198
165
205
206
205
206
204
203
204
204
203
206
165
125
91
94
77
76
62
50
51
41
63
83
70
43
38
52
63
62
72
76
87
80
84
72
71
63
62
75
63
79
74
56
49
54
59
77
95
110
116
127
126
132
134
154
161
166
177
182
184
189
185
195
197
198
202
203
192
170
100
33
19
15
16
21
25
71
190
202
203
202
202
200
200
201
199
199
197
198
197
198
196
163
204
206
206
204
204
205
204
205
205
207
155
130
121
73
76
69
62
52
47
50
57
81
80
62
65
73
79
90
99
91
88
81
88
90
88
81
71
74
81
60
70
59
56
58
79
89
111
118
128
132
138
140
146
160
169
179
179
184
186
184
194
196
199
203
204
204
193
189
141
85
41
19
15
24
26
70
176
202
202
202
201
202
198
200
198
199
199
196
198
196
194
163
204
205
204
204
204
203
204
204
204
204
189
161
101
71
57
71
66
61
50
56
52
76
89
70
69
70
77
83
89
96
101
105
114
110
108
95
91
84
81
75
71
59
68
80
91
113
120
129
133
138
150
155
156
169
174
179
182
182
187
186
192
196
199
202
203
205
201
197
174
124
88
35
21
36
38
52
134
197
201
202
201
201
200
201
200
199
195
196
196
196
196
163
206
206
205
205
204
204
205
205
203
200
200
159
107
54
42
53
62
67
58
63
69
84
96
84
72
72
92
94
101
99
100
117
114
120
106
99
92
93
90
88
73
82
93
111
133
134
145
143
146
157
158
164
169
172
183
188
189
189
189
186
190
198
199
198
208
207
207
203
195
169
146
92
33
36
53
49
116
200
201
201
202
200
198
199
199
199
199
197
196
198
195
164
206
205
205
206
204
206
205
204
204
199
196
178
99
73
64
63
43
65
56
60
62
74
68
93
91
92
93
90
99
111
120
110
118
112
113
101
116
108
101
80
97
109
115
131
143
157
161
165
162
160
166
172
176
179
188
189
194
192
189
188
188
197
199
204
208
212
213
211
203
196
170
138
52
37
48
55
93
194
200
200
201
199
200
200
198
198
198
197
196
195
198
164
206
205
204
205
202
204
205
203
205
203
202
194
108
72
78
52
34
41
40
70
109
86
81
94
83
101
101
105
101
119
130
125
119
133
111
120
118
102
91
111
115
121
133
147
167
173
176
175
174
171
173
178
183
185
188
193
191
191
192
191
191
199
201
207
209
211
215
219
212
207
192
160
83
41
48
52
101
199
199
200
199
199
199
198
198
198
195
197
198
197
196
163
206
205
206
204
203
204
205
203
202
204
204
199
192
109
55
66
49
47
55
97
137
122
121
129
125
92
94
109
115
97
93
96
101
112
119
102
106
94
114
115
130
141
152
171
183
188
188
188
186
179
184
185
180
190
193
198
198
199
195
193
202
205
207
212
212
214
209
213
217
211
202
178
108
46
44
48
92
198
199
200
197
199
198
199
197
197
196
195
194
195
195
164
207
205
205
206
205
203
204
204
205
204
204
202
201
196
165
63
57
48
66
124
167
165
161
150
149
142
103
107
125
131
121
116
118
107
110
107
101
113
128
134
145
159
169
180
188
198
199
197
195
190
193
191
193
191
201
201
200
200
197
202
204
207
206
208
212
208
210
209
212
211
203
181
114
55
43
37
106
197
200
200
198
197
199
196
198
195
195
196
195
194
193
162
207
206
204
205
204
202
205
203
203
205
203
201
203
203
199
140
65
58
76
144
180
189
181
175
161
160
167
116
106
136
133
148
150
142
121
104
141
136
146
146
158
174
183
188
193
198
205
204
201
200
197
199
199
205
203
208
207
207
207
207
201
209
207
212
208
209
207
207
207
206
204
184
124
58
43
44
96
195
199
197
197
198
195
195
197
196
195
194
195
195
195
161
206
206
207
205
204
203
204
202
203
203
202
204
205
204
201
184
97
59
89
147
187
204
202
196
188
179
172
172
164
136
111
125
113
130
168
163
153
157
148
151
163
175
185
191
198
208
208
204
191
204
200
203
206
207
211
207
208
212
210
213
213
211
211
208
206
211
205
205
199
194
201
183
123
65
44
43
131
198
199
197
194
197
198
195
198
194
195
193
195
195
193
161
206
206
205
204
206
205
202
202
202
201
202
202
201
202
203
200
122
60
95
145
186
209
211
207
200
193
190
187
186
183
176
172
164
176
172
168
170
163
163
168
178
188
201
207
210
215
217
220
220
217
220
218
216
216
216
217
220
215
214
215
215
214
211
209
206
204
201
203
194
193
194
177
126
68
48
47
137
198
196
196
196
195
195
195
197
196
193
193
194
193
194
162
205
206
205
204
205
205
204
203
203
203
202
203
203
203
203
204
148
72
95
142
182
212
211
207
203
197
194
193
196
198
199
196
207
204
196
186
177
177
176
180
184
197
205
212
216
217
217
225
225
222
223
225
223
218
221
216
221
214
213
215
213
211
211
210
208
203
201
197
195
193
189
173
123
67
47
50
140
197
195
196
196
195
194
194
194
195
194
193
195
191
192
160
204
204
204
204
203
203
202
202
202
202
202
200
202
203
202
203
166
68
91
135
185
210
211
205
203
199
199
196
200
199
193
197
205
205
198
188
180
184
185
190
194
204
210
210
219
221
223
222
223
222
224
223
221
223
220
220
213
202
210
210
214
214
214
216
216
208
204
202
197
193
192
178
132
74
44
55
156
195
196
195
194
194
193
193
195
194
193
192
192
191
192
160
204
202
202
202
202
205
203
200
202
200
202
201
199
200
203
200
179
77
101
152
189
210
210
201
198
201
202
203
205
209
201
201
204
197
202
191
181
189
188
194
201
207
215
216
222
227
222
224
224
222
228
230
223
215
215
208
203
205
205
200
205
213
217
219
218
219
215
210
200
196
191
181
156
86
43
58
182
193
193
194
194
195
194
192
191
192
191
191
192
190
191
159
200
203
201
202
200
200
198
198
198
198
199
198
200
198
201
201
184
84
102
152
189
209
212
207
202
206
206
207
211
208
208
204
202
192
195
191
187
189
194
197
205
210
214
223
229
225
226
219
226
223
223
221
216
211
210
202
199
196
198
201
209
210
216
219
216
219
216
209
200
199
191
188
175
122
43
52
166
193
191
191
192
193
192
191
191
190
190
190
191
189
190
159
201
198
198
199
201
199
197
199
199
201
201
198
202
197
198
196
192
94
112
156
198
210
207
206
205
205
212
216
215
211
212
211
204
195
192
186
187
187
186
199
203
212
212
218
221
220
216
217
217
212
213
211
210
204
203
197
190
196
201
210
213
215
221
219
217
216
210
206
202
198
188
190
187
153
55
51
178
192
191
190
190
192
190
190
189
190
189
189
190
190
189
158
200
199
200
198
199
200
198
198
197
198
198
198
197
198
199
199
192
99
118
184
211
212
208
208
209
210
213
213
219
215
213
214
211
206
195
188
185
179
183
196
199
195
206
213
210
207
206
200
203
201
199
201
194
192
193
192
195
204
206
207
205
212
215
211
209
204
207
209
200
184
175
187
188
176
75
55
179
189
188
190
190
190
190
190
189
189
186
188
187
187
189
156
200
198
198
199
196
200
196
197
195
197
193
196
199
196
198
200
195
95
133
206
215
215
211
209
213
214
218
222
214
214
215
220
216
208
193
191
187
180
180
180
187
186
190
198
198
187
183
185
184
184
183
179
178
182
180
185
201
194
189
192
182
178
178
176
185
180
190
200
200
189
169
183
188
188
125
58
171
188
188
188
188
188
189
189
188
189
186
187
185
187
186
156
199
198
197
197
195
196
195
196
199
197
195
197
198
197
198
202
197
116
147
216
216
213
210
210
211
213
218
215
205
205
211
212
202
189
184
183
179
176
177
179
167
166
169
175
179
174
170
168
167
161
158
156
159
165
157
164
159
155
148
132
140
138
144
146
139
148
168
169
169
174
172
177
183
186
166
58
183
206
186
187
188
188
188
188
188
189
187
188
187
187
187
156
198
197
196
196
198
196
195
195
195
196
193
195
196
195
208
227
192
108
161
219
216
212
206
206
204
205
207
196
186
187
176
170
162
157
146
147
146
138
149
148
142
138
145
157
163
164
162
154
153
151
138
131
132
126
108
83
85
83
92
93
95
101
109
126
120
113
126
132
137
142
164
174
174
180
182
76
168
194
184
185
186
186
185
187
186
189
187
188
186
187
187
156
197
197
196
194
198
194
195
197
194
195
193
193
194
195
203
202
198
110
181
219
213
207
204
207
187
185
182
167
157
147
134
121
112
97
94
87
69
65
85
107
104
105
122
139
152
158
157
152
139
139
119
108
97
90
74
58
46
33
36
40
43
59
78
83
92
92
98
103
116
126
140
164
171
181
187
104
141
177
183
185
184
183
186
185
186
187
185
187
186
185
187
155
199
194
196
197
195
195
194
193
196
194
195
193
193
194
199
118
199
108
199
218
214
207
200
173
145
161
143
133
129
130
109
87
76
51
45
36
38
43
60
68
71
83
92
118
142
152
153
150
143
130
113
83
83
69
53
44
32
31
42
56
67
65
79
92
98
101
101
97
96
110
131
156
172
180
186
121
101
145
181
183
184
183
185
184
186
188
185
187
186
187
187
156
199
195
195
196
195
197
193
192
195
196
196
193
195
195
204
118
136
108
205
218
214
204
182
157
145
131
116
110
105
101
93
72
47
38
37
33
32
36
41
53
63
73
85
108
135
146
148
140
139
130
109
92
77
60
46
29
27
35
47
58
65
63
66
76
92
99
106
108
107
112
120
143
170
179
186
145
75
157
182
182
184
183
185
184
184
186
185
186
185
186
185
155
197
195
195
194
196
196
194
195
194
193
196
195
196
193
202
152
98
110
211
218
211
191
169
136
121
118
111
102
93
87
88
84
77
74
64
53
44
37
35
44
55
62
83
113
138
159
163
160
151
135
115
91
64
42
25
37
49
39
37
40
49
59
72
62
54
58
88
103
114
121
130
149
169
180
183
156
84
160
181
182
183
182
183
184
185
187
186
185
186
185
186
154
198
195
195
191
194
196
193
194
193
193
195
193
198
196
200
178
112
108
213
219
206
187
161
137
127
123
119
111
100
83
57
50
58
56
43
40
35
51
47
33
37
55
75
122
148
174
181
179
167
148
120
85
58
42
42
48
40
24
42
34
27
34
43
36
54
68
62
82
100
115
131
149
168
183
183
159
80
174
181
178
181
181
182
183
184
183
187
187
187
186
186
156
196
196
194
193
195
195
194
192
196
194
195
195
196
194
198
192
129
120
214
216
206
184
160
137
125
114
94
72
45
56
48
46
31
35
27
40
26
41
41
47
50
60
83
129
166
199
209
205
196
166
128
83
74
66
35
72
80
29
16
17
49
54
112
72
44
51
67
88
102
121
140
157
172
181
184
172
98
180
180
179
180
181
183
183
184
185
186
186
185
185
186
156
192
192
194
194
195
194
194
195
193
194
195
196
197
195
199
199
164
136
215
215
207
188
165
142
116
97
79
67
58
39
31
85
66
27
19
20
41
72
99
52
62
96
101
132
183
216
234
231
215
188
141
97
96
69
67
92
117
41
41
40
45
87
112
81
79
86
99
112
123
140
152
167
177
186
185
171
129
181
179
179
180
182
181
181
184
183
185
185
185
186
186
155
193
193
193
192
193
192
191
194
195
195
193
196
197
198
197
199
188
142
214
216
209
197
177
161
143
126
109
94
80
70
73
124
120
35
44
33
38
103
93
77
71
103
111
144
198
229
242
240
224
202
158
112
89
96
83
86
104
94
58
57
74
116
99
95
103
114
128
140
146
154
163
180
188
186
184
172
141
181
181
179
181
180
181
184
182
184
184
185
184
186
185
155
192
194
195
192
192
192
192
193
193
192
195
196
196
195
198
197
195
139
211
217
207
202
192
182
171
159
156
148
143
133
104
113
114
106
53
52
92
102
94
102
91
108
130
169
210
237
244
245
222
202
164
134
113
90
80
87
89
94
108
112
95
96
98
114
121
124
134
145
157
161
174
189
194
190
181
166
137
179
178
182
180
181
181
182
182
185
183
184
184
186
183
154
194
193
192
192
192
192
193
191
191
194
193
194
195
197
196
196
195
138
211
216
212
208
206
202
188
177
167
158
153
146
133
112
101
93
109
96
89
87
78
75
93
130
163
190
222
233
246
246
230
204
178
157
133
108
87
72
76
82
86
86
89
96
114
118
120
132
145
158
164
171
184
194
195
185
177
161
130
181
179
178
180
181
182
183
182
182
183
183
183
185
184
153
193
191
191
190
191
191
191
192
192
194
192
193
193
194
192
195
194
143
208
217
215
214
214
213
203
192
179
173
164
154
141
131
111
105
95
89
81
75
84
98
127
159
191
208
220
236
243
244
225
206
188
175
159
138
112
97
95
94
94
95
99
103
109
125
138
151
161
171
179
183
187
197
197
188
172
160
131
175
179
180
178
181
181
180
182
182
183
184
184
185
184
153
192
189
190
189
191
192
190
191
193
191
192
192
192
191
193
193
194
151
205
216
216
218
219
216
216
204
194
182
173
168
151
132
123
110
100
97
102
112
110
133
166
184
207
219
226
238
244
246
227
210
198
190
173
158
145
126
114
115
121
131
130
136
146
151
158
166
178
188
190
188
192
195
195
182
165
155
130
180
180
180
179
181
180
181
181
181
182
182
182
183
182
153
191
191
191
191
189
190
190
190
188
191
190
191
191
191
191
193
195
157
195
213
214
219
216
217
224
212
207
197
188
183
181
174
166
157
148
138
132
128
153
176
185
200
215
222
232
239
247
251
233
214
201
198
184
172
164
154
144
134
132
133
141
153
160
165
175
183
192
193
194
192
193
193
188
178
163
139
137
175
178
177
179
181
178
179
181
180
181
182
182
183
184
153
190
190
191
190
190
189
189
190
190
187
188
189
189
191
189
191
193
180
187
212
211
217
220
222
223
203
208
207
195
189
180
177
168
157
152
148
163
174
189
190
197
207
216
225
233
239
247
252
240
218
209
202
194
180
173
174
171
163
155
156
156
163
169
176
182
195
193
193
191
191
191
189
190
176
161
124
153
175
177
177
180
179
178
179
179
180
181
181
181
183
182
152
189
191
191
188
189
188
188
188
189
189
188
190
187
189
188
189
190
193
176
211
211
217
220
222
224
217
216
215
211
202
193
184
180
179
178
187
188
191
197
195
202
205
217
225
230
240
247
252
242
221
212
201
185
178
172
180
183
177
175
180
179
182
187
191
191
189
187
184
191
193
190
189
180
171
157
109
171
178
178
177
178
179
179
178
178
178
179
179
180
180
181
151
189
189
188
189
188
189
188
188
188
186
190
187
190
187
187
187
189
192
160
205
212
217
220
222
220
219
213
210
212
210
206
202
199
195
197
192
191
196
201
203
195
196
210
225
234
241
248
255
242
227
217
203
177
159
166
179
182
190
192
193
194
194
196
192
191
189
192
195
192
192
188
184
179
169
147
111
170
177
177
175
177
179
180
179
177
179
178
179
179
176
179
151
189
189
186
190
188
188
189
185
185
187
186
186
187
189
187
188
186
186
163
194
208
209
221
221
222
221
211
215
216
211
215
206
199
198
197
199
199
193
193
190
181
186
215
229
236
242
252
254
241
226
219
200
180
154
149
171
184
194
197
199
200
206
202
199
196
196
195
194
199
193
191
184
180
165
145
114
168
176
177
175
176
177
178
178
177
178
176
176
179
180
178
149
188
188
187
188
187
187
187
185
185
186
185
185
185
187
184
185
184
184
167
182
207
209
218
220
218
224
220
216
215
213
218
212
212
208
202
198
195
189
186
174
155
195
218
231
238
240
251
253
237
223
220
200
194
181
140
158
178
192
200
206
211
211
202
204
199
199
206
204
199
196
191
183
170
161
136
133
169
175
172
173
177
177
178
178
176
176
176
176
177
178
175
149
190
187
187
187
187
187
186
186
186
184
184
184
184
186
185
185
185
184
174
165
204
213
218
220
224
225
227
225
217
216
224
219
215
214
208
205
198
188
175
158
164
218
230
233
239
240
243
244
231
222
213
198
202
201
178
151
177
189
199
204
209
209
209
207
205
205
209
205
200
194
187
181
168
156
118
141
172
172
172
173
174
175
177
176
176
174
176
176
176
177
175
149
186
185
185
187
185
184
186
184
183
185
185
184
181
183
183
183
183
183
181
143
198
211
217
219
221
219
225
230
229
224
225
221
215
213
208
199
195
183
166
155
215
224
225
222
220
227
226
228
216
205
191
183
193
193
193
158
174
186
195
202
209
205
208
208
210
207
209
207
201
192
184
177
167
146
100
153
172
173
174
173
175
175
175
176
175
176
176
176
176
176
177
149
185
184
185
184
184
182
183
182
184
183
183
183
181
183
183
182
183
182
181
146
179
204
218
221
220
219
221
227
232
227
224
226
219
208
203
198
190
177
160
169
216
214
199
191
187
192
194
192
181
172
149
142
145
145
152
160
172
181
195
203
206
211
212
208
206
206
202
199
200
192
180
175
158
139
94
164
171
171
172
173
173
174
176
176
175
174
174
175
174
174
175
148
185
184
183
183
183
183
182
184
183
183
182
182
183
183
183
182
181
183
182
159
165
204
213
223
223
225
226
226
227
223
220
219
214
203
200
195
185
177
174
178
178
164
153
150
152
155
155
150
143
134
128
112
67
106
125
144
184
191
192
199
203
207
210
206
205
201
194
194
194
184
173
166
153
137
99
166
170
172
170
171
171
172
175
173
175
173
173
174
172
176
174
147
183
184
185
183
182
182
183
183
181
182
182
182
182
181
182
181
181
181
182
163
143
191
213
220
223
225
228
224
220
218
218
214
213
205
197
191
187
189
191
179
138
115
54
34
88
135
128
127
124
124
94
38
44
65
105
155
200
199
197
196
198
205
207
206
200
194
194
185
186
177
166
159
145
117
109
168
169
169
169
170
171
173
173
173
174
173
172
173
173
174
173
145
183
182
182
183
183
183
182
181
180
181
183
182
181
182
180
179
181
180
181
175
129
191
205
217
220
225
225
219
219
213
212
215
211
205
198
196
194
195
206
195
127
91
78
82
87
93
124
114
110
101
79
86
80
86
101
152
206
209
200
196
199
200
203
199
192
193
184
178
176
169
164
156
137
111
132
169
169
169
169
171
170
172
172
172
173
174
172
173
174
174
171
146
184
185
181
182
183
184
182
181
182
182
181
181
182
180
182
180
180
179
181
178
153
188
204
212
217
219
218
216
212
211
211
211
207
201
186
192
197
208
214
208
161
125
96
92
108
107
108
105
102
85
89
89
95
118
137
158
212
216
212
195
199
191
196
193
188
181
176
172
168
165
159
148
141
105
151
168
169
170
170
171
170
172
172
174
172
173
171
172
174
173
173
146
182
182
182
182
183
181
182
180
182
183
180
179
181
182
180
180
180
180
180
180
167
165
203
197
213
212
211
208
209
209
210
207
205
198
198
204
215
216
223
218
179
173
167
152
140
125
126
118
116
112
115
118
127
140
148
163
207
215
213
206
198
196
195
188
183
175
169
167
164
158
154
141
137
112
157
166
167
168
169
170
169
171
171
170
174
172
171
172
172
175
173
146
181
181
181
181
181
181
180
181
182
181
180
181
180
180
180
180
180
180
180
180
176
135
200
200
206
202
204
200
201
203
200
199
198
201
203
208
210
215
219
214
193
179
173
161
153
134
129
132
127
118
109
114
125
140
147
170
190
202
200
198
196
190
186
183
178
172
168
159
158
153
153
144
141
97
167
165
168
168
168
169
168
170
172
171
170
172
170
172
172
174
175
146
183
183
181
182
181
181
180
181
181
182
181
181
180
180
181
179
179
179
180
179
175
121
194
197
199
195
196
195
192
191
193
191
193
197
197
197
198
196
193
201
194
176
155
122
139
134
131
133
124
107
106
77
99
119
143
159
179
169
171
185
188
183
182
179
172
170
163
157
156
155
148
144
117
144
168
167
166
166
167
168
169
169
171
171
170
171
171
172
173
172
175
145
180
180
179
182
179
179
180
181
181
182
180
181
179
179
180
178
179
178
179
178
179
163
173
201
198
196
188
190
184
179
175
181
186
192
190
184
167
171
170
180
180
149
136
136
114
122
128
117
122
99
102
100
89
99
119
142
148
120
133
160
170
175
176
173
168
160
155
152
153
151
152
147
110
168
166
166
164
167
167
166
167
170
170
170
171
171
170
171
171
173
174
145
179
181
181
180
180
180
179
180
180
179
180
179
180
179
178
177
179
179
179
180
180
180
150
197
194
193
184
179
179
176
173
182
189
181
168
149
138
113
135
150
157
153
123
115
120
117
108
105
117
113
91
103
111
100
106
116
110
98
86
103
144
160
170
171
165
159
154
153
152
153
147
146
120
167
165
166
166
166
166
167
168
167
168
167
167
170
170
170
170
172
173
146
181
180
181
180
180
180
179
179
180
180
180
178
179
179
178
178
179
178
178
180
180
180
156
187
191
186
186
175
176
178
183
184
183
162
140
112
88
67
82
119
127
129
116
122
131
125
109
114
105
105
122
122
117
115
117
106
86
78
54
67
122
145
158
164
160
154
152
149
152
149
144
120
141
164
164
165
166
165
166
165
165
167
168
168
167
168
168
169
169
171
169
144
179
181
178
180
180
179
180
180
179
179
178
180
178
178
178
178
179
177
178
180
180
180
174
161
185
185
182
173
171
174
177
180
178
146
126
81
57
37
44
84
107
129
134
149
166
167
154
148
152
153
152
131
132
125
109
97
68
49
58
78
120
139
154
164
161
153
150
154
154
144
139
99
160
161
162
163
163
166
163
164
164
165
165
167
166
166
168
169
169
169
171
143
179
180
179
179
179
178
179
181
179
181
179
182
180
180
178
177
178
178
179
177
178
178
178
161
178
178
179
175
173
179
183
192
180
151
121
91
68
85
85
71
68
101
109
120
119
131
145
148
140
125
105
96
92
78
54
58
85
103
104
114
135
144
154
160
161
153
149
156
148
142
120
128
159
159
161
161
162
164
164
163
164
164
164
165
165
165
165
167
168
170
171
142
181
181
180
180
179
178
178
178
178
179
179
178
179
179
177
177
177
178
179
178
178
178
178
167
145
176
177
179
181
189
186
187
178
153
132
104
117
133
132
137
143
119
88
100
73
68
75
89
85
70
55
68
62
86
114
121
123
136
141
142
143
152
157
156
157
146
150
148
144
128
86
150
156
159
160
160
162
160
162
161
162
162
163
164
165
166
167
166
168
170
170
142
181
181
179
179
178
178
178
178
180
177
177
178
178
178
177
177
178
178
177
177
176
177
178
179
125
167
173
179
183
189
184
188
180
164
145
135
150
159
170
157
166
173
173
175
159
139
114
104
93
93
111
125
142
143
136
128
143
158
165
165
155
157
155
153
154
149
145
137
138
108
118
153
153
155
157
159
160
161
160
161
161
163
163
162
164
163
164
166
166
169
170
142
180
180
179
179
177
180
179
177
177
177
178
177
177
177
176
177
176
176
177
175
175
177
174
175
151
130
163
166
178
184
183
179
176
162
152
160
172
185
198
187
160
166
167
180
176
187
178
174
173
159
146
146
143
133
131
138
156
169
174
169
165
157
150
147
148
145
139
136
130
88
144
151
152
154
156
157
158
159
159
159
159
162
160
162
161
163
163
164
166
168
168
141
180
179
179
177
179
179
179
176
178
177
178
177
175
175
177
177
177
176
176
174
174
174
174
171
172
108
152
149
172
180
179
172
168
156
162
177
192
195
202
200
177
153
139
148
152
150
149
152
140
138
131
128
119
115
133
149
163
171
173
171
158
150
148
145
144
139
131
129
92
97
143
147
149
152
153
155
157
156
157
159
161
160
160
161
162
162
161
162
164
165
167
140
179
178
178
178
178
177
178
176
177
176
176
177
176
174
175
174
175
175
173
174
173
173
173
171
171
157
101
150
163
167
171
163
163
162
169
180
195
197
198
196
186
168
144
129
114
103
106
102
96
96
100
106
114
128
137
150
159
166
171
165
154
152
147
141
139
135
126
110
64
138
145
145
147
149
151
153
153
155
156
158
158
159
159
160
159
160
162
160
163
164
165
139
178
177
176
177
176
177
177
177
176
177
177
175
175
175
175
174
173
173
172
173
173
171
172
172
167
169
92
118
142
150
162
162
161
165
165
181
191
194
194
190
184
166
151
127
116
101
89
92
90
90
94
111
116
127
140
150
159
159
162
162
151
146
143
140
138
128
112
64
92
106
121
134
143
146
148
151
151
154
155
156
156
157
158
159
158
158
159
160
161
161
165
139
179
175
177
179
179
177
176
176
176
176
174
176
173
174
175
173
174
172
172
172
173
170
173
173
164
124
122
86
124
127
154
158
158
155
164
178
178
185
189
189
179
172
151
134
111
101
89
89
91
88
85
105
118
133
143
152
157
156
156
150
144
138
139
136
132
118
79
78
159
145
103
92
99
133
147
149
150
151
153
154
156
156
158
156
155
157
159
158
160
161
165
138
179
176
177
174
176
178
176
174
174
175
174
173
173
173
173
172
171
169
170
173
177
180
155
120
121
98
132
117
64
85
134
148
147
143
156
174
182
188
190
188
183
171
153
132
117
112
104
101
84
97
105
114
126
136
145
152
157
156
152
149
141
129
125
109
114
94
52
134
155
170
108
74
95
85
113
144
147
150
151
153
156
155
157
156
155
155
157
158
159
159
161
137
178
177
177
176
175
176
176
175
175
173
173
173
172
173
172
175
181
186
192
194
176
160
161
147
141
131
135
131
131
65
106
141
148
149
153
164
162
185
190
193
191
182
167
147
139
130
115
98
113
116
119
131
134
145
155
161
159
155
152
139
120
124
116
91
96
51
83
145
154
166
156
45
95
103
67
93
140
151
150
151
153
153
155
154
155
154
156
157
158
158
161
135
177
176
174
175
175
176
175
175
173
173
172
171
177
172
177
179
173
181
195
179
164
179
140
161
135
133
134
130
196
103
87
103
116
132
139
148
165
181
192
196
197
195
184
172
158
145
145
125
138
139
140
148
154
161
168
169
155
148
137
135
112
102
97
75
65
57
137
148
155
165
165
97
77
97
98
108
108
122
138
152
158
161
161
159
159
155
154
155
157
158
160
135
180
176
176
175
173
173
173
173
174
173
174
187
176
183
167
134
140
176
144
166
172
164
139
165
125
136
136
122
200
184
65
67
91
101
134
149
156
171
186
199
203
202
200
192
177
176
168
167
170
155
159
165
174
172
170
171
168
140
132
121
110
68
74
64
37
127
142
149
155
164
168
128
72
83
91
97
125
133
121
105
143
143
127
138
143
174
174
163
155
160
161
135
191
173
165
178
174
173
172
175
183
193
209
176
193
157
173
146
131
146
174
188
172
149
158
158
110
137
133
119
202
193
164
49
62
80
116
142
144
166
174
189
189
199
201
194
190
194
188
182
181
168
168
175
172
175
173
168
153
142
124
105
88
59
59
32
96
145
148
149
155
163
167
151
79
83
96
87
123
137
149
150
148
150
154
158
168
165
146
180
181
176
174
143
202
191
158
151
167
170
170
167
179
171
171
200
183
145
161
152
141
156
184
179
162
142
171
150
109
139
133
121
205
197
193
165
110
70
94
114
141
149
169
164
172
187
186
188
185
188
183
177
178
160
157
166
165
167
151
152
136
129
108
86
64
50
44
98
140
145
147
150
158
166
168
154
77
87
95
87
124
137
140
153
157
155
153
150
157
171
173
157
156
154
155
127
209
198
175
157
167
172
177
174
171
178
188
200
187
148
145
163
137
153
175
173
157
149
178
152
103
138
132
117
190
199
194
190
171
123
78
104
114
126
139
133
143
162
159
179
161
167
158
166
159
155
152
151
142
132
148
125
116
103
88
67
45
48
84
137
143
147
151
154
160
162
168
145
79
90
93
88
129
137
138
146
152
159
153
151
158
169
173
171
170
170
168
142
208
196
179
157
161
164
170
171
173
178
186
195
186
150
138
159
147
152
172
172
156
163
184
150
105
137
131
117
160
202
196
194
183
172
110
75
74
95
111
113
105
121
133
163
162
158
150
153
151
140
144
134
131
107
109
91
88
76
46
45
43
109
136
141
146
149
152
154
159
161
168
134
82
91
95
96
129
138
144
142
148
156
154
152
155
167
170
170
168
165
167
141
206
197
181
156
159
167
178
178
172
170
181
188
188
155
136
152
160
149
163
168
155
172
186
154
113
139
130
121
122
203
200
193
191
186
171
128
84
72
87
68
92
99
104
123
129
134
139
136
132
126
124
117
104
100
87
77
60
43
24
49
105
135
143
144
149
152
154
159
159
165
165
117
82
93
103
101
132
142
144
147
150
152
150
149
157
165
170
170
168
165
166
136
204
196
179
157
150
158
170
163
161
167
179
184
183
145
131
150
160
158
156
163
164
177
184
156
120
137
132
118
99
202
206
201
196
190
185
177
132
74
61
69
78
87
93
100
105
115
121
113
113
106
106
82
79
76
60
53
37
30
64
125
133
140
144
148
151
156
161
157
163
166
165
105
85
98
107
105
128
146
150
149
150
150
149
153
158
163
168
168
165
167
166
140
202
196
177
155
141
158
166
164
160
175
181
178
167
132
128
146
152
162
153
154
159
175
188
162
129
131
128
116
92
195
205
203
201
196
190
182
174
168
89
62
79
66
72
72
73
83
86
106
94
87
77
73
63
53
39
40
60
104
132
133
140
145
152
155
158
159
159
163
166
167
162
99
94
102
110
113
131
147
153
152
151
152
148
155
158
168
168
167
167
164
165
136
202
192
175
151
136
152
158
167
163
166
164
164
146
119
129
145
152
159
157
156
162
169
185
167
129
121
129
115
104
178
207
207
204
201
199
190
184
177
173
148
99
59
59
50
43
50
59
72
63
69
52
49
46
53
62
95
122
128
131
137
147
155
157
158
162
162
162
167
168
170
155
93
94
101
108
119
135
146
152
153
152
149
146
151
156
165
167
164
164
165
157
133
197
189
179
150
130
145
149
154
155
153
166
167
144
120
134
148
151
152
159
159
169
170
187
169
136
113
132
118
110
152
210
210
209
206
204
197
193
185
178
175
162
150
133
112
79
79
59
64
59
76
53
74
98
113
119
125
128
133
141
148
156
159
162
161
166
166
167
169
171
169
147
95
97
108
109
125
139
147
149
155
156
151
151
150
156
158
166
162
160
158
157
132
190
188
174
147
125
144
147
150
153
165
173
159
139
125
139
148
150
151
159
165
168
165
184
172
141
111
128
124
114
140
201
213
211
210
208
198
201
194
183
168
172
165
157
150
144
135
128
121
125
122
117
132
131
129
131
133
139
145
153
158
162
163
166
166
168
169
170
174
172
171
138
96
104
111
108
129
142
150
152
154
155
152
148
147
153
159
168
163
166
162
159
134
186
187
168
142
130
139
143
151
156
172
167
158
136
126
142
149
151
152
158
163
171
167
181
171
148
115
121
126
119
138
193
216
214
211
211
209
205
202
195
186
178
172
166
159
156
150
145
135
133
132
134
135
137
139
138
144
150
156
160
164
165
170
170
174
173
176
175
180
179
170
125
105
108
117
110
134
146
151
154
155
156
154
151
149
153
159
164
167
165
160
157
130
186
188
163
137
128
134
139
148
163
172
165
155
137
124
141
151
149
155
157
164
166
168
180
169
152
123
116
128
125
141
194
214
214
214
213
211
209
209
205
197
189
178
172
169
165
162
160
154
150
142
139
141
142
148
152
156
159
165
165
167
169
170
172
169
171
177
178
182
185
174
108
106
113
115
121
139
150
151
156
157
156
157
153
148
150
157
162
166
164
168
163
133
