P2
# CREATOR: GIMP PNM Filter Version 1.1
92 112
255
241
240
234
246
242
229
231
229
229
234
228
224
228
225
220
219
218
214
217
217
213
213
213
213
209
209
210
205
208
207
209
207
211
210
210
212
211
214
213
209
212
218
212
219
222
223
221
230
224
233
236
231
241
246
243
249
243
250
243
254
251
247
251
250
241
242
246
242
243
229
240
227
229
218
218
213
211
213
206
209
209
207
209
207
205
202
203
202
201
199
199
167
244
237
240
233
243
240
239
232
230
228
228
222
232
226
225
220
225
217
218
218
217
214
211
217
208
211
212
208
210
209
209
210
211
210
209
214
210
213
213
211
213
218
214
218
218
219
228
231
224
236
232
232
235
245
240
242
239
255
247
252
245
251
253
254
242
244
242
245
243
230
228
225
226
219
210
211
212
209
203
206
206
211
208
204
205
205
205
202
200
199
199
167
238
252
249
246
249
233
236
243
236
236
239
232
227
229
229
220
226
219
222
219
218
217
212
215
215
215
210
210
210
209
211
213
212
211
211
212
205
213
212
207
214
213
215
218
215
218
226
228
225
223
232
231
231
243
245
241
242
250
235
253
247
254
250
249
251
240
247
245
242
227
227
229
225
217
209
210
215
211
201
209
209
212
208
204
202
202
202
201
198
201
198
167
247
251
248
253
245
244
249
245
240
242
239
241
232
240
233
227
237
224
227
221
221
215
211
214
215
208
210
214
206
213
213
210
211
208
213
210
210
211
212
208
213
211
217
215
218
218
228
223
231
222
234
235
228
241
245
235
243
240
241
251
241
252
245
245
248
243
238
238
236
225
221
224
227
216
208
210
215
210
204
205
209
213
207
204
202
202
204
201
197
198
199
165
246
250
244
253
250
249
248
241
247
242
247
238
239
244
236
230
238
225
228
226
226
217
213
212
212
211
212
212
208
214
214
209
210
214
211
212
209
211
210
209
217
211
210
217
215
216
232
223
225
226
230
211
218
230
222
218
204
223
223
248
232
248
244
241
248
238
239
240
236
231
221
224
227
220
208
209
208
209
208
207
208
205
202
200
201
205
199
200
198
200
199
167
247
240
247
249
242
250
250
251
244
245
252
239
250
245
241
236
244
222
228
229
221
219
217
211
209
211
213
213
207
205
209
209
212
214
209
210
210
213
211
211
213
212
212
222
216
213
222
210
221
216
223
219
216
229
226
206
196
200
179
172
203
242
238
237
248
233
235
235
231
223
220
222
220
218
215
206
208
205
207
208
209
203
204
201
202
202
200
200
199
198
202
166
245
245
250
251
251
247
246
249
248
248
251
249
244
232
240
237
245
232
230
227
222
220
220
217
214
213
214
211
213
209
208
212
211
213
206
210
209
212
211
215
210
214
215
217
217
216
218
217
206
208
219
217
225
224
218
223
178
183
181
149
136
175
220
235
242
230
227
225
223
222
228
221
218
215
209
210
206
206
208
205
206
202
205
200
201
205
199
201
201
199
200
167
243
243
243
246
249
245
251
246
254
242
249
247
240
239
245
235
246
230
231
232
225
224
220
223
213
212
214
213
218
214
211
213
210
210
210
211
209
211
210
210
207
212
201
209
215
209
199
195
176
166
168
193
203
222
219
211
196
174
187
182
165
115
147
189
223
229
225
224
225
223
215
217
213
213
204
209
207
204
206
203
203
201
203
201
199
201
200
202
200
199
199
167
241
241
246
244
250
253
247
251
250
241
252
241
248
243
247
237
248
235
232
231
229
219
220
219
218
218
216
216
209
214
213
208
209
207
212
208
209
209
211
208
209
208
213
217
203
173
142
127
120
123
136
144
131
141
141
155
163
156
142
148
153
153
113
123
172
213
216
222
206
212
215
217
216
213
206
209
209
205
204
205
202
202
201
200
201
202
199
201
201
199
200
166
233
243
235
247
243
245
254
246
247
246
251
247
248
250
245
237
248
232
231
234
227
222
219
219
224
218
218
209
208
214
215
209
212
212
213
212
210
207
209
205
204
208
209
207
192
140
120
111
117
121
135
142
131
138
126
124
108
103
101
118
131
114
109
100
114
127
185
187
179
212
209
217
215
208
204
209
206
208
206
203
202
203
200
198
201
201
200
201
203
200
199
166
231
245
234
247
243
251
250
249
244
252
248
252
247
249
237
240
248
237
229
233
224
230
217
220
217
217
214
209
209
214
216
213
212
212
210
212
211
207
196
193
188
203
205
189
141
81
84
84
103
118
115
120
114
100
107
106
113
100
100
80
83
93
94
74
78
99
107
139
153
195
205
205
203
200
201
205
202
204
207
201
203
202
200
200
201
202
200
201
200
200
200
167
235
237
239
242
242
244
240
243
235
248
248
234
242
244
238
242
243
230
236
231
227
228
221
222
219
223
211
213
210
206
212
214
211
212
209
209
207
199
184
166
137
133
150
128
64
66
65
68
100
94
111
84
89
88
81
78
87
83
105
96
79
67
76
73
59
82
87
108
118
172
194
181
207
207
204
201
201
204
204
202
202
203
203
200
201
203
200
200
199
201
200
167
231
231
232
233
247
236
240
241
243
241
248
247
245
234
235
239
244
241
236
232
223
232
228
223
220
224
210
213
216
209
209
212
207
205
207
205
199
157
113
89
110
121
131
141
133
100
72
72
82
82
85
77
63
68
66
57
52
70
84
99
105
91
63
72
57
68
70
75
88
124
190
196
198
204
198
203
199
203
203
201
204
205
202
201
200
200
200
200
200
200
201
167
228
224
229
244
234
249
241
230
246
243
250
250
253
241
233
242
243
239
236
236
225
222
219
226
225
219
210
218
210
212
212
211
210
208
207
197
122
82
83
102
108
118
124
119
109
101
83
56
65
61
73
76
56
46
58
52
65
40
59
62
84
97
88
55
54
58
61
65
57
75
144
186
185
200
200
200
200
203
204
201
202
203
203
200
200
201
201
200
201
201
201
168
223
221
232
237
223
233
235
234
242
238
243
244
249
242
236
243
242
234
236
230
230
219
221
225
221
210
218
213
211
214
210
211
210
212
203
168
72
65
64
75
77
103
115
117
95
78
72
64
67
53
66
78
63
59
51
44
39
41
37
48
50
71
81
79
55
45
55
51
46
56
77
146
171
191
199
202
201
203
203
202
201
202
203
200
202
200
199
202
200
200
201
166
221
220
218
224
228
230
231
235
233
226
231
242
228
244
237
241
241
230
234
228
233
223
222
228
226
210
214
215
214
214
211
217
210
205
188
95
57
58
44
65
64
58
70
85
76
60
48
49
55
46
42
29
43
43
43
50
41
35
36
40
40
51
65
60
70
50
42
48
49
46
62
100
158
172
198
200
200
206
202
201
201
202
204
202
201
202
202
201
200
200
201
167
220
213
220
219
218
223
223
223
226
232
232
238
237
229
238
234
229
233
229
223
221
226
222
220
216
213
215
212
208
217
206
199
187
166
114
87
86
67
66
55
75
77
73
61
52
53
46
43
49
42
44
38
32
36
29
28
33
35
33
28
32
34
46
46
59
60
40
41
46
44
42
49
114
126
195
200
202
203
202
202
202
202
205
202
203
201
201
200
200
199
200
166
214
211
216
215
221
220
220
222
227
220
234
227
242
222
230
226
232
223
222
221
216
225
220
220
215
215
214
214
209
218
196
148
135
112
83
67
85
87
82
79
92
113
119
88
59
56
64
50
63
73
62
59
53
45
35
29
26
31
30
21
29
39
30
38
39
58
42
32
37
50
44
56
60
138
194
204
202
200
203
203
200
202
203
201
202
202
201
201
201
199
201
166
213
214
211
212
212
214
214
218
220
215
224
224
220
223
227
218
216
221
224
221
216
221
218
224
215
215
216
211
205
195
124
103
98
100
92
84
78
68
50
51
62
88
105
102
68
56
83
62
53
47
42
42
35
32
39
34
16
24
25
34
33
34
38
22
31
50
43
39
39
38
48
56
44
120
178
195
203
202
201
203
202
202
203
203
203
201
201
200
200
198
200
167
211
213
212
212
210
211
214
215
216
219
216
220
223
226
225
221
218
220
220
219
216
214
217
215
215
213
215
210
203
134
95
91
87
74
79
81
82
56
59
73
95
80
69
66
60
61
54
28
26
25
31
40
42
40
41
62
64
54
44
42
36
29
26
29
28
42
31
37
25
29
35
43
48
72
119
184
202
202
203
202
202
201
202
202
203
201
202
201
201
200
202
168
208
211
207
209
211
211
213
211
216
216
217
219
219
219
225
215
215
216
218
217
213
213
217
213
215
213
211
210
163
101
85
85
91
94
97
87
77
68
70
82
84
74
59
66
78
56
62
43
23
30
34
34
35
39
46
43
41
48
51
48
40
29
25
26
25
26
36
38
31
19
29
41
42
50
66
99
197
201
204
203
202
202
203
201
202
203
200
201
201
201
201
168
209
210
208
209
208
209
213
214
210
217
216
217
217
216
215
216
215
214
217
218
215
213
214
214
214
215
211
188
110
84
82
82
76
88
78
65
70
75
66
70
78
79
62
60
48
48
56
48
52
32
41
26
15
19
19
42
36
41
40
46
56
49
42
46
37
40
20
35
40
31
18
24
46
56
50
59
136
200
202
204
202
202
203
202
204
203
203
203
202
202
200
169
210
207
210
207
212
212
210
211
213
213
212
213
213
213
215
212
212
217
215
214
215
212
214
215
217
214
195
126
96
76
74
69
71
86
70
54
61
57
60
47
56
51
86
92
84
75
54
42
63
46
36
21
17
16
13
25
16
25
26
20
24
42
36
35
33
33
29
20
32
37
27
22
30
44
58
85
63
200
201
204
202
203
202
201
201
205
204
203
202
202
200
167
209
208
213
210
212
210
206
208
211
210
211
212
212
212
212
216
216
219
215
215
216
211
221
215
211
150
110
85
80
79
67
62
65
59
73
56
55
54
48
51
61
74
70
63
68
69
50
50
39
39
30
22
20
16
18
15
19
19
24
26
33
33
37
43
38
29
26
39
29
31
34
35
32
38
59
75
69
204
200
201
199
202
204
203
203
204
202
202
202
201
200
167
209
208
212
208
211
211
211
212
210
207
213
214
211
213
215
217
216
217
218
214
220
216
221
207
181
130
68
65
69
72
59
69
56
64
56
60
49
42
44
43
73
85
81
69
80
89
74
57
55
43
24
26
23
17
17
19
25
26
22
22
26
27
37
46
26
41
21
22
27
40
45
30
26
36
34
54
38
175
203
199
201
204
202
203
203
203
202
200
201
202
200
167
210
207
209
209
208
211
210
208
213
215
212
209
213
215
215
216
215
219
217
214
228
213
224
202
135
91
54
68
63
56
65
48
59
59
58
49
55
36
39
66
76
72
74
80
96
81
77
65
58
53
45
28
23
28
19
19
32
26
24
31
29
30
43
38
43
33
35
21
32
22
40
29
20
16
36
43
84
176
198
200
201
203
202
203
202
203
203
201
201
202
199
166
211
215
212
210
208
207
213
211
209
216
209
210
216
217
217
218
223
224
222
219
226
209
168
119
101
78
53
51
61
55
54
50
54
62
51
41
51
41
62
68
61
54
58
53
59
59
65
49
44
39
48
44
36
32
36
25
28
27
25
23
31
38
37
29
44
43
37
30
25
28
30
37
33
13
22
36
55
93
109
205
204
204
204
202
202
204
201
201
200
199
201
165
215
215
214
207
207
208
212
213
208
208
211
212
216
215
214
222
221
222
218
221
235
187
101
68
61
64
52
49
48
44
52
53
48
49
42
47
57
59
67
56
49
68
65
69
52
53
62
55
43
38
36
38
36
33
30
26
26
24
29
35
41
47
49
49
41
44
45
42
40
32
29
22
39
26
16
27
49
106
128
189
198
200
201
202
201
202
201
201
199
200
199
165
215
214
214
209
206
208
205
210
211
212
213
209
216
213
212
226
217
216
219
214
227
190
99
65
64
77
61
63
54
56
58
49
40
34
36
42
62
67
64
53
62
65
69
64
67
63
55
55
38
38
38
39
38
37
24
25
32
30
37
45
44
49
55
61
49
55
62
58
70
51
40
30
18
26
22
19
33
67
124
140
175
200
203
202
202
200
200
200
199
198
198
166
217
217
217
211
209
211
208
214
211
212
212
209
211
213
213
222
218
217
218
217
218
140
89
55
60
76
80
68
60
57
60
43
33
32
36
30
50
58
52
56
62
61
69
78
76
64
53
55
51
44
51
54
50
36
36
32
35
39
43
51
54
67
72
61
63
68
84
79
77
78
61
38
23
16
12
15
23
60
100
131
152
202
203
200
200
200
200
199
200
201
200
165
224
219
216
211
213
207
212
212
210
212
211
212
211
211
211
222
217
210
219
214
207
132
94
68
65
68
81
66
37
29
31
37
42
38
43
53
48
59
88
70
82
65
57
60
47
55
47
64
51
48
55
62
47
46
41
39
38
42
42
59
48
67
62
66
76
81
91
91
106
109
98
71
33
14
8
12
18
33
75
117
149
200
201
201
200
200
199
198
197
200
198
166
221
221
216
213
212
209
210
207
210
210
206
213
206
212
213
216
213
212
216
198
150
122
84
74
66
61
75
68
51
40
34
35
39
44
56
61
48
51
73
67
64
78
62
58
56
54
58
46
51
59
68
64
56
43
42
41
49
51
51
67
61
55
72
79
96
93
103
114
122
128
126
108
74
20
10
10
16
18
35
85
120
204
203
201
200
201
200
198
198
199
200
166
220
218
212
214
212
212
209
210
210
210
207
206
205
210
211
213
214
212
210
173
133
94
73
70
71
71
68
69
55
53
46
48
48
49
44
34
38
54
70
77
59
62
63
61
55
56
49
58
62
67
66
63
50
51
54
50
46
60
66
49
43
60
67
94
100
100
107
124
136
137
138
130
116
69
11
9
16
14
16
48
114
201
202
200
200
200
198
199
200
199
197
165
216
212
212
215
209
210
207
214
209
209
209
206
208
206
209
209
211
207
195
120
102
75
64
54
53
50
56
60
57
58
56
52
49
41
41
42
51
56
60
77
81
76
76
81
101
95
80
78
85
73
71
70
59
54
56
54
50
49
57
29
54
74
83
98
111
103
119
141
151
144
147
154
144
119
26
8
13
16
18
18
135
200
202
199
199
199
199
198
199
197
197
165
215
211
210
211
209
205
208
206
207
203
209
206
211
205
209
206
210
209
190
150
102
87
62
50
50
49
43
52
48
42
48
46
38
43
52
52
51
59
63
78
92
70
74
77
93
88
86
85
83
81
72
65
60
59
66
52
54
54
57
61
83
98
104
112
115
116
132
143
150
150
167
163
162
147
99
11
10
16
11
14
183
199
201
201
197
198
198
198
198
196
197
166
214
208
211
207
207
207
208
205
207
204
206
207
204
204
206
204
206
205
186
160
75
58
41
43
43
37
39
48
46
48
46
42
45
56
63
71
71
79
88
89
89
85
80
91
89
85
107
109
104
98
82
77
67
63
50
52
59
53
64
81
98
111
115
120
121
129
147
144
158
165
166
171
174
164
141
30
9
14
13
20
190
197
200
199
199
198
198
198
197
197
196
164
208
208
209
205
209
204
207
208
203
208
204
205
205
206
203
202
201
203
200
132
74
62
54
35
35
33
31
26
44
51
57
53
49
56
50
47
54
79
68
84
85
83
87
86
91
96
100
111
113
106
91
81
77
62
57
63
61
69
90
106
115
119
123
130
131
145
151
157
163
172
176
175
180
174
163
95
10
16
17
23
196
192
199
199
197
199
197
198
197
195
197
164
204
203
204
204
208
204
204
206
203
204
203
203
205
205
204
199
202
203
203
104
61
74
64
73
56
40
24
34
41
56
78
59
63
59
59
71
76
87
93
106
99
85
85
109
87
105
104
92
95
107
87
93
82
76
69
78
92
107
116
116
117
124
132
147
146
149
160
164
167
173
173
179
183
178
178
155
20
11
18
76
177
197
199
199
199
198
197
197
197
196
197
163
203
202
204
205
208
207
202
204
202
203
203
201
204
202
203
202
203
203
196
116
37
32
48
37
54
42
34
33
52
90
89
113
97
80
88
99
107
115
127
120
122
129
97
99
105
97
94
114
113
108
102
109
91
73
90
98
113
125
136
142
145
142
146
151
155
159
167
168
167
175
175
174
181
180
182
171
61
12
20
90
198
199
200
199
198
199
196
196
196
194
195
164
202
204
204
204
204
203
204
203
203
203
202
206
203
201
201
201
201
203
199
159
20
15
15
15
27
55
47
48
63
95
133
153
134
131
142
135
135
138
140
146
148
148
137
88
104
103
105
92
100
103
98
90
73
98
105
115
127
146
154
158
158
158
153
160
164
167
172
171
176
178
172
175
181
179
181
179
111
11
18
74
201
197
200
198
196
198
196
196
196
195
195
162
203
203
203
204
204
201
204
201
202
201
202
205
204
201
202
201
201
197
198
187
77
13
12
19
22
31
42
51
80
126
154
178
182
175
170
168
162
154
155
156
164
162
161
156
101
122
143
132
117
106
96
89
107
113
128
134
153
168
171
174
173
164
168
167
168
170
172
175
178
177
173
176
181
183
185
185
164
38
22
48
174
197
197
197
197
196
196
197
195
196
193
162
202
203
202
204
201
201
203
203
202
202
201
201
202
202
201
201
200
200
201
198
148
14
29
30
43
51
50
65
109
132
158
180
197
197
198
186
178
177
173
171
169
171
172
167
161
130
104
145
146
101
99
112
128
135
142
155
166
175
178
177
178
180
177
178
170
174
177
180
183
181
173
179
184
187
188
190
184
106
30
47
144
196
199
197
197
196
198
196
196
194
194
161
202
202
202
203
202
200
202
203
203
202
202
202
201
201
200
200
199
200
201
197
187
40
26
48
50
51
58
84
111
128
156
189
209
209
212
209
199
196
189
182
182
185
184
182
176
174
165
151
150
172
157
139
137
144
149
156
172
173
181
186
188
186
183
185
184
183
182
186
184
181
185
188
189
192
191
190
192
156
36
49
145
198
199
197
197
196
195
195
195
195
194
161
202
202
202
203
202
201
200
201
201
200
201
201
201
201
201
199
199
199
200
198
196
130
31
56
58
59
66
92
114
141
161
182
210
217
216
214
211
206
197
194
190
190
191
188
186
187
186
182
196
180
166
162
156
156
163
170
175
180
188
191
189
187
190
192
191
192
191
191
191
188
186
190
189
190
187
189
191
176
52
46
147
197
196
196
195
193
195
193
194
194
194
161
201
201
201
202
202
201
202
201
201
201
204
202
202
200
201
200
200
200
199
199
199
193
111
49
68
69
67
87
121
135
148
183
211
218
213
215
210
206
199
198
191
198
202
202
195
197
198
202
201
194
177
174
168
171
173
180
189
196
198
200
207
206
202
206
201
203
199
199
197
197
193
192
193
192
191
187
187
182
68
49
149
197
195
196
195
195
193
193
193
193
191
161
202
203
202
202
201
202
199
200
202
202
202
201
199
201
201
200
200
200
199
200
200
198
179
67
59
65
70
104
121
144
173
198
204
213
216
206
202
208
204
203
200
203
202
194
195
203
197
203
202
191
178
180
185
180
181
182
191
199
199
205
213
210
206
213
212
204
204
206
201
198
197
196
193
189
189
186
181
181
95
52
141
195
194
196
194
194
194
194
192
192
192
160
203
202
203
202
201
200
201
200
201
200
201
201
201
201
200
201
200
199
199
198
197
199
191
78
73
71
93
110
135
145
173
185
203
214
214
213
210
211
209
206
205
207
206
203
203
200
203
191
198
188
176
181
187
189
183
194
196
201
209
207
208
211
213
214
210
209
202
201
196
195
194
193
193
190
184
184
178
176
105
52
164
193
193
194
193
193
193
192
192
190
192
158
202
203
203
203
201
201
201
202
201
200
201
201
200
202
201
201
200
200
199
199
198
197
195
93
72
74
96
117
145
156
177
198
210
208
212
213
212
211
210
213
211
213
210
205
201
199
194
190
190
185
176
181
186
190
187
197
201
214
214
210
209
213
215
218
212
202
198
194
182
190
193
193
196
195
187
184
178
174
119
65
189
193
191
195
193
194
192
192
191
191
191
159
204
202
203
203
202
203
201
201
202
199
200
200
200
199
199
199
199
200
200
199
198
197
199
87
67
82
93
124
159
174
194
210
212
208
211
213
214
217
218
219
218
215
211
204
203
199
195
186
181
179
177
172
176
191
191
193
200
209
211
208
209
210
210
210
203
196
189
178
179
179
183
193
197
200
195
186
182
174
126
59
182
192
192
193
191
192
190
192
190
190
188
160
203
204
201
203
202
203
201
202
201
201
200
201
202
201
200
201
199
200
199
199
199
197
199
95
70
81
104
148
181
206
214
216
216
216
213
213
218
220
222
221
223
212
211
202
204
209
207
197
187
180
175
164
172
188
182
179
197
200
199
197
191
194
198
202
201
192
176
169
170
176
186
194
201
201
200
197
186
178
142
56
188
190
190
190
191
192
191
191
191
190
189
158
203
204
202
202
202
200
201
202
201
201
202
201
201
201
199
199
199
199
200
200
199
199
198
101
68
82
117
164
204
220
218
216
217
212
213
213
221
219
223
224
219
206
207
210
213
209
207
205
196
189
180
168
173
174
168
170
183
189
178
175
177
180
183
183
184
180
173
170
182
187
197
200
206
201
200
194
186
180
161
53
185
190
189
192
191
191
189
190
189
189
188
157
203
204
202
200
202
202
200
201
200
202
202
200
200
201
200
199
200
200
200
198
202
199
195
123
70
88
125
183
220
225
222
215
214
208
208
212
214
212
212
212
206
195
195
190
189
187
181
179
177
177
169
172
178
163
147
150
160
169
164
163
162
154
160
160
164
177
182
193
194
193
190
196
196
192
187
192
186
174
169
69
189
190
190
190
190
189
187
189
186
188
188
156
203
203
201
202
202
203
200
201
200
199
199
200
199
200
199
200
200
202
202
231
242
213
195
150
68
102
141
201
226
223
217
214
207
202
208
210
197
193
190
199
178
164
154
142
144
137
133
123
117
131
114
129
144
131
122
129
143
151
157
148
143
139
132
137
151
158
162
177
173
161
157
153
152
154
164
170
181
165
170
101
188
188
188
187
189
188
188
188
186
188
187
157
205
203
202
202
200
201
201
200
198
198
200
199
199
200
199
199
198
201
215
198
227
227
178
144
85
108
157
222
229
219
215
210
205
198
196
178
154
162
167
145
145
136
129
121
101
86
80
59
56
56
62
76
83
90
94
105
128
143
150
144
132
128
114
109
122
111
101
94
105
111
110
108
118
120
121
140
148
153
164
119
187
187
187
186
186
189
185
186
186
185
184
156
201
202
200
201
199
199
201
201
201
199
199
199
200
198
199
199
198
199
193
94
127
212
203
152
86
123
175
229
227
222
211
207
198
184
169
155
145
137
132
121
111
109
102
99
81
59
34
30
32
34
46
56
65
67
70
84
117
136
142
137
134
117
89
81
84
77
58
53
47
56
57
69
84
101
97
98
111
124
160
124
190
186
185
185
186
185
185
185
185
185
185
153
203
199
201
199
200
200
201
201
199
199
198
196
197
197
198
198
199
201
174
90
89
174
195
181
96
127
191
228
226
219
210
201
183
166
146
124
127
120
118
111
107
95
94
92
89
73
70
54
43
36
41
44
54
64
72
85
118
134
135
128
127
109
75
68
53
44
39
32
34
42
44
53
71
80
85
88
99
116
150
137
184
185
183
185
184
184
184
183
185
185
185
153
200
198
199
199
198
198
196
199
197
198
198
196
197
197
197
197
197
199
174
96
101
142
178
180
106
129
197
227
227
217
207
196
173
147
136
123
121
115
116
110
104
94
82
71
60
58
48
42
35
34
33
46
52
60
79
108
132
153
154
147
133
109
79
50
32
19
21
29
44
64
79
86
96
103
100
97
90
109
148
152
164
182
182
185
183
183
185
185
185
184
183
153
198
198
198
196
197
197
196
196
192
194
196
195
194
195
196
197
195
199
188
106
112
176
150
157
112
141
208
225
222
219
209
188
164
139
122
115
103
91
80
47
48
58
56
50
36
31
26
30
48
55
40
36
55
59
94
130
149
170
176
165
147
111
58
32
25
34
45
44
58
73
78
67
52
78
100
110
108
111
148
159
149
181
181
182
183
182
184
182
183
185
182
155
198
197
197
193
194
194
195
193
195
195
193
193
194
192
192
195
197
198
196
130
136
189
151
148
113
164
213
224
220
218
211
192
166
143
120
101
83
74
59
52
43
50
34
22
16
15
25
32
76
35
44
53
65
77
108
141
169
195
204
189
169
118
50
42
35
27
20
31
22
22
32
60
77
60
73
102
117
128
151
164
146
179
181
182
181
182
184
183
185
185
183
153
199
196
198
194
194
193
192
194
192
197
192
193
193
193
191
196
195
198
198
161
155
182
149
132
116
185
216
222
217
218
213
199
184
161
138
123
108
96
89
74
54
66
92
32
38
18
34
57
115
66
46
51
97
101
120
149
183
211
225
212
193
133
68
40
51
38
23
9
29
33
86
49
34
70
71
91
114
134
152
165
143
180
179
181
183
181
183
183
184
184
183
153
195
197
197
193
193
195
195
195
190
194
194
194
195
191
191
196
194
197
196
188
180
163
125
104
123
184
214
219
218
214
213
200
199
191
170
149
149
141
135
135
115
107
102
98
45
40
40
109
85
71
71
84
99
113
134
164
197
221
238
221
199
152
72
55
56
56
30
33
42
57
108
85
57
57
80
103
123
142
155
168
141
179
178
182
181
181
182
181
184
183
183
153
195
196
196
192
193
189
192
193
193
192
192
193
194
194
191
196
195
195
195
201
199
176
118
108
124
186
214
220
215
215
216
215
213
211
197
179
160
149
145
144
137
120
96
106
91
109
101
96
87
82
79
87
117
134
152
179
213
225
242
225
207
161
98
76
79
88
93
68
68
104
97
85
86
102
117
127
142
149
158
170
145
178
179
178
180
180
181
179
183
184
183
151
196
196
195
193
191
190
191
192
191
194
189
191
193
194
191
196
197
196
197
201
200
196
132
112
138
196
214
220
220
218
219
222
225
224
219
204
184
167
158
149
140
130
120
102
91
86
83
78
74
73
84
111
138
157
179
196
213
230
242
228
211
169
126
82
65
70
74
85
87
77
81
100
117
123
134
144
150
155
164
169
163
178
178
179
178
180
180
181
182
183
181
152
195
196
193
192
193
192
192
194
192
192
192
192
191
193
190
194
194
196
194
199
213
216
160
122
137
199
216
219
220
220
222
225
224
228
228
222
211
193
172
165
149
134
118
107
97
93
90
91
100
103
120
144
156
179
196
208
221
232
240
231
211
180
155
116
87
73
73
77
84
90
103
117
120
130
143
153
155
162
168
165
168
177
177
176
177
178
179
179
180
182
182
151
195
194
193
192
192
190
190
190
190
194
192
191
193
194
190
196
195
196
196
199
219
224
186
128
131
194
214
217
217
218
220
225
219
228
231
225
226
217
203
189
180
170
163
158
148
142
133
126
120
135
160
166
180
197
207
214
227
233
243
240
221
191
170
143
117
102
103
94
92
96
103
118
136
144
151
160
161
165
170
163
164
176
177
177
177
177
179
179
180
180
181
152
193
193
191
193
192
192
191
190
192
193
191
192
192
193
191
196
195
196
195
197
218
209
212
172
136
195
212
216
213
212
219
220
225
227
228
213
215
224
217
210
196
183
172
159
152
141
140
148
163
175
179
185
193
202
212
218
228
234
240
244
228
201
180
159
141
123
118
123
130
133
138
144
149
158
163
167
165
166
171
155
171
177
177
177
178
178
178
178
179
180
182
152
193
194
193
191
195
191
191
191
191
192
192
192
191
192
192
195
196
194
195
196
208
224
218
231
151
183
211
213
212
211
218
222
223
225
226
223
220
226
225
221
204
193
180
166
161
167
176
181
183
187
187
193
193
202
209
217
224
232
242
246
232
211
188
167
157
149
136
133
131
140
147
155
158
165
170
171
167
167
168
152
171
176
176
177
178
179
178
178
178
179
180
151
192
192
193
192
191
190
193
190
190
192
193
192
191
193
194
195
197
196
196
197
199
234
239
240
175
172
203
211
209
214
218
220
222
222
222
224
217
216
218
217
215
211
202
195
192
189
184
185
191
194
194
189
189
190
206
216
227
233
241
249
234
220
195
160
158
163
155
150
148
151
151
158
164
171
171
170
169
168
166
151
176
176
177
176
177
180
178
179
177
178
180
151
193
191
191
190
189
189
192
190
192
192
192
192
193
192
194
192
195
195
196
197
196
228
231
222
179
173
190
203
205
210
210
218
219
221
220
222
214
217
218
217
217
221
209
200
196
199
196
194
190
186
185
177
168
191
206
219
228
235
243
252
236
221
201
162
150
166
167
163
162
164
168
170
169
165
166
171
170
167
165
152
175
176
178
177
177
178
178
180
177
177
179
150
189
190
191
191
190
188
190
191
191
190
191
191
192
190
195
194
194
197
195
197
198
213
211
220
175
174
193
203
205
210
204
215
217
215
220
222
218
221
215
218
215
221
215
210
201
199
194
192
179
176
166
150
177
192
210
220
228
234
243
246
230
219
207
179
142
164
173
174
172
175
172
167
169
171
173
172
170
166
161
155
175
174
177
177
178
178
178
178
177
177
179
149
189
189
189
189
190
190
190
189
191
190
190
191
190
191
195
193
192
197
196
194
194
205
228
240
199
161
191
201
203
205
208
214
216
217
221
221
223
224
215
216
214
224
220
214
209
205
199
189
178
167
150
142
193
210
219
225
224
228
229
229
219
212
199
181
170
159
174
180
181
184
179
175
173
174
174
178
174
167
159
155
176
175
175
176
178
178
179
176
175
178
177
148
188
188
189
189
190
187
188
188
189
192
187
189
190
190
190
191
193
195
195
190
194
193
207
224
213
156
174
190
204
207
208
213
216
215
218
212
216
225
224
226
222
225
221
215
211
202
196
187
178
156
139
180
213
214
208
206
202
200
199
203
197
184
171
157
177
167
172
178
186
189
183
179
177
184
183
176
173
166
155
161
176
176
176
177
176
177
177
178
176
176
177
147
187
188
186
188
187
187
189
188
189
188
188
189
189
189
192
190
192
195
192
190
191
191
195
171
167
154
156
189
198
203
204
215
217
214
215
212
209
222
225
228
227
228
224
218
208
202
195
185
168
146
146
198
201
194
175
163
156
157
160
163
153
147
135
131
138
156
173
177
185
184
188
185
184
188
179
177
171
164
152
163
174
175
175
175
177
177
177
178
176
175
175
148
186
188
188
187
187
187
187
188
187
186
188
188
187
190
190
190
189
192
190
190
190
190
190
189
177
148
157
181
191
203
202
209
215
215
216
218
222
221
225
226
223
218
221
213
196
198
188
178
167
154
158
167
154
140
86
57
121
136
134
128
128
123
124
90
113
141
168
180
186
187
190
189
189
189
187
174
169
161
135
170
174
175
174
175
176
175
176
175
174
175
175
146
186
188
186
186
186
186
188
185
187
186
186
189
187
186
190
188
186
188
190
187
190
188
188
189
187
133
147
187
194
192
196
211
212
216
216
221
222
223
222
220
216
217
214
214
206
195
189
179
175
171
157
139
120
60
31
36
38
92
124
116
113
109
41
43
97
156
171
177
184
192
195
188
190
184
181
176
166
157
138
173
174
174
174
174
176
175
175
176
175
173
174
146
185
185
187
187
185
186
185
186
185
187
185
184
185
186
188
188
186
187
187
187
185
189
184
184
182
130
135
177
191
196
199
204
212
215
216
221
223
222
220
221
214
215
218
216
208
200
194
190
191
196
167
121
103
90
94
106
93
104
115
103
102
83
74
81
116
178
182
184
185
190
195
193
185
182
178
172
160
147
137
170
172
173
174
173
172
173
175
173
174
174
173
144
186
185
186
186
187
186
185
186
187
186
186
189
186
184
184
185
186
183
184
185
185
185
183
182
183
151
135
175
198
199
197
202
206
209
217
219
217
219
219
214
215
216
216
212
205
190
195
195
203
214
202
143
107
90
102
121
118
111
104
96
85
77
69
105
131
175
190
186
187
187
190
190
183
180
173
167
155
137
148
172
170
172
172
174
174
175
174
175
174
175
174
145
186
187
185
186
184
184
184
183
182
184
183
184
185
184
185
184
183
182
182
184
183
182
181
182
182
158
123
164
186
197
199
196
196
208
212
213
215
215
215
220
220
221
218
215
207
206
207
218
220
223
218
187
171
167
155
147
134
131
129
121
105
105
121
139
142
169
198
191
192
184
192
185
179
174
163
159
147
125
160
170
172
172
171
173
173
174
175
174
172
173
173
144
184
184
182
183
184
184
183
184
183
183
184
183
184
183
185
183
183
183
183
182
181
181
183
181
178
167
120
146
185
199
201
200
199
204
207
208
214
213
213
218
219
215
215
213
214
216
221
222
226
227
222
214
194
182
160
155
136
129
131
120
107
97
109
136
148
162
200
201
194
192
190
183
175
169
162
156
143
122
161
172
171
172
172
172
173
173
174
173
172
173
173
144
183
184
182
185
184
183
184
182
182
184
183
182
183
183
182
181
182
182
182
181
181
179
180
180
180
175
126
130
172
201
198
200
199
197
201
203
209
211
212
214
214
214
213
216
219
219
219
220
220
216
218
214
198
173
144
138
136
129
125
121
107
88
79
112
143
155
190
199
198
195
189
184
174
165
158
153
134
123
167
171
171
170
171
171
173
173
173
172
172
172
171
143
182
182
182
185
183
183
184
182
182
180
180
182
183
182
181
182
182
181
180
180
180
179
180
179
181
178
141
121
157
193
201
203
201
199
204
201
207
212
211
208
198
205
208
216
220
218
218
206
209
204
207
195
170
156
142
123
134
131
109
117
95
97
95
86
123
150
169
186
198
191
186
177
172
160
153
147
137
135
170
168
169
170
170
170
173
173
173
172
172
172
170
142
182
181
182
180
180
182
181
182
181
182
180
181
182
181
181
180
179
181
179
180
178
178
178
179
177
177
173
111
144
179
200
199
198
200
203
196
202
205
208
205
199
208
217
218
214
210
190
197
180
182
178
189
173
143
133
124
125
111
107
106
109
98
97
90
109
129
139
166
188
189
187
179
167
155
149
143
122
158
169
166
168
168
170
169
170
172
169
172
171
171
170
143
181
181
180
179
180
180
181
181
180
179
181
180
180
181
179
179
181
180
178
178
178
178
177
178
175
178
176
118
143
178
193
197
198
198
196
203
195
204
209
210
212
215
218
213
201
186
165
146
137
150
160
158
152
136
146
131
168
147
132
118
126
133
116
108
106
112
123
138
163
178
179
174
159
148
145
145
123
168
169
167
168
167
170
170
172
172
171
170
171
170
171
142
181
180
180
179
180
182
180
179
180
180
180
180
178
180
177
179
179
179
179
179
180
178
176
177
176
175
174
146
130
169
186
193
193
197
193
198
197
204
206
210
210
212
214
203
193
158
128
131
128
141
144
145
140
153
158
149
169
176
175
168
152
125
126
123
113
121
121
128
148
162
172
167
152
145
142
142
128
168
167
167
166
169
169
168
169
170
168
171
169
170
169
141
180
180
180
179
179
180
180
178
179
178
180
179
180
179
180
179
179
177
177
177
177
177
178
176
176
176
175
170
95
137
175
186
178
189
192
196
190
192
199
204
208
214
213
196
170
153
135
132
120
122
127
133
131
110
95
93
91
100
113
106
89
80
81
96
112
118
119
116
138
148
160
160
141
142
140
129
144
164
165
166
167
166
168
168
170
168
167
169
169
169
168
142
179
180
179
179
179
178
179
180
179
179
178
178
179
178
178
179
178
178
177
178
177
177
177
176
176
176
175
174
116
107
165
169
181
184
187
195
197
198
205
207
209
217
206
184
174
153
124
104
79
67
74
68
57
45
44
49
56
57
70
64
46
38
35
37
46
55
88
108
122
146
156
153
140
142
139
111
161
164
164
165
166
164
165
168
168
170
168
169
169
169
169
142
179
178
180
180
177
177
179
178
179
179
178
178
177
178
179
177
176
177
177
176
176
176
176
175
177
176
176
175
165
78
141
159
173
178
185
195
195
200
204
201
208
206
201
176
165
139
122
108
115
117
135
131
123
138
131
105
90
79
78
75
76
86
85
86
92
92
94
113
132
141
148
145
138
139
126
128
162
162
163
164
165
165
165
166
167
169
167
167
168
170
169
141
178
178
178
179
178
179
177
177
177
178
178
177
176
176
176
176
176
175
176
176
177
177
176
176
176
176
176
173
169
96
107
136
158
169
178
185
191
198
199
199
201
201
192
175
156
145
152
170
172
168
166
166
171
166
164
163
168
155
154
142
134
134
130
125
127
123
131
129
131
142
143
139
129
132
100
151
159
161
162
161
162
162
165
166
164
167
168
165
167
167
169
139
178
178
178
178
177
177
177
177
179
178
177
178
177
177
176
176
176
175
176
175
176
175
177
175
176
177
176
173
170
147
82
123
138
163
173
166
187
192
191
189
192
188
180
170
163
166
180
193
187
164
148
146
146
145
145
149
149
145
147
140
133
128
116
116
113
128
146
140
130
137
141
138
133
123
113
158
158
160
160
161
161
162
162
164
167
165
166
167
167
164
168
138
178
178
178
177
178
177
177
177
177
176
176
176
176
175
177
175
176
175
175
175
175
175
175
176
175
174
173
170
170
172
88
95
117
146
159
164
176
182
181
175
176
172
160
163
171
181
188
195
192
177
157
136
124
115
112
111
101
101
105
95
98
97
93
101
121
136
142
138
133
131
134
130
124
102
148
153
156
158
160
161
161
160
161
163
162
164
164
166
165
166
166
139
177
177
178
177
177
177
177
177
177
176
176
177
176
176
176
176
175
176
176
174
176
175
176
176
175
174
171
171
168
168
150
57
100
136
146
159
164
169
173
167
166
164
164
163
172
180
179
186
185
174
164
144
131
117
101
86
69
72
68
71
82
89
106
118
129
136
140
134
129
132
133
124
112
81
152
152
156
157
157
159
159
160
159
161
162
162
163
165
165
166
167
138
177
179
177
178
178
176
177
175
178
177
177
175
175
175
175
174
174
175
174
175
174
175
176
174
174
173
172
168
168
167
180
107
82
119
123
144
144
159
167
166
164
162
156
157
165
171
167
168
163
161
156
146
128
113
97
81
69
77
73
69
86
103
116
124
130
132
133
133
130
130
131
115
68
117
149
152
153
155
155
157
157
157
159
160
163
161
164
163
165
167
165
139
176
175
177
176
176
176
176
176
176
175
176
176
176
176
176
173
175
174
174
175
173
173
173
173
171
172
170
168
166
155
160
164
76
105
104
123
113
152
157
159
156
148
148
154
157
153
157
160
157
153
148
144
128
113
90
92
86
79
78
89
99
114
126
128
130
132
129
126
127
131
125
90
67
143
147
149
150
153
153
155
154
158
157
158
160
159
162
162
163
164
163
137
177
176
176
176
176
177
175
176
176
175
174
175
175
175
175
172
174
173
172
173
173
172
172
171
171
172
170
169
150
143
176
182
144
80
91
87
97
124
149
152
143
139
146
151
149
153
155
153
153
151
148
143
136
118
112
104
89
92
104
113
119
123
131
135
134
130
130
124
117
107
101
50
123
142
144
147
149
151
151
152
154
156
156
158
159
159
161
161
160
162
162
137
175
177
174
175
177
176
175
174
174
175
174
175
175
174
173
172
173
172
171
172
172
172
172
170
175
170
158
126
139
125
212
189
167
102
86
94
98
117
129
143
138
146
142
148
149
156
164
167
169
170
167
164
150
140
132
124
112
109
123
125
132
137
142
141
134
132
126
107
111
84
61
56
110
129
142
145
145
147
150
151
152
154
156
158
157
157
157
158
159
160
161
137
176
176
175
174
174
174
175
175
175
174
174
172
173
173
174
173
172
172
172
171
171
173
173
179
142
120
121
127
143
135
221
192
185
164
90
68
84
93
100
110
122
134
130
144
143
160
173
185
191
193
193
187
182
167
155
155
148
140
133
138
146
148
148
144
129
124
118
90
83
63
46
59
87
87
87
133
145
148
148
149
151
153
154
156
157
157
155
158
159
157
160
135
175
176
176
174
174
176
174
175
174
174
174
174
172
172
171
173
171
172
169
168
177
201
161
175
162
164
130
147
147
142
221
197
191
181
152
52
52
78
91
85
94
122
137
141
146
168
175
186
199
201
203
205
193
184
185
179
170
164
151
152
148
151
149
146
133
113
111
72
54
42
118
147
50
100
86
50
103
145
145
146
148
150
153
155
155
155
156
155
156
156
162
135
175
176
175
173
174
174
174
173
172
172
173
172
174
172
178
172
170
184
183
194
207
166
186
170
144
169
130
152
145
137
221
201
195
187
168
140
82
64
77
89
87
109
123
135
137
157
167
177
180
187
196
194
186
183
184
178
171
167
146
154
150
152
141
135
129
109
82
49
42
62
149
160
98
78
93
72
78
94
132
147
150
151
150
152
153
154
154
154
154
154
157
132
179
182
177
171
174
173
172
172
173
173
169
171
171
176
181
184
166
129
157
173
152
189
180
151
174
165
134
155
146
131
220
205
197
190
183
166
140
112
98
81
90
88
110
124
137
138
155
155
147
158
174
166
179
159
164
154
163
156
145
148
143
129
134
116
113
86
53
41
55
133
147
161
133
73
76
82
69
102
85
101
125
146
149
147
149
154
157
152
153
155
156
131
189
164
179
181
163
176
172
171
173
174
177
179
195
174
194
161
152
141
141
163
195
186
166
148
185
161
140
155
149
132
220
207
202
196
191
181
165
148
113
96
83
92
94
94
103
116
118
120
127
133
140
145
163
160
152
147
148
141
138
141
133
101
120
84
78
65
39
45
130
138
150
160
147
74
79
80
70
95
116
124
125
128
117
138
160
143
151
166
152
153
154
131
155
155
181
199
176
159
176
179
162
156
164
159
168
200
187
150
140
139
155
180
186
175
156
155
192
155
145
160
150
132
218
211
206
199
194
189
179
167
149
108
99
91
66
78
98
94
107
91
91
103
115
120
134
136
135
136
130
125
124
115
100
102
82
67
48
34
65
131
139
141
151
158
151
72
78
79
69
98
111
117
133
138
139
142
148
155
162
141
166
165
162
139
147
163
186
204
187
150
152
162
174
173
171
176
187
205
180
142
138
143
152
178
182
173
150
177
186
155
146
160
155
130
209
215
210
203
198
191
186
178
167
151
115
102
89
80
69
80
76
68
85
85
94
94
101
108
122
115
114
104
107
93
84
67
62
46
25
73
134
136
140
145
152
157
145
74
78
77
68
104
115
110
123
138
144
139
143
156
165
166
153
151
151
126
142
162
189
206
189
162
158
161
164
168
172
175
189
205
174
139
138
151
150
177
181
165
166
186
186
160
145
160
153
136
203
220
213
206
199
196
192
185
176
169
156
129
97
79
68
54
67
70
89
72
79
68
87
84
99
98
96
91
77
72
64
52
39
37
101
130
138
138
143
150
155
160
137
75
75
78
70
105
114
119
119
132
144
140
143
149
160
165
163
164
165
137
145
163
191
205
188
163
156
164
172
178
170
163
186
203
171
135
141
152
155
169
171
162
169
190
185
161
142
161
153
133
194
222
220
211
205
198
195
192
186
178
167
160
146
121
73
69
68
46
50
59
69
63
56
56
64
76
64
67
46
45
39
37
73
126
135
132
136
143
146
153
156
160
121
74
74
82
74
107
116
122
123
131
142
140
143
150
161
164
163
160
158
134
147
165
191
203
188
166
153
153
160
158
148
156
189
199
160
132
139
152
161
162
164
170
177
188
187
162
141
159
152
138
186
226
224
217
210
205
198
196
191
186
177
164
157
149
135
114
97
91
78
89
80
61
56
58
52
47
59
42
41
52
79
113
128
134
136
137
143
149
154
154
160
161
108
71
80
86
76
107
123
125
125
130
140
141
147
152
158
165
163
159
161
135
148
163
193
203
188
163
145
150
153
148
143
161
195
187
152
129
144
150
158
164
160
168
174
187
188
163
135
153
146
141
182
227
227
221
215
210
205
200
195
190
184
178
167
158
153
142
130
117
113
103
97
96
89
85
93
84
92
76
104
113
125
129
132
135
140
145
148
155
155
160
161
157
92
75
78
90
84
110
130
133
128
128
133
138
146
154
160
165
164
160
158
134
145
164
190
200
185
159
137
146
149
142
143
169
198
176
144
131
147
153
156
160
165
166
176
188
190
162
135
148
152
144
179
222
234
228
221
215
209
205
202
198
190
188
179
168
155
151
138
127
125
123
125
123
120
119
116
117
117
120
124
128
130
135
137
144
149
152
157
158
159
160
161
149
83
74
82
91
90
113
128
136
133
132
134
137
143
151
158
165
164
163
157
131
145
161
181
196
182
159
132
142
147
141
145
168
197
166
141
137
149
151
154
161
162
172
176
188
186
168
138
141
150
148
181
216
239
233
227
222
217
206
206
204
198
179
188
176
165
158
149
145
144
141
139
135
134
135
133
130
130
133
134
137
141
143
147
153
159
159
162
162
161
164
159
136
81
80
90
95
97
122
132
135
138
138
137
137
143
151
153
160
164
164
158
127
145
158
179
194
175
158
128
138
137
132
144
176
185
157
141
132
147
154
152
160
163
173
175
184
187
172
146
130
147
147
177
220
240
241
235
223
221
215
210
207
204
198
193
186
176
167
159
152
151
149
150
151
145
141
140
141
141
141
142
144
146
150
156
162
165
165
166
165
166
167
154
125
85
89
97
93
107
124
136
138
142
141
138
137
140
148
155
163
162
162
157
129
146
156
171
190
170
148
129
137
137
140
156
187
175
154
137
132
148
152
155
160
163
173
174
180
185
169
152
130
146
148
168
225
242
245
238
230
227
222
215
213
209
207
200
193
184
178
168
163
160
156
157
162
161
155
152
150
150
151
150
153
156
161
164
167
167
167
167
169
167
167
157
112
89
93
100
91
117
129
138
140
142
144
143
142
139
145
149
160
165
166
163
131
144
152
167
186
167
140
122
123
118
141
174
185
163
144
133
137
145
150
154
161
163
171
174
180
186
163
149
134
141
147
155
228
241
246
240
237
232
227
222
218
212
210
205
198
191
186
181
173
170
170
171
169
170
172
172
169
163
161
164
165
168
170
171
170
171
166
166
169
170
165
157
103
91
99
105
103
124
134
142
141
145
145
146
146
142
142
148
157
164
164
165
132
145
148
161
185
162
131
110
110
126
154
180
171
157
142
130
140
150
154
152
161
158
167
173
185
186
163
148
136
134
144
145
228
240
249
245
243
239
231
228
224
219
211
213
206
200
195
191
185
180
177
178
177
180
180
181
181
177
175
175
177
177
177
175
176
175
172
172
172
171
171
155
98
104
107
110
114
130
137
140
145
145
147
150
150
147
145
147
153
163
164
164
135
