P2
# CREATOR: GIMP PNM Filter Version 1.1
92 112
255
239
234
230
245
231
226
227
227
223
230
219
230
223
216
217
218
213
214
214
212
210
207
210
206
207
206
202
205
205
207
204
204
205
206
208
205
209
210
203
207
206
211
211
209
213
217
225
216
231
227
230
235
244
238
245
239
248
245
254
249
250
254
253
249
238
240
243
244
236
235
221
226
218
217
206
215
207
206
206
205
205
211
202
204
200
201
199
198
195
194
196
163
240
242
227
240
247
237
231
229
228
225
229
227
224
224
216
222
217
215
216
214
214
207
213
208
209
207
205
205
206
203
208
205
205
206
210
205
208
208
205
209
205
216
208
209
211
216
221
219
222
225
229
237
246
241
244
244
251
241
254
244
251
253
254
251
248
243
241
238
235
228
228
228
217
215
208
218
211
202
204
210
204
209
203
199
198
200
200
196
196
193
196
162
243
251
247
244
237
247
244
240
235
246
229
231
233
225
223
225
220
219
220
217
215
212
213
211
206
205
205
203
200
204
204
208
207
207
205
201
205
207
205
208
206
214
207
207
205
216
217
224
217
224
226
229
236
245
237
238
247
241
252
249
251
251
243
251
247
240
247
237
224
229
222
228
219
211
204
218
207
206
205
209
206
210
203
200
198
199
197
195
193
197
195
162
247
250
252
245
245
247
237
244
244
238
240
237
231
233
226
231
232
227
227
219
212
211
207
212
208
206
209
203
205
196
203
202
205
205
205
203
205
206
203
209
204
208
209
216
204
218
215
224
223
222
233
231
240
233
239
237
249
239
253
242
248
250
251
251
246
237
242
234
234
228
225
229
219
211
204
211
209
208
203
206
203
202
198
198
200
198
196
195
195
196
194
163
240
240
252
246
242
252
242
244
236
249
244
240
241
232
236
240
222
233
223
220
215
216
210
209
213
211
208
203
204
195
197
199
209
202
207
205
205
205
201
207
202
207
210
209
204
212
212
221
219
225
225
225
234
234
235
228
243
240
251
224
248
244
242
248
240
240
246
233
227
225
227
223
218
213
204
208
202
207
203
201
206
203
199
199
199
195
197
193
194
198
196
162
240
239
243
244
251
240
249
246
240
249
238
245
245
238
240
244
220
230
220
224
225
219
211
212
210
212
208
195
181
166
166
170
183
193
203
204
207
204
203
205
206
207
211
207
209
197
199
226
215
225
224
232
234
232
234
234
242
241
241
215
240
247
240
249
241
241
234
234
221
224
222
218
212
211
202
209
204
205
204
205
200
202
199
199
199
197
198
200
195
197
196
161
240
234
251
250
237
248
238
253
243
250
245
248
246
236
241
243
224
230
224
226
224
215
217
210
207
206
192
195
177
171
170
146
141
161
180
192
205
200
191
179
188
182
191
202
198
169
173
213
207
220
219
225
231
229
231
236
244
233
243
181
211
245
237
238
235
235
229
230
217
220
221
225
209
206
204
206
205
203
202
200
199
201
198
199
197
195
198
198
196
195
197
161
241
240
243
243
245
245
248
253
241
249
248
245
236
244
239
247
233
231
224
229
227
218
218
211
210
210
209
197
172
181
164
153
184
153
156
166
170
193
178
153
125
137
118
138
139
128
136
197
206
214
220
223
228
225
231
231
236
234
235
209
227
217
239
235
222
233
236
224
218
217
212
219
212
206
208
207
203
201
201
197
200
198
198
198
196
195
197
198
197
195
195
164
236
241
241
243
248
250
246
247
246
249
240
246
240
243
243
248
230
228
229
226
222
220
214
219
210
209
202
195
199
182
164
148
129
150
140
142
163
136
140
102
79
55
67
96
113
114
112
150
193
210
216
224
231
214
223
226
230
220
220
212
193
181
235
200
204
223
230
218
218
214
213
215
208
207
208
206
204
203
201
201
198
196
196
197
197
195
198
199
197
197
196
163
235
236
235
240
245
250
252
243
249
249
246
250
250
239
240
243
230
232
220
228
235
217
212
215
198
198
188
183
163
127
115
124
139
148
137
110
115
140
108
93
77
55
46
59
116
108
98
90
123
195
211
210
221
201
217
224
222
208
218
199
215
198
214
172
200
216
221
219
213
212
215
215
202
201
204
200
203
201
202
201
198
199
195
197
199
197
197
196
197
196
196
163
227
231
233
242
237
249
249
235
252
247
246
245
239
235
239
244
229
227
233
226
240
217
211
212
181
168
145
127
121
122
129
117
105
120
138
125
96
100
122
90
89
69
58
49
65
92
73
56
83
120
192
212
215
181
212
211
211
200
208
213
221
173
185
168
204
192
209
210
208
206
205
212
203
201
203
197
201
198
197
201
198
198
197
197
199
198
197
198
198
194
196
163
230
222
232
236
237
245
243
233
251
238
230
240
239
240
237
241
231
231
224
219
228
210
215
204
164
147
156
134
107
121
108
118
118
105
106
112
109
89
94
93
78
81
63
51
48
56
69
53
55
88
94
147
173
133
138
164
190
203
214
200
149
135
148
175
135
198
214
210
209
207
208
205
203
200
203
195
199
198
197
200
202
199
197
198
197
198
197
198
198
198
196
164
223
222
233
232
239
239
235
236
230
252
251
248
245
246
235
241
242
231
221
218
219
214
212
202
166
125
112
114
99
105
112
111
106
113
99
96
96
71
81
85
72
58
64
52
47
42
45
45
38
49
78
65
101
113
110
132
142
195
173
151
171
145
118
173
123
203
209
206
205
205
205
203
202
201
199
195
200
198
197
198
199
198
197
196
196
199
197
197
197
198
197
163
229
224
233
230
227
247
235
236
239
243
239
253
242
237
237
244
245
229
226
212
218
215
213
189
154
97
90
115
102
95
109
109
117
100
101
89
91
72
69
74
66
71
54
44
42
41
37
40
38
34
46
62
40
90
106
107
95
107
143
203
202
144
89
116
124
190
208
214
206
205
205
205
203
201
199
198
198
199
196
198
198
197
196
196
198
197
198
197
197
196
194
162
216
220
227
225
225
232
229
233
243
242
241
240
237
233
238
244
236
229
215
203
165
188
210
201
134
94
100
102
92
82
92
97
91
85
87
74
95
76
69
63
66
61
60
48
42
46
58
47
30
31
32
53
55
56
38
49
92
88
178
186
188
145
60
58
129
191
204
199
204
203
201
201
201
202
200
199
199
197
196
195
199
200
199
198
196
198
197
196
196
198
195
162
213
215
216
219
219
220
224
231
225
222
242
228
232
224
238
237
231
221
190
142
128
126
108
117
93
75
70
78
78
71
73
74
77
85
72
76
65
72
68
60
46
49
47
53
50
43
39
48
32
27
35
32
29
49
51
50
51
57
72
117
172
148
52
46
93
205
205
199
203
200
199
199
201
198
200
196
198
199
198
198
197
200
198
197
198
199
197
198
197
197
195
164
210
214
213
214
219
219
216
217
225
225
220
241
225
225
213
209
216
172
137
122
106
116
101
98
70
65
78
44
62
77
72
76
66
71
65
57
68
61
69
57
42
44
48
46
32
27
24
34
59
42
29
28
29
25
39
33
32
39
43
54
96
132
56
30
62
191
197
199
206
199
201
200
198
199
201
198
197
200
199
197
197
199
198
197
199
198
198
196
195
197
197
164
212
210
209
210
215
215
217
216
223
221
219
226
216
213
217
208
182
121
112
102
120
103
111
92
95
70
72
65
45
52
67
61
73
71
67
63
67
68
71
51
51
38
35
33
29
28
23
24
35
61
35
20
29
25
30
33
28
21
23
22
29
64
56
32
28
119
195
204
201
196
200
203
201
200
199
198
197
200
199
196
198
200
197
199
199
198
198
198
197
198
196
164
211
206
205
207
209
209
213
213
212
214
221
215
214
215
198
187
183
127
113
98
118
105
98
72
83
65
71
67
66
56
44
39
43
50
82
79
75
73
70
54
46
41
37
30
31
29
27
25
28
27
60
16
19
25
24
18
20
22
22
18
19
24
37
43
27
55
183
201
191
204
196
202
200
198
198
200
199
199
198
197
198
199
199
198
199
199
198
198
196
197
198
164
207
210
205
208
205
210
210
210
211
217
215
217
218
214
208
186
198
132
127
93
97
105
105
88
80
73
80
70
67
63
55
54
55
52
64
56
48
53
60
68
54
45
38
38
30
26
24
23
22
23
34
55
16
22
26
26
15
18
18
16
17
24
23
27
30
25
151
196
180
202
203
202
202
199
198
198
203
200
198
197
198
199
198
199
198
198
198
198
198
197
197
164
205
207
204
206
207
205
208
211
213
213
213
213
211
199
189
182
162
161
123
106
104
110
101
95
84
77
70
83
82
63
54
55
45
44
47
56
66
78
71
54
38
38
34
36
35
31
35
32
26
29
26
38
44
17
22
23
19
16
13
17
14
17
17
21
42
32
82
188
146
205
207
203
202
201
199
198
197
199
202
198
196
197
199
200
198
197
197
198
198
197
196
164
204
206
207
202
206
209
209
208
209
209
211
212
202
184
158
130
125
111
112
109
93
84
83
75
87
99
103
85
79
82
75
65
56
57
56
52
57
58
80
72
41
21
33
28
47
52
49
42
31
21
20
19
30
38
15
25
14
30
27
26
27
25
26
27
24
19
52
138
116
207
206
199
204
202
200
198
197
198
201
199
198
199
199
199
200
199
198
196
198
198
199
165
205
203
207
206
207
206
204
207
207
208
207
208
154
116
111
108
110
105
86
85
54
53
66
59
55
60
58
75
67
80
67
64
51
41
51
43
54
55
61
44
52
69
63
28
30
26
33
20
27
20
14
10
12
23
32
20
19
33
21
26
22
25
26
31
14
14
31
74
100
196
206
203
203
205
199
198
197
199
201
199
199
201
200
200
201
199
200
199
197
196
196
164
204
204
205
205
208
204
203
206
206
208
205
201
123
118
134
104
107
105
104
92
79
74
75
54
51
45
46
52
52
49
49
55
59
60
45
49
58
55
48
38
32
39
30
46
43
40
33
35
29
22
16
13
11
10
23
39
20
25
28
18
15
25
22
31
27
29
29
44
65
177
209
202
207
204
202
197
198
199
200
199
200
200
198
200
199
199
197
197
197
196
197
164
205
208
205
204
207
203
202
207
204
206
204
200
146
113
121
119
97
87
72
78
69
58
62
55
56
49
50
48
45
58
64
52
55
62
53
53
58
46
69
53
35
38
38
38
46
54
44
46
47
33
28
19
16
13
11
25
19
17
27
18
19
23
15
25
17
22
22
31
28
138
204
194
203
202
205
198
199
199
198
200
199
199
199
198
199
200
199
198
198
198
197
164
205
208
205
206
202
207
206
204
211
208
195
187
143
127
140
100
98
93
85
59
51
49
46
46
37
46
44
50
57
71
74
76
58
52
52
53
58
64
51
47
38
50
46
41
57
61
69
65
69
59
47
38
27
18
14
17
25
15
17
19
19
18
24
18
23
26
19
37
47
83
184
195
203
200
204
198
203
199
199
201
200
200
200
199
200
199
197
196
197
198
197
165
207
207
205
205
204
207
208
205
208
206
194
171
133
119
121
98
87
100
96
78
59
50
47
39
36
42
52
51
55
72
62
55
54
39
56
50
38
58
56
60
60
62
50
56
77
88
87
93
92
89
82
65
56
46
32
23
25
18
14
17
15
15
19
18
26
26
22
29
47
52
142
194
204
200
200
198
200
199
201
200
199
200
198
199
198
198
197
197
197
198
195
164
210
211
206
204
204
206
207
204
205
209
197
143
151
124
113
93
89
77
68
70
68
59
56
54
48
43
45
38
42
48
65
62
48
60
50
37
43
47
50
66
64
72
68
79
93
102
105
114
124
115
111
102
96
82
67
48
34
28
11
12
14
13
16
15
15
20
23
28
36
49
61
186
200
201
197
199
200
200
200
199
198
199
199
200
198
198
197
195
197
196
196
164
211
210
210
204
204
203
205
207
207
202
189
146
142
115
101
112
113
113
85
64
58
53
50
42
41
45
43
43
57
66
57
48
70
50
38
36
45
45
48
69
70
79
84
105
117
129
130
131
147
137
130
129
132
131
114
85
58
37
19
10
11
10
13
12
11
12
15
22
28
46
47
139
199
200
199
200
199
199
200
199
201
200
199
198
198
197
197
198
196
195
196
163
212
214
212
206
209
201
209
205
201
206
171
131
122
98
88
87
90
98
88
80
61
51
45
42
50
53
47
46
49
44
58
75
49
46
40
52
47
56
65
67
86
97
114
126
137
149
152
140
164
161
152
147
154
158
152
131
96
52
28
11
12
10
11
10
11
9
10
13
17
26
45
41
183
198
197
198
199
199
199
198
198
199
200
198
197
197
196
196
195
195
196
162
217
219
213
206
213
203
207
205
204
197
193
121
102
102
75
63
70
65
73
59
49
57
44
45
46
44
46
45
50
66
63
56
47
39
36
38
52
56
75
86
88
116
125
136
147
155
153
156
176
175
173
173
183
183
170
160
142
95
42
19
11
12
11
9
9
9
11
15
15
18
29
43
164
194
197
197
197
198
201
198
198
200
199
196
198
198
196
197
197
196
196
162
217
222
213
210
205
204
206
206
206
193
184
109
99
97
74
70
64
62
55
38
37
41
31
36
46
49
51
58
66
51
55
55
55
45
40
43
53
64
83
90
102
127
134
140
146
157
171
178
186
186
180
183
195
196
188
181
166
134
79
37
20
14
11
11
9
6
10
13
15
15
23
35
166
197
197
196
197
198
200
199
198
198
199
198
198
197
195
196
195
195
196
162
215
218
208
212
207
204
211
207
203
195
183
106
102
94
72
63
45
56
55
46
51
34
35
43
46
54
63
64
56
63
53
53
54
57
34
48
54
71
87
112
112
132
144
144
165
177
179
182
188
197
192
197
199
201
198
188
183
166
122
62
39
22
15
12
12
12
9
9
12
13
17
28
170
198
197
196
196
198
199
197
197
199
198
197
195
196
195
196
197
196
194
162
214
213
211
210
210
206
210
207
205
198
143
109
107
80
63
70
61
61
53
47
56
45
52
45
49
58
69
53
70
65
57
44
46
42
28
39
64
92
115
120
118
134
150
153
169
178
193
186
193
196
196
201
208
208
213
207
196
193
167
117
62
39
22
17
10
12
15
14
10
10
16
39
175
197
196
197
197
197
198
198
197
198
198
196
196
195
195
196
193
194
196
162
215
212
210
206
206
200
193
201
194
198
147
111
103
81
73
58
56
33
51
58
45
50
53
58
60
77
64
74
73
68
58
56
44
26
55
67
86
108
128
122
123
141
154
169
180
186
189
189
194
195
199
204
210
212
213
213
207
198
191
155
116
64
43
22
16
16
18
13
17
33
38
37
119
189
197
197
196
198
199
197
197
197
196
195
196
195
195
195
193
192
193
162
206
210
211
203
201
197
201
196
196
187
143
115
97
77
62
78
59
67
70
57
55
58
59
62
58
65
72
77
68
70
61
47
39
51
67
80
107
124
129
135
144
147
164
175
190
193
190
193
193
199
202
207
210
213
213
214
203
203
201
183
154
115
83
58
29
19
23
30
20
38
57
51
88
191
197
197
197
198
199
195
195
196
197
195
196
194
194
194
193
192
193
160
207
208
203
203
203
199
201
198
193
141
118
108
98
75
61
70
87
79
71
66
69
72
80
79
82
72
82
77
74
70
62
54
52
71
89
107
124
134
141
146
157
163
172
184
189
192
188
195
199
198
201
210
208
210
213
211
212
211
207
203
185
157
140
115
67
36
36
55
41
34
50
48
58
153
194
196
196
196
197
197
196
196
195
195
195
194
195
193
193
193
193
161
202
199
199
201
200
201
201
201
190
118
124
118
105
91
66
58
49
55
54
67
69
87
86
92
91
93
98
86
84
82
62
61
76
92
120
129
130
143
156
154
170
172
178
191
198
199
197
202
197
197
204
207
204
214
215
215
217
217
215
207
207
187
166
152
120
66
45
49
35
45
31
32
53
104
189
195
198
197
196
197
197
195
196
193
195
194
194
193
193
193
194
161
201
200
201
201
202
200
198
196
192
160
127
111
99
87
71
62
77
65
71
70
88
85
95
98
110
106
104
103
94
90
78
97
102
126
142
157
163
164
164
168
176
183
190
200
200
201
204
202
199
202
207
210
211
216
215
219
220
221
221
218
215
208
196
180
144
94
55
45
42
47
29
38
46
88
187
196
197
195
195
196
196
196
194
195
194
194
193
193
192
191
193
160
199
197
200
200
201
197
199
197
199
187
180
122
103
103
88
75
72
69
69
88
89
91
97
109
120
116
113
114
101
89
112
112
124
145
162
173
178
178
173
178
185
190
195
201
208
208
206
206
201
204
209
215
217
218
217
218
215
215
223
221
218
212
208
195
165
115
69
49
42
37
40
37
47
71
190
196
194
195
196
196
194
195
195
193
195
192
192
193
193
192
192
160
198
198
198
199
197
197
200
197
193
189
191
172
109
85
88
83
67
67
81
89
93
115
120
126
118
117
122
113
99
114
121
133
141
173
185
192
193
194
187
193
193
189
200
208
211
208
212
207
210
215
216
217
217
219
218
214
216
214
214
216
217
211
206
191
165
126
79
55
42
35
43
41
37
58
182
194
196
196
195
194
195
195
195
194
193
192
193
192
192
192
191
160
200
197
199
198
198
198
196
199
197
195
188
170
123
64
73
76
67
89
102
106
102
104
103
101
110
120
110
102
123
129
135
156
166
184
197
200
201
203
197
200
202
204
209
214
218
221
221
218
219
211
220
217
218
217
212
215
210
211
211
207
212
211
205
196
164
127
92
53
41
36
36
37
43
59
175
195
195
196
195
194
194
195
195
195
192
193
194
192
193
191
191
158
197
198
197
198
197
198
199
197
198
196
195
181
171
110
59
64
74
96
122
123
130
123
119
120
131
102
118
136
137
142
153
168
181
188
201
204
207
205
209
202
207
210
217
220
220
219
224
223
222
220
220
220
218
215
213
214
206
209
205
195
203
207
199
190
160
123
101
60
44
38
35
31
40
52
180
195
194
194
193
193
194
195
195
193
192
192
191
191
191
190
190
159
198
197
198
198
198
196
197
197
195
197
198
194
185
178
115
71
81
128
110
111
124
136
131
120
121
153
153
145
148
151
160
174
188
195
203
211
212
206
215
217
216
219
224
223
226
227
227
225
226
223
222
218
217
213
211
205
206
206
203
195
201
201
197
183
154
123
94
78
51
40
42
37
37
48
171
193
193
193
193
193
194
193
192
192
191
191
192
189
190
189
190
158
198
197
198
197
197
196
196
196
197
195
197
194
193
189
180
126
105
185
170
151
135
134
143
162
170
166
165
151
152
157
176
192
208
213
219
219
224
224
224
226
230
227
224
225
227
227
221
221
222
216
218
215
214
214
208
206
205
202
203
199
198
196
193
175
152
118
99
65
57
42
46
36
31
39
166
193
193
192
193
193
192
192
191
193
190
190
189
190
190
189
189
157
197
196
198
198
197
197
197
195
198
197
196
195
195
196
194
145
120
203
198
186
180
180
179
190
191
178
167
166
174
179
188
205
214
220
220
223
224
229
228
228
229
228
226
219
221
215
212
217
218
219
220
220
217
219
211
206
206
206
205
200
197
198
196
186
162
126
101
71
56
47
45
39
31
45
147
192
191
192
191
191
192
191
193
191
189
191
190
189
188
189
189
158
200
197
198
197
197
197
196
197
197
195
196
196
196
196
194
146
129
209
203
196
186
187
195
196
197
188
174
172
182
192
202
215
217
215
228
227
224
228
227
229
229
222
216
215
207
198
204
205
208
216
217
218
223
221
222
219
217
212
208
206
202
199
194
188
177
151
118
72
54
48
46
42
34
45
166
192
192
191
191
191
191
190
191
192
189
189
190
189
188
187
190
157
197
197
198
198
198
199
196
196
196
196
196
195
198
196
193
134
136
207
204
196
189
187
191
192
192
187
177
171
181
194
208
217
221
227
230
230
221
226
226
228
226
217
211
202
192
191
194
194
205
214
219
221
219
219
219
219
218
212
206
209
204
200
198
196
187
175
151
97
62
49
47
42
39
61
168
191
190
190
189
190
191
190
191
191
188
189
188
188
188
186
188
158
198
199
198
198
197
198
198
197
194
197
196
197
195
195
197
124
147
207
201
200
197
197
196
193
191
180
178
178
182
192
210
218
217
228
230
224
221
222
217
219
217
208
204
191
183
183
192
198
214
219
226
224
218
219
219
213
212
212
213
205
196
195
196
198
198
194
178
134
81
51
46
46
37
51
164
190
190
191
191
191
191
189
190
190
189
189
189
188
187
186
189
156
198
198
198
197
197
199
198
197
198
197
198
197
194
196
194
136
146
208
204
202
201
203
199
197
188
177
174
179
173
183
208
210
212
216
215
213
202
203
204
204
204
200
196
190
188
202
207
212
213
218
222
219
214
213
210
212
213
212
207
202
165
175
191
196
197
194
192
168
105
56
45
45
42
57
179
189
189
189
190
190
189
188
190
190
189
187
190
188
187
187
188
156
199
199
197
199
198
199
196
196
198
196
198
197
197
196
199
164
148
206
204
203
209
212
206
198
195
187
176
173
171
172
194
187
194
204
200
190
187
185
184
183
182
187
193
200
213
214
209
210
198
191
185
185
189
183
192
203
199
198
198
195
181
172
190
191
195
198
195
188
153
89
48
47
50
77
190
189
190
188
189
189
190
187
188
187
185
188
188
187
186
186
185
156
200
199
197
198
198
197
197
197
195
197
198
197
196
196
195
177
164
206
205
209
211
210
205
206
206
196
186
186
174
173
174
169
169
176
179
175
172
163
155
152
157
170
178
183
195
182
170
158
150
148
144
156
153
149
152
165
169
167
164
169
176
177
181
180
187
187
192
193
182
120
62
53
48
102
189
200
195
187
187
188
187
187
187
186
186
183
185
185
185
185
185
155
199
199
196
198
197
196
197
196
196
196
194
195
195
196
196
186
179
208
208
206
212
202
206
209
198
183
178
183
179
187
164
141
144
153
158
162
150
147
141
126
127
142
134
122
111
96
94
93
97
103
111
112
120
114
117
131
122
126
138
142
147
167
177
179
178
175
183
192
192
153
86
63
51
106
168
222
215
192
186
184
185
185
186
186
184
185
184
184
183
184
184
153
198
196
197
197
197
195
196
196
197
197
197
196
196
196
196
194
184
204
202
203
195
186
183
170
155
145
139
141
121
142
129
110
115
130
148
149
147
139
134
110
95
104
99
82
65
49
44
41
40
43
61
64
78
85
96
110
111
118
113
119
128
141
159
165
173
178
182
191
195
169
98
66
59
103
190
211
138
159
185
184
185
186
185
183
184
183
183
182
182
183
182
154
198
197
199
197
196
197
196
195
195
195
195
194
194
194
194
193
177
200
192
176
170
152
139
121
105
90
80
75
65
75
80
77
80
98
134
143
140
143
130
108
74
74
72
59
51
37
32
37
49
61
70
82
97
104
103
102
104
96
100
104
112
121
134
154
171
179
186
187
196
173
109
77
61
112
184
174
78
128
183
183
185
183
184
185
184
183
182
182
180
181
182
152
196
196
196
196
196
195
195
195
195
194
195
194
193
194
194
193
179
196
152
144
129
125
117
87
65
48
41
36
41
53
52
55
64
79
122
134
138
133
135
118
94
80
69
53
41
35
31
35
44
57
70
78
74
74
77
88
99
106
104
107
112
117
125
145
169
181
186
189
187
175
129
86
70
134
154
96
69
107
183
184
182
184
184
184
183
182
182
182
180
184
181
151
197
195
194
195
195
192
191
192
193
196
194
192
193
193
191
188
182
187
139
117
109
102
100
85
47
43
46
36
33
31
36
44
51
71
113
147
150
157
147
131
108
91
71
54
40
28
42
51
60
77
80
81
83
79
69
53
48
72
90
102
109
113
126
146
164
174
186
187
184
176
142
93
70
137
129
91
72
113
181
182
183
181
185
183
183
183
183
182
182
183
183
152
195
194
193
192
191
193
192
189
193
190
190
188
188
188
189
185
177
180
132
122
116
108
97
95
85
66
49
44
43
39
32
21
28
44
114
157
176
179
171
152
126
106
68
57
40
44
52
35
34
30
28
18
22
32
45
46
63
63
66
79
91
111
126
148
166
175
185
190
185
177
145
95
60
123
113
120
79
115
180
181
180
181
183
181
181
183
183
182
182
183
179
151
194
193
190
192
190
191
190
190
190
192
188
190
188
189
188
179
174
189
144
128
124
113
89
63
72
68
48
36
28
20
25
36
32
40
113
181
208
213
207
176
137
107
80
76
68
37
41
86
102
31
18
21
44
52
69
44
46
60
74
88
103
121
142
161
175
181
187
189
188
179
157
103
73
125
119
134
93
121
179
179
180
181
182
183
182
181
182
182
182
180
178
151
193
193
193
189
190
188
190
188
186
190
191
189
187
188
187
179
177
193
157
134
112
85
54
85
59
43
24
27
22
25
17
46
33
64
123
205
231
237
223
195
153
115
97
95
73
68
64
102
124
57
38
42
36
90
80
82
84
98
114
122
128
143
161
177
188
190
192
191
186
180
163
121
92
99
119
143
112
146
178
179
179
179
181
181
182
181
179
180
181
180
181
151
192
192
189
189
189
190
193
187
187
189
188
189
186
188
187
188
174
197
163
132
105
88
74
41
43
118
67
29
27
33
28
67
52
73
142
219
236
243
221
198
162
127
109
96
93
93
96
96
111
111
86
84
104
93
92
98
110
115
122
135
149
161
177
196
196
195
191
188
185
174
165
126
84
82
101
138
125
179
177
177
177
178
182
181
180
181
181
181
182
181
180
150
192
193
192
188
188
188
188
187
188
189
185
188
189
190
188
188
178
199
175
153
136
116
89
96
101
111
111
62
33
61
85
93
84
93
169
227
239
247
222
199
170
147
131
113
93
86
78
82
83
84
82
70
82
100
109
110
111
121
131
145
167
178
195
204
204
197
194
188
177
168
158
139
78
82
102
140
153
176
173
177
176
178
179
178
180
181
179
180
181
181
180
149
191
192
190
189
188
189
189
187
187
188
187
188
188
190
187
191
173
201
186
175
162
157
149
138
119
104
95
108
109
93
84
71
79
135
197
227
239
246
222
198
179
168
149
133
119
98
89
81
81
84
89
89
97
103
106
113
124
140
156
170
186
196
203
208
203
195
189
180
175
162
158
121
83
94
115
139
167
174
173
175
176
177
177
177
178
180
178
180
179
179
179
150
191
190
189
188
188
189
187
188
189
190
189
186
188
189
186
189
175
203
197
188
181
172
161
157
144
112
100
88
83
74
68
83
115
177
208
231
241
242
219
206
196
184
171
152
139
126
108
107
107
108
103
100
104
113
127
141
151
165
181
195
201
202
204
201
201
194
187
177
170
162
156
122
86
100
130
133
173
173
172
174
176
175
175
177
177
178
179
179
179
179
178
150
190
191
190
189
190
187
186
186
189
188
185
187
190
187
189
192
170
206
204
199
193
183
178
162
142
123
106
91
86
100
112
121
162
197
219
234
245
243
222
210
200
196
180
169
162
149
138
121
123
124
131
137
141
149
158
168
171
185
200
202
205
200
201
199
199
189
179
173
166
160
152
118
82
100
141
140
174
173
173
173
174
177
175
176
177
178
178
178
180
179
179
150
191
189
190
189
188
187
187
186
187
186
187
189
187
189
191
192
179
205
208
204
201
192
181
178
174
163
152
145
138
131
131
167
185
208
223
237
246
246
223
214
207
202
190
180
169
167
163
154
145
143
143
142
151
161
169
180
188
197
202
198
198
197
197
195
192
189
180
170
164
159
144
107
96
137
132
154
174
173
174
175
174
175
176
175
176
178
177
179
181
178
180
149
188
190
188
188
189
186
188
187
186
186
187
187
186
188
190
190
185
204
208
208
196
194
190
185
180
176
163
152
144
157
175
189
195
209
227
240
249
244
224
213
207
197
185
183
175
171
176
175
171
164
165
163
168
175
179
188
198
197
195
194
193
193
193
189
188
186
177
171
161
153
139
107
98
147
148
164
172
173
172
173
174
176
175
176
176
176
178
176
180
180
181
149
188
188
188
188
185
187
186
185
187
187
188
187
187
188
188
190
186
200
209
209
203
196
198
194
184
174
169
168
181
188
194
194
194
210
235
242
249
243
224
219
206
188
174
164
169
168
179
181
182
181
187
180
186
193
193
197
191
187
186
186
191
191
188
187
184
182
174
165
153
149
133
108
105
171
180
171
172
172
174
173
173
175
176
175
175
176
177
178
180
178
180
149
188
187
185
186
185
184
188
186
186
187
188
187
189
188
187
190
187
194
209
209
205
198
197
198
196
192
193
190
192
196
198
196
179
219
240
247
251
242
222
212
200
191
172
158
148
162
180
184
194
195
197
195
197
194
190
191
191
192
192
194
191
192
189
182
181
179
177
157
147
145
134
101
116
161
173
171
173
173
172
172
175
174
174
175
176
178
178
178
178
180
179
149
184
186
187
185
186
185
184
186
186
186
186
187
187
187
187
191
189
182
207
210
208
194
198
196
199
196
190
194
199
198
188
179
167
232
239
242
248
231
221
211
199
192
182
173
145
145
169
184
193
201
204
202
207
200
194
191
192
196
196
197
197
191
191
184
182
180
167
159
147
141
124
91
123
173
170
173
174
173
172
173
174
175
175
175
175
177
177
175
178
178
179
148
184
184
185
185
184
185
183
184
185
186
184
185
185
185
188
188
187
169
203
207
205
201
197
196
199
198
199
199
195
193
183
170
218
232
235
233
240
226
207
198
193
196
194
194
171
129
152
179
190
200
204
210
207
198
200
194
196
203
203
203
195
193
190
184
178
170
164
157
144
136
114
93
131
164
159
173
170
173
172
174
174
174
175
175
175
176
177
176
177
178
176
148
183
181
182
183
182
184
184
183
185
187
185
184
186
186
186
189
187
179
199
207
207
204
198
197
205
202
203
201
197
191
180
184
218
210
212
216
206
196
180
164
169
184
187
194
187
141
152
174
189
193
203
204
203
204
201
203
201
205
203
199
193
191
184
180
175
168
161
145
141
130
100
96
114
138
171
172
172
172
172
173
175
175
173
174
173
175
175
175
176
178
177
148
183
180
181
183
184
183
185
184
183
184
183
185
183
186
185
185
187
184
190
204
202
203
208
208
207
206
204
199
194
191
172
215
184
175
172
169
166
152
140
124
139
139
143
159
162
148
149
171
180
190
199
202
197
205
205
204
205
205
203
202
191
190
183
177
175
164
149
141
141
117
104
93
121
168
170
173
172
173
171
171
173
173
174
173
174
174
174
174
174
175
178
148
183
181
182
183
182
183
184
183
182
180
181
182
182
184
184
185
185
188
176
207
202
201
207
211
210
210
205
196
191
183
176
181
147
159
142
137
131
123
121
119
94
79
112
128
128
135
158
174
178
189
197
203
209
208
202
205
204
199
192
196
195
184
182
177
171
159
141
139
135
120
95
96
156
169
169
169
170
170
169
170
172
173
174
174
172
173
173
175
174
175
175
148
182
183
182
182
182
182
182
180
181
182
181
180
182
182
183
183
183
178
163
204
204
208
209
210
207
207
197
195
190
181
181
151
99
47
110
123
115
110
106
55
37
35
42
83
114
109
169
188
185
190
194
197
204
208
205
201
196
194
192
193
187
178
171
167
157
151
145
135
130
107
93
102
167
169
169
169
168
169
168
170
171
171
171
172
170
173
170
172
173
171
174
146
181
181
182
182
182
182
180
182
182
180
180
180
181
182
184
184
180
181
149
200
205
208
209
205
207
206
202
194
190
189
194
184
96
70
67
107
105
101
92
74
76
85
76
81
86
97
187
203
197
195
192
199
204
204
206
198
197
192
188
187
181
175
171
159
154
144
131
127
121
103
87
129
163
168
169
168
168
168
169
168
171
171
170
172
172
171
172
174
173
173
175
145
182
180
178
181
182
181
180
183
181
181
181
183
181
180
181
180
180
181
160
183
204
209
208
206
204
209
202
194
196
199
205
208
147
103
87
104
107
98
87
83
88
86
79
87
115
139
199
213
209
201
198
199
200
204
202
195
192
184
182
173
177
167
164
157
149
135
134
133
121
97
72
145
164
167
166
168
168
168
170
169
170
171
170
171
172
171
171
172
172
173
173
144
178
181
179
179
181
181
179
178
179
180
179
180
178
177
180
180
180
180
171
178
200
201
203
205
207
208
204
191
197
207
217
212
173
164
143
129
130
128
124
117
110
115
124
135
146
158
205
222
218
211
200
199
197
199
197
195
183
182
179
174
170
165
164
150
145
136
140
128
119
80
74
158
166
166
166
169
168
168
168
169
168
170
171
170
172
171
170
170
171
171
174
145
180
181
178
181
179
177
181
178
179
179
179
178
180
180
180
178
177
178
179
159
198
201
200
205
207
205
203
202
209
219
223
216
183
177
155
150
132
137
132
120
108
104
119
143
149
179
211
214
216
215
206
203
203
200
195
192
185
178
176
170
165
157
157
145
143
130
136
132
124
74
75
158
164
165
165
165
166
167
168
168
169
170
171
170
171
170
171
172
172
172
172
144
178
179
179
180
179
180
178
179
179
180
179
178
177
178
179
177
178
178
178
164
187
193
200
200
204
202
203
208
213
218
221
215
187
156
118
125
137
131
138
105
111
88
103
131
158
184
202
202
205
207
206
203
194
193
195
189
184
178
170
163
161
150
156
146
142
137
136
133
101
67
116
162
163
164
165
165
166
166
166
165
169
170
170
170
170
168
170
170
173
170
170
144
177
178
177
178
177
178
176
179
176
176
178
178
178
178
177
176
178
177
175
160
191
190
196
196
197
196
199
205
209
208
209
205
176
130
118
112
132
116
122
113
113
116
113
119
144
165
183
185
185
191
201
197
194
195
194
189
182
177
168
160
156
154
151
143
144
139
139
117
83
62
154
163
163
163
165
163
165
165
166
164
168
167
170
169
170
170
169
171
172
170
170
144
177
177
177
177
177
176
177
177
176
176
176
176
176
176
176
175
174
175
175
169
177
189
191
194
188
193
202
203
196
186
185
180
175
130
112
110
112
104
112
120
114
124
123
115
124
149
155
161
154
170
188
194
193
191
191
188
176
166
158
153
154
149
147
148
148
143
134
105
81
81
159
162
163
162
161
163
165
165
165
167
165
166
168
169
168
168
169
167
168
170
169
142
176
177
176
177
175
177
175
174
176
177
177
175
176
175
174
174
176
174
175
175
163
188
184
191
192
198
198
185
164
144
142
154
153
114
118
136
129
120
115
124
156
144
134
126
133
128
121
143
116
145
158
178
185
187
188
182
172
164
155
151
147
149
148
140
144
143
126
103
72
100
162
160
161
160
161
164
163
164
164
164
167
167
165
166
169
167
168
168
170
169
171
142
175
174
174
176
176
174
175
174
175
175
175
174
175
175
176
175
174
175
174
173
170
187
186
189
194
198
185
170
129
117
114
133
130
136
142
167
166
161
167
174
153
141
146
140
134
124
123
125
116
126
131
163
170
176
180
169
167
155
151
147
143
146
144
140
142
133
118
92
72
139
156
158
160
159
160
162
163
161
162
164
166
166
166
167
167
166
166
166
167
167
170
141
176
176
174
174
175
175
175
175
174
174
174
174
175
174
175
175
174
173
172
173
171
180
182
174
182
195
181
154
121
111
103
95
122
130
121
108
117
132
134
107
87
82
83
93
99
107
116
110
111
111
127
151
155
162
172
169
155
152
146
145
144
146
140
141
130
126
85
69
90
153
156
156
160
159
161
161
160
162
160
162
164
165
165
164
167
166
165
166
168
168
169
141
174
175
175
176
174
173
174
174
174
173
173
174
174
173
173
172
172
172
172
174
171
164
179
181
189
200
181
157
130
106
74
57
74
71
49
54
66
72
75
69
57
49
38
37
43
39
45
45
54
95
113
130
149
155
162
162
157
151
140
149
145
144
140
132
125
108
68
59
110
153
151
156
160
159
159
160
160
161
161
162
163
164
165
163
164
165
165
165
167
166
169
140
175
174
175
174
174
173
173
174
175
173
173
173
173
172
172
173
172
172
172
171
172
149
176
184
188
193
178
160
129
112
109
123
120
104
92
95
63
59
67
57
64
76
87
85
98
112
121
119
121
116
125
139
143
148
155
156
153
139
140
138
142
140
130
129
116
89
72
68
137
149
153
154
156
158
160
158
160
160
160
161
162
163
164
164
164
165
165
165
167
166
168
139
175
174
173
173
174
173
174
173
174
175
175
172
173
172
173
173
172
170
171
170
172
161
155
179
184
189
180
161
139
138
162
160
159
158
163
161
154
142
138
146
161
164
159
156
150
142
135
134
142
153
143
138
141
149
150
150
147
143
138
141
135
133
132
120
103
84
74
99
143
147
150
154
156
157
158
159
158
159
159
160
162
161
161
162
161
164
164
164
166
166
167
138
173
175
172
174
173
173
173
172
173
173
172
173
172
172
172
172
171
172
171
172
171
171
130
164
180
179
172
164
157
171
189
184
150
142
140
142
145
140
142
138
146
144
137
131
129
124
123
134
157
165
158
150
142
144
143
141
142
141
138
137
132
131
130
114
94
75
59
118
142
143
149
153
153
154
155
157
158
159
158
160
160
161
161
161
162
161
162
164
166
165
166
139
172
173
173
173
173
173
174
173
172
171
174
172
171
172
172
170
173
171
171
171
171
170
135
139
170
169
163
154
162
182
193
193
162
134
119
107
93
100
103
98
100
105
103
100
103
118
128
143
160
161
154
145
139
135
138
137
138
135
137
128
129
125
115
98
73
61
92
136
139
141
145
149
151
153
154
155
156
157
158
159
159
159
160
161
159
160
162
163
165
166
167
140
173
173
173
174
173
172
172
172
172
173
172
172
170
171
172
170
170
172
170
170
169
167
162
106
150
163
158
156
162
181
183
185
175
151
130
113
92
84
79
74
80
85
97
106
119
123
137
148
153
153
152
143
134
136
136
138
136
134
132
124
120
115
100
82
53
63
127
140
138
139
144
147
149
151
152
153
154
155
156
157
156
159
158
158
159
158
159
162
165
165
165
139
171
172
171
172
172
172
170
171
173
171
171
171
171
170
172
170
170
169
171
169
168
170
172
126
129
152
158
154
158
169
171
166
161
151
134
117
105
87
78
92
83
84
102
109
121
128
136
138
144
145
144
141
137
134
136
133
133
134
130
119
106
96
86
61
48
103
136
141
139
138
141
143
148
147
151
151
154
153
155
156
157
156
158
157
156
158
158
161
161
163
165
138
172
173
171
172
171
173
171
171
172
171
171
172
170
170
171
169
168
170
169
168
170
169
170
163
79
131
152
143
153
153
159
159
154
149
139
120
96
99
90
84
78
85
103
113
125
130
134
137
139
141
139
133
136
130
133
132
132
130
128
108
100
68
72
57
87
126
139
143
148
134
140
141
143
145
147
151
151
152
152
155
155
155
157
156
157
157
157
159
162
163
163
137
171
173
173
172
173
171
171
172
172
170
171
171
170
170
170
169
168
168
167
168
167
167
168
169
123
77
130
137
142
153
157
155
153
150
142
129
113
111
97
86
103
105
114
123
127
135
142
145
146
142
142
139
134
123
125
127
109
115
114
98
85
72
51
72
117
135
142
144
150
145
98
122
141
147
146
149
149
151
153
153
154
154
155
156
154
155
157
156
159
160
160
138
171
170
171
170
170
170
171
171
170
170
170
171
169
168
169
168
167
167
166
167
166
165
167
163
134
55
104
125
139
138
156
164
167
165
161
144
140
129
122
104
126
126
129
135
142
152
154
156
148
149
143
135
125
111
124
113
92
103
102
88
63
59
51
105
127
140
139
142
151
162
147
86
101
113
136
146
147
149
149
151
151
153
154
154
153
154
155
155
158
157
159
133
171
170
168
171
172
171
169
170
170
170
169
169
169
170
168
167
167
168
167
167
169
176
156
131
118
111
45
91
116
134
150
170
183
184
178
172
154
151
151
139
155
148
154
156
160
168
170
166
147
145
138
132
125
101
111
104
80
93
97
60
56
56
95
123
137
139
143
148
150
159
166
110
66
105
92
119
146
149
148
149
152
152
153
152
153
153
153
154
156
157
158
132
171
171
169
170
170
171
169
170
168
170
169
169
168
168
167
172
177
171
174
183
187
144
156
129
113
119
63
44
88
131
151
170
188
191
194
189
179
181
181
175
177
158
170
169
177
174
174
171
163
135
135
112
116
99
76
77
68
77
81
50
52
92
123
135
139
143
144
148
151
159
162
164
82
100
110
83
103
144
148
149
151
150
150
151
152
150
152
153
154
155
159
133
171
177
170
171
169
170
170
167
169
169
167
169
168
174
172
167
144
137
164
169
149
165
155
106
145
104
100
67
49
99
132
156
169
183
188
179
182
185
177
175
167
157
173
165
175
171
166
165
148
142
125
109
108
86
61
64
63
67
63
39
82
116
130
134
141
144
146
148
149
158
166
172
122
91
102
96
120
118
118
142
161
153
152
154
154
150
151
153
152
153
155
131
181
168
164
160
168
168
167
169
169
166
168
170
178
175
184
161
139
126
117
136
176
162
136
113
144
81
110
111
66
73
109
138
133
151
168
171
162
165
163
169
155
152
158
161
150
154
153
145
131
129
113
92
88
63
50
60
66
58
43
67
111
126
134
140
144
145
148
150
150
158
165
175
149
96
98
104
105
137
144
136
118
154
147
141
149
158
163
153
151
152
154
131
160
152
180
185
152
151
171
170
173
187
193
193
161
200
171
134
131
119
139
163
171
146
119
128
135
77
115
112
104
102
73
102
112
126
130
155
157
151
148
154
148
144
150
138
124
120
136
113
106
94
101
71
69
48
57
74
63
48
91
107
126
129
139
142
145
146
147
146
153
160
168
174
159
98
105
110
111
136
140
155
154
151
155
155
158
167
145
167
162
155
154
131
142
158
183
195
169
127
142
158
174
165
170
168
185
203
167
128
127
121
139
167
164
139
119
150
130
76
118
110
104
171
86
70
80
84
108
125
128
131
139
137
129
129
132
121
114
106
99
80
81
73
71
46
52
35
58
61
77
84
112
120
131
140
146
146
147
147
151
154
156
160
166
176
161
101
108
114
112
139
149
145
155
159
155
155
156
164
174
169
142
148
157
133
139
161
192
199
177
153
155
157
164
163
162
173
189
198
154
119
123
124
140
164
161
133
136
155
131
70
113
106
101
169
171
113
53
71
90
87
101
112
120
111
113
111
113
100
81
93
79
67
59
49
42
34
37
43
62
80
94
107
117
128
138
144
147
146
148
151
152
154
159
163
170
181
157
105
112
113
116
143
145
146
147
155
158
153
155
162
167
168
168
163
160
128
145
163
191
198
177
150
152
157
165
173
168
171
189
194
149
118
129
134
138
159
150
130
146
163
134
76
111
106
99
137
187
180
97
67
69
65
72
78
90
101
99
93
91
68
85
68
61
41
45
37
36
37
43
74
94
84
107
118
127
139
145
148
148
145
149
154
152
156
161
166
174
184
155
106
111
117
120
142
147
153
146
153
155
154
154
159
168
166
166
164
162
138
142
162
193
198
177
154
152
158
162
156
148
159
189
185
136
114
128
138
141
151
148
144
155
165
134
85
102
104
94
84
191
184
172
107
60
44
52
48
57
63
63
74
64
53
55
43
44
36
47
50
71
73
99
85
100
111
117
124
138
146
148
151
146
148
155
159
159
161
166
172
178
185
142
109
118
121
121
144
149
151
150
152
155
154
155
157
164
168
168
164
162
135
147
164
190
199
172
152
144
145
152
144
138
162
193
175
133
114
128
138
144
140
143
144
154
167
138
96
92
97
89
57
179
185
185
180
158
136
107
55
51
54
42
49
59
40
49
62
74
80
83
89
84
94
101
111
111
121
133
139
145
151
151
151
152
154
157
162
163
165
171
177
184
192
134
112
121
120
124
142
154
156
152
153
155
153
156
160
162
169
166
163
161
135
146
166
194
199
172
148
131
143
146
136
140
168
193
157
121
118
135
138
141
142
140
146
150
167
144
103
81
97
86
68
147
189
185
184
178
175
164
160
141
111
96
84
74
73
88
99
88
98
95
100
107
111
113
117
123
132
141
145
150
151
152
155
158
158
163
167
166
171
178
183
189
193
122
116
118
121
128
145
156
158
152
151
153
152
155
160
165
166
166
165
161
134
144
164
183
196
172
141
126
138
138
136
142
172
191
148
122
124
136
137
136
143
143
151
152
168
147
113
80
99
86
77
117
191
191
188
184
181
179
174
159
158
148
134
123
112
101
107
108
112
112
114
117
121
123
127
133
142
147
149
153
157
158
162
163
164
170
170
175
177
183
187
194
187
120
116
121
119
135
147
152
154
155
155
153
150
154
157
162
166
165
160
158
131
142
159
181
191
167
145
118
136
129
127
144
177
175
142
124
126
137
135
136
142
146
152
149
165
155
118
82
94
94
85
97
182
197
193
191
182
187
182
174
170
162
152
140
130
126
125
123
125
127
129
128
134
136
143
146
150
155
159
160
163
164
165
169
170
174
177
179
184
191
193
197
175
114
122
124
120
142
148
156
154
157
156
153
150
151
155
157
164
162
159
153
129
142
153
173
185
162
134
122
131
123
132
155
183
165
136
115
128
133
135
139
141
144
154
152
161
154
127
88
89
100
93
93
164
197
196
195
193
190
188
186
182
175
167
159
148
141
136
133
128
135
136
140
142
149
153
151
156
157
161
164
167
170
173
176
180
181
185
188
193
197
196
202
155
120
124
134
121
145
150
154
157
157
158
152
149
151
155
160
164
161
164
161
129
140
152
167
185
155
126
121
125
122
138
167
177
154
134
113
129
136
136
139
143
148
150
153
165
150
127
97
89
101
94
93
152
193
197
199
197
195
194
192
189
182
178
172
167
158
152
146
147
148
150
151
155
158
163
163
162
165
169
170
172
174
176
179
184
183
189
196
199
204
207
204
133
123
126
129
132
147
153
153
156
159
157
156
150
146
152
156
163
164
164
160
129
137
151
163
179
147
122
104
107
114
144
178
166
147
127
118
131
135
138
140
143
144
150
151
165
151
127
110
82
103
99
99
142
191
199
199
201
202
201
196
191
192
187
185
179
176
171
165
162
160
163
166
165
170
172
172
172
174
174
176
178
182
183
186
188
188
197
199
204
206
214
200
126
126
132
130
141
149
150
155
153
156
159
158
156
151
148
151
160
162
163
165
134
139
143
158
179
140
107
95
109
135
166
170
155
139
123
123
134
136
139
141
145
144
151
156
172
157
126
112
84
102
106
101
137
185
198
204
201
202
204
204
202
201
198
192
187
188
182
181
177
172
173
171
171
174
176
176
178
179
179
179
184
184
191
196
200
199
206
209
213
218
219
180
125
133
136
125
141
153
152
154
158
158
159
159
157
152
151
153
158
162
163
162
134
