P2
# CREATOR: GIMP PNM Filter Version 1.1
92 112
255
243
247
250
239
247
250
238
240
241
243
250
235
238
229
238
229
222
222
219
214
212
216
213
220
211
214
216
211
210
211
208
207
207
210
205
206
204
208
208
208
212
206
206
211
209
207
212
212
212
210
219
211
213
216
222
221
225
214
216
220
217
219
221
219
213
214
211
210
210
208
207
204
203
201
201
200
202
199
201
199
198
200
196
197
198
197
197
197
196
197
196
163
242
244
247
234
252
241
240
236
245
241
249
238
237
225
240
228
222
227
222
216
215
215
215
213
216
216
207
210
209
210
208
206
209
203
209
206
205
207
209
206
208
204
209
208
209
206
207
212
213
207
208
211
212
203
219
217
219
206
216
221
217
217
213
218
213
216
209
210
207
206
210
204
202
203
205
200
201
198
200
199
199
197
198
197
198
195
198
196
196
196
196
165
240
239
237
238
241
244
244
241
238
244
247
238
241
232
239
231
216
220
227
216
219
215
217
210
216
216
208
211
209
213
208
209
207
205
209
204
202
208
210
206
208
203
206
207
201
199
201
199
199
191
185
170
182
194
192
206
215
207
208
211
216
212
212
213
212
210
206
208
204
206
206
202
203
203
204
199
202
198
201
200
200
199
198
198
197
197
196
197
196
196
195
164
245
238
240
242
246
250
242
247
228
232
242
237
236
226
235
230
223
218
217
223
219
222
211
209
215
213
213
212
216
211
212
213
208
205
208
203
203
207
206
203
205
203
204
197
202
200
202
204
202
195
178
168
172
156
144
139
187
208
205
207
214
213
213
211
210
212
205
206
204
207
204
203
200
200
202
200
201
201
199
201
200
199
199
198
198
196
197
196
196
196
196
164
228
235
236
245
239
235
239
238
230
232
241
231
235
224
227
228
234
213
219
219
216
217
211
210
210
209
215
212
208
215
209
210
209
208
205
208
204
203
203
201
204
190
193
185
197
198
200
200
193
189
183
171
170
160
150
119
132
157
179
201
211
208
204
208
208
207
203
205
205
204
206
203
201
202
198
199
201
201
199
199
200
198
198
198
200
198
198
197
197
196
196
164
224
220
228
232
232
220
232
234
232
232
238
226
226
225
229
229
220
217
222
218
219
211
211
215
205
207
214
213
209
212
211
210
206
206
207
209
205
201
202
196
180
169
157
159
168
179
182
187
190
159
158
158
168
173
168
172
121
125
125
150
200
202
204
208
207
205
206
206
205
206
205
204
202
201
199
200
201
201
201
201
200
199
197
198
198
198
198
197
197
197
197
164
221
224
223
230
241
236
233
229
228
219
233
233
232
227
223
222
229
222
218
219
215
212
213
216
211
208
210
210
209
208
209
208
204
204
208
194
196
191
160
136
131
122
120
126
131
140
147
134
129
137
132
141
142
151
168
155
158
116
118
120
146
187
201
204
203
205
204
208
204
203
206
200
201
202
198
199
201
200
201
200
203
201
198
199
199
198
198
197
197
197
196
164
223
221
226
224
229
236
246
232
228
222
227
233
224
227
229
225
216
217
220
224
214
212
214
216
211
214
209
211
209
206
204
206
205
205
203
195
174
156
143
96
106
109
113
120
121
117
117
121
112
110
98
107
109
103
103
125
114
103
87
105
98
139
199
201
205
210
211
205
206
204
205
204
202
201
199
198
201
199
200
201
200
200
199
199
198
197
199
197
197
197
196
165
218
217
221
224
222
218
233
226
223
220
226
229
223
224
219
220
217
215
217
217
210
211
215
213
211
215
209
211
209
210
204
202
200
204
190
184
168
130
100
89
85
94
91
99
113
113
99
94
94
93
89
99
100
93
80
80
52
71
81
80
91
85
157
205
206
208
208
209
204
206
204
205
202
204
200
200
200
201
201
201
201
199
200
199
200
199
198
197
197
198
198
164
214
214
213
217
218
222
214
222
220
223
216
221
217
225
216
219
212
215
216
216
209
214
214
215
210
209
213
213
209
207
199
181
169
158
152
132
102
74
47
55
65
85
92
78
73
80
86
78
76
62
69
76
84
88
87
83
68
54
65
77
71
71
111
170
207
204
207
205
203
203
203
205
204
202
201
203
203
201
200
200
201
203
201
201
198
200
199
198
198
199
195
163
210
209
210
213
213
215
216
215
216
218
215
216
220
214
212
214
214
212
217
217
214
212
212
209
205
207
211
211
205
201
190
174
133
104
115
115
113
122
105
83
57
55
66
78
69
52
49
50
64
63
50
57
57
92
88
85
64
65
72
78
56
59
70
134
192
209
208
205
206
203
201
205
199
202
202
203
200
202
202
199
201
204
200
200
198
198
199
198
197
196
198
165
211
211
214
209
213
209
218
214
214
211
212
212
214
213
211
212
211
214
212
213
213
214
213
211
209
203
198
201
205
181
129
83
89
67
76
104
130
131
133
121
96
71
65
55
54
52
28
31
39
58
57
39
38
58
66
88
71
47
59
59
58
50
53
78
170
199
210
213
206
204
202
203
202
203
204
202
202
201
202
201
202
202
202
200
201
198
197
199
197
199
198
165
209
208
208
210
209
210
212
211
214
210
212
212
214
214
212
213
213
212
211
214
212
214
211
211
209
207
207
184
146
90
63
70
57
63
86
96
101
126
125
103
73
62
47
37
44
43
60
44
28
43
40
35
39
39
40
49
61
56
58
52
44
55
48
51
101
183
206
206
205
200
206
203
205
202
205
202
203
202
202
202
201
201
202
201
200
200
199
198
197
197
197
164
205
211
206
211
209
207
212
211
213
209
213
212
213
216
215
213
213
214
215
214
212
212
211
206
191
163
120
95
90
59
43
47
49
69
72
63
65
94
100
86
72
54
48
41
43
25
26
46
47
40
44
41
33
31
30
30
46
45
57
63
41
52
42
39
52
131
172
199
199
201
203
202
202
201
207
202
203
203
200
200
202
201
200
201
200
200
200
199
200
199
198
164
208
207
209
209
208
208
212
210
211
210
214
214
211
214
213
212
213
214
215
213
217
212
212
205
116
104
104
82
67
37
48
41
41
42
47
58
68
40
43
59
55
49
42
29
37
28
16
25
25
32
24
22
35
33
25
26
23
34
36
57
61
51
61
47
40
77
140
203
204
205
204
205
202
201
203
206
204
202
202
200
202
200
201
200
200
199
199
199
198
198
198
165
206
207
209
211
209
208
210
212
211
212
214
215
215
217
214
215
215
228
222
221
217
206
173
140
123
101
74
72
53
56
60
55
46
44
53
56
47
43
49
40
45
42
38
31
24
40
29
17
25
20
38
27
26
25
17
23
22
24
32
40
36
40
47
46
31
53
97
188
198
205
203
207
204
201
202
203
201
203
203
202
202
201
200
200
201
199
200
200
200
197
198
165
211
210
208
210
207
212
209
211
213
212
214
216
216
217
215
218
214
230
220
210
156
125
107
93
87
80
67
68
52
69
73
79
68
53
60
71
59
57
64
76
57
45
47
43
39
35
26
20
20
42
33
38
36
31
30
22
22
19
20
33
28
36
35
47
47
47
63
151
191
206
202
203
201
204
201
201
201
203
201
201
201
201
201
200
200
200
200
199
200
198
200
165
211
204
212
211
213
208
211
210
213
212
221
216
220
216
215
222
214
238
201
140
103
81
77
87
86
77
69
67
77
93
92
79
67
53
47
66
69
66
85
98
104
81
53
37
36
40
36
50
54
33
22
25
30
21
28
25
21
26
26
30
26
23
33
37
31
31
59
78
176
199
200
204
205
203
202
202
202
203
201
203
202
201
201
201
201
199
198
199
199
197
197
165
206
203
207
208
208
206
210
210
215
214
217
218
224
221
218
224
213
223
132
72
79
73
64
64
63
72
75
86
86
82
63
46
49
46
47
41
39
48
47
62
60
49
41
34
22
18
50
44
33
27
23
30
33
41
46
38
37
36
34
21
26
27
24
37
32
23
37
61
107
198
204
205
204
205
202
204
201
203
201
202
202
200
202
201
201
200
200
198
197
197
197
163
208
206
212
205
207
208
214
207
215
216
216
218
216
219
214
222
214
141
81
70
69
58
58
77
92
78
66
86
79
54
63
55
44
48
48
53
65
66
57
41
39
29
27
32
31
38
26
35
16
16
22
26
32
29
31
36
41
39
49
39
37
31
28
20
50
31
32
52
70
182
198
203
203
201
203
202
202
204
204
201
201
201
200
200
199
200
198
198
199
196
198
166
207
206
210
205
208
205
207
209
214
211
214
216
220
217
217
223
188
92
65
66
71
66
76
80
85
77
85
76
49
67
63
59
58
70
65
55
62
65
59
36
31
31
26
27
41
64
60
50
23
23
22
25
27
31
44
32
47
33
31
39
40
28
27
32
39
44
29
38
53
141
194
195
201
200
200
200
202
202
202
201
201
200
200
200
197
199
198
198
197
198
198
165
209
208
206
210
211
204
204
210
209
211
218
217
218
219
217
223
161
87
59
72
63
75
78
76
74
78
60
46
74
88
50
58
56
63
58
57
40
32
36
50
50
52
47
39
35
44
40
42
32
30
28
23
15
17
16
13
23
15
23
30
35
40
31
25
34
44
36
36
46
91
179
193
199
202
199
200
204
202
202
200
200
201
201
200
198
199
198
197
196
196
195
163
209
212
207
208
211
208
208
210
212
208
218
217
219
217
211
220
125
74
77
69
88
82
64
62
67
49
48
56
90
63
60
51
52
67
45
49
49
44
38
44
39
34
44
63
101
81
42
36
23
20
40
31
15
13
13
14
16
18
25
24
28
42
37
41
22
32
47
43
48
67
153
186
198
201
202
203
203
201
202
200
201
199
198
201
199
199
197
195
198
195
195
163
207
210
206
207
206
208
208
210
209
205
213
213
212
213
192
130
87
77
65
73
68
54
51
63
43
44
51
72
62
53
52
54
52
46
47
46
51
55
43
45
29
44
62
60
48
42
41
30
23
20
24
30
34
13
15
20
20
18
16
28
30
27
30
29
28
26
28
49
37
44
112
190
196
203
203
201
203
203
202
201
201
200
201
198
196
195
196
195
196
194
195
163
208
204
207
208
208
208
206
207
207
204
208
208
204
196
149
77
66
66
61
54
52
50
53
59
49
42
62
55
50
48
39
51
55
39
35
39
44
46
55
53
51
60
61
61
58
72
60
43
44
34
26
25
18
18
17
19
23
24
20
23
32
28
35
33
31
34
30
29
49
47
60
177
196
199
203
203
202
202
203
199
201
200
198
199
196
197
196
195
196
196
194
162
207
207
214
204
211
205
205
205
205
202
205
204
201
187
92
74
62
65
43
42
44
44
50
54
34
47
55
43
50
40
35
52
35
43
39
36
38
37
60
66
60
62
74
75
97
96
87
73
52
45
40
29
30
24
18
19
30
20
26
30
28
33
40
36
34
40
33
31
32
50
52
139
187
192
202
202
202
202
201
201
200
200
199
199
196
198
196
195
195
196
194
163
206
209
209
205
209
208
205
204
207
200
203
203
168
100
68
65
59
38
37
38
36
38
51
35
41
45
47
46
43
29
48
47
35
31
39
41
44
47
69
59
60
53
55
64
59
50
46
32
32
29
33
34
30
29
23
32
37
30
37
42
38
43
43
40
47
40
48
37
37
40
40
106
134
184
201
201
201
200
201
200
200
199
197
197
196
196
197
197
195
196
195
163
201
204
205
204
207
201
206
202
203
200
199
148
98
92
70
60
49
42
26
19
22
29
40
36
33
51
48
44
27
34
45
32
29
35
38
48
47
52
53
67
63
68
59
58
51
48
44
48
42
34
39
34
30
27
27
39
31
33
38
39
48
64
62
58
66
48
45
45
44
45
27
79
109
181
198
200
200
201
201
198
199
198
198
198
196
195
197
198
196
196
194
162
207
204
203
204
207
201
203
200
203
200
192
117
65
62
51
43
41
46
38
24
26
38
45
42
38
40
38
33
38
38
33
30
31
38
30
50
59
60
64
66
61
56
61
53
56
39
56
59
52
41
47
35
30
28
32
33
33
38
44
48
63
67
74
73
87
80
53
34
37
47
17
39
84
161
198
199
200
200
199
199
200
198
197
197
195
195
197
196
196
193
194
162
205
202
205
204
202
205
201
200
199
198
195
106
61
56
48
45
41
48
49
39
38
36
45
42
40
39
50
46
29
32
21
27
24
28
34
50
59
62
56
62
55
52
60
67
54
79
61
48
47
51
52
45
30
27
34
33
37
41
49
48
69
84
92
85
102
106
101
37
25
28
13
28
49
149
196
199
199
200
198
199
198
198
196
196
196
197
197
195
194
194
195
162
203
203
204
203
201
202
200
203
200
198
181
80
63
51
39
33
39
42
45
45
42
44
59
59
46
42
40
42
43
44
25
25
21
27
48
50
46
57
76
59
54
62
59
75
69
54
52
43
55
59
60
52
31
34
38
45
47
46
47
57
77
80
100
107
105
126
129
94
29
12
13
25
33
189
197
198
199
201
199
198
198
198
195
196
195
196
196
194
193
193
195
161
202
203
202
201
201
203
203
201
194
195
145
70
68
62
60
56
51
48
40
35
40
51
52
46
37
28
27
29
26
25
26
35
44
57
56
51
48
49
71
75
67
67
69
67
53
41
43
48
55
63
63
55
40
36
39
52
62
56
46
57
71
92
112
108
115
142
146
132
50
17
18
20
91
202
197
199
199
199
198
198
198
197
197
198
197
195
196
195
193
194
194
162
200
202
202
202
201
199
200
196
196
190
123
86
67
68
53
53
55
45
47
43
32
38
52
49
38
33
29
23
22
28
44
47
55
55
49
46
52
47
57
80
67
68
67
66
54
47
62
60
53
63
67
58
48
47
51
47
56
49
43
58
83
103
110
117
129
160
158
143
124
17
13
43
132
200
198
199
199
197
198
197
196
196
196
196
195
194
194
193
192
194
192
161
203
199
202
202
201
201
199
200
197
189
106
87
66
63
61
54
47
55
49
45
26
26
42
54
48
44
47
55
52
53
46
50
35
42
53
54
45
55
60
81
72
63
59
54
57
64
75
74
75
76
73
73
63
53
49
45
44
45
66
86
117
114
118
128
140
162
156
154
166
84
10
31
143
200
197
198
198
199
199
197
198
199
197
195
195
195
194
194
193
194
192
162
201
200
200
199
200
200
198
199
199
157
98
78
71
68
58
52
53
45
35
33
39
35
32
45
50
51
50
54
49
47
48
58
55
54
54
52
50
61
68
63
74
73
79
77
83
93
97
94
77
67
58
57
53
46
44
53
57
76
99
112
118
117
126
134
149
160
169
170
174
153
7
58
152
196
199
199
198
198
199
198
195
197
195
194
193
193
192
193
191
193
193
162
202
201
199
201
200
200
199
200
197
161
95
84
79
65
50
46
38
35
31
27
25
32
29
34
34
33
40
49
55
56
52
48
57
55
56
54
60
71
65
68
82
83
85
83
81
86
90
84
78
71
70
60
56
49
48
60
66
80
108
116
124
135
132
145
163
162
175
174
180
180
67
22
150
197
199
198
199
199
196
197
196
196
196
194
195
193
193
193
193
191
192
160
201
201
200
201
200
200
201
199
195
170
69
61
60
64
56
48
43
49
41
28
19
24
36
37
32
31
27
32
42
39
44
50
53
56
60
59
74
72
85
93
89
83
83
79
96
89
91
102
102
94
79
73
61
52
55
81
82
99
115
122
126
139
146
155
161
169
176
177
182
182
145
18
150
198
198
198
199
198
197
196
196
195
195
195
193
192
192
192
193
193
192
159
200
202
201
200
200
199
199
197
193
151
69
51
38
36
36
30
25
23
22
24
23
16
26
32
37
40
44
41
40
49
55
58
61
67
83
92
86
98
93
84
98
90
87
79
82
86
90
77
87
97
76
75
69
61
72
91
117
125
132
135
142
147
148
161
170
172
175
177
178
181
172
32
172
197
198
196
198
198
196
195
195
196
197
195
193
194
193
194
191
191
190
160
201
200
199
200
201
199
196
199
196
128
66
48
57
51
41
39
25
27
27
24
15
16
25
37
58
54
46
46
50
54
53
54
53
66
77
84
85
105
98
107
117
119
93
85
89
93
78
99
98
96
85
84
73
72
91
106
129
138
149
152
152
154
161
164
172
175
181
179
177
182
185
68
123
199
197
197
195
196
196
195
196
194
197
195
193
192
192
191
190
192
190
159
200
200
202
200
200
198
197
198
197
123
56
37
36
47
48
51
58
59
47
36
23
25
42
63
94
111
78
69
68
63
67
79
86
94
104
111
119
119
119
130
134
136
131
94
88
85
84
92
102
92
73
80
75
84
100
122
146
155
159
160
154
164
167
173
173
179
182
177
178
183
186
145
89
197
195
197
196
194
196
195
194
195
193
194
192
193
191
192
192
191
190
159
202
198
200
199
199
200
200
201
193
124
41
37
29
24
25
26
22
30
39
31
31
33
48
72
109
108
110
119
94
82
100
114
118
114
127
131
135
135
142
144
144
144
143
136
92
104
99
96
87
84
84
73
88
105
117
141
159
169
171
175
171
173
173
169
177
182
186
181
181
187
190
193
80
198
192
194
195
195
195
195
194
192
193
194
192
193
191
190
192
190
191
159
201
199
198
198
199
200
200
198
199
137
43
18
12
12
9
8
9
12
23
54
46
41
52
72
88
116
149
162
152
138
144
145
143
141
140
144
150
155
152
156
159
163
157
152
154
108
110
140
133
103
86
93
117
122
135
153
166
176
178
181
175
174
180
181
183
185
186
183
188
189
192
192
110
181
195
195
194
194
194
194
193
192
191
192
191
193
192
191
190
190
191
160
201
199
199
200
199
199
200
196
198
165
54
16
6
5
7
12
9
13
18
30
35
43
58
78
109
136
160
174
176
175
173
169
166
170
164
160
162
168
166
164
171
173
166
168
166
163
145
110
110
96
117
136
136
132
148
159
161
176
184
186
185
186
188
189
192
192
194
190
186
194
192
190
154
169
195
194
194
193
192
192
193
192
193
191
192
192
189
190
191
190
188
157
201
200
198
199
200
198
197
198
198
185
79
15
4
7
17
13
18
26
29
41
44
48
66
104
124
140
156
173
191
194
195
196
190
187
185
180
179
175
173
175
178
181
181
178
176
173
166
164
151
153
145
139
141
145
151
165
169
178
189
193
189
196
197
193
197
197
199
198
196
196
194
190
180
150
194
193
194
194
193
193
191
191
192
191
191
190
191
190
189
188
190
158
200
199
199
199
198
198
198
198
198
195
140
23
3
8
30
22
26
36
43
46
48
61
85
109
125
130
154
171
190
204
205
207
206
202
196
191
186
183
180
178
181
184
183
179
182
180
183
186
178
173
161
164
159
164
168
174
186
194
197
200
207
206
207
205
205
202
205
200
201
199
195
189
184
144
194
194
194
192
193
191
192
191
194
190
190
190
191
190
191
189
190
160
200
199
199
198
197
197
197
199
198
198
178
71
11
12
32
31
32
41
49
55
59
69
97
120
115
136
155
168
188
203
210
212
210
207
203
199
191
188
189
187
187
193
193
191
187
196
197
196
191
184
170
169
166
168
169
176
185
192
197
203
211
211
211
214
210
206
203
200
198
199
197
191
185
149
193
193
193
192
192
191
190
191
191
191
189
191
189
190
189
189
188
157
201
200
200
199
197
199
197
199
196
198
193
148
27
13
39
29
34
51
58
61
72
66
89
104
122
133
139
150
183
204
207
206
207
207
201
200
195
195
196
193
198
194
190
184
196
197
197
195
193
177
169
172
176
178
176
183
185
191
203
205
206
211
212
213
209
206
203
189
195
200
199
200
188
149
193
191
191
193
190
191
189
191
188
191
188
190
188
189
187
187
186
156
199
200
199
199
198
196
198
196
196
196
196
186
93
23
44
29
42
55
63
66
68
73
94
112
127
131
139
165
187
192
203
207
206
201
199
201
198
201
201
203
205
203
200
192
196
198
197
189
194
180
170
173
177
181
178
185
191
202
209
210
207
210
213
216
211
198
193
187
187
194
201
203
198
168
188
192
190
191
192
191
191
190
189
188
187
187
187
187
186
185
185
155
197
197
195
197
195
197
196
197
194
196
195
194
176
123
49
37
41
51
67
73
76
86
106
123
123
130
146
166
174
189
203
207
207
204
205
204
206
203
205
206
209
209
203
199
196
193
187
185
186
183
171
169
176
177
181
184
189
205
208
207
207
210
206
206
203
195
182
178
186
195
201
204
198
180
188
187
187
190
188
189
190
189
187
185
186
189
185
184
184
186
187
153
198
194
195
196
196
192
195
195
193
192
193
193
191
162
55
42
43
59
70
73
99
105
106
122
132
136
151
167
181
198
200
207
205
206
206
207
206
208
212
214
217
214
208
205
200
195
189
180
176
174
171
168
167
179
183
184
187
197
199
198
195
196
195
197
196
190
177
180
192
199
204
205
195
181
183
187
186
188
187
187
187
186
188
185
184
186
185
183
185
184
184
154
195
195
195
192
192
194
193
195
192
193
193
192
192
180
59
45
51
62
66
82
96
102
101
125
134
140
152
176
195
201
204
199
205
207
207
210
211
214
215
215
219
216
209
200
203
203
201
190
184
175
170
163
164
173
176
170
176
189
189
181
181
181
183
179
178
182
185
195
199
190
189
184
174
169
175
183
184
184
185
186
186
185
184
184
183
184
184
182
184
182
184
153
194
195
194
193
195
192
193
193
193
190
194
192
195
177
71
52
54
64
68
86
95
100
112
130
144
163
185
192
204
205
205
207
208
206
208
211
215
218
218
220
219
211
207
206
210
210
206
203
194
184
177
165
166
169
165
161
163
173
174
167
166
164
160
159
160
172
179
189
176
152
145
138
137
141
154
181
184
185
184
185
186
186
184
186
183
183
183
181
183
183
183
153
194
195
195
193
190
191
192
192
192
191
191
191
193
193
79
58
62
67
72
86
83
110
122
147
173
185
202
208
209
209
211
210
209
207
211
213
212
218
219
219
214
204
198
199
205
200
192
183
180
177
170
165
169
166
151
143
144
154
162
159
149
148
139
133
140
141
134
126
108
105
96
100
100
104
116
173
184
184
185
185
185
184
184
183
182
183
181
180
183
182
180
152
194
193
192
192
190
194
190
190
191
191
190
191
192
187
112
62
67
66
71
91
97
108
139
160
190
200
212
212
210
208
209
205
206
203
206
212
207
212
209
209
200
187
184
179
165
157
150
146
137
133
136
117
128
129
124
119
126
140
149
154
147
137
127
111
107
101
68
63
64
63
57
65
85
77
90
164
182
183
184
183
183
186
180
183
183
183
182
181
183
181
181
152
193
190
191
190
190
191
191
190
191
190
191
191
190
193
145
63
71
69
74
79
106
122
145
170
202
214
215
215
211
209
208
201
202
203
206
203
195
200
190
196
179
163
147
128
126
107
99
84
76
65
67
63
79
85
86
88
99
128
143
147
143
132
105
75
74
65
50
35
36
49
52
80
94
94
98
170
179
182
182
183
184
182
182
183
182
182
180
181
182
180
181
152
191
192
190
189
191
189
190
189
187
188
192
222
227
209
179
75
96
67
67
94
114
127
149
184
213
217
215
212
204
205
200
200
197
203
201
182
169
169
172
163
143
126
121
112
98
74
61
47
30
35
38
52
59
66
69
72
94
123
136
141
134
127
92
69
44
28
29
37
56
72
82
100
107
111
111
175
179
179
181
182
182
184
183
184
182
183
181
183
181
181
181
151
190
191
191
190
190
190
189
188
190
188
231
228
234
232
200
132
87
78
77
109
110
135
159
194
221
221
214
206
206
200
198
194
188
184
170
155
146
147
132
128
119
106
99
88
84
61
47
36
41
39
38
44
53
61
72
82
99
123
146
149
142
125
78
26
24
35
40
52
62
74
76
61
96
121
151
175
177
179
181
182
181
181
182
184
182
181
183
183
182
181
181
152
193
189
190
191
187
191
190
188
191
195
175
107
158
218
214
189
146
104
85
113
121
145
161
199
226
223
213
211
202
199
194
182
175
164
144
137
132
111
112
102
96
94
85
88
86
79
73
61
42
36
41
52
57
57
71
96
117
142
161
166
159
132
25
34
23
12
16
27
57
28
38
66
96
127
153
176
176
178
178
180
181
181
182
183
182
183
184
182
183
181
183
151
190
189
192
191
188
189
190
190
191
199
115
78
74
150
197
198
181
150
99
111
128
142
163
202
219
218
215
209
204
197
188
175
158
139
114
113
108
108
109
106
100
88
68
61
56
53
49
53
49
58
42
36
55
58
76
112
138
159
179
186
181
148
40
19
12
16
31
35
101
115
50
44
86
132
155
174
176
177
178
179
181
182
180
182
182
184
183
181
181
181
182
151
191
189
191
190
188
189
189
189
190
193
107
88
90
118
159
177
183
176
120
106
121
142
166
206
222
221
214
210
200
191
176
160
141
129
116
112
109
103
92
67
49
37
31
28
18
18
18
55
47
31
45
47
62
73
85
122
150
176
202
214
210
186
45
28
18
18
33
37
115
110
80
94
114
143
157
176
176
176
177
179
180
181
182
183
182
182
181
182
181
182
179
151
190
188
190
190
188
190
187
189
189
194
117
98
110
150
146
141
163
185
133
111
126
132
167
207
217
221
218
209
199
189
174
152
133
117
106
94
80
62
46
41
32
38
22
14
11
24
29
104
115
78
40
44
87
93
101
129
156
185
214
225
218
208
98
48
43
35
34
106
112
96
96
119
142
150
159
175
176
176
178
178
179
180
182
181
183
184
181
181
181
179
181
151
190
188
189
189
188
188
188
188
190
194
140
101
119
178
157
129
153
162
135
109
128
137
169
207
217
218
209
210
206
194
176
155
135
117
101
86
79
65
59
47
42
72
65
33
23
31
44
135
126
68
61
59
89
102
119
138
164
187
212
236
225
214
157
68
81
85
85
95
80
82
120
133
147
153
164
175
175
176
176
177
178
179
178
180
181
183
181
181
180
180
179
151
190
188
189
188
188
188
188
190
189
192
170
118
137
193
157
145
153
151
150
111
128
149
186
206
214
212
211
210
206
200
185
171
155
135
122
111
108
107
113
99
87
92
96
63
40
42
91
117
99
83
82
80
94
119
138
155
169
193
214
232
229
223
190
70
64
71
80
86
95
113
127
141
152
157
163
173
177
176
178
176
178
178
179
180
179
180
181
182
180
181
180
151
187
186
188
186
186
188
187
187
188
189
187
149
152
197
148
128
97
79
142
115
129
158
194
205
211
212
210
210
206
203
194
187
181
166
148
143
135
128
127
125
118
95
88
99
108
99
107
94
82
78
72
75
110
138
156
171
182
197
211
229
237
224
205
129
87
86
90
98
109
121
140
151
160
161
162
177
176
176
176
176
176
179
178
178
180
179
181
182
180
179
179
150
188
187
188
187
186
187
186
187
187
188
191
182
171
197
134
108
92
79
121
123
136
162
184
201
209
209
211
210
208
211
207
207
204
195
179
164
149
140
137
133
131
124
113
101
80
84
85
82
80
76
80
100
135
153
168
184
195
204
215
227
239
233
216
172
118
110
120
130
135
144
153
157
168
167
165
174
173
174
176
177
178
177
176
178
178
178
177
181
181
179
179
150
187
186
186
187
186
187
186
187
186
189
188
195
192
204
141
106
101
117
131
139
126
167
181
203
205
210
211
212
212
213
213
214
216
213
207
195
176
164
153
147
138
123
116
108
97
92
93
93
99
98
104
143
153
161
176
193
202
209
220
231
243
243
230
199
154
134
128
132
143
149
157
164
171
170
167
173
174
175
177
175
176
176
177
176
177
178
179
178
180
178
179
151
186
185
186
185
186
187
185
187
188
187
186
192
203
188
179
124
115
155
154
171
127
169
187
203
202
212
211
214
214
215
216
219
220
222
222
213
205
191
174
170
160
150
144
135
130
130
128
123
116
124
149
162
164
175
183
196
205
212
221
231
239
246
239
221
175
156
147
143
148
152
160
169
172
171
168
174
175
174
174
175
175
176
177
176
177
177
176
177
179
178
180
149
186
184
186
186
185
184
184
186
185
185
185
186
205
191
208
159
127
164
152
192
113
171
190
203
206
208
208
211
210
214
215
217
216
225
227
223
221
217
204
196
187
179
170
160
149
143
133
132
139
156
169
172
173
179
184
196
201
209
218
227
238
248
243
232
205
164
160
159
161
165
170
167
169
172
171
171
174
174
173
175
173
176
177
177
177
177
176
177
177
179
178
149
186
184
185
185
184
184
186
185
184
183
184
186
196
211
215
197
137
139
146
175
120
158
179
200
204
205
204
205
207
211
216
214
217
224
226
209
205
221
218
210
203
186
177
166
148
145
151
167
172
174
179
176
179
181
184
185
199
210
218
230
236
247
249
239
224
186
170
172
173
171
169
171
173
177
171
170
174
175
174
175
174
174
177
175
175
175
176
177
177
177
177
149
186
184
182
184
183
183
183
182
181
182
181
182
187
215
201
215
196
159
150
162
132
161
174
195
201
200
201
199
202
207
210
213
218
219
224
216
213
221
223
216
214
196
189
182
174
178
180
182
177
181
186
184
180
173
171
180
197
210
222
230
236
245
250
239
228
207
173
178
181
183
178
174
177
179
171
172
172
172
172
173
174
174
175
173
173
176
176
174
176
178
178
147
185
185
183
182
183
183
183
183
184
183
182
182
183
204
223
198
220
234
207
158
137
164
166
192
199
199
201
197
197
206
211
215
215
219
216
215
215
213
214
212
212
206
205
199
196
194
196
193
188
185
181
179
170
155
166
182
195
207
219
229
235
243
245
231
228
214
188
181
188
190
186
182
185
181
172
166
172
171
172
173
173
173
173
174
173
173
175
173
175
176
176
148
184
184
185
183
184
183
184
182
184
182
181
182
183
184
222
233
233
232
236
211
153
166
165
173
191
197
196
197
202
206
209
212
213
218
216
217
213
207
205
208
208
208
212
206
200
193
193
190
188
183
170
169
156
144
171
189
204
216
225
227
229
231
232
220
214
208
184
180
186
190
192
190
190
185
169
166
169
171
172
172
172
174
172
171
173
173
174
174
173
174
176
148
185
183
183
183
183
182
180
180
180
181
180
181
181
179
203
233
232
231
207
207
184
160
160
168
182
186
192
192
198
199
199
210
211
212
212
212
213
208
210
211
209
208
210
210
204
204
201
194
189
181
174
160
139
144
191
206
210
212
215
212
207
206
201
200
191
176
155
154
187
192
194
192
189
184
170
164
169
168
169
170
173
172
172
171
173
172
172
172
170
175
175
145
182
183
180
181
180
180
181
180
180
180
179
179
180
179
180
212
200
193
207
211
200
159
154
165
177
185
188
193
197
198
194
205
209
210
206
213
215
212
213
209
205
207
210
216
209
208
207
200
192
181
170
153
139
167
196
209
213
200
179
171
161
159
160
161
152
142
131
146
185
196
199
193
188
181
164
163
167
167
167
169
171
169
170
170
171
172
172
172
172
175
174
145
181
182
182
181
182
180
181
180
179
179
178
178
179
178
177
195
209
230
239
238
223
149
150
160
177
183
188
191
194
193
199
206
206
208
207
211
211
208
215
216
214
215
215
215
211
207
204
196
188
181
167
146
138
168
186
180
169
152
112
107
130
131
130
126
130
122
92
172
182
192
197
195
187
177
161
163
167
167
169
168
170
169
169
171
170
170
170
170
172
173
173
145
180
181
179
180
180
178
179
180
180
179
177
178
178
178
177
178
190
218
227
236
214
155
139
155
162
173
181
191
193
194
197
198
207
207
204
207
202
203
212
216
216
217
216
219
215
210
203
194
186
177
167
153
146
159
154
139
113
45
27
31
41
110
119
114
116
99
154
183
182
189
196
192
186
172
154
162
167
167
168
167
168
168
170
169
169
171
169
170
170
170
172
145
179
179
179
179
178
178
178
177
178
177
176
178
177
177
177
176
178
179
186
193
176
137
149
149
144
158
174
184
190
193
193
202
206
209
208
204
206
201
207
212
215
219
217
213
212
208
197
195
185
176
172
171
158
133
130
111
69
80
89
82
95
110
109
106
94
125
160
192
187
190
191
192
180
170
150
163
167
166
166
165
169
169
167
167
168
170
168
171
169
171
171
144
179
179
179
179
179
176
177
177
176
178
178
178
177
177
175
176
175
177
166
147
147
159
145
149
144
158
172
176
183
191
191
197
199
211
210
209
207
214
214
213
214
215
215
211
210
208
204
193
183
183
182
187
181
121
100
97
90
98
112
117
111
108
109
105
112
137
154
194
195
190
189
186
177
167
148
163
165
164
164
165
167
168
167
170
166
169
168
171
168
170
170
143
178
178
178
178
177
178
176
177
178
176
177
175
177
177
175
175
174
173
176
176
175
167
141
145
144
153
172
180
179
186
184
193
198
207
208
209
211
212
214
213
212
210
209
207
210
210
206
196
189
187
187
197
205
179
138
127
126
127
131
126
125
129
125
109
107
131
149
181
199
194
190
189
176
161
150
162
164
163
164
165
165
166
166
167
166
167
169
169
167
169
171
142
178
177
177
178
178
177
176
175
177
178
176
176
175
175
175
175
175
176
173
173
173
166
147
123
139
147
165
178
184
179
186
195
195
204
204
207
212
214
214
214
212
210
208
207
210
210
207
191
184
190
202
211
215
212
187
172
169
160
145
132
120
122
118
109
86
90
130
160
189
194
189
186
177
157
149
163
163
163
164
163
165
165
166
167
167
165
165
168
168
169
170
142
178
176
176
176
176
176
176
177
175
176
176
176
176
176
175
175
175
176
173
174
172
170
143
126
138
147
164
185
181
186
184
188
190
197
202
207
210
209
207
210
212
210
214
212
216
212
210
198
200
207
215
218
220
216
212
198
186
166
137
133
133
119
121
101
95
69
87
140
156
180
189
187
173
150
158
163
161
165
163
165
166
164
167
168
165
166
166
170
169
170
169
142
177
178
176
176
176
175
178
176
176
176
175
175
175
176
174
174
174
174
173
172
173
171
146
126
135
138
165
174
186
187
188
193
187
185
198
203
204
206
207
206
203
210
215
213
208
208
207
208
210
214
215
217
214
212
212
203
177
152
146
119
131
121
107
108
83
96
82
106
127
153
176
182
170
150
157
162
162
162
163
162
165
164
163
166
164
164
167
167
167
168
166
141
177
177
177
176
176
177
176
176
176
174
175
175
177
175
173
174
174
174
172
172
175
174
153
125
124
135
155
158
185
186
186
190
190
187
196
199
199
200
205
205
207
206
210
213
209
207
207
210
211
212
211
210
205
201
201
188
161
137
124
117
115
106
103
96
104
104
93
95
110
126
162
173
162
144
158
162
161
161
163
163
164
165
165
164
164
165
166
166
168
166
168
141
177
177
177
177
176
175
175
176
176
176
175
175
176
176
174
175
175
174
173
173
175
174
170
134
125
135
135
150
181
191
185
190
188
187
186
196
193
196
201
204
206
204
207
202
205
201
207
209
212
211
201
196
188
178
177
177
159
128
125
119
137
129
122
123
144
134
120
112
115
122
147
157
158
143
156
160
160
159
161
162
163
164
164
166
163
164
166
165
167
168
168
141
177
176
174
177
175
175
176
177
176
176
175
175
176
173
174
174
175
174
175
174
176
175
174
155
115
114
130
132
171
189
190
191
190
193
189
194
194
192
196
203
203
203
200
192
199
204
209
212
205
200
171
165
148
149
158
149
141
132
134
139
177
173
170
165
141
114
114
121
114
119
137
161
156
132
161
160
161
160
160
161
162
163
163
163
164
164
164
166
166
169
167
139
175
176
174
174
175
176
176
176
175
174
176
175
174
173
174
173
175
175
174
175
173
175
173
171
140
111
129
139
158
175
186
187
192
188
193
192
198
189
194
197
198
202
203
199
205
208
212
206
194
178
153
136
126
138
136
134
131
139
138
129
110
117
125
115
94
58
51
65
89
121
144
151
146
136
159
159
160
159
158
159
161
162
162
159
162
163
163
162
163
166
166
140
175
175
176
175
175
174
175
175
175
174
174
173
175
174
174
173
173
172
175
173
175
173
172
173
167
103
110
145
136
167
180
186
190
186
186
188
187
196
192
194
198
202
204
207
208
210
205
193
183
154
124
129
123
125
124
130
118
101
78
75
73
68
72
61
43
62
91
122
133
134
143
149
137
146
160
160
158
158
159
159
160
161
161
160
161
163
162
162
162
163
166
138
175
176
175
174
175
175
176
173
174
176
174
173
173
173
172
172
172
174
173
172
172
172
173
171
168
130
90
135
139
163
174
180
184
184
184
186
186
188
192
194
198
200
202
202
202
208
206
182
167
155
139
134
110
104
105
89
56
39
42
49
54
61
75
94
103
122
131
148
145
153
142
144
126
155
159
158
158
157
156
159
159
157
161
159
160
161
162
161
162
164
164
137
176
176
175
176
175
175
175
176
175
174
173
173
173
173
173
174
172
172
172
172
173
172
172
169
167
173
95
111
134
154
163
174
177
179
180
182
182
190
186
181
187
194
198
198
210
210
202
187
176
162
134
106
66
67
94
106
104
126
146
142
135
141
141
146
138
137
135
135
142
153
141
138
123
157
157
155
156
155
156
158
156
157
157
158
159
158
161
162
162
162
164
138
175
175
175
173
174
173
174
174
173
173
174
172
173
174
172
172
172
172
171
172
172
171
169
167
166
169
144
96
111
121
146
164
165
172
170
174
173
185
187
193
193
197
201
198
201
205
198
177
171
148
137
131
149
161
170
174
176
180
177
174
166
165
156
151
135
126
117
124
143
145
136
136
126
155
154
155
155
154
155
156
156
157
158
156
156
158
161
162
162
162
164
137
176
176
173
173
173
174
175
173
173
173
172
174
173
172
172
172
171
171
170
171
171
170
169
165
164
161
175
114
83
94
137
148
152
157
170
172
173
184
185
190
192
198
190
194
196
193
189
175
163
148
151
171
170
164
156
156
160
162
154
151
143
132
123
115
98
96
108
129
139
138
134
113
136
153
154
155
153
154
153
155
154
156
155
156
156
157
158
160
161
162
163
136
175
176
173
173
174
172
172
173
173
171
171
173
172
171
171
170
173
170
169
169
169
170
166
165
161
159
171
155
85
88
110
134
139
154
157
162
174
177
176
185
190
192
185
188
185
184
180
169
161
160
168
179
179
169
147
137
131
122
112
112
99
81
75
67
84
102
117
130
133
131
127
104
151
150
152
151
153
152
152
154
153
154
155
154
152
155
157
158
160
161
161
136
176
174
173
173
174
173
173
172
173
172
171
171
171
171
171
171
170
170
168
170
168
165
164
162
159
156
152
173
138
81
92
111
119
123
142
153
164
160
166
180
181
181
179
175
178
171
162
154
159
170
174
176
178
173
160
146
130
122
109
96
79
65
75
72
85
109
124
131
132
129
110
119
149
150
149
150
151
151
152
153
153
155
154
154
153
153
153
156
159
158
161
135
174
174
174
171
173
171
174
172
171
172
172
171
170
169
170
168
167
168
167
167
167
165
165
163
153
137
133
189
165
110
83
79
114
109
135
139
150
149
155
168
171
171
168
164
162
158
153
156
158
168
167
165
165
164
150
144
135
123
108
91
81
78
74
89
106
117
133
140
135
123
78
126
147
146
148
148
151
151
151
151
153
152
152
153
152
153
153
156
156
158
158
133
173
173
171
171
172
171
172
172
171
170
171
169
170
169
167
167
168
167
167
167
167
168
160
137
104
136
149
195
174
162
118
73
84
86
120
132
138
146
154
156
158
162
162
153
154
155
148
150
151
157
156
152
151
145
144
141
135
126
111
95
96
82
93
109
122
131
141
145
129
103
53
77
125
143
147
146
148
148
149
151
150
151
151
152
151
153
153
154
155
157
159
133
173
173
174
172
172
171
172
170
172
171
169
170
169
167
167
168
167
167
168
167
166
116
101
87
130
134
154
201
179
175
157
103
89
79
104
116
115
134
134
137
147
153
158
152
152
146
141
144
150
146
145
145
145
145
143
141
139
131
122
120
111
97
105
126
135
143
149
151
124
74
73
82
54
102
142
146
146
147
149
150
151
149
151
150
150
150
151
152
153
156
156
131
173
170
172
171
171
170
169
169
170
171
168
168
168
167
166
167
166
173
188
149
150
127
132
110
122
128
151
204
185
178
169
153
107
92
107
101
107
115
112
113
144
145
146
145
135
128
131
135
137
141
145
148
149
152
156
158
156
148
141
136
129
125
126
128
135
147
153
149
123
58
78
82
71
100
90
129
150
151
147
148
149
148
147
148
149
149
150
152
154
154
157
132
171
172
172
171
169
170
170
171
169
168
169
169
175
178
174
173
185
194
159
161
145
122
138
95
123
123
139
209
193
182
179
172
139
93
93
86
94
76
83
93
115
129
139
140
128
131
132
138
142
134
152
159
168
173
179
180
176
173
165
159
157
153
151
143
138
143
146
138
91
69
70
72
71
74
116
114
114
114
144
143
134
138
146
171
157
150
150
153
153
154
157
131
173
170
171
170
170
171
169
168
169
167
173
178
167
148
144
161
173
155
168
160
127
146
132
92
126
123
114
209
198
184
184
174
162
142
105
62
101
83
83
95
109
112
115
115
121
128
127
127
125
137
155
166
176
188
190
188
191
183
173
171
170
159
154
144
137
142
137
122
74
123
71
70
75
68
104
125
138
146
139
136
149
163
166
144
160
173
156
155
158
159
161
135
165
172
168
169
171
168
168
167
170
172
184
183
167
158
132
132
150
183
170
153
123
155
130
98
126
125
100
200
201
189
184
181
174
164
139
107
86
66
67
79
78
76
101
94
90
111
121
126
132
136
155
165
169
180
178
184
181
176
167
159
162
150
150
143
139
129
103
91
97
129
66
70
75
69
103
121
120
142
150
148
148
152
158
167
161
138
158
166
167
166
166
137
174
135
156
170
169
171
185
192
196
168
196
169
147
162
136
145
166
178
162
140
128
162
126
105
132
130
105
172
199
194
188
184
179
169
155
145
116
68
53
62
72
75
76
74
86
104
113
126
129
131
148
152
162
155
158
162
166
161
162
144
143
133
137
127
130
110
101
74
142
126
69
70
73
69
108
121
118
125
142
156
151
151
160
168
172
166
160
160
157
159
161
132
188
158
133
151
166
167
160
167
161
181
201
168
137
155
149
137
164
167
162
135
147
167
135
108
134
133
110
155
205
197
194
188
185
178
167
153
146
133
113
89
80
82
80
76
82
84
100
107
120
123
124
132
131
127
126
132
139
145
151
147
133
128
117
116
110
87
65
105
154
117
67
70
72
70
107
119
124
124
138
150
150
150
154
164
165
164
161
161
163
166
164
133
195
170
150
155
158
168
164
162
172
192
198
165
132
145
159
138
157
169
159
142
158
170
137
106
135
134
120
134
208
201
198
190
187
183
177
167
157
148
139
129
105
95
96
89
85
83
81
77
97
94
98
104
105
93
99
100
106
115
118
117
117
103
100
95
83
66
92
140
153
103
67
68
75
70
109
117
124
125
134
148
152
151
154
162
166
163
159
159
156
157
164
134
195
173
150
150
156
157
167
169
174
188
196
168
131
141
157
147
150
167
153
151
167
177
145
115
141
139
131
118
201
209
204
196
191
188
182
180
168
157
147
133
132
115
87
99
96
73
68
66
76
81
92
88
81
64
82
75
78
84
89
92
100
82
89
68
56
72
128
152
154
91
65
71
80
71
109
121
127
125
128
141
146
151
157
159
165
163
159
159
156
160
161
135
195
175
148
149
160
164
168
158
160
185
196
163
128
139
152
160
151
155
158
164
173
181
148
118
141
143
130
116
188
210
208
203
195
190
187
180
175
171
159
143
132
125
117
107
98
85
77
59
53
64
58
58
64
60
74
64
71
56
64
55
63
58
56
39
81
132
149
153
145
80
64
70
79
74
107
126
134
131
130
133
140
148
156
159
165
165
162
158
157
156
160
132
197
171
149
143
146
153
150
146
160
186
188
157
124
134
146
154
156
146
155
161
175
184
156
126
143
138
134
120
174
210
213
208
203
196
192
190
184
178
171
162
150
138
124
116
115
93
92
70
60
67
47
50
52
52
51
57
50
37
40
42
47
68
60
106
135
144
153
153
138
67
65
71
76
78
111
129
134
134
132
134
137
144
151
158
165
164
160
154
151
152
155
131
198
170
149
135
143
150
143
144
164
189
182
148
121
137
144
150
157
151
152
163
172
186
161
127
136
140
134
132
173
213
216
212
209
206
197
195
189
183
178
171
160
152
144
135
127
122
114
110
103
94
96
93
83
74
70
72
63
78
87
114
106
130
128
140
143
150
154
152
122
66
62
72
77
86
115
129
135
137
137
137
135
142
150
154
161
162
161
155
148
148
153
128
197
172
145
130
142
144
144
147
164
190
175
140
122
140
146
147
153
158
158
169
172
189
163
136
125
144
136
137
175
210
220
217
215
212
207
200
194
188
181
180
171
161
154
147
139
133
130
131
126
128
125
125
122
122
120
122
123
126
130
136
138
141
142
146
151
155
160
150
109
64
69
74
75
103
121
133
137
140
139
139
135
138
146
154
163
162
161
155
151
151
154
127
193
171
147
127
140
143
146
142
158
191
169
135
125
140
145
146
152
156
165
166
168
187
172
139
122
142
140
137
184
205
229
226
222
220
212
207
203
199
193
183
180
173
163
156
147
139
135
139
139
140
139
138
136
133
134
135
137
137
139
141
144
146
148
151
159
161
159
143
95
67
69
83
79
109
125
133
138
142
142
139
138
136
143
148
158
165
162
161
153
149
151
129
190
168
148
124
138
135
138
139
161
183
155
136
120
140
145
145
150
155
163
168
171
184
173
149
123
135
141
140
191
208
230
234
231
225
220
212
206
206
201
189
179
178
169
161
155
152
150
147
145
148
146
145
141
145
144
146
145
145
146
148
150
149
153
154
160
161
157
142
86
70
74
84
87
115
132
138
141
143
146
144
144
141
142
147
154
163
162
162
157
151
148
129
191
163
140
132
138
137
140
148
177
175
152
134
122
141
145
146
154
155
163
166
168
186
168
154
128
132
140
140
183
213
235
240
238
232
228
223
214
210
207
201
191
182
174
166
161
162
162
160
161
162
161
157
156
157
159
160
158
158
157
160
158
158
159
159
161
164
157
137
83
76
86
92
100
123
134
142
143
143
147
149
149
145
146
145
153
160
163
161
159
156
153
126
191
159
134
122
122
121
133
161
182
162
141
127
123
137
147
147
152
154
164
166
170
186
164
148
135
124
141
137
169
222
237
243
242
239
235
230
222
220
213
209
200
190
180
173
172
167
167
169
172
173
174
172
171
170
170
168
166
167
169
168
169
169
169
167
167
167
160
127
80
89
97
96
108
129
137
144
145
145
149
149
151
147
147
143
152
159
163
163
161
159
156
129
