P2
# CREATOR: GIMP PNM Filter Version 1.1
92 112
255
248
247
248
248
245
246
248
251
250
246
254
242
248
246
241
240
237
230
239
229
232
220
220
220
222
219
222
212
213
218
214
215
207
207
202
194
195
188
172
171
166
159
164
200
197
220
212
220
222
222
224
225
219
227
236
233
241
232
238
225
234
242
235
237
234
233
228
232
222
222
214
219
215
215
208
208
207
209
203
208
206
203
209
203
204
205
202
205
205
203
205
170
245
244
236
241
242
252
248
249
241
253
251
239
251
249
247
240
236
233
239
231
230
225
223
219
223
221
222
215
213
217
211
212
218
209
209
196
194
184
177
165
174
168
144
147
172
191
211
212
214
219
211
223
213
222
221
227
233
233
231
230
235
227
231
232
231
229
230
232
224
222
217
218
214
213
207
211
206
209
205
206
204
204
209
204
204
204
204
204
203
203
204
170
242
242
244
243
246
246
238
243
252
248
238
245
251
240
252
240
239
237
240
234
234
229
225
224
222
218
217
218
210
209
207
213
210
202
206
200
197
186
187
190
194
164
186
156
141
141
158
189
197
206
208
196
197
198
196
223
226
229
223
223
228
223
236
223
215
226
227
222
221
215
213
217
213
212
208
211
207
208
206
207
206
204
204
204
204
204
203
205
204
203
205
169
238
240
240
250
242
247
246
244
247
248
242
244
251
243
250
240
239
237
237
233
229
233
228
224
222
215
213
221
216
214
210
197
209
193
196
185
183
177
171
164
181
166
164
158
129
119
122
144
145
129
128
137
134
170
177
220
222
219
226
219
220
212
210
223
225
221
214
214
216
215
213
215
210
210
208
208
205
210
206
206
205
206
205
204
204
206
204
205
204
204
203
171
233
236
242
242
251
240
245
248
245
255
247
245
238
241
241
244
235
237
237
242
226
229
229
226
227
217
213
220
207
208
199
196
182
156
142
118
120
122
132
137
148
148
148
138
133
101
89
96
79
88
98
112
125
122
144
206
215
214
221
217
224
210
206
215
217
214
219
214
212
211
212
213
210
207
209
208
204
208
204
204
205
204
203
204
205
205
203
205
204
204
203
170
231
238
228
241
235
238
246
245
248
238
238
244
237
242
240
239
240
239
235
244
221
231
229
226
219
217
209
207
204
207
165
132
123
119
133
125
126
125
132
135
141
124
119
105
115
104
86
84
83
74
72
77
87
112
122
136
213
213
219
215
222
213
204
175
216
209
214
212
212
213
213
210
208
209
208
205
204
207
207
204
207
208
206
205
203
207
204
205
205
204
204
169
232
234
229
233
234
233
244
236
238
237
244
242
232
244
237
235
234
242
236
235
229
231
227
226
212
209
225
207
204
186
154
149
115
104
119
129
116
113
122
133
134
124
117
98
85
94
79
73
81
71
74
70
50
75
82
115
159
196
217
212
202
205
194
157
213
192
207
212
212
213
209
211
209
207
205
203
206
206
205
203
206
209
206
204
203
203
205
203
202
204
205
170
224
227
231
232
229
227
228
240
249
247
249
237
231
237
245
238
239
240
235
235
230
231
231
220
214
208
212
213
210
171
141
101
89
80
87
107
112
105
94
103
109
131
104
110
86
81
92
63
62
63
66
62
59
42
58
68
79
158
202
203
201
207
213
161
196
174
203
219
211
212
211
209
210
209
207
204
203
205
206
205
206
205
206
203
204
206
205
204
203
204
205
170
223
225
221
232
232
227
234
237
233
244
243
239
229
243
244
238
240
239
235
228
229
226
223
216
205
193
205
210
206
160
81
87
110
84
74
93
101
107
99
88
85
93
97
78
87
64
82
90
71
59
59
55
50
46
36
46
50
70
178
166
183
183
175
172
177
166
197
214
215
211
211
210
209
210
207
206
205
204
206
204
205
205
205
204
204
205
205
206
203
204
204
170
221
218
218
221
217
228
234
228
235
232
231
234
230
238
238
234
235
229
232
220
227
229
219
199
157
124
119
141
158
117
89
85
77
86
77
72
86
87
92
81
75
74
64
55
77
77
52
86
70
58
54
51
46
44
39
39
43
49
76
143
163
136
127
171
154
150
177
211
214
208
209
208
209
208
208
205
207
207
205
205
205
206
209
206
206
205
207
206
205
206
204
171
217
217
217
217
219
225
220
219
227
228
226
228
227
233
235
230
232
222
228
223
216
218
193
141
117
122
119
120
138
117
82
77
67
84
82
87
78
79
81
71
64
68
69
65
58
61
61
57
63
61
52
45
46
48
45
58
48
41
46
82
155
149
158
116
127
124
206
213
212
211
210
207
210
206
206
207
206
204
205
205
204
206
210
206
205
204
206
205
204
204
205
171
217
213
216
218
216
217
220
220
222
225
228
225
227
221
222
226
228
219
223
216
215
203
150
117
103
106
115
119
111
128
100
86
70
53
61
69
67
62
58
65
75
64
56
53
58
45
59
57
69
59
53
40
33
47
44
38
43
38
45
49
120
164
135
97
90
100
195
209
218
212
211
208
208
207
206
208
206
206
206
207
204
206
208
207
206
207
206
205
205
205
207
171
213
211
215
215
215
217
218
217
220
221
220
219
221
223
223
222
221
216
216
222
214
168
113
76
111
118
114
115
115
99
93
73
80
65
56
54
51
52
54
49
53
59
57
54
48
41
56
40
44
53
46
45
42
32
31
31
32
58
49
53
59
104
88
58
65
82
158
220
220
212
210
213
208
211
207
209
205
207
206
205
206
206
207
207
206
205
205
206
206
205
205
171
212
214
211
212
214
215
213
217
215
217
218
221
220
219
219
221
223
223
218
221
204
178
97
56
75
76
94
106
93
99
104
97
76
69
69
56
50
56
49
44
41
44
42
50
49
48
60
44
37
42
45
34
31
33
29
24
28
43
54
47
39
40
59
38
39
58
152
216
208
218
207
209
208
206
206
211
207
206
204
207
205
208
206
207
206
206
207
207
206
204
207
171
213
214
210
212
215
214
215
217
213
220
220
219
218
219
221
217
221
220
217
219
196
163
87
68
68
91
105
103
90
94
66
51
62
75
68
85
60
60
67
63
61
51
56
63
64
44
52
36
32
40
45
47
39
33
27
21
25
22
45
55
39
36
55
45
22
29
68
204
212
216
213
211
210
209
205
209
210
209
208
205
205
207
207
206
207
206
205
206
206
205
204
172
210
213
211
212
212
211
217
214
214
218
217
219
218
217
218
217
221
217
215
209
160
142
90
88
101
122
117
101
89
80
68
68
66
60
58
64
74
81
84
86
76
70
65
57
57
63
70
65
55
45
29
34
38
40
33
32
26
17
16
44
56
37
32
30
23
21
39
162
205
212
205
212
208
212
207
206
205
205
211
207
205
207
207
206
207
208
207
207
206
207
203
172
209
209
211
210
219
215
213
214
216
213
218
218
217
217
219
219
221
212
213
188
90
68
76
76
101
121
107
87
64
67
61
50
56
49
49
59
47
52
66
67
82
72
73
68
66
61
55
47
43
46
44
21
20
38
41
37
34
39
31
29
52
56
34
29
22
16
25
66
192
210
209
214
210
209
214
205
204
204
209
207
205
206
206
206
207
207
205
206
205
205
205
171
214
208
214
217
211
210
214
217
214
217
215
216
216
217
220
222
213
212
203
123
64
81
77
87
85
109
85
75
93
69
53
48
47
36
33
48
33
34
35
50
54
47
42
44
47
49
50
61
50
37
41
50
43
45
45
39
37
33
27
18
27
42
44
27
26
16
15
39
160
201
204
211
210
210
208
205
205
207
206
206
207
206
206
207
207
208
205
206
207
205
205
171
214
212
214
214
208
209
213
213
212
212
215
216
216
221
219
223
224
205
147
110
113
94
86
79
76
98
83
90
78
54
61
47
36
37
34
28
24
27
23
26
33
45
52
44
48
46
53
53
43
54
31
28
28
52
42
28
29
21
20
9
13
33
39
34
32
38
33
37
57
125
199
207
209
213
209
204
205
205
206
207
207
208
207
207
206
207
205
207
205
205
206
170
216
216
215
213
211
214
212
210
215
214
212
216
220
218
221
224
200
155
129
130
95
76
81
99
91
81
97
89
101
74
51
41
37
40
32
27
26
29
32
36
43
47
53
40
45
59
56
54
50
44
38
39
40
38
35
39
36
35
22
13
8
17
23
37
26
37
27
33
49
117
167
188
202
209
209
205
205
206
207
206
206
205
206
206
208
208
207
205
204
205
203
170
216
213
214
214
210
210
210
215
213
210
213
219
216
219
218
220
188
139
127
104
80
81
90
58
75
95
105
89
69
69
63
53
42
29
26
26
25
37
39
40
49
49
49
54
50
54
56
51
63
45
35
32
45
43
35
40
48
41
33
16
10
15
18
28
30
35
16
30
42
73
129
159
198
205
209
206
204
207
205
208
206
206
205
205
206
206
205
204
204
204
204
170
218
217
214
212
215
212
214
217
211
212
215
215
217
227
221
219
167
143
106
84
78
83
62
71
74
84
98
112
76
68
57
50
48
47
32
34
49
34
30
35
32
37
50
44
62
58
49
55
60
52
50
47
56
64
69
61
53
46
47
32
20
9
9
16
21
27
25
26
42
48
120
154
183
205
209
207
204
207
205
207
206
206
205
205
206
206
205
205
204
204
206
169
217
214
214
212
216
215
211
214
214
215
214
217
212
220
215
211
154
100
86
84
87
81
82
98
97
105
118
117
101
74
57
51
52
51
48
43
28
33
27
31
46
53
53
61
57
56
49
63
58
63
65
69
63
85
87
88
82
76
63
50
25
10
7
15
21
18
22
28
28
41
77
152
188
197
205
206
205
206
206
208
206
208
205
207
206
205
205
204
204
203
202
170
222
215
217
212
211
213
211
213
215
210
217
213
213
216
213
194
133
95
80
85
74
82
78
76
72
53
76
93
62
66
59
50
47
40
40
37
41
39
34
37
45
50
63
52
57
45
58
62
58
67
82
78
82
93
108
110
114
110
99
85
56
30
14
8
17
18
18
22
23
28
46
110
180
198
204
206
206
206
207
206
207
208
206
205
205
203
203
204
202
202
202
168
223
220
213
216
210
218
213
213
214
211
213
211
211
216
195
169
92
78
87
76
80
68
76
71
51
56
60
72
62
56
50
41
39
49
37
37
34
33
38
42
45
61
58
67
56
64
66
63
71
74
87
108
110
121
128
134
138
135
126
120
107
78
40
19
15
18
13
14
17
21
33
46
170
202
202
206
205
205
206
207
205
207
207
205
205
203
203
204
202
204
202
169
219
215
214
215
213
225
212
215
213
214
213
212
208
198
201
136
83
79
76
76
80
75
72
66
52
81
74
69
51
46
38
38
54
50
45
46
41
42
45
49
62
85
71
58
40
53
57
68
74
91
98
111
124
134
146
154
153
154
151
145
137
130
94
44
20
18
13
13
13
16
19
20
114
200
201
205
204
206
206
208
205
206
207
204
205
203
204
203
203
204
202
169
218
214
218
215
215
217
213
212
213
219
212
212
203
181
200
128
59
79
65
74
82
70
71
71
80
91
84
62
55
46
45
46
57
46
52
48
46
64
51
60
60
60
67
55
48
53
76
71
90
102
109
124
137
137
145
156
153
162
171
164
169
161
143
106
35
16
14
14
11
15
13
16
46
157
201
200
205
205
206
206
205
204
205
205
205
204
204
202
203
202
203
169
223
215
223
213
211
214
213
215
211
210
208
211
211
186
134
82
74
69
65
70
55
72
62
52
55
63
61
53
48
50
47
64
61
53
59
50
71
54
57
64
66
72
67
67
45
63
75
88
98
111
117
134
143
147
156
164
166
185
182
178
185
184
173
150
88
25
14
13
13
11
11
17
33
96
201
202
203
204
205
205
205
205
205
205
204
203
203
202
204
203
201
168
214
214
212
214
213
214
213
211
212
210
206
207
203
162
124
77
72
54
63
70
90
81
62
63
50
48
44
47
58
56
62
57
44
57
55
62
57
73
78
61
61
66
69
45
42
60
82
101
115
123
127
143
149
158
171
175
178
187
193
190
196
196
191
177
147
63
21
13
15
10
9
12
23
94
203
201
202
205
206
205
205
203
204
204
203
203
202
203
203
204
202
167
215
216
212
213
213
216
209
214
209
211
207
201
199
163
119
84
72
61
60
66
87
86
70
61
57
42
52
55
65
74
72
68
62
59
65
66
84
81
70
84
75
61
48
46
64
95
114
115
137
134
137
150
159
166
174
188
188
189
196
199
201
204
205
193
179
126
38
18
16
15
10
12
16
38
174
194
204
205
205
205
203
205
204
201
202
203
202
203
202
201
201
168
212
212
211
210
208
205
212
207
211
209
206
197
187
133
109
67
44
57
65
62
66
77
61
47
54
66
76
83
83
72
67
61
69
72
65
74
88
71
87
81
60
59
55
71
102
111
123
134
139
141
140
163
172
179
188
189
189
194
199
203
206
208
208
212
201
180
100
33
17
15
10
16
16
44
181
201
202
204
204
203
203
202
202
204
204
204
202
202
200
201
203
167
208
207
206
207
209
207
208
208
209
207
198
200
180
123
100
64
61
54
58
52
72
91
77
62
73
71
71
71
75
87
86
88
93
91
88
85
72
85
72
80
61
66
71
90
107
124
132
142
145
155
159
167
177
188
195
193
195
195
199
207
207
213
212
215
204
199
154
67
29
18
17
20
23
41
180
204
203
204
203
203
203
202
203
203
203
202
202
201
200
201
200
167
206
207
208
208
206
208
205
210
207
207
202
194
153
109
80
75
70
53
50
52
51
65
86
68
52
58
66
82
95
110
94
106
104
104
97
93
87
77
85
79
67
67
88
102
123
130
137
146
157
170
167
177
187
193
194
197
196
198
199
203
207
209
213
214
208
207
189
127
72
27
14
23
30
56
144
204
202
203
202
203
204
201
203
203
202
201
201
202
200
201
199
167
204
203
208
205
206
209
205
206
208
205
199
185
127
90
83
79
67
55
47
46
52
90
89
81
69
76
91
88
92
90
105
116
127
116
104
102
102
98
89
82
92
102
120
149
147
162
159
161
168
177
180
182
188
199
199
202
200
198
199
204
208
208
216
217
216
214
206
179
136
83
30
31
49
50
98
194
203
203
203
204
202
203
203
204
202
202
201
201
200
199
200
167
206
206
207
207
204
205
205
206
209
205
183
125
95
71
63
79
69
62
65
72
70
57
66
84
85
93
94
91
98
104
113
113
117
119
115
120
112
105
89
105
114
123
144
160
174
182
184
177
172
180
186
195
198
199
203
202
203
200
202
205
210
213
219
219
221
219
215
209
178
150
69
37
54
50
80
187
202
203
203
203
203
200
201
201
200
201
199
200
200
200
200
167
205
206
206
206
206
205
206
206
206
209
191
152
139
77
60
53
59
67
49
38
36
45
43
71
79
87
95
93
92
113
125
121
135
122
124
118
107
92
103
121
130
144
169
187
194
194
193
189
186
189
192
195
198
202
209
206
208
205
203
210
214
216
219
216
217
222
220
218
209
183
117
48
50
58
60
172
201
203
203
202
201
202
201
202
201
202
200
199
199
200
199
166
204
206
205
204
206
206
207
206
206
207
207
178
144
61
46
51
42
52
42
50
51
63
66
86
100
83
92
108
120
108
97
111
112
115
113
115
99
116
123
135
149
167
187
197
207
209
205
205
202
203
201
198
200
209
208
207
211
206
212
218
218
217
221
221
217
213
222
220
217
203
154
69
50
55
60
169
202
201
202
200
200
201
201
203
201
200
199
200
199
197
199
166
205
205
204
205
205
205
206
205
206
205
198
185
118
85
66
68
34
32
39
69
117
79
87
116
130
130
96
118
132
127
132
125
121
122
122
102
112
136
143
154
175
185
195
206
210
215
214
213
210
207
208
209
215
212
217
218
217
216
215
212
219
217
217
217
214
213
213
218
215
204
167
86
51
46
52
168
202
201
201
200
201
200
199
202
202
201
199
198
199
200
199
165
205
205
206
205
205
206
207
207
206
205
202
203
136
69
82
48
24
42
57
107
139
124
139
142
152
150
160
140
101
128
145
153
138
108
124
145
147
152
151
168
179
193
201
207
218
221
216
209
216
210
213
212
214
220
216
218
223
223
222
223
221
219
217
213
217
209
212
205
216
205
172
97
50
46
52
163
201
201
200
200
199
201
199
201
201
198
198
198
197
197
197
165
205
204
205
205
205
205
206
204
206
204
204
203
188
38
37
55
53
47
63
134
176
174
172
164
159
166
171
173
169
148
140
148
149
170
172
160
157
151
162
172
189
204
210
216
226
226
227
225
226
229
225
224
225
225
227
230
226
226
227
224
223
218
216
213
211
209
211
197
209
203
172
112
53
43
52
170
200
200
198
199
199
199
198
199
199
198
199
198
197
198
196
165
205
205
206
205
205
205
205
207
207
206
206
203
203
183
61
26
53
54
80
154
194
200
193
188
183
179
178
185
187
187
192
186
183
188
183
170
166
170
180
192
201
216
224
228
228
226
233
232
231
231
234
230
228
230
227
230
227
226
226
224
221
220
217
212
208
207
205
197
204
196
169
110
59
45
58
157
200
198
198
199
199
199
199
198
198
199
197
197
197
197
198
164
206
205
205
207
205
202
205
205
207
206
204
204
202
204
193
106
61
59
90
156
199
212
212
205
199
195
191
191
194
200
204
203
207
200
194
183
180
182
187
194
210
218
225
229
230
234
233
232
232
235
233
229
234
232
232
230
220
224
224
224
223
222
223
218
211
208
205
199
198
192
166
108
62
52
56
175
199
199
198
199
198
199
197
199
197
197
198
196
196
196
197
163
205
205
205
205
204
204
206
206
205
206
205
205
200
204
200
186
88
63
93
153
198
217
216
212
206
199
198
203
204
203
201
207
210
205
193
180
187
190
196
203
213
222
220
227
234
234
231
234
232
238
240
234
230
230
229
225
220
221
220
217
221
222
225
224
220
213
206
202
199
197
177
122
62
53
54
162
198
199
198
198
199
198
196
198
198
198
196
197
197
196
196
164
206
205
207
206
204
205
205
205
206
206
206
205
206
204
203
204
150
74
99
149
200
216
211
209
205
203
203
204
204
202
205
208
206
209
202
191
192
196
201
206
218
226
230
236
236
236
232
234
231
233
231
226
225
226
222
220
217
216
215
217
215
221
225
222
221
222
215
207
205
198
188
148
71
50
57
173
197
198
198
196
197
198
197
198
197
197
196
195
196
196
195
163
206
206
206
205
205
204
203
205
204
204
205
204
204
205
204
205
185
78
86
145
205
211
210
203
203
207
209
211
212
209
213
207
206
207
201
195
195
196
203
210
221
225
229
233
232
229
228
229
224
226
225
224
220
214
216
213
212
216
211
216
219
225
224
222
223
217
213
210
209
203
197
182
95
44
66
175
197
196
195
195
197
197
195
197
196
197
195
196
194
194
196
164
205
206
205
205
206
207
206
205
205
203
205
204
205
204
203
204
189
89
91
157
193
211
207
208
207
207
209
218
215
219
219
213
213
209
194
196
192
196
205
208
211
220
223
220
219
221
215
213
215
213
210
205
206
206
204
204
209
211
214
207
214
220
222
215
213
214
213
210
204
201
204
199
138
46
58
163
196
196
195
195
196
195
194
196
195
196
194
195
196
194
194
162
207
206
206
204
205
206
204
205
204
204
204
204
205
204
203
204
198
98
89
159
194
208
210
209
208
211
215
221
221
219
223
221
210
202
195
194
190
189
188
199
196
206
211
212
200
198
199
197
197
198
190
189
193
191
184
191
184
187
179
178
178
177
185
188
193
201
208
209
196
176
199
206
171
60
58
170
196
194
195
195
196
195
194
193
194
194
193
194
193
194
194
161
207
204
205
206
204
204
205
204
206
205
204
204
204
202
202
204
200
116
94
161
204
210
211
212
214
218
222
221
218
219
222
216
207
193
187
184
181
178
183
182
181
185
188
192
187
184
181
182
175
172
166
163
165
142
132
127
121
127
128
131
133
143
155
148
159
175
186
188
192
176
193
205
194
83
57
165
191
191
193
194
195
194
193
193
192
193
194
194
192
193
194
162
205
203
204
204
202
203
204
203
201
202
203
201
202
202
205
202
200
130
96
182
214
215
215
216
217
219
223
216
209
213
209
195
179
169
163
156
150
157
157
153
157
166
171
173
175
175
165
165
165
157
141
126
127
104
72
65
55
60
68
82
100
108
127
124
120
128
146
151
161
178
186
198
193
125
55
158
195
192
191
190
193
192
192
192
192
190
191
192
191
193
191
160
205
205
202
202
203
201
202
202
202
203
202
200
205
202
202
201
200
139
97
202
221
222
219
218
213
218
213
199
198
181
165
145
132
115
105
84
71
81
99
113
120
142
157
160
167
163
162
154
151
137
119
105
95
87
63
46
36
35
34
42
56
72
80
91
105
110
114
124
138
152
188
190
185
157
62
160
216
192
189
190
193
192
192
190
190
192
190
191
189
192
190
160
201
203
203
200
199
201
199
201
201
202
200
201
199
200
200
201
197
136
103
213
223
218
213
214
207
200
194
174
157
144
120
101
81
60
45
39
48
63
70
81
99
112
129
151
161
163
161
157
145
132
111
98
85
71
59
51
45
63
83
96
98
104
110
113
110
112
110
112
123
141
177
178
184
181
80
151
198
189
188
189
189
191
190
192
190
190
190
190
189
190
189
159
202
202
200
203
202
202
200
200
200
200
198
200
199
198
199
213
200
131
112
220
224
216
213
208
186
178
160
143
136
122
100
66
38
34
36
33
37
44
59
68
85
104
122
143
160
162
158
155
146
131
111
99
84
73
64
62
63
75
86
94
99
105
111
115
113
117
112
106
109
128
160
181
191
194
112
115
168
189
188
188
188
189
189
191
190
190
190
188
188
189
189
157
201
200
199
201
199
198
199
199
201
197
198
198
200
196
200
202
205
150
124
224
219
213
209
178
153
147
131
118
112
101
95
71
78
82
74
63
57
56
64
71
80
100
121
140
168
179
178
169
154
137
113
95
71
60
42
45
60
91
111
103
95
76
58
68
87
104
118
117
121
130
150
186
201
207
149
95
117
189
185
186
188
187
190
188
191
190
189
190
189
189
188
157
201
199
200
198
198
198
196
198
198
200
196
196
197
196
200
162
157
165
140
226
221
215
187
161
143
133
114
108
103
103
113
111
113
102
84
61
50
46
50
60
64
78
116
145
179
196
199
186
173
143
117
77
58
42
58
76
79
53
44
53
58
84
86
83
64
59
92
113
121
128
159
196
207
197
178
84
109
185
186
186
186
188
186
187
190
190
190
187
187
188
188
157
201
199
199
198
198
197
195
199
197
196
196
197
194
194
199
175
98
160
149
223
218
211
180
137
122
120
120
116
113
106
80
69
94
109
98
92
76
73
54
43
58
72
103
152
193
217
224
216
195
155
111
77
65
59
53
50
24
26
27
29
26
44
44
37
46
57
78
97
120
137
156
177
189
192
174
88
113
181
184
183
185
185
188
187
189
188
191
188
189
188
187
156
199
200
198
200
198
196
196
195
198
196
195
197
197
195
198
189
108
109
154
222
215
205
176
140
127
122
115
101
70
48
65
88
70
45
29
30
21
44
54
60
61
89
107
157
207
234
241
230
207
171
119
94
92
49
45
96
43
30
13
35
28
79
57
59
64
75
85
96
115
133
160
189
197
189
173
88
107
184
183
184
185
185
187
187
188
188
188
187
189
190
189
158
201
201
196
197
197
195
196
194
198
197
197
197
194
194
198
200
129
110
147
221
216
204
170
135
118
100
77
53
39
44
45
48
29
23
14
26
32
81
65
36
63
112
114
165
217
240
246
235
221
191
139
109
88
88
78
83
81
70
66
77
89
91
99
114
118
118
127
141
153
171
199
211
211
199
179
113
137
184
182
183
184
184
185
187
187
189
188
188
186
189
187
157
199
198
196
197
195
196
196
194
196
196
196
197
196
194
199
202
159
128
151
220
219
209
176
147
118
99
69
57
46
38
33
64
73
24
31
24
26
77
72
77
90
107
134
180
222
241
250
239
217
198
155
132
109
95
93
99
99
104
106
96
90
111
123
131
117
123
148
168
187
202
212
217
215
201
179
124
166
181
181
182
182
183
182
186
186
189
189
188
189
188
189
157
199
198
193
196
194
196
195
197
196
194
197
197
197
194
200
200
191
132
160
222
224
212
185
157
136
123
125
119
106
101
104
94
94
82
99
101
99
94
91
86
91
134
167
197
230
240
248
242
226
203
172
156
135
109
81
84
93
101
102
110
117
123
119
102
112
150
184
203
215
216
221
220
213
201
179
133
164
181
181
180
181
182
183
183
185
187
187
187
188
187
188
156
197
198
194
196
195
196
198
195
194
195
197
196
197
196
199
199
200
170
162
227
226
217
215
200
184
166
154
146
138
145
143
126
104
94
96
93
90
82
79
82
123
160
192
211
229
243
248
242
223
205
191
180
159
148
131
100
85
87
91
96
93
89
98
139
179
198
216
220
221
225
225
218
212
198
180
127
161
181
179
179
181
182
182
184
184
187
188
187
187
187
188
158
196
197
196
195
196
195
194
195
195
195
196
198
199
195
199
199
201
188
163
225
226
225
225
224
215
199
183
159
138
123
113
116
117
112
102
89
88
110
93
148
167
183
212
223
234
242
249
247
225
213
205
192
180
171
164
161
152
138
128
133
143
159
181
193
216
227
225
222
220
227
225
218
209
198
176
132
149
180
179
181
180
181
182
184
186
185
186
187
187
186
188
154
195
194
194
195
195
195
193
194
197
194
197
197
198
196
198
200
199
197
170
223
226
228
223
236
227
216
214
197
179
160
155
148
136
120
110
108
118
150
173
181
191
204
222
229
239
242
250
251
233
220
211
212
207
192
190
188
186
187
183
190
195
199
216
224
229
232
232
232
231
231
225
218
208
192
174
127
149
180
180
180
181
180
182
184
186
185
186
187
189
187
188
156
194
194
194
195
192
196
195
194
196
195
196
196
198
195
200
199
197
191
181
220
223
229
232
238
235
234
233
230
220
205
190
178
173
169
173
181
188
189
192
198
212
221
231
233
237
243
249
252
241
220
217
211
209
207
201
205
209
208
211
217
223
226
233
236
231
230
228
229
233
231
228
219
206
191
172
116
151
177
176
180
181
182
183
183
184
185
185
186
187
188
187
157
194
192
191
194
194
194
194
195
193
193
196
194
198
197
198
198
198
201
169
217
221
226
232
234
239
237
241
236
234
228
214
201
201
198
192
188
197
202
210
217
219
222
228
232
234
243
252
254
242
226
218
204
192
177
181
196
203
210
219
224
228
229
232
235
228
227
221
222
230
231
226
220
208
190
165
119
156
178
178
178
182
181
183
183
183
182
184
185
186
187
187
156
191
192
194
193
193
192
194
193
195
193
196
194
195
197
195
196
197
199
172
213
220
225
231
239
240
241
240
236
237
230
224
216
213
202
201
203
198
202
202
202
191
202
222
230
236
244
252
254
244
230
221
206
194
181
152
151
171
188
200
212
220
227
233
231
228
225
218
219
219
221
220
212
207
188
161
120
159
181
180
180
181
181
183
183
182
181
182
184
185
186
187
156
192
191
192
191
191
192
193
191
193
194
193
193
193
196
196
196
197
196
171
207
215
223
228
239
244
241
238
234
239
232
227
225
216
206
201
196
186
178
168
150
190
212
226
233
240
245
253
255
242
230
222
204
199
202
191
133
137
159
173
191
195
214
215
212
213
215
214
208
209
207
205
203
199
186
162
114
165
180
180
178
180
180
182
183
183
183
183
184
185
185
186
156
191
191
192
193
190
191
191
192
191
192
192
194
193
196
195
195
196
197
179
193
210
217
230
241
241
241
239
236
234
230
222
219
213
202
193
180
167
150
134
155
210
219
229
233
241
242
251
249
237
226
220
205
210
211
211
177
132
133
146
155
173
185
196
195
201
200
197
193
188
185
186
185
184
183
153
112
159
178
181
181
181
181
179
182
182
183
183
182
181
184
186
155
190
190
190
191
191
193
191
191
192
191
190
191
191
193
194
193
195
195
188
180
209
216
231
235
238
235
235
231
231
223
215
209
200
189
178
165
144
128
135
197
227
231
236
233
236
237
237
238
229
218
206
197
200
205
211
195
139
126
126
135
148
161
173
182
186
183
177
175
167
165
167
164
167
170
156
110
172
179
178
180
179
180
181
181
181
182
181
182
181
181
184
155
192
190
191
190
189
191
191
190
192
193
192
192
191
192
193
193
194
193
196
177
209
218
230
230
228
228
226
219
217
215
209
193
181
172
155
141
127
129
146
212
230
229
218
213
212
214
217
214
204
195
173
157
166
172
172
162
127
142
122
117
121
135
147
156
162
166
163
151
147
149
151
152
152
158
151
105
169
177
177
179
179
180
180
179
180
181
181
181
179
181
183
153
190
189
190
191
191
190
191
191
190
192
192
190
192
191
191
191
191
193
190
171
208
218
230
227
219
216
210
207
203
198
192
177
166
155
133
126
122
144
152
191
203
203
183
174
169
171
174
171
166
155
137
132
136
136
138
130
159
169
151
121
100
111
124
135
143
146
146
140
137
133
139
147
148
155
147
108
166
177
177
176
177
178
178
179
179
180
180
179
180
180
181
152
190
190
190
189
190
189
190
190
189
190
189
190
191
192
191
189
189
191
187
151
202
216
223
217
207
194
188
189
189
187
179
165
150
132
121
105
127
165
170
151
157
150
135
123
142
142
137
137
135
129
126
93
76
75
96
116
162
175
169
147
125
97
98
117
130
140
143
140
131
125
139
150
151
150
136
105
169
175
175
176
177
179
180
177
179
178
179
180
180
178
180
152
188
189
189
189
189
190
188
189
189
188
188
187
189
190
189
189
187
187
187
149
189
214
215
206
192
179
177
174
172
173
163
147
125
113
98
126
163
178
179
146
124
84
52
55
67
114
124
121
120
119
84
69
65
79
99
120
160
180
172
150
132
116
90
85
116
132
140
147
146
124
138
150
153
146
146
107
171
173
173
173
176
177
177
177
175
178
179
178
178
179
179
151
188
190
189
187
188
189
188
190
190
189
188
186
188
188
190
187
187
187
186
165
186
204
208
196
176
164
167
164
167
158
148
134
108
86
114
144
170
170
182
166
150
132
92
84
83
78
105
107
105
94
77
77
89
90
114
122
146
171
163
158
130
114
112
103
81
119
139
149
153
128
143
149
153
144
143
107
172
174
171
175
174
176
177
177
178
179
178
178
178
178
181
149
187
187
186
187
189
187
187
187
187
189
188
187
187
186
186
185
185
185
186
165
160
204
199
187
165
156
169
165
155
145
133
110
68
97
123
144
159
175
183
172
148
140
125
119
100
96
93
90
85
85
80
81
70
65
81
100
126
151
158
154
108
111
95
107
89
110
137
148
153
129
145
152
153
148
143
132
170
173
171
173
172
174
175
177
176
176
177
175
176
179
179
149
186
185
185
186
187
185
186
184
186
185
187
187
185
185
185
186
185
185
184
178
145
203
195
182
164
160
174
165
152
134
118
74
85
102
115
142
154
171
174
144
131
108
103
107
105
110
101
104
105
86
75
79
76
69
79
86
113
139
129
130
119
93
85
100
104
110
146
153
154
131
148
154
151
150
146
135
171
171
172
172
171
174
175
174
177
176
176
175
178
178
178
149
185
184
184
184
185
186
185
184
185
185
184
185
186
185
186
183
185
185
184
178
156
201
193
185
168
166
176
159
143
126
104
65
80
81
96
119
135
161
166
161
130
97
92
80
84
110
104
94
100
97
87
79
86
94
95
111
120
137
133
119
110
89
85
102
123
131
157
157
152
128
147
154
157
155
142
158
171
170
170
171
170
174
174
175
175
176
175
174
176
178
175
147
185
184
185
186
186
184
184
186
185
185
186
184
183
183
185
184
184
184
183
183
166
193
201
188
163
168
176
158
142
133
100
73
87
91
99
110
129
144
151
148
137
103
114
82
107
116
105
117
115
111
113
119
117
128
129
129
124
113
98
45
29
88
115
128
139
150
171
167
145
132
151
158
155
156
128
161
168
168
171
170
172
173
174
173
175
176
172
174
175
175
177
148
183
184
184
182
184
184
184
183
182
184
184
185
184
184
183
183
184
185
183
182
175
179
200
189
170
169
176
167
159
150
124
103
113
112
101
91
107
127
139
133
141
133
143
133
144
144
143
147
139
142
133
124
120
115
106
97
58
33
11
51
105
135
146
140
147
166
176
167
144
149
159
158
154
150
121
166
168
169
169
169
169
170
174
173
173
173
174
174
176
177
177
148
184
183
182
182
183
184
183
183
183
183
183
184
183
181
184
184
184
181
182
182
175
147
197
190
170
173
179
170
164
163
151
127
137
127
130
79
37
28
57
86
105
104
121
126
126
120
115
110
110
100
102
98
99
107
91
120
64
29
60
120
156
165
163
148
160
176
178
167
145
161
160
158
151
144
121
168
168
169
170
170
171
171
173
174
175
174
173
174
174
175
176
147
183
184
182
182
183
183
183
183
183
184
183
182
183
183
183
183
183
183
184
183
180
153
187
188
177
176
171
167
171
178
176
158
151
151
161
158
133
62
21
51
92
127
93
104
107
110
96
97
98
94
101
113
124
150
134
137
58
72
137
167
181
177
173
159
171
184
176
161
149
161
160
156
144
125
162
169
167
168
169
170
169
171
171
171
172
173
172
174
176
176
177
146
183
182
181
182
184
182
184
183
183
183
184
182
184
184
184
183
183
182
183
183
181
179
167
185
176
175
181
182
183
181
181
176
167
167
176
186
184
172
109
28
89
158
149
159
166
148
148
136
133
140
165
178
154
155
113
111
92
147
172
176
184
177
167
158
168
182
169
157
155
155
155
146
138
113
164
167
167
167
169
167
169
169
171
173
171
172
171
172
175
175
173
147
182
183
181
181
183
183
183
182
183
183
182
182
182
183
184
181
182
181
182
182
181
181
168
179
174
179
187
186
186
187
188
187
182
183
191
201
206
201
196
159
103
130
119
165
169
179
189
182
178
160
179
183
103
78
65
117
156
164
176
181
182
176
174
166
181
180
163
154
157
158
148
142
121
126
165
166
167
166
166
167
168
168
169
172
171
171
173
171
173
173
175
146
181
181
182
182
180
182
183
182
183
183
182
182
182
183
182
181
181
181
182
182
180
182
177
153
175
175
187
185
187
185
184
188
182
178
198
205
211
213
206
201
189
172
142
111
141
135
163
153
144
124
122
122
85
115
143
159
167
166
178
177
183
179
177
178
186
177
156
147
153
149
142
133
100
165
165
166
166
167
167
167
167
167
170
171
171
171
171
169
172
172
174
145
181
182
183
182
180
180
183
181
183
183
182
181
183
181
182
181
180
181
180
180
180
181
181
152
161
168
179
179
184
181
180
186
179
187
202
207
212
214
215
194
196
200
200
169
150
143
146
141
132
130
120
113
131
161
170
165
163
170
170
177
178
182
180
182
183
169
153
151
144
144
133
113
139
164
164
165
165
165
166
166
166
167
168
170
168
172
171
170
170
170
171
143
180
181
181
182
183
180
181
181
184
182
181
182
182
181
182
181
181
181
179
179
180
180
181
173
128
156
169
169
181
181
175
178
185
195
199
212
209
215
215
206
198
198
201
185
191
198
198
164
160
170
168
167
170
167
169
158
162
169
168
173
174
188
179
179
174
161
149
143
142
135
120
98
156
160
163
165
165
165
165
165
166
166
168
168
168
169
169
170
171
169
172
143
180
182
181
181
180
181
181
181
180
180
181
182
181
181
181
180
181
180
180
180
180
179
178
182
131
140
154
162
171
176
174
174
187
189
198
207
207
209
206
208
198
191
181
176
192
194
184
178
171
171
170
176
163
157
146
146
159
159
164
173
183
185
180
163
172
156
149
140
128
119
94
143
157
159
160
162
163
165
164
164
165
165
166
168
165
166
167
169
169
171
170
144
182
180
181
181
182
181
181
181
181
181
181
180
181
182
180
179
180
179
181
180
180
180
180
179
177
104
141
159
164
166
173
177
186
188
199
203
205
204
201
196
193
186
178
167
161
160
143
143
146
140
136
141
135
138
141
152
155
153
163
172
190
188
179
161
162
144
140
127
118
90
80
153
156
157
160
160
162
162
163
164
163
163
165
165
164
166
165
168
169
171
171
143
180
179
180
180
181
181
181
180
182
180
179
180
178
180
180
180
179
180
181
180
177
179
180
178
177
154
101
138
145
156
165
176
179
184
198
194
204
204
195
189
179
176
176
162
164
149
137
138
131
132
124
126
132
136
141
141
145
154
161
185
197
188
172
151
143
120
128
120
85
60
137
152
153
155
157
158
161
161
162
161
162
163
164
165
165
165
166
166
167
170
169
144
180
179
180
180
179
180
180
180
181
179
179
180
180
180
180
180
179
178
178
178
177
178
178
177
175
174
93
114
134
136
161
165
168
172
188
201
205
201
198
188
176
159
163
159
152
150
147
142
133
130
126
126
124
125
129
131
144
153
172
201
202
192
163
145
136
109
116
96
69
109
145
148
150
153
155
159
159
159
160
160
160
162
161
164
165
164
163
165
166
168
168
141
180
180
178
179
179
178
180
181
179
178
180
180
179
178
180
179
178
178
178
177
176
176
175
175
175
174
166
80
113
101
143
161
161
174
187
196
201
210
200
191
176
163
150
144
146
138
133
120
122
123
117
115
106
113
127
134
151
164
199
213
200
172
156
118
112
103
96
72
77
141
143
145
147
150
153
155
156
157
159
160
160
159
162
161
162
162
162
164
165
168
167
141
179
179
179
178
180
178
180
179
179
179
179
179
179
178
179
178
178
178
176
176
175
176
174
173
173
173
166
128
57
89
113
148
157
166
166
183
191
209
207
200
190
177
158
150
143
123
131
112
121
117
108
104
112
114
140
149
163
194
215
217
196
162
131
96
91
92
77
48
133
124
136
144
146
149
150
152
153
156
157
158
159
159
161
160
160
160
162
162
163
164
167
140
179
180
178
177
178
177
179
178
179
180
178
180
178
177
178
177
178
176
177
177
176
175
173
173
169
161
112
138
98
74
113
118
124
151
167
189
187
207
218
215
204
191
180
161
149
138
135
126
121
117
105
122
126
143
155
166
185
211
225
219
182
145
131
80
76
82
45
100
149
153
94
104
123
144
148
150
151
155
155
157
157
159
159
160
160
161
160
160
163
162
164
139
178
178
178
180
178
178
179
179
178
177
178
178
178
177
178
176
177
177
175
176
174
176
183
142
128
123
119
138
126
79
79
93
107
124
150
173
194
198
215
222
217
208
197
180
165
160
157
143
135
131
151
152
160
162
180
189
201
212
217
208
176
134
87
59
65
56
57
143
148
162
155
68
101
97
122
149
149
151
153
156
156
157
156
159
158
158
160
160
160
161
165
138
178
178
178
178
177
178
179
177
175
178
177
177
177
176
175
174
173
176
172
182
196
167
164
156
158
124
133
142
149
183
66
66
88
105
129
156
173
199
207
224
222
218
207
197
190
186
177
175
176
148
173
180
181
186
183
190
196
204
206
187
155
105
67
53
66
41
127
146
149
158
166
102
70
105
84
97
142
151
151
153
154
155
156
156
158
157
157
157
159
160
162
136
177
178
176
177
177
177
178
175
177
176
177
176
176
180
176
179
180
179
190
203
176
179
172
139
165
101
147
137
161
191
146
46
66
75
109
133
150
181
194
210
221
221
220
216
208
203
197
195
193
182
184
188
182
172
181
185
190
190
194
153
134
76
47
68
38
120
144
149
149
157
167
158
75
98
104
93
110
135
153
153
155
154
156
155
156
157
156
157
157
159
161
137
185
186
180
179
177
177
176
178
176
176
175
175
177
178
186
170
144
137
178
141
182
175
156
147
156
109
147
133
161
196
189
135
82
70
101
117
151
160
184
200
205
212
225
226
212
205
212
204
199
192
187
194
171
177
188
189
190
185
176
127
85
51
61
52
96
141
147
152
151
157
169
169
99
85
96
82
121
125
100
133
160
168
165
168
164
160
157
157
157
157
160
136
178
183
185
160
174
180
175
176
175
174
184
195
195
205
166
162
144
130
148
181
188
170
142
166
142
123
142
133
154
199
196
186
137
113
75
103
102
133
160
164
173
192
203
208
210
201
206
204
194
186
189
184
176
171
172
187
157
162
136
93
57
42
60
102
136
144
151
153
151
157
166
169
116
88
96
89
114
132
148
146
146
149
146
159
173
144
174
169
156
157
158
134
157
185
198
181
152
161
182
171
174
181
177
173
182
201
156
147
147
146
161
189
178
159
142
177
139
130
143
131
146
201
198
189
181
150
98
95
73
97
127
130
142
167
179
188
198
179
178
178
167
160
168
167
166
163
168
163
132
124
103
52
32
52
87
133
140
149
153
152
152
159
168
170
117
84
96
99
108
132
140
152
158
156
158
159
161
174
158
163
179
173
175
145
162
186
206
190
158
137
156
178
180
175
174
186
204
199
155
138
152
138
163
179
179
151
157
180
142
133
140
129
131
202
199
196
188
181
143
93
93
84
85
114
118
115
140
154
185
176
174
167
154
156
151
146
145
148
150
128
124
110
75
34
50
94
133
137
148
153
151
153
154
161
165
166
113
84
93
98
109
135
141
144
155
162
158
157
160
171
175
169
146
149
156
125
160
189
209
197
168
157
160
162
169
166
174
187
203
193
150
134
153
142
160
179
174
154
173
181
139
130
139
130
115
202
202
202
192
183
179
151
106
82
67
72
69
103
105
129
139
162
141
149
133
142
129
124
122
124
119
115
88
64
60
68
96
130
135
144
153
153
153
154
155
162
164
168
112
84
96
98
110
134
143
142
149
157
158
157
157
166
172
173
170
169
167
140
166
191
207
194
170
153
159
164
174
177
169
182
202
188
146
136
152
154
156
173
169
159
178
181
142
125
140
131
113
201
203
202
197
191
181
174
161
130
66
56
70
73
85
87
97
107
113
115
122
116
103
107
105
98
94
85
77
52
87
109
128
133
143
150
155
150
153
154
161
163
166
166
103
83
93
97
112
137
148
148
148
153
154
154
157
169
172
172
170
169
168
142
162
189
207
196
172
151
157
162
164
161
158
181
201
183
139
134
149
155
158
163
167
167
182
183
141
114
139
128
114
199
204
202
201
197
191
178
172
162
145
101
69
70
66
73
75
76
81
79
89
82
91
92
86
69
58
68
67
89
116
126
131
143
149
154
151
152
155
159
161
164
166
167
92
83
97
96
116
137
147
145
150
154
154
156
158
164
169
172
169
168
167
138
162
193
207
198
169
151
150
155
159
146
154
185
198
177
138
133
147
153
161
156
161
167
181
184
149
113
135
122
112
186
207
204
202
198
195
188
177
167
162
156
139
100
75
74
70
58
53
41
50
58
55
56
53
46
66
94
106
124
126
131
140
147
153
153
153
155
157
161
163
167
169
163
84
92
97
94
118
136
148
151
148
153
155
156
162
165
170
172
169
167
166
141
161
191
203
200
169
148
143
151
150
145
160
187
197
163
130
136
149
155
157
160
159
168
177
187
156
108
130
127
114
154
208
204
205
200
200
193
185
179
169
157
153
147
132
119
91
86
80
88
80
83
77
90
86
89
112
120
125
117
133
138
150
152
154
155
158
159
162
163
167
170
172
142
82
89
99
89
120
137
146
151
148
150
150
154
162
167
170
171
170
167
166
136
158
185
195
196
172
143
135
149
150
151
159
188
192
155
130
140
151
153
154
157
162
173
177
189
161
122
123
128
122
118
210
207
205
203
201
194
192
185
177
168
159
153
148
143
137
131
126
123
121
121
118
120
123
124
125
126
131
135
143
149
153
155
161
163
160
162
165
166
169
171
173
119
87
94
99
93
126
140
148
151
151
153
151
153
160
165
171
169
168
165
160
135
157
172
191
192
169
144
133
145
141
142
156
185
182
151
132
142
149
150
154
159
166
171
176
185
168
132
115
129
122
111
196
212
211
207
200
200
194
193
185
176
168
159
153
149
145
138
138
134
135
135
132
133
130
134
136
139
143
146
152
157
161
163
164
166
166
167
171
169
172
174
172
106
88
99
107
107
128
143
149
151
153
152
152
154
155
162
167
167
167
163
159
132
154
166
183
186
163
136
137
144
138
144
165
190
171
146
126
141
146
149
153
155
165
174
170
183
169
141
113
128
128
118
175
218
211
209
204
198
199
198
192
173
177
164
160
156
157
156
156
157
154
149
146
146
148
145
144
148
151
157
160
162
163
166
169
169
170
173
172
176
180
179
166
101
99
106
108
117
133
143
149
155
154
154
150
151
157
161
167
168
167
167
163
134
150
162
180
187
160
129
131
139
137
149
178
182
165
143
126
143
152
152
154
156
164
170
173
183
167
145
116
124
128
121
165
218
216
212
211
205
200
199
196
192
183
176
167
167
163
165
160
159
157
161
157
153
150
151
156
157
163
166
166
167
169
171
176
173
175
176
176
183
184
189
157
104
103
107
105
123
135
145
149
151
159
156
155
149
151
155
165
169
170
167
161
132
145
160
177
184
148
125
112
114
122
158
184
173
154
136
133
145
148
150
151
156
163
167
169
185
161
143
121
118
129
127
158
210
221
220
214
207
206
205
200
198
191
184
177
175
175
171
172
168
171
175
171
170
162
162
168
171
173
174
176
175
176
176
176
177
177
177
184
187
190
189
135
105
110
113
110
131
140
145
148
151
157
157
158
155
151
156
161
168
169
169
166
136
144
153
180
179
143
107
99
116
144
173
175
163
146
131
134
144
149
150
153
156
159
169
176
188
165
140
127
113
130
129
155
210
229
227
221
215
211
207
203
197
198
193
189
185
181
179
177
179
180
179
182
183
180
180
181
181
180
179
179
180
183
184
183
183
185
187
191
195
200
188
117
114
118
119
114
136
143
148
150
154
158
160
161
159
154
154
160
167
169
168
168
137
146
148
182
171
138
93
106
141
158
172
165
159
141
134
139
144
146
150
151
155
160
161
171
190
171
142
132
112
131
137
143
207
231
233
230
224
218
213
209
203
203
203
197
194
190
188
184
183
181
184
187
188
188
187
187
185
182
185
184
184
186
185
188
189
193
195
201
205
206
178
115
118
123
118
128
141
148
154
154
154
161
161
161
159
156
153
159
167
169
167
167
137
148
146
185
160
126
81
133
152
167
167
161
151
141
136
142
148
148
153
153
155
163
163
169
191
176
149
131
118
125
138
135
211
236
239
235
231
223
217
213
210
209
206
203
200
195
192
187
187
186
188
188
192
195
191
193
190
189
188
189
188
186
190
193
197
198
205
208
214
210
155
118
122
125
116
135
144
151
149
153
154
160
160
158
156
154
155
157
167
168
170
166
138
