P2
# CREATOR: GIMP PNM Filter Version 1.1
92 112
255
236
233
238
244
235
223
243
230
237
245
232
246
220
225
220
229
221
215
210
218
208
208
203
198
190
202
203
198
198
198
201
198
198
196
198
195
193
196
200
194
195
197
194
201
203
200
201
201
203
204
207
206
205
204
209
206
202
208
197
201
203
204
198
200
202
199
197
197
198
193
197
196
192
193
193
195
191
193
190
192
190
191
189
189
190
190
189
189
190
190
187
156
238
236
233
233
239
229
252
235
238
224
226
237
225
224
221
224
226
221
206
212
205
206
201
193
186
200
204
199
200
200
201
199
204
195
196
192
192
195
196
191
187
193
195
200
200
199
200
200
205
201
202
204
204
205
211
208
205
202
188
196
200
203
201
204
197
197
200
196
194
192
195
192
192
189
191
189
190
192
190
190
190
191
190
189
191
190
189
189
188
189
190
156
227
233
217
235
235
246
234
228
242
222
224
233
220
222
224
211
224
223
207
210
217
193
178
180
186
193
200
198
196
201
199
200
198
195
196
186
184
189
190
191
184
174
189
194
200
197
199
204
202
203
202
201
203
202
205
209
202
195
200
189
168
191
197
197
193
195
194
190
193
195
193
195
191
190
194
189
190
191
192
190
193
193
191
188
191
191
189
188
189
191
188
156
220
225
213
235
221
222
221
223
231
216
229
225
215
221
222
217
225
206
211
201
190
170
163
153
140
153
169
194
201
203
201
202
197
193
190
181
158
144
162
180
179
148
184
194
200
195
199
199
198
201
203
200
202
204
202
205
204
207
196
193
181
166
184
198
192
191
189
191
196
193
195
196
192
190
192
189
191
191
190
190
191
192
192
190
189
189
190
189
189
188
189
156
213
221
218
216
226
236
223
230
214
211
221
226
224
218
214
212
220
212
212
203
199
186
171
155
146
148
152
166
188
197
199
198
195
190
187
171
122
111
121
131
132
120
169
188
193
190
189
195
196
204
202
199
199
202
207
204
204
200
194
192
178
165
153
189
183
174
178
184
194
194
195
193
193
191
189
189
192
190
190
191
190
193
192
190
190
190
190
190
188
190
188
157
214
210
217
213
222
233
239
238
219
210
217
221
220
223
223
209
220
201
212
204
189
190
175
163
157
155
143
147
141
153
180
182
174
176
147
88
61
95
88
104
108
98
129
160
191
195
183
164
195
202
202
195
192
199
201
202
202
200
192
185
184
183
179
156
151
171
187
194
198
195
193
193
193
189
190
190
188
190
190
191
190
191
190
191
190
192
189
190
190
190
188
156
208
209
208
221
213
213
218
221
221
213
215
215
220
209
209
208
208
201
199
185
188
177
177
165
155
133
132
131
131
124
117
129
136
135
128
96
71
105
88
105
83
77
84
108
120
157
187
120
178
200
205
197
191
196
202
201
203
192
193
198
201
202
174
131
153
188
176
181
195
192
193
191
193
194
194
191
191
190
191
191
192
193
191
191
191
190
192
191
190
190
190
158
202
206
211
207
210
217
209
210
217
209
209
208
211
212
209
208
203
198
193
177
168
157
148
150
138
117
111
114
123
128
118
114
119
125
119
99
75
91
102
97
79
70
76
71
96
106
110
90
88
149
157
152
145
151
151
168
207
189
195
197
202
191
134
107
173
165
144
188
194
193
192
191
195
194
194
192
193
193
191
192
191
192
196
192
191
192
190
190
190
188
189
157
201
201
202
204
204
203
209
207
206
208
207
206
204
209
203
202
201
203
182
166
144
151
148
128
114
118
102
97
100
101
101
97
98
97
96
104
70
62
84
81
61
54
70
71
63
63
66
104
55
55
93
111
119
139
168
144
127
179
195
191
178
147
134
97
167
116
172
195
191
196
193
191
194
190
191
193
191
193
192
192
192
192
194
194
191
191
191
190
190
190
189
158
202
203
199
203
202
205
204
209
203
205
203
201
202
202
198
190
195
195
189
167
149
127
109
100
95
105
107
91
90
94
92
95
83
82
84
77
79
58
64
64
55
45
51
68
66
51
49
59
61
49
43
81
68
95
153
153
133
92
118
160
130
180
131
76
94
104
174
196
191
198
194
195
192
192
194
193
192
194
195
193
194
193
194
193
193
193
189
191
191
189
190
157
199
200
199
200
200
202
203
202
197
202
201
201
202
200
193
190
195
184
190
167
147
118
105
105
100
88
100
92
81
85
82
77
73
72
66
55
55
54
46
53
50
40
35
49
55
43
48
42
32
44
33
39
48
55
88
137
171
169
144
92
174
170
110
72
50
102
176
198
195
192
191
196
193
193
190
196
190
193
195
192
193
193
193
193
192
192
191
191
191
189
190
158
196
196
201
198
202
200
203
202
197
201
201
205
204
203
192
194
177
178
190
184
138
123
110
106
105
79
82
94
84
79
70
67
68
73
63
52
43
36
35
48
43
38
34
31
45
43
37
40
42
36
33
41
31
25
42
66
118
160
155
124
157
168
97
65
32
87
171
193
197
192
192
193
191
192
190
194
194
194
192
192
194
193
192
192
193
191
192
191
191
190
189
160
199
199
197
199
199
198
205
201
198
196
199
204
205
198
186
188
168
126
132
146
124
103
110
90
82
77
67
79
76
78
74
68
66
67
66
61
48
40
29
42
44
28
30
27
40
37
41
36
44
38
44
51
45
42
36
40
43
98
131
137
138
179
90
48
25
44
156
185
198
185
195
194
195
190
192
193
195
194
195
193
191
194
192
192
193
191
191
190
192
191
191
158
198
197
198
202
199
199
201
200
200
184
192
195
190
165
135
134
99
86
94
89
75
80
96
86
65
59
62
72
72
68
63
61
63
63
65
59
61
42
35
33
44
29
27
26
28
25
24
41
47
48
44
41
38
34
26
27
32
36
38
78
110
181
111
42
22
22
81
185
197
190
197
188
196
191
192
191
190
192
194
193
194
193
191
192
192
194
192
192
192
192
189
158
198
206
199
198
200
200
197
195
190
183
175
181
163
121
128
106
86
93
91
81
56
65
83
85
75
57
48
58
59
64
56
53
52
55
50
45
37
37
34
34
47
43
29
22
25
27
20
20
32
34
30
30
28
27
28
28
29
26
31
36
35
83
131
30
22
23
26
164
194
196
197
187
191
191
190
191
192
191
195
193
192
193
192
192
192
194
192
191
190
191
189
161
202
199
198
201
202
198
199
192
193
181
179
179
131
112
123
116
98
94
94
97
70
50
67
93
84
76
57
50
66
69
59
61
64
53
38
37
35
34
30
28
31
48
29
21
19
24
24
17
19
21
25
22
19
19
19
21
19
23
26
24
33
60
66
41
20
24
21
90
185
190
185
190
193
194
192
191
193
192
192
192
193
193
193
192
194
192
191
191
190
190
191
159
199
193
197
199
197
197
194
197
190
176
174
167
147
120
117
107
101
97
68
70
77
65
59
68
84
67
58
67
64
71
64
55
59
44
38
37
46
35
26
23
26
36
46
18
16
19
21
22
19
15
15
19
20
21
16
17
20
19
19
23
29
17
27
20
18
20
24
22
161
176
176
192
197
193
192
194
195
194
192
194
193
193
191
191
193
192
190
191
189
190
189
156
200
193
198
199
199
200
196
196
194
190
187
165
156
143
124
104
84
79
80
69
59
59
64
49
48
55
50
49
53
58
51
50
49
50
34
30
28
30
27
30
28
23
42
44
17
17
17
19
22
16
12
13
17
21
18
19
21
16
14
18
13
11
12
14
20
14
19
15
94
135
166
189
191
193
193
192
193
194
193
193
193
194
193
191
191
193
192
188
189
190
189
157
202
194
195
199
196
197
188
184
185
193
185
165
152
137
100
83
72
74
72
65
61
53
65
61
50
58
66
41
45
63
70
68
57
46
44
32
28
26
27
21
28
33
32
38
39
18
16
19
19
21
15
9
11
12
15
15
17
16
11
11
20
26
24
14
9
22
31
18
27
80
160
189
192
194
193
193
192
194
192
192
193
193
193
192
190
191
189
189
189
189
190
157
201
199
197
199
200
186
168
153
149
148
147
145
138
106
91
82
83
81
78
80
72
61
54
51
50
59
80
78
64
59
55
45
44
37
44
38
38
40
37
37
32
28
25
26
36
25
15
14
20
15
16
19
17
21
20
19
20
20
19
26
24
16
9
10
7
15
30
25
18
42
157
191
191
193
191
191
193
194
193
193
192
193
192
192
190
190
190
189
188
187
189
158
197
203
198
191
182
157
112
113
125
124
122
116
111
109
107
95
81
71
78
83
85
67
56
52
52
54
43
66
81
87
72
50
44
42
40
49
48
43
43
35
25
20
17
19
22
31
26
15
20
16
19
26
23
21
20
16
16
17
20
24
16
9
10
8
12
10
17
24
27
27
115
184
190
191
192
193
192
195
192
193
191
192
188
191
191
189
191
189
186
188
188
156
197
201
194
185
185
132
113
140
137
127
130
112
87
73
73
78
83
90
74
71
68
63
52
48
44
40
47
45
63
48
68
91
53
34
28
27
28
28
28
30
31
26
17
13
11
19
26
19
16
19
21
26
16
16
16
17
24
23
28
25
17
11
12
12
15
12
12
15
20
23
45
180
190
189
192
193
194
194
194
192
192
192
192
192
190
187
188
190
186
187
186
156
201
193
191
192
192
159
114
127
122
122
119
104
82
68
60
56
56
63
73
75
76
61
61
51
43
46
49
57
38
53
53
38
42
43
45
32
37
39
36
34
37
31
26
24
17
12
19
27
21
16
17
24
20
14
17
20
18
17
18
19
17
16
17
12
9
15
16
14
16
23
31
120
189
190
192
193
193
192
192
192
192
191
191
191
191
189
188
189
189
187
188
155
201
183
192
189
180
161
147
143
148
129
100
76
70
66
62
62
60
62
64
59
57
56
69
65
46
51
56
62
62
63
39
36
40
51
47
47
40
46
50
54
50
39
33
32
27
27
19
24
24
18
17
21
17
16
14
15
12
16
17
15
11
13
13
11
14
17
22
27
20
15
26
73
152
189
191
192
193
193
192
191
191
192
192
190
190
190
187
188
187
188
187
155
186
185
179
166
154
155
142
159
147
105
73
65
65
54
55
53
52
61
66
66
65
66
56
58
55
51
69
61
60
56
48
43
45
32
48
53
59
61
62
71
67
70
63
51
41
39
35
26
24
20
18
16
19
17
13
15
17
13
18
17
16
14
12
13
17
19
28
33
26
17
19
25
70
178
188
193
193
192
194
193
191
192
191
190
189
190
189
188
187
188
188
157
192
176
150
172
169
164
154
150
132
95
74
63
53
60
59
53
60
62
64
69
61
48
53
40
51
53
46
58
50
56
57
53
49
38
48
62
80
86
93
98
103
98
88
87
77
69
61
50
35
29
19
16
16
16
14
15
17
15
16
21
19
16
14
16
17
22
23
34
22
21
14
23
27
64
177
188
190
192
191
192
192
190
189
190
189
189
188
188
187
187
187
157
192
171
177
166
163
153
146
145
124
103
86
68
71
61
51
57
52
52
50
49
50
42
45
51
46
39
42
55
56
59
56
67
62
59
62
76
88
105
112
123
136
128
116
114
110
105
94
79
63
45
35
17
12
13
13
14
14
13
13
13
16
17
15
17
21
21
20
25
24
19
13
12
25
32
57
188
190
191
192
190
190
190
189
189
188
187
188
188
187
187
186
156
193
176
150
163
148
127
133
124
107
97
78
73
60
57
58
48
48
55
71
64
53
48
60
49
38
38
48
45
55
56
60
70
65
71
84
102
119
137
136
147
158
149
138
131
131
135
133
120
100
73
46
29
11
13
11
15
11
11
11
9
11
12
14
16
17
16
24
25
27
25
17
19
17
27
50
120
193
190
192
190
190
189
190
188
188
188
187
188
187
187
186
156
192
159
139
140
131
128
129
125
101
87
72
65
63
63
48
48
59
57
54
48
49
65
44
47
43
43
44
51
54
57
65
67
80
95
115
122
140
145
154
163
173
166
158
153
153
154
156
150
133
107
72
39
17
12
15
17
13
11
10
10
9
10
9
11
14
13
13
19
23
26
17
27
15
18
38
72
193
190
190
189
189
189
190
187
188
187
188
188
186
183
185
155
190
174
131
138
147
143
139
122
96
76
62
57
50
56
52
50
54
49
63
69
49
47
42
40
38
36
41
50
61
70
72
85
96
113
131
141
148
153
169
172
189
183
172
175
178
182
173
165
150
140
113
59
26
14
13
13
13
12
11
9
9
9
11
11
10
9
11
12
15
22
17
25
19
16
27
97
193
189
191
190
188
189
190
188
189
189
187
187
185
187
187
153
189
167
141
139
144
144
126
121
81
69
58
50
44
42
42
49
54
57
63
52
46
48
47
46
38
35
43
50
67
75
82
98
117
127
134
143
153
163
180
189
204
198
192
187
197
198
192
182
172
161
141
98
45
22
15
12
14
13
11
9
8
7
10
11
13
14
13
12
13
16
23
27
24
22
47
159
188
189
190
190
189
189
187
188
188
187
187
187
186
184
185
154
184
162
150
131
150
144
142
115
87
74
53
43
40
41
47
48
52
54
55
44
54
52
50
52
39
41
42
56
69
88
100
107
126
132
138
154
172
180
185
191
204
206
198
198
209
206
202
187
187
180
162
127
78
43
23
19
12
12
13
10
8
8
6
8
9
10
12
11
11
12
15
17
15
31
128
184
188
190
190
191
189
189
189
189
187
185
185
187
186
186
184
155
181
156
147
149
152
157
136
111
96
73
59
49
49
47
48
59
69
52
44
60
68
56
47
45
34
31
45
64
85
108
112
117
131
138
146
170
185
186
196
197
208
205
205
211
212
211
207
198
194
193
182
160
117
73
46
29
30
22
13
11
10
10
11
10
11
7
7
9
11
15
15
13
11
31
157
183
189
190
189
189
188
187
187
186
187
186
186
186
186
184
184
155
180
160
158
151
166
146
113
119
109
70
53
56
53
56
56
73
58
58
69
71
65
60
60
39
30
51
66
81
111
115
122
129
139
147
163
174
189
194
194
202
208
203
209
214
216
209
212
214
205
198
198
185
153
119
74
40
25
23
23
16
12
13
14
12
10
12
13
13
16
17
15
18
14
36
168
183
188
190
189
188
187
188
187
188
187
186
183
186
184
186
185
153
187
163
153
156
135
114
111
116
92
73
61
57
61
61
60
62
65
75
76
69
62
69
44
35
54
69
79
105
120
126
129
140
153
160
177
188
189
194
199
203
206
209
211
215
217
212
216
214
210
203
199
196
175
150
128
76
54
39
28
20
16
15
18
15
17
23
32
34
26
25
28
14
21
26
116
180
189
189
190
188
187
188
187
188
187
186
185
184
184
185
184
153
189
169
151
138
124
113
114
115
103
99
80
69
59
52
48
76
79
83
81
73
76
54
45
52
66
87
100
120
131
136
147
152
161
173
183
193
196
196
201
202
205
212
211
215
215
213
213
215
206
199
203
206
194
173
147
129
105
89
70
42
28
26
43
31
23
24
33
39
29
29
35
21
24
36
97
179
188
187
189
188
188
188
188
187
185
185
186
184
185
184
183
153
189
166
127
133
124
139
137
125
107
90
84
59
57
49
62
89
91
108
92
92
81
66
62
73
85
108
116
122
140
156
159
168
174
181
189
192
194
194
203
204
201
203
214
213
211
214
212
212
210
208
209
206
200
195
176
154
148
139
125
95
53
44
47
45
41
38
31
37
22
36
40
22
26
40
73
170
185
188
189
188
186
187
187
188
187
184
184
184
183
184
184
153
190
175
149
148
136
140
147
127
117
112
95
86
84
65
83
101
108
105
103
99
93
76
94
103
123
136
150
156
156
165
173
175
179
186
197
199
201
205
206
202
203
207
212
210
211
216
215
214
217
217
214
213
204
207
201
182
170
159
148
124
90
57
52
45
39
45
32
22
21
28
37
29
37
43
58
172
180
187
187
186
185
187
186
185
184
185
186
185
183
184
182
152
189
184
165
136
123
140
142
120
119
126
117
94
88
73
108
116
115
117
114
101
86
113
112
126
146
160
171
171
169
169
178
182
192
199
202
204
207
209
205
204
203
209
213
213
215
218
217
220
218
220
219
215
214
215
211
201
199
188
170
145
111
75
57
49
41
45
36
24
26
25
28
30
35
48
42
134
185
185
186
186
187
186
186
185
184
182
185
182
182
182
182
153
192
189
188
173
135
131
144
147
131
132
122
115
114
101
118
117
125
120
105
100
119
121
132
145
168
179
181
180
175
183
185
191
196
201
206
208
212
209
208
202
206
211
216
218
220
217
219
216
220
218
221
220
220
216
215
211
204
197
185
157
127
89
64
51
42
35
36
30
27
29
29
30
26
34
40
130
183
185
187
184
187
185
184
185
184
184
182
181
182
181
182
153
190
191
190
189
175
128
124
132
138
129
125
114
116
102
121
129
120
103
118
135
130
135
149
168
186
194
195
195
191
192
193
194
202
209
211
214
218
213
210
216
221
219
220
220
222
223
220
217
213
211
221
218
218
217
214
208
203
193
179
154
124
92
64
43
42
39
38
36
31
33
24
21
34
28
45
114
176
183
183
184
184
183
185
184
181
183
183
180
182
182
181
151
190
191
191
190
187
174
142
131
143
144
142
139
121
131
131
127
105
139
150
142
141
153
166
181
195
201
202
204
199
199
201
203
209
215
218
220
223
219
220
220
221
224
221
222
220
216
214
214
209
211
209
218
213
213
211
205
203
192
175
145
123
89
61
50
42
38
32
44
32
30
30
26
26
33
38
148
183
183
185
186
183
184
183
184
182
183
181
181
182
182
181
152
191
190
192
190
191
187
181
160
146
139
147
153
141
133
129
144
170
170
157
154
154
164
183
193
198
206
208
204
207
204
207
211
217
219
220
223
227
225
223
221
222
224
221
222
219
215
216
210
208
210
208
202
202
213
209
204
194
188
164
138
119
97
59
51
43
38
32
39
28
27
28
26
25
29
37
143
183
184
183
183
184
183
182
184
181
182
181
182
181
181
181
152
191
190
188
189
190
189
190
185
177
161
153
151
142
167
181
183
180
172
161
161
160
176
199
202
207
210
213
209
216
218
215
216
221
223
222
227
228
229
229
227
225
225
222
219
216
215
213
208
209
209
206
194
193
203
204
199
191
175
153
128
113
101
65
48
45
41
39
36
33
32
27
27
27
26
44
155
182
184
184
182
183
183
183
181
183
182
182
180
181
180
180
150
190
193
191
191
188
187
188
189
188
188
190
183
167
196
198
200
193
176
172
178
182
200
214
217
220
219
223
226
226
226
225
225
225
224
228
229
227
226
228
225
224
226
220
220
215
211
209
206
207
204
201
192
196
198
196
195
184
169
145
131
106
86
79
57
47
40
44
36
36
29
24
23
29
29
38
163
181
181
182
182
183
182
182
180
181
179
179
181
181
179
179
149
190
189
191
191
190
189
188
190
189
190
187
182
161
203
203
201
195
183
181
187
196
212
217
218
221
223
226
227
226
227
228
227
225
221
224
223
219
221
223
222
224
222
221
221
217
214
208
208
206
205
203
195
196
195
190
189
176
158
142
115
105
74
62
58
47
43
48
39
37
39
26
30
26
35
39
152
181
181
181
180
181
181
181
179
179
177
176
177
177
178
177
148
188
189
186
188
187
187
189
189
188
186
187
179
178
205
207
204
197
185
182
193
208
217
219
215
225
225
224
227
227
230
227
224
222
222
213
205
211
216
219
223
223
226
227
225
224
216
212
209
207
205
204
199
197
195
195
190
183
171
142
122
106
83
60
58
54
46
47
41
38
35
31
33
27
30
47
166
178
180
180
180
180
180
179
178
176
177
177
176
176
178
178
148
188
187
186
186
187
185
186
186
188
187
185
180
183
207
210
207
200
190
186
195
211
218
221
226
229
226
226
226
228
231
227
217
212
205
198
202
206
201
210
217
224
227
229
227
225
223
220
220
214
206
204
201
199
197
193
186
184
179
161
139
113
84
71
56
51
46
51
46
41
40
34
29
30
30
53
172
178
179
177
178
179
179
178
176
176
175
175
176
174
177
176
148
187
187
186
185
183
184
187
183
184
184
182
181
193
212
213
209
199
190
184
189
209
219
220
226
225
222
226
223
223
220
215
211
202
194
192
189
194
202
210
217
225
227
226
225
225
220
217
216
209
199
204
203
198
195
194
190
193
183
173
163
141
104
76
56
55
45
44
47
42
39
35
38
38
33
78
174
175
178
176
178
180
180
178
176
177
175
175
177
175
177
175
147
186
185
184
185
184
185
184
186
183
181
184
183
199
213
214
210
202
191
186
186
207
206
215
217
216
213
210
210
212
216
211
204
196
184
182
193
204
212
221
224
229
231
225
222
222
217
211
210
207
208
203
197
194
190
192
192
192
190
190
181
167
137
102
72
56
51
50
48
45
45
35
36
38
33
97
174
176
178
176
177
178
177
178
177
176
175
174
175
173
174
175
146
184
182
185
185
183
183
184
181
181
183
186
183
198
214
208
212
201
195
190
186
196
191
202
206
196
193
196
197
199
197
195
196
198
195
206
217
218
222
221
225
225
224
219
215
210
211
211
212
209
203
199
181
161
181
187
192
193
192
189
188
183
165
127
75
68
58
50
46
48
53
42
34
36
31
128
172
176
176
174
177
177
176
175
174
175
174
175
175
173
175
174
147
185
184
181
185
181
182
182
182
180
183
183
180
197
192
198
195
181
183
188
192
186
174
178
185
180
177
178
173
173
175
178
194
196
218
223
215
211
206
200
195
190
191
191
188
191
204
205
204
204
203
199
183
163
175
183
187
189
195
192
193
190
181
158
119
74
65
50
54
45
51
48
40
36
38
164
170
172
172
174
174
173
175
176
174
174
175
175
174
174
175
173
145
184
184
183
181
182
181
186
181
180
184
181
180
179
177
163
147
148
153
159
168
155
144
153
164
167
161
156
154
143
145
160
172
172
181
173
167
157
146
150
151
146
163
159
152
172
181
184
182
183
179
185
179
175
177
182
178
184
188
193
189
188
186
179
147
105
81
61
57
56
49
52
49
39
53
176
200
188
169
173
172
173
174
172
174
174
176
174
172
175
175
173
145
182
183
184
181
180
182
181
181
180
180
181
167
142
138
117
101
90
88
83
100
114
106
121
147
159
159
151
145
131
111
124
126
108
93
89
82
84
87
97
105
111
124
127
127
124
146
151
147
157
152
159
168
172
177
173
175
176
180
172
184
187
190
183
171
124
88
72
64
60
51
51
52
45
158
226
220
197
180
169
170
172
172
174
174
175
175
175
174
175
175
172
145
183
182
185
179
180
181
182
180
179
182
181
153
116
116
98
69
49
46
45
55
60
71
84
115
151
151
153
143
121
90
81
86
85
71
54
49
42
39
43
55
76
73
84
84
93
109
113
119
124
129
128
135
157
163
166
171
170
169
174
181
187
192
191
181
140
99
84
69
62
60
54
64
119
200
212
165
76
128
171
170
171
171
173
174
174
174
173
174
174
173
173
145
181
182
181
181
180
179
182
180
180
180
180
165
118
106
96
69
56
48
45
38
39
47
59
88
136
148
144
141
123
102
73
67
57
51
45
39
37
44
54
65
67
80
96
96
103
99
98
101
100
107
115
118
129
144
156
160
168
171
179
180
183
190
186
175
147
104
91
79
62
60
64
102
165
197
177
83
66
84
166
169
170
171
172
172
175
173
174
176
174
175
172
145
180
183
182
181
180
179
183
182
180
180
180
177
139
128
119
107
83
65
51
42
39
36
34
47
119
157
157
153
136
122
97
82
72
55
49
41
27
35
41
50
62
61
65
72
87
93
100
100
100
99
102
104
110
120
133
148
163
172
179
185
186
193
190
175
143
108
94
84
67
63
95
134
167
157
118
78
66
76
147
170
171
170
170
171
173
175
174
175
174
175
173
143
182
182
180
183
180
180
178
179
182
182
183
181
184
159
123
78
90
72
48
38
32
23
24
28
67
171
183
174
163
138
114
100
73
57
51
38
53
64
48
53
44
42
51
47
52
52
54
76
92
97
104
109
110
115
130
150
165
177
182
181
185
187
184
174
152
124
98
83
68
74
123
142
140
117
119
92
71
83
140
169
170
171
170
169
171
173
175
173
174
173
173
144
179
179
181
180
179
181
180
179
181
181
183
182
184
175
133
97
48
35
88
62
51
33
15
17
53
190
206
205
191
157
129
107
78
71
60
59
50
32
67
101
30
26
22
19
20
38
49
50
54
72
84
92
103
114
127
149
164
170
183
184
185
184
180
170
153
118
103
83
63
88
130
126
114
90
119
109
82
91
144
169
170
169
170
171
170
173
173
172
173
172
175
144
179
180
179
181
180
179
180
179
180
180
182
181
185
185
140
58
79
112
147
73
28
22
26
22
67
213
232
231
213
176
136
108
90
87
94
62
54
93
125
125
32
22
13
39
35
63
33
41
56
69
81
89
101
119
136
154
169
173
182
187
189
183
179
172
150
119
106
91
60
93
123
118
118
111
126
129
93
102
144
168
168
170
169
169
170
170
174
173
174
173
173
143
177
178
178
178
179
180
179
181
182
181
182
179
185
189
162
150
137
121
136
119
56
33
43
60
110
232
238
237
218
186
144
119
103
96
85
87
70
77
125
146
83
40
39
38
66
77
71
74
79
94
96
107
122
139
158
172
178
183
183
184
186
186
178
176
157
131
102
104
63
111
113
64
86
100
124
141
108
125
163
169
168
168
168
171
170
171
171
173
174
173
172
143
178
177
180
179
177
179
180
179
179
180
181
182
184
199
185
168
151
133
102
114
118
111
97
86
160
238
239
233
211
178
154
131
117
108
89
91
96
101
113
124
125
96
82
91
96
86
92
96
108
116
130
135
143
163
176
188
191
190
190
192
187
182
180
175
162
137
111
109
76
118
91
51
69
89
115
141
116
145
166
167
167
168
168
169
170
171
170
173
172
173
172
145
179
178
178
178
178
179
180
178
179
179
182
179
184
204
195
183
176
146
121
99
92
80
69
75
215
240
243
231
202
185
163
153
139
126
104
89
84
96
95
98
102
88
92
90
103
104
107
111
117
127
136
153
166
180
192
197
196
194
190
190
188
182
175
170
162
143
120
107
82
116
77
75
74
81
111
140
127
166
166
167
167
168
169
169
170
171
169
172
174
172
172
143
177
177
178
179
178
178
176
179
177
178
179
180
185
206
200
192
180
166
135
115
97
87
101
135
231
238
240
220
203
188
180
171
157
140
129
107
95
90
96
95
94
93
95
101
107
109
111
118
129
142
158
177
188
197
202
206
201
197
192
187
181
172
170
160
159
151
122
103
81
126
101
110
91
90
125
129
151
165
166
163
166
169
170
169
170
169
171
171
171
171
171
143
176
178
175
177
176
177
179
177
178
179
177
179
180
204
201
197
190
184
165
150
140
131
129
193
235
243
239
219
206
201
194
183
171
156
148
136
117
108
111
116
108
104
100
102
107
120
131
143
158
171
185
196
201
203
207
206
203
194
187
182
178
172
162
158
161
139
112
104
91
134
107
115
93
105
137
130
163
166
164
165
168
169
167
168
169
170
169
168
171
172
171
144
177
176
175
178
177
177
177
176
178
178
179
178
180
208
199
200
192
183
173
158
148
149
184
217
241
245
236
220
209
204
200
192
181
174
164
159
149
131
127
127
134
138
138
141
149
155
162
173
187
198
206
208
206
205
202
204
196
193
189
178
170
167
163
153
157
133
110
91
92
130
109
100
89
124
141
142
165
166
164
166
168
167
167
167
168
171
169
167
170
170
171
143
176
177
176
176
176
177
174
177
176
177
175
175
178
208
208
205
199
187
177
167
175
194
203
231
243
248
232
219
214
205
204
196
189
179
173
173
169
166
153
148
147
147
154
164
171
182
188
194
205
210
212
207
203
203
197
200
193
187
180
174
163
163
159
155
155
131
104
91
101
106
88
101
129
152
137
155
163
165
163
166
167
166
167
168
166
168
168
169
168
169
169
141
176
176
175
176
176
174
174
174
176
175
174
176
177
206
209
202
200
201
197
196
198
205
214
241
245
247
228
214
212
202
194
188
187
180
175
178
182
183
179
173
169
166
166
177
183
193
203
208
211
207
206
202
205
198
195
190
188
185
174
169
163
160
155
151
143
115
103
103
105
79
139
166
156
135
151
161
164
164
162
165
166
167
166
167
166
165
166
168
167
169
170
143
176
174
173
175
175
176
175
175
174
176
174
174
175
200
208
205
204
206
199
204
208
203
233
244
244
241
226
218
207
195
185
171
165
166
168
178
187
189
185
186
192
187
192
197
199
203
205
208
202
200
199
199
196
196
190
187
189
183
175
168
160
157
150
147
131
110
104
90
97
132
170
171
176
178
158
162
162
164
160
165
166
166
165
165
166
164
167
167
165
167
171
140
175
175
175
174
174
175
175
174
175
174
174
174
174
193
211
205
204
207
206
203
203
212
241
244
249
235
219
207
196
192
176
170
153
148
159
178
187
190
198
200
206
204
203
206
205
204
197
191
191
192
197
196
194
192
187
185
184
179
173
166
157
151
145
143
126
113
108
85
107
145
153
177
185
182
157
161
162
162
163
163
165
166
166
165
164
165
165
167
169
168
169
142
175
175
175
174
176
174
172
172
172
173
173
173
173
186
209
210
207
212
212
209
203
234
239
237
244
230
216
202
194
188
176
171
163
145
139
161
181
192
199
205
206
209
211
204
198
199
198
197
199
200
194
196
189
189
184
181
179
174
171
160
147
147
143
138
119
110
108
104
122
159
161
151
175
163
159
159
160
161
161
162
164
165
164
165
163
164
165
167
165
164
167
141
173
174
174
173
172
171
172
173
171
172
171
173
173
179
207
214
213
214
213
205
209
229
233
228
229
216
198
190
199
195
189
187
189
157
135
137
174
190
200
207
210
213
212
202
201
197
197
199
200
198
201
196
190
188
181
182
179
175
167
156
146
142
136
133
121
102
103
106
121
167
178
189
186
157
160
160
160
160
160
162
163
163
165
163
164
164
165
166
166
165
169
140
172
171
172
173
172
172
172
172
172
170
171
171
173
173
208
215
217
216
209
204
208
206
210
203
197
179
168
173
187
188
186
193
186
171
137
140
172
185
197
203
212
214
212
207
204
197
202
206
205
204
197
195
192
188
184
179
177
167
162
154
146
141
134
133
112
100
99
105
113
146
165
177
160
155
159
157
159
159
159
161
162
163
162
164
165
163
164
164
164
166
168
138
172
173
173
171
173
172
171
171
172
171
171
171
171
171
210
215
215
215
204
199
186
174
166
163
150
137
125
135
141
147
152
162
163
158
143
134
164
181
192
200
209
206
209
210
208
205
208
209
206
202
197
194
191
183
183
176
166
165
161
149
141
135
129
120
105
99
103
107
98
116
135
135
149
158
158
157
158
159
159
161
160
161
162
162
163
162
163
163
164
164
167
139
172
170
172
171
168
170
170
170
170
171
170
169
170
169
206
213
213
214
205
198
178
141
142
131
121
117
113
99
84
91
115
126
127
135
129
137
168
174
191
204
205
206
210
211
211
207
209
207
207
204
193
194
184
184
180
176
169
162
151
138
141
134
123
109
102
96
96
96
140
131
129
151
154
156
157
158
158
160
160
159
159
162
161
164
162
162
162
163
165
162
164
138
170
169
171
169
170
169
170
168
170
169
171
169
170
168
200
214
211
215
209
200
200
156
123
121
107
103
66
35
53
46
48
84
110
115
105
148
180
183
187
198
206
213
215
209
208
210
204
197
201
200
198
191
183
182
180
172
166
150
146
141
139
131
122
106
107
109
92
93
131
152
154
152
153
154
157
157
158
156
157
158
159
160
160
161
161
162
161
163
164
163
163
138
171
170
169
168
169
169
169
170
170
170
168
169
168
169
191
211
213
214
200
198
203
211
166
125
116
98
83
73
75
80
80
82
94
81
84
175
203
197
196
198
204
210
212
212
207
202
197
191
197
197
192
184
181
177
175
164
156
145
142
139
131
130
117
103
101
106
95
90
138
150
154
154
155
155
155
156
157
157
158
158
159
158
160
160
161
162
162
160
162
161
164
137
169
169
170
169
168
169
167
168
170
170
168
168
168
167
177
209
214
213
205
209
221
217
180
162
140
135
98
99
103
102
97
93
94
109
142
202
214
210
199
199
202
204
208
206
201
199
199
196
191
194
185
180
173
168
169
156
152
143
141
130
127
122
112
93
98
103
86
85
140
150
152
152
153
152
155
155
157
157
158
158
158
158
159
159
160
161
161
161
162
163
162
137
167
167
169
170
169
169
169
169
168
168
167
167
167
167
167
205
212
211
213
218
225
216
184
160
141
139
142
133
117
121
121
127
139
150
174
215
223
219
207
203
200
204
209
207
200
198
192
191
182
185
181
176
176
164
162
155
142
131
129
128
130
119
104
93
86
89
78
78
146
150
150
153
154
153
154
154
155
155
157
158
157
157
158
159
158
158
162
160
163
162
163
137
169
168
169
168
169
167
168
169
169
166
169
169
169
168
166
199
205
210
213
219
224
212
165
128
135
135
136
120
116
110
116
138
147
168
197
217
222
221
217
207
204
203
203
201
199
190
186
186
180
178
179
175
168
163
155
147
137
132
137
138
127
116
99
84
84
81
74
102
147
149
151
151
152
152
153
155
154
155
157
156
158
159
159
158
160
158
158
161
162
162
163
135
167
168
169
168
168
167
169
168
168
167
168
166
167
168
167
186
202
209
214
212
212
195
136
109
120
131
130
116
117
102
105
129
158
177
203
211
214
216
215
209
205
207
204
203
198
192
187
187
183
179
174
170
166
163
148
145
135
140
135
134
127
116
89
89
82
74
66
118
146
149
150
151
151
152
152
154
154
154
154
156
156
157
157
157
159
157
160
161
161
163
163
134
167
169
168
170
168
168
168
168
169
169
167
169
167
168
166
178
207
213
199
189
184
181
134
110
116
118
115
123
117
115
117
119
145
161
187
197
199
200
210
211
205
200
201
203
197
192
189
183
175
173
171
158
163
158
148
145
131
140
136
136
123
112
79
83
94
82
78
125
144
147
149
149
151
151
154
154
154
154
154
156
157
157
158
158
159
159
157
159
161
161
161
135
168
167
168
167
168
169
167
167
167
166
169
167
168
166
167
172
204
207
180
141
148
164
119
108
118
104
111
120
124
129
128
114
126
152
163
173
158
184
200
207
205
203
207
202
198
194
191
182
174
175
166
161
163
156
148
146
143
144
137
137
118
87
77
86
94
77
88
134
142
145
148
149
150
151
151
152
153
153
154
154
156
157
156
158
159
158
157
158
160
160
163
134
169
169
167
166
167
168
166
166
168
167
167
167
168
166
164
163
184
191
164
130
135
133
134
145
164
146
135
148
170
148
135
131
137
137
131
159
137
162
170
194
201
204
201
202
196
189
184
176
173
165
163
162
159
152
148
151
145
143
141
125
102
90
76
94
72
85
110
133
140
141
144
147
148
150
150
151
153
153
154
153
155
156
155
157
157
157
158
157
157
157
161
134
167
168
167
167
167
166
169
169
166
165
167
166
167
166
165
160
187
196
169
152
133
128
141
143
154
172
181
177
153
147
149
148
143
131
131
138
132
146
150
186
190
198
200
201
195
189
182
172
165
166
162
160
153
158
148
154
148
143
130
110
105
92
97
81
67
87
132
132
136
140
143
144
145
147
147
151
152
152
151
153
153
154
155
154
156
156
159
157
157
159
159
133
165
166
168
167
167
167
169
167
166
167
167
165
166
166
166
166
165
198
176
148
120
105
106
82
95
117
120
101
88
90
93
107
114
120
139
135
137
138
134
172
177
184
195
194
190
184
177
163
169
159
156
159
156
155
143
145
144
136
127
91
101
93
86
73
85
118
137
128
132
137
140
141
143
146
147
150
151
151
151
152
152
152
154
152
154
155
156
156
157
157
160
133
167
167
168
167
168
167
169
166
166
166
166
167
166
165
165
165
155
198
174
152
137
144
112
86
71
65
69
69
56
50
45
43
44
62
82
94
91
114
134
159
166
174
185
193
189
174
171
166
159
158
156
157
152
147
147
142
135
128
118
83
76
84
74
86
109
137
136
126
132
135
138
140
142
145
146
147
148
149
151
151
151
151
152
153
153
154
157
157
158
157
159
133
167
166
166
166
165
166
165
166
166
165
164
167
165
167
165
166
158
187
174
161
174
185
178
166
151
123
117
107
104
101
104
107
113
114
113
108
108
104
125
142
162
170
178
182
181
178
172
161
152
160
157
151
151
146
143
132
123
126
96
84
82
75
78
87
113
136
133
124
128
132
136
138
138
143
143
147
148
147
149
148
150
151
151
152
152
152
155
156
157
156
158
133
167
167
166
166
167
165
166
167
164
167
166
165
165
165
163
164
158
165
166
175
188
170
187
175
165
173
168
165
172
176
182
187
176
182
176
163
162
159
149
152
161
163
170
174
173
172
158
155
151
153
155
147
149
137
131
131
113
101
79
73
72
79
84
100
130
138
140
121
124
130
133
134
137
140
143
144
146
147
150
149
149
150
150
150
150
153
155
155
157
157
159
131
167
166
165
166
165
165
165
166
165
166
165
166
166
164
164
162
163
138
167
173
187
179
154
152
151
155
160
153
157
162
160
157
158
152
141
137
146
170
173
161
153
156
165
163
163
161
156
149
149
144
142
139
138
132
130
111
103
97
79
98
87
88
89
124
135
138
140
118
122
126
128
132
135
137
140
143
143
146
147
148
148
148
150
151
150
151
152
154
154
157
157
132
165
166
166
167
164
165
164
167
164
165
164
165
164
162
162
162
164
148
156
165
174
176
156
127
110
101
110
108
109
119
119
113
111
116
120
131
152
170
170
168
157
154
152
154
154
153
151
148
140
144
141
138
133
133
123
111
98
100
85
79
87
77
103
121
138
138
142
126
117
125
128
130
132
135
138
140
142
143
145
146
146
146
149
148
148
150
151
152
154
156
157
130
166
163
166
164
163
165
164
165
164
164
164
162
163
163
162
161
161
160
134
157
162
163
157
140
117
91
74
67
70
81
90
98
108
119
128
140
152
163
158
155
152
148
142
141
143
142
141
136
141
133
132
134
122
126
116
88
92
77
88
74
77
102
115
132
138
137
143
148
99
111
121
128
130
132
135
138
139
143
143
145
146
145
146
147
148
150
150
151
152
153
155
130
165
164
165
164
165
163
165
164
164
164
163
161
163
162
163
160
159
159
133
137
154
157
153
143
130
104
86
76
86
73
80
99
111
121
130
138
144
150
150
149
147
139
141
140
142
136
135
132
134
123
125
126
118
108
101
89
68
69
83
65
91
121
127
138
138
138
146
149
156
98
100
89
107
131
132
135
138
139
141
143
144
144
144
145
147
146
148
150
153
153
155
130
165
165
165
166
164
164
164
163
164
163
162
161
161
162
161
160
159
158
155
115
150
161
159
154
134
118
106
98
84
83
82
103
112
124
130
133
139
137
139
138
142
139
138
137
132
133
133
130
128
121
116
104
101
90
88
82
54
71
66
81
118
122
134
139
136
140
145
150
154
152
48
89
82
82
124
132
136
138
139
142
143
143
143
144
145
146
148
149
151
152
155
129
163
165
163
164
164
164
161
161
163
162
162
159
162
160
159
159
158
157
160
123
129
163
177
173
158
137
134
117
90
111
105
117
121
127
132
137
140
140
137
135
132
133
126
131
130
129
128
128
126
119
109
99
85
78
81
58
61
88
84
117
121
129
136
140
138
139
148
149
154
157
126
53
100
84
63
113
135
137
138
139
141
142
143
145
145
145
147
148
150
152
154
129
164
163
164
165
162
161
164
163
160
161
161
159
159
159
157
162
168
169
174
165
104
152
186
190
177
163
144
140
119
128
128
130
138
142
151
154
159
154
148
139
138
128
124
117
119
119
105
106
113
112
95
83
81
71
66
52
77
98
110
119
130
136
140
137
138
143
147
151
156
156
149
75
84
96
80
112
100
135
143
144
142
141
142
142
143
143
147
148
148
151
151
128
163
163
164
163
163
163
162
162
162
162
159
158
163
154
152
148
152
159
173
144
122
133
179
190
191
175
173
161
158
158
146
151
162
166
173
175
171
151
150
144
140
127
113
109
111
112
88
93
105
91
84
66
66
68
48
79
93
111
120
132
133
137
138
137
141
145
149
151
159
162
163
99
82
90
88
105
125
114
123
119
135
128
137
144
142
162
153
147
148
150
152
127
166
160
165
161
162
163
161
161
160
160
163
173
166
169
151
116
105
132
116
148
137
105
155
177
182
170
178
179
170
170
154
163
168
181
181
182
179
168
142
137
124
118
110
87
89
90
77
75
99
88
71
51
67
59
73
100
114
124
121
133
139
140
135
140
144
144
146
155
162
168
172
124
92
96
97
108
123
135
137
140
146
145
145
153
159
139
153
165
154
153
157
130
170
162
143
157
163
162
163
163
171
182
189
170
189
148
134
119
105
122
147
159
132
98
106
149
163
168
166
170
170
166
150
162
170
176
179
177
176
156
146
136
115
114
100
77
58
65
66
63
83
81
58
49
54
85
106
116
125
125
136
139
141
138
140
142
146
145
148
160
165
170
178
132
96
102
103
110
126
134
140
143
142
143
143
143
152
164
165
134
144
150
153
130
175
183
156
145
153
173
167
157
152
147
146
179
183
143
114
111
112
128
155
148
121
89
85
108
120
158
151
152
153
153
149
155
165
157
161
159
158
133
140
118
92
96
81
65
45
58
63
63
66
61
49
46
81
108
117
122
122
132
137
138
139
141
142
144
143
148
153
162
170
175
180
131
100
103
105
114
134
137
134
138
144
148
144
144
154
161
163
159
156
155
152
127
177
192
169
135
132
142
153
158
160
161
170
185
181
139
108
114
107
128
151
147
109
105
92
63
107
135
144
137
148
141
140
153
143
129
129
146
130
118
103
103
82
71
61
46
45
61
76
63
73
42
69
88
106
112
114
124
132
134
137
140
144
142
143
146
150
152
160
166
172
179
184
128
101
106
110
122
131
137
140
138
143
146
145
144
151
158
157
159
156
155
158
133
181
193
177
145
144
144
149
154
153
162
168
184
177
131
101
115
112
127
149
138
111
123
121
73
68
84
105
119
124
117
126
137
125
115
111
108
82
81
74
76
53
47
46
39
42
63
70
66
74
70
104
113
108
119
125
131
134
138
144
146
146
144
146
153
153
157
165
169
177
184
189
123
106
112
109
125
138
141
142
141
142
143
144
144
152
158
160
157
155
154
152
128
183
192
173
147
135
146
151
162
162
151
161
183
174
127
102
117
121
122
141
130
115
128
131
90
53
55
74
84
89
100
104
112
100
81
100
84
69
54
49
43
35
30
36
33
55
61
75
88
103
100
106
109
117
124
122
134
140
147
148
148
145
145
150
153
158
164
169
175
184
188
189
119
112
117
115
127
140
145
143
143
146
144
145
147
152
154
158
157
154
157
154
128
187
190
172
150
136
140
146
148
140
139
161
181
166
117
99
116
123
126
133
132
126
132
137
90
52
64
45
38
52
67
79
81
71
80
73
65
47
37
31
32
36
40
45
49
74
88
111
98
100
105
109
112
121
127
136
142
148
149
150
148
146
149
155
160
166
167
174
181
191
198
190
117
119
123
116
132
142
148
151
145
147
144
143
150
151
157
159
156
156
153
154
127
192
190
170
148
131
135
141
143
129
136
166
180
156
112
102
115
122
125
125
126
125
129
136
93
50
66
69
50
42
81
59
54
53
54
42
42
46
42
57
55
64
76
77
106
106
96
86
88
97
109
113
114
131
136
143
148
149
152
153
151
153
158
165
169
170
176
182
189
196
204
180
116
119
123
114
135
143
148
150
147
146
145
143
147
151
156
156
155
153
150
150
125
183
189
174
149
124
131
138
135
129
143
169
180
142
99
106
119
125
123
127
124
127
127
139
98
52
51
70
66
53
139
139
128
102
54
75
98
92
82
92
91
101
99
85
85
91
97
103
109
115
123
126
128
141
146
149
154
157
157
157
157
162
165
174
176
179
184
191
196
205
207
164
118
122
125
118
138
144
148
146
149
148
146
146
145
151
154
155
153
152
149
145
123
175
189
171
147
122
123
136
136
133
143
167
177
131
104
112
121
123
123
126
128
131
127
139
106
61
39
67
64
60
119
184
173
169
171
167
160
148
133
125
122
120
118
118
115
115
120
124
131
136
138
142
145
150
155
155
158
162
162
163
167
169
175
184
187
188
193
199
204
209
209
149
121
128
127
125
140
147
150
148
149
148
144
142
144
149
151
157
153
150
148
147
125
170
188
167
150
121
122
130
127
126
134
172
158
125
105
116
124
122
125
126
132
134
127
140
115
67
37
59
65
62
83
176
182
184
182
180
174
168
158
144
136
132
132
128
128
129
137
142
145
150
151
151
153
154
158
160
163
166
168
170
170
179
185
192
197
201
203
208
204
213
208
129
126
128
127
133
140
148
148
150
149
151
146
144
145
148
150
156
155
157
152
147
123
161
177
160
146
121
124
129
125
130
145
172
147
117
100
115
122
122
126
126
131
137
127
142
118
77
39
53
68
69
68
160
180
183
184
182
183
181
176
165
153
148
149
149
149
148
150
152
154
153
157
161
159
160
163
166
169
170
175
176
184
189
197
199
206
210
210
215
218
220
194
125
126
128
125
138
143
149
149
149
151
151
149
144
140
142
148
153
154
154
151
147
120
158
181
163
140
117
121
123
121
135
163
160
138
116
98
118
126
125
125
129
133
135
134
145
120
88
52
44
66
70
66
146
179
186
185
187
191
188
185
185
179
171
161
159
158
158
161
159
159
162
163
165
166
168
168
173
176
178
184
189
191
195
203
201
209
214
219
218
225
223
172
128
130
132
127
141
144
147
148
146
153
151
150
151
143
142
144
150
154
154
152
151
123
152
177
161
133
109
99
101
109
145
165
150
127
108
104
119
124
126
127
129
134
134
132
149
125
93
61
41
62
67
68
134
183
188
188
189
192
196
196
197
194
187
179
172
167
161
161
163
164
164
166
169
171
176
177
182
185
188
192
198
202
207
212
212
218
221
223
227
229
227
137
131
133
132
128
142
146
149
150
151
151
151
152
149
143
142
145
150
152
157
153
149
126
142
182
156
125
91
84
104
131
157
156
139
123
109
113
122
127
125
128
131
130
137
139
155
138
96
65
40
56
71
71
121
177
186
191
191
191
194
197
199
198
193
189
181
172
166
165
168
162
168
170
172
176
180
186
192
195
197
201
200
210
216
220
223
226
227
230
231
232
196
128
134
134
128
138
145
148
152
153
149
150
151
151
149
144
140
142
150
155
154
152
150
124
