P2
# CREATOR: GIMP PNM Filter Version 1.1
92 112
255
244
244
247
248
246
244
242
242
244
251
241
250
234
234
231
236
231
223
223
229
222
220
222
218
212
216
217
212
213
209
214
208
210
209
208
206
197
192
194
174
167
176
173
190
214
217
215
216
214
219
221
221
220
219
211
220
222
218
215
219
215
224
217
214
221
216
213
211
212
209
212
209
206
207
207
208
204
205
204
204
204
203
203
203
202
204
203
204
203
201
203
169
248
245
237
246
244
244
253
241
249
244
240
247
231
232
232
234
233
227
221
225
228
226
218
212
211
216
216
212
214
211
216
211
213
209
209
206
204
193
185
183
174
176
151
157
168
182
198
212
212
211
217
217
217
221
209
217
210
219
213
217
217
215
215
216
217
211
212
208
209
207
213
208
206
204
206
206
205
205
204
206
205
205
203
204
205
205
204
203
203
201
199
168
243
246
235
241
247
245
244
243
245
230
240
246
229
234
232
225
234
241
218
222
226
225
215
213
211
217
214
218
214
211
211
206
212
208
207
200
200
188
188
178
185
173
176
166
137
153
155
176
190
190
203
211
204
205
199
206
196
213
213
217
216
216
213
211
214
213
204
205
207
208
208
205
206
204
205
204
205
205
204
205
205
205
204
203
202
204
202
202
203
203
203
170
234
235
233
244
238
243
232
239
236
230
241
240
228
232
232
228
235
225
223
223
225
226
212
217
214
208
211
216
211
212
212
211
199
205
204
208
195
174
170
165
173
168
153
169
165
133
131
125
136
160
162
165
162
164
141
188
177
210
215
219
215
211
214
209
196
191
211
205
209
206
206
206
207
204
207
202
206
205
204
204
206
204
203
204
203
205
204
205
202
202
201
169
226
232
231
232
236
242
236
240
230
228
233
235
234
229
227
228
231
228
229
221
222
228
212
218
218
212
212
214
213
209
208
202
193
186
166
141
123
117
117
121
128
131
147
136
141
131
108
107
115
108
97
85
104
120
123
129
163
199
214
218
211
214
211
204
199
188
199
206
210
201
208
207
204
204
204
203
205
203
204
206
206
206
206
204
203
203
203
203
203
203
204
168
229
223
227
226
233
244
250
248
234
232
227
235
234
229
227
226
236
222
223
228
224
225
214
217
214
215
209
205
211
199
203
182
134
130
124
127
112
117
129
132
123
136
120
119
119
130
108
83
96
79
75
64
71
89
120
116
128
177
199
220
211
215
210
206
202
194
169
208
202
202
203
208
208
205
203
202
205
204
203
205
205
205
204
205
204
204
203
204
202
201
204
168
223
228
223
233
230
225
231
238
233
227
230
233
234
225
226
225
231
218
220
222
217
214
216
219
214
209
205
213
206
189
190
167
142
126
110
128
112
104
117
115
132
121
107
104
86
99
106
80
82
78
70
67
58
55
79
116
90
132
183
201
200
208
208
201
195
189
171
211
195
201
208
207
208
204
204
204
206
206
206
205
204
205
206
205
204
205
204
204
204
203
202
168
217
220
225
226
224
230
224
225
229
224
226
226
229
226
223
223
222
218
220
223
219
211
219
217
210
214
207
212
212
192
189
149
114
78
86
93
122
103
94
101
121
127
116
107
88
83
89
77
69
69
73
67
57
64
51
68
74
91
127
188
204
210
195
207
205
211
144
195
171
186
201
206
210
207
206
206
207
206
204
206
206
206
206
206
205
205
205
203
204
204
202
169
215
215
222
218
217
218
224
221
223
221
224
225
223
224
221
220
220
222
215
224
218
213
215
214
213
207
186
207
210
202
170
92
85
101
73
81
91
108
92
85
93
96
121
109
86
66
78
86
73
58
67
70
57
55
47
42
64
55
71
128
191
194
200
192
194
162
172
170
166
187
205
206
208
205
207
207
205
207
206
206
205
207
206
204
205
205
204
205
202
201
202
169
217
215
214
218
217
221
220
226
221
219
218
219
217
221
219
217
222
219
218
218
217
215
216
214
209
172
152
127
140
187
136
87
86
85
83
72
83
99
105
90
87
78
83
73
108
65
55
70
83
67
60
51
53
49
50
30
35
48
45
55
140
173
176
128
136
130
172
142
143
160
206
206
207
205
206
205
206
206
206
207
206
206
206
206
207
205
205
204
203
202
204
169
214
214
216
214
215
216
217
219
218
218
216
220
220
220
217
215
215
219
216
216
215
214
208
196
146
114
108
113
129
123
101
88
57
72
71
77
72
79
83
84
75
81
73
66
45
84
57
52
74
69
55
60
49
47
39
37
27
35
39
40
76
118
143
168
159
146
113
124
120
196
204
207
205
207
206
207
205
207
206
206
207
208
206
205
207
205
204
204
203
204
203
169
210
211
215
212
215
214
215
217
217
218
216
218
218
220
219
218
217
220
215
212
209
207
193
147
114
100
106
108
112
132
113
80
79
51
55
62
64
74
59
67
67
61
67
59
52
47
64
53
56
59
55
53
49
40
42
35
40
42
35
39
39
90
138
151
187
150
88
101
104
189
201
205
208
205
207
207
206
207
208
206
207
207
207
207
205
204
204
203
203
203
205
170
211
213
213
212
215
214
218
217
215
217
216
220
219
219
219
220
220
218
221
216
216
201
167
114
110
101
103
98
117
105
107
90
81
79
64
81
68
56
71
58
62
55
55
63
55
57
48
45
50
61
48
58
37
38
39
38
46
47
35
33
40
45
90
166
145
131
55
62
107
172
209
206
206
208
204
207
207
209
207
207
207
206
207
205
207
205
206
206
205
205
205
170
212
212
210
216
213
214
215
218
216
216
217
219
218
219
220
221
214
220
224
216
226
188
173
91
70
104
119
89
121
109
76
72
63
59
60
57
55
56
51
58
54
67
70
47
47
40
44
29
39
55
53
45
37
31
35
46
32
26
46
41
33
44
40
75
94
80
51
47
84
173
207
201
211
204
206
206
207
207
207
206
205
205
205
206
206
206
204
205
205
205
203
171
210
217
214
211
215
215
213
214
218
217
219
220
220
224
221
221
218
222
230
226
228
178
178
66
61
70
60
90
90
86
85
79
47
49
46
51
44
45
56
48
45
43
46
55
53
51
53
60
42
41
48
41
40
29
28
20
32
25
31
56
35
38
30
35
40
51
43
45
51
156
214
200
207
205
204
206
206
205
208
206
207
206
205
207
205
206
207
205
205
204
204
171
216
215
209
216
217
213
214
216
217
218
217
223
222
227
224
219
225
225
230
228
221
173
146
90
83
92
84
76
92
86
92
88
87
78
63
53
52
49
50
56
55
49
39
29
48
50
48
56
43
34
40
35
34
29
27
24
20
20
24
32
45
33
30
29
31
25
24
28
36
107
204
200
210
206
206
206
206
206
206
205
207
208
207
205
206
205
206
206
203
203
204
170
213
210
210
214
212
215
209
216
216
220
218
222
221
231
227
226
227
218
242
223
187
159
118
90
99
110
113
120
98
95
57
67
64
58
67
73
65
64
66
66
69
64
59
65
62
61
44
57
35
34
36
33
37
36
31
28
21
20
17
25
40
52
25
30
29
21
17
17
26
56
173
197
197
203
206
206
206
206
207
207
206
207
206
206
206
206
205
204
203
202
204
169
213
208
210
213
211
216
210
216
214
219
222
223
221
222
222
221
225
209
249
211
105
62
71
69
85
105
96
87
75
69
56
50
64
50
42
48
62
61
79
88
73
76
62
52
50
62
70
77
65
57
47
26
26
37
31
34
26
21
18
20
17
43
47
29
25
17
17
18
22
35
96
194
201
198
204
205
206
207
208
207
207
209
205
207
204
205
204
202
203
204
202
168
216
208
210
213
212
211
212
215
212
230
222
222
221
226
223
219
234
212
217
133
60
107
86
72
89
115
90
82
58
57
62
51
46
63
44
43
32
36
50
61
70
69
71
64
53
59
58
56
47
48
46
44
20
17
31
37
32
27
32
27
22
26
53
44
26
26
16
15
14
27
60
169
189
199
204
208
205
207
207
207
206
206
205
205
205
206
204
205
203
203
202
168
215
212
210
213
216
215
209
211
215
221
217
221
224
222
226
223
236
202
156
126
97
85
73
85
84
89
81
71
76
69
55
53
50
42
31
48
32
30
23
30
39
44
42
33
42
38
47
46
57
47
39
43
48
37
31
40
38
39
35
29
22
19
28
41
32
24
20
15
16
21
33
84
166
195
203
206
206
207
206
206
206
207
206
206
205
205
202
202
202
202
201
168
210
219
213
210
214
213
211
211
216
225
215
222
224
225
222
220
224
173
161
113
100
86
89
71
69
94
94
80
79
50
55
52
46
42
39
35
26
22
28
26
28
43
50
59
55
54
39
54
63
34
28
27
28
35
58
28
25
26
21
21
10
10
18
28
32
26
27
35
26
24
37
53
146
179
199
205
206
208
206
207
205
206
205
205
205
203
203
202
202
202
201
169
209
216
214
210
209
213
211
216
216
213
217
220
222
219
217
215
205
140
137
94
89
78
71
87
77
95
104
114
96
58
52
39
36
32
37
27
28
31
32
34
35
42
50
55
43
45
62
55
45
50
42
36
30
44
37
38
39
37
22
17
14
8
9
16
25
28
25
26
25
29
29
48
120
173
187
203
207
208
207
206
207
206
204
207
204
204
201
201
201
200
200
168
212
211
213
210
215
211
213
215
211
212
210
217
214
216
217
210
204
130
93
79
73
85
72
60
77
76
85
83
80
76
63
50
45
35
26
24
25
29
35
37
46
51
48
55
54
46
52
56
50
60
38
35
39
43
46
41
47
47
43
34
21
10
11
10
21
30
24
34
15
23
27
43
62
106
182
200
207
206
205
206
206
206
203
204
204
202
202
201
201
202
201
168
215
207
218
213
212
213
210
212
210
212
211
214
216
215
212
198
175
98
85
77
86
78
65
74
79
79
93
83
66
54
49
52
40
34
33
28
39
37
34
29
34
36
48
46
43
56
58
42
52
60
47
44
36
51
61
61
59
56
59
47
34
21
17
8
11
20
17
27
18
23
30
33
43
122
159
191
205
207
206
205
205
205
204
204
202
203
201
202
202
200
201
167
211
212
217
214
209
215
211
213
208
209
209
215
209
207
199
193
133
96
74
78
73
75
91
103
100
117
131
105
74
60
52
43
38
42
41
68
39
32
29
27
35
54
57
55
67
57
52
54
58
56
57
56
64
62
78
89
90
80
75
72
59
41
20
10
9
15
19
19
20
23
20
26
49
84
176
193
200
206
204
205
205
205
205
203
203
201
202
202
202
201
201
168
211
209
210
209
209
208
210
214
207
212
209
210
211
207
183
193
120
70
80
74
74
82
66
75
55
52
78
79
76
82
64
57
49
37
42
35
39
39
38
35
41
50
52
72
51
49
42
59
57
59
66
75
70
75
87
99
102
100
103
97
88
65
47
27
17
11
21
14
16
19
17
19
37
50
159
194
198
205
206
205
203
206
203
202
203
203
202
201
202
203
201
168
211
209
210
211
211
211
206
207
208
208
209
208
206
194
189
154
95
70
77
69
70
69
72
68
52
57
79
68
50
54
54
44
40
45
37
38
38
37
37
40
45
52
63
54
58
56
55
51
56
60
72
86
93
97
109
118
123
128
131
125
117
106
90
62
34
20
16
13
13
15
15
18
26
31
93
195
197
204
205
204
203
205
204
204
204
201
202
202
201
201
200
168
211
211
207
209
208
214
207
205
210
206
206
208
201
197
180
116
63
73
66
73
80
71
69
61
62
73
80
73
61
45
40
41
54
50
46
44
43
40
47
43
57
64
70
66
49
42
56
65
69
74
80
105
106
118
129
135
145
143
147
144
136
131
131
111
68
34
22
14
11
10
12
17
16
21
52
170
200
203
204
203
204
203
202
202
203
202
202
202
201
202
199
167
210
208
209
208
210
206
210
207
209
205
207
206
204
188
179
110
68
73
62
74
69
75
63
65
76
67
55
42
53
47
42
42
67
43
49
51
42
50
50
59
64
63
59
62
51
46
51
69
71
88
102
101
123
126
138
146
157
151
154
166
155
154
155
145
117
58
23
16
11
12
10
17
12
14
32
101
193
202
206
203
203
204
204
202
203
203
202
201
201
201
200
168
205
206
205
206
206
210
207
208
206
203
207
198
198
188
138
84
68
62
63
64
72
69
61
55
61
80
64
52
48
52
43
62
54
47
50
48
67
56
53
70
65
58
67
67
57
53
68
68
86
97
102
111
133
134
137
150
157
159
171
179
174
176
178
167
149
115
39
17
11
12
10
9
9
15
19
50
173
203
205
202
203
203
203
202
202
202
201
201
200
200
199
166
204
207
206
207
205
209
205
207
204
206
198
189
195
169
131
94
63
56
58
82
82
59
65
59
33
38
41
52
56
56
55
59
55
55
56
57
59
69
68
69
62
63
66
62
32
48
70
79
95
109
112
130
142
143
152
161
164
170
185
185
182
185
188
184
173
151
93
30
15
14
10
8
8
12
22
40
140
201
198
202
203
201
202
202
200
200
201
200
199
200
198
165
204
205
208
206
206
205
207
205
204
203
200
201
191
139
115
83
54
61
76
78
80
72
54
63
63
50
53
59
52
65
70
58
59
63
63
66
73
81
74
66
72
62
52
31
43
62
78
103
113
123
124
128
145
150
164
166
180
182
185
192
192
195
193
195
186
175
141
56
21
16
12
12
8
10
21
28
138
195
205
203
200
202
202
201
202
198
200
199
199
198
198
166
205
205
206
206
205
205
206
206
206
207
200
197
177
117
93
67
69
57
54
54
88
75
45
40
55
66
55
62
72
82
89
67
66
69
65
65
93
72
80
88
72
49
48
52
72
92
106
114
130
131
136
137
154
163
165
176
189
187
190
191
196
199
202
206
205
192
180
119
41
22
16
11
10
15
17
53
145
200
203
204
201
201
202
203
199
200
199
201
198
198
198
166
206
206
204
205
203
206
206
205
206
204
205
177
160
98
81
87
68
57
55
59
88
83
65
71
81
75
75
85
82
86
86
89
89
91
86
84
67
82
77
72
57
60
56
72
88
103
117
128
137
138
143
148
164
172
181
182
188
189
187
193
199
200
204
204
212
207
193
164
86
30
18
16
14
20
20
23
160
204
201
201
200
203
201
199
200
198
197
198
198
197
198
165
206
205
206
204
205
206
207
207
206
205
207
155
112
104
73
72
74
57
53
49
73
90
72
64
58
72
78
86
94
107
99
109
105
105
92
92
86
79
81
77
64
63
74
86
109
125
136
140
141
152
161
160
173
179
186
192
192
195
191
195
202
203
206
207
213
203
199
188
135
77
37
18
15
22
21
53
141
203
201
201
201
201
201
200
199
199
197
199
198
199
197
165
206
203
206
205
205
205
206
205
206
204
206
177
140
103
73
74
63
68
51
55
77
89
86
61
71
79
92
97
101
98
113
117
123
120
105
103
97
100
88
86
72
88
100
118
133
136
134
143
155
164
167
175
179
187
193
192
192
195
196
194
199
204
203
208
209
208
206
200
170
124
86
36
20
35
37
46
105
190
202
201
201
200
201
199
200
197
198
198
198
198
198
165
206
204
205
205
205
205
205
204
206
202
203
193
159
119
63
53
68
77
76
69
76
63
90
87
84
87
89
99
104
108
113
118
112
120
110
113
118
110
96
88
109
117
129
148
155
166
169
166
169
177
176
176
181
193
196
200
200
198
193
194
202
204
202
214
211
214
212
206
202
171
150
90
34
37
58
41
80
193
200
200
200
201
201
200
199
199
198
199
198
198
197
165
206
206
205
206
206
205
205
204
204
206
202
191
173
102
63
60
51
52
43
48
55
73
76
81
93
105
101
90
115
143
130
128
135
127
121
125
117
101
95
115
119
132
152
165
174
183
182
180
178
178
182
187
193
197
198
198
201
198
197
196
202
204
207
213
216
218
216
213
210
198
175
136
54
40
48
52
54
163
198
201
199
200
200
198
198
198
197
197
197
197
196
164
205
205
205
206
205
205
205
205
206
206
203
199
187
98
87
72
38
35
36
58
103
90
92
108
90
93
109
112
103
100
109
111
123
126
116
114
103
103
120
128
140
153
170
190
197
196
196
194
182
189
190
191
193
197
206
203
202
204
199
197
204
210
210
213
215
217
220
216
216
210
197
160
85
44
48
52
52
162
198
200
200
198
199
199
197
198
196
195
196
196
196
164
206
205
204
205
204
205
205
206
205
203
203
205
200
175
57
58
48
47
51
86
142
135
139
143
139
105
107
129
141
124
124
124
122
112
120
123
108
130
132
147
160
174
189
197
207
210
208
202
199
202
199
197
199
206
206
203
207
204
205
211
212
213
213
216
218
215
208
219
218
214
204
177
108
50
45
45
52
158
199
199
201
198
198
198
197
194
196
195
196
195
196
165
204
205
203
204
206
205
205
205
205
205
204
204
200
198
182
95
50
50
57
106
169
179
177
161
157
156
119
106
144
139
146
157
144
158
87
130
138
146
146
162
175
187
196
202
211
215
213
212
209
207
209
207
213
213
215
214
212
210
212
205
217
213
213
217
212
212
211
211
214
212
206
177
111
59
47
36
53
160
197
196
198
197
199
197
196
198
195
195
195
195
194
163
205
206
205
204
205
205
204
206
204
204
205
206
200
203
200
194
119
66
58
128
185
201
197
187
178
177
175
163
143
114
128
126
119
149
174
161
158
154
157
172
182
194
201
208
217
218
214
204
215
209
213
212
216
219
215
213
218
218
214
215
217
217
215
214
213
209
209
210
199
214
205
182
124
62
41
40
51
168
198
197
197
197
198
197
196
196
194
194
195
194
193
163
205
205
205
205
205
204
205
205
205
205
206
205
202
202
203
200
172
80
66
138
192
213
212
206
201
196
192
196
193
182
180
172
184
183
175
174
163
162
167
177
192
205
212
217
224
224
226
224
226
230
225
220
223
224
222
225
221
220
223
220
220
215
214
211
212
207
207
207
193
206
202
177
123
65
42
40
63
163
193
196
197
196
196
196
196
195
196
195
195
192
194
162
206
206
203
203
204
203
205
205
205
205
205
204
202
203
203
202
192
86
73
143
187
217
216
212
207
202
203
200
201
205
204
211
210
202
193
182
182
183
185
194
205
217
222
228
228
226
232
232
233
232
235
233
226
226
225
226
221
220
220
219
217
217
212
211
208
205
207
202
197
201
196
173
121
70
43
42
64
185
195
196
196
194
197
196
195
195
194
194
194
193
194
163
205
207
207
205
205
204
204
203
203
204
206
204
203
203
203
203
197
101
76
137
189
221
215
213
211
204
204
205
212
211
206
216
214
209
198
188
192
193
196
201
215
220
225
228
231
235
234
234
232
235
237
232
227
224
221
223
216
215
218
218
219
218
217
214
209
205
208
202
194
199
190
165
114
70
49
48
60
186
194
195
194
194
196
194
196
194
196
193
193
192
194
161
205
204
205
205
204
205
204
204
202
205
204
203
202
204
203
203
200
119
74
141
198
216
218
209
209
210
212
210
208
207
203
211
207
206
199
182
194
197
202
209
217
227
223
228
235
233
230
233
231
237
238
231
225
219
223
208
203
211
211
217
217
218
221
222
217
213
208
208
201
199
195
179
129
76
44
51
77
192
193
195
194
194
194
193
193
192
193
192
192
191
191
160
203
205
203
203
203
204
204
203
203
202
203
202
200
202
203
203
199
138
79
149
193
217
216
210
210
212
213
215
215
214
213
209
205
203
199
194
194
201
207
215
220
229
230
238
236
234
230
232
232
236
234
227
217
214
202
198
203
203
206
209
215
219
222
221
223
221
216
207
204
201
193
183
150
88
41
50
100
191
192
195
193
193
193
192
190
191
193
192
191
191
190
161
204
203
202
202
202
201
201
202
202
202
199
201
203
201
202
202
202
156
83
156
201
217
217
214
212
214
218
218
217
220
217
209
200
196
194
194
194
193
204
216
222
225
229
234
233
228
229
230
226
225
225
218
212
203
194
192
195
198
208
213
219
220
221
219
224
219
218
204
207
198
197
191
174
116
47
47
104
191
191
193
191
191
191
191
190
190
191
189
189
191
191
159
200
202
201
200
199
197
201
199
201
198
200
201
202
201
202
200
201
181
95
159
211
217
215
214
211
218
216
221
225
220
218
212
210
200
191
184
187
184
201
216
213
220
225
222
221
221
213
214
213
215
216
210
202
198
189
191
206
207
217
218
221
225
222
220
217
216
212
209
202
195
193
193
189
151
57
46
112
186
188
191
190
191
192
190
191
188
191
190
189
190
191
159
200
200
200
199
199
200
199
201
200
198
199
199
199
199
199
200
201
167
96
190
218
219
217
215
218
219
223
223
219
218
221
223
214
201
197
192
187
182
192
202
198
203
212
214
202
196
203
199
201
198
196
194
197
200
203
212
217
218
211
209
215
214
205
208
205
210
208
209
202
164
188
193
191
178
80
45
115
188
188
191
189
190
191
188
190
188
190
190
187
189
188
158
199
198
200
200
197
199
198
198
198
198
199
198
200
201
199
200
200
194
99
206
220
220
217
219
216
222
225
220
215
219
222
218
212
202
197
196
189
190
192
187
184
185
192
195
187
185
184
182
177
174
176
180
191
188
209
212
204
195
183
183
172
171
176
171
179
192
196
197
198
175
183
189
194
188
129
47
119
189
186
187
189
188
186
189
188
187
189
189
186
187
188
157
200
198
196
199
197
198
196
197
195
199
200
198
199
201
200
200
199
189
117
217
221
218
214
217
215
217
216
206
201
197
201
193
185
179
174
175
174
181
181
168
154
163
169
178
174
171
163
164
156
147
149
159
159
153
156
147
143
140
133
134
134
145
145
138
137
154
164
165
165
175
180
181
188
190
167
57
124
192
189
186
187
185
187
188
188
185
187
189
188
189
187
157
198
198
198
196
195
197
201
195
197
198
198
197
198
200
200
199
218
184
129
222
221
215
211
213
203
195
196
178
171
157
152
144
138
125
123
121
99
118
134
132
122
133
151
163
168
169
159
147
147
129
120
132
119
96
72
77
68
73
78
89
104
110
123
125
120
123
117
125
137
150
175
176
178
187
183
82
111
202
206
185
186
186
186
189
188
189
187
187
187
188
187
157
197
197
197
197
195
197
196
196
195
197
194
196
197
199
199
207
224
192
145
223
215
211
210
190
163
173
157
147
142
135
106
94
86
67
54
55
58
72
81
83
92
101
125
149
161
158
159
149
137
116
91
93
85
79
60
43
37
36
35
43
58
69
81
92
101
108
110
113
118
129
154
166
174
186
192
110
109
192
182
184
185
185
185
186
186
189
188
188
186
187
186
157
197
196
198
194
194
199
196
195
194
195
194
196
198
198
201
198
150
197
161
223
217
208
186
157
147
134
124
122
119
115
96
66
40
38
37
36
42
47
61
64
78
87
110
141
154
155
150
147
131
109
88
81
64
48
43
36
34
48
61
75
80
91
102
107
106
107
101
99
105
119
140
165
177
183
191
135
91
171
156
184
184
183
184
187
186
187
188
188
188
187
185
156
197
198
196
195
195
194
196
196
194
194
196
196
200
199
202
201
124
167
178
222
216
206
177
146
133
128
110
97
98
92
94
77
74
64
50
42
39
38
50
60
67
83
110
138
162
165
159
151
139
114
96
75
59
41
25
28
37
45
61
66
65
59
61
77
94
105
115
113
114
118
132
159
178
186
192
152
90
113
154
182
183
184
183
185
188
188
187
187
187
188
187
156
196
199
195
197
193
193
197
195
196
195
196
197
199
198
200
199
157
108
190
223
213
192
166
132
126
123
122
117
104
100
81
63
61
64
58
57
50
42
31
36
54
68
116
147
174
183
180
167
150
120
97
64
45
35
44
56
33
18
24
23
30
62
74
70
50
61
92
108
119
126
138
160
175
187
189
164
83
85
161
182
181
184
182
184
185
187
186
186
187
187
188
156
195
196
196
197
195
195
194
196
197
197
197
196
201
199
199
198
184
105
193
223
213
193
166
144
136
127
115
90
58
64
63
65
38
31
27
19
23
44
52
41
55
72
120
163
196
207
203
192
168
133
94
67
53
51
46
68
31
43
36
33
30
52
31
39
62
67
75
90
106
123
141
163
180
189
185
165
83
89
163
181
182
184
182
183
185
187
187
187
188
186
187
156
195
193
195
196
195
197
196
194
197
196
198
197
201
199
198
200
197
121
198
219
215
192
164
136
119
98
77
60
67
51
43
61
25
29
30
40
26
74
46
48
76
92
123
182
221
235
235
219
194
144
97
88
83
52
71
119
49
33
15
41
39
97
108
52
52
60
85
99
116
133
152
169
180
192
189
172
86
99
178
182
181
182
183
183
184
186
186
188
185
188
187
156
194
195
194
197
196
196
195
194
196
196
197
196
198
198
197
197
201
137
201
220
216
197
174
150
121
105
93
74
52
38
84
136
37
34
20
38
36
111
81
72
91
110
136
200
234
244
242
230
209
163
112
97
86
71
72
118
105
42
46
53
70
117
90
88
88
103
114
120
138
152
166
180
185
193
187
175
101
136
180
180
182
183
182
182
185
185
186
186
187
186
185
156
195
194
194
194
194
194
196
195
196
197
196
196
198
196
197
197
200
155
202
220
216
208
191
171
159
140
133
122
119
113
114
128
120
42
45
37
84
99
89
97
101
117
162
210
241
247
247
225
207
170
127
105
98
88
100
105
120
114
91
101
118
102
98
103
116
125
136
148
154
164
177
192
191
194
190
174
115
177
181
180
182
183
182
182
183
183
184
183
187
188
185
155
192
193
194
193
193
194
195
195
196
197
197
197
199
198
198
198
200
164
199
221
217
212
206
198
179
172
163
155
151
130
107
114
122
122
112
122
108
95
92
87
113
150
189
222
238
248
249
231
207
178
154
130
99
85
79
86
87
92
95
88
84
102
114
121
122
129
141
155
163
173
189
197
196
192
180
168
122
186
179
181
180
180
183
183
184
183
184
186
187
187
186
154
193
193
194
193
193
194
193
193
196
195
197
196
197
198
197
197
198
166
196
221
218
217
216
213
197
184
172
161
159
155
137
117
97
94
90
89
85
78
83
102
142
187
210
223
242
247
248
230
209
189
172
155
134
101
92
83
85
88
93
96
103
110
117
120
131
144
154
167
176
186
196
200
195
189
177
166
119
181
181
181
179
182
182
182
183
183
183
185
185
186
185
154
193
193
191
193
193
194
193
192
194
194
195
197
196
197
196
197
197
170
195
222
221
222
225
223
215
201
187
181
168
154
138
126
115
107
100
89
94
107
113
143
177
206
219
230
242
248
245
230
212
203
191
176
156
137
111
111
111
108
102
103
106
111
127
139
153
163
177
185
191
194
198
200
195
184
171
163
123
176
180
179
180
181
182
183
182
182
182
184
185
186
185
153
191
192
191
190
192
192
193
193
195
192
194
196
193
194
197
196
196
176
187
220
221
225
226
224
224
216
206
189
184
179
166
152
140
134
136
132
128
124
150
185
200
218
226
236
242
249
251
233
217
205
202
188
175
162
146
125
124
126
134
140
142
150
157
164
172
184
191
199
197
197
195
202
190
179
168
162
114
180
178
178
180
180
180
181
180
181
182
182
183
184
184
153
191
191
191
193
190
190
193
193
192
192
193
193
194
193
193
194
195
192
177
217
217
225
222
225
226
209
216
206
197
189
186
176
167
162
150
146
145
171
191
200
210
220
228
237
243
249
252
237
218
213
204
196
183
175
170
161
147
143
142
146
155
164
169
181
188
197
202
201
197
197
194
191
187
171
164
150
116
177
177
180
180
181
181
181
180
181
181
181
183
186
184
154
192
192
191
191
191
191
188
191
193
193
190
193
192
194
195
192
193
191
172
215
213
222
226
227
225
208
218
213
208
193
185
177
168
160
160
172
193
203
202
206
210
220
227
235
244
250
251
239
220
214
204
193
189
179
181
180
174
166
165
161
166
172
181
188
199
200
200
196
193
195
191
192
186
171
161
133
127
178
175
178
178
178
180
180
180
180
181
178
181
182
181
152
190
191
190
189
190
190
189
189
191
191
190
192
192
192
191
193
190
191
162
211
213
221
226
227
226
222
219
220
218
204
197
190
185
189
195
202
204
209
210
209
206
215
229
236
245
250
252
241
222
217
202
181
173
175
183
188
184
181
185
184
189
193
195
198
195
190
189
194
193
191
192
186
181
169
156
116
147
178
180
176
177
181
178
179
179
178
178
178
179
179
182
154
190
189
189
189
189
190
191
190
189
189
188
189
190
190
190
190
189
187
163
193
214
219
224
227
226
222
214
212
213
209
210
205
205
203
206
205
208
207
209
199
187
214
232
241
246
254
252
238
225
217
201
180
158
163
183
190
195
194
198
198
196
198
195
196
189
193
193
192
193
190
186
184
178
162
152
106
166
177
177
178
179
179
178
181
178
178
178
178
180
179
180
151
189
190
190
190
189
189
187
188
190
190
190
190
188
189
188
189
187
189
177
175
209
209
220
223
224
221
215
217
215
212
214
206
203
205
207
208
207
198
195
183
186
220
235
240
244
254
251
234
226
215
198
189
171
146
175
188
197
201
202
203
209
199
193
192
193
194
193
198
195
189
182
185
174
161
145
94
165
177
176
175
176
178
178
178
176
177
177
179
178
180
182
152
190
188
190
189
190
189
186
187
189
188
189
187
189
188
188
185
186
187
182
166
205
209
219
222
221
225
219
215
210
211
215
213
212
212
208
205
201
196
185
166
204
230
236
242
243
248
246
231
222
212
202
203
195
155
156
182
195
204
207
211
211
200
198
192
196
202
201
197
192
193
187
180
170
159
138
119
167
175
174
176
177
177
178
177
179
178
177
177
176
174
181
151
188
189
189
189
188
188
187
187
186
186
186
187
186
188
186
185
186
186
185
164
199
210
216
222
223
219
220
220
209
210
217
217
214
215
211
209
199
190
173
173
226
231
225
228
233
234
230
217
208
192
189
196
196
189
154
182
192
200
205
210
209
209
202
196
200
204
203
197
192
189
184
175
166
152
120
131
172
173
172
174
176
176
175
175
174
177
176
178
176
175
180
149
188
186
188
187
186
188
188
186
186
184
186
186
186
185
184
185
185
183
186
154
177
210
216
220
218
215
218
224
222
219
222
220
216
216
209
206
201
185
171
223
222
209
200
199
201
204
201
187
171
151
153
163
169
178
164
179
192
197
202
209
203
208
205
206
205
207
204
196
192
185
180
175
160
143
104
134
173
173
176
173
175
177
175
178
176
177
176
176
177
175
178
149
185
187
187
186
186
187
185
187
186
187
184
185
184
185
184
183
185
184
184
158
165
199
215
222
218
216
215
219
224
224
224
223
221
212
209
203
195
179
180
202
185
166
166
163
162
163
156
151
140
128
135
129
137
144
159
179
186
197
205
208
208
210
209
206
205
202
202
200
191
183
181
173
148
141
97
149
172
173
172
174
175
174
176
176
175
177
174
175
175
175
176
148
186
184
187
184
183
185
183
185
185
185
184
183
186
184
183
182
183
184
182
180
136
191
207
218
221
220
220
221
226
223
220
219
218
202
206
195
193
189
187
160
137
81
57
130
141
135
133
128
126
93
22
43
106
126
159
189
192
194
198
207
212
212
206
208
204
196
199
198
187
181
176
162
150
131
90
164
172
173
173
171
173
177
175
175
175
174
172
175
175
175
177
149
185
184
184
184
185
182
185
184
185
183
184
183
184
183
180
184
182
183
183
181
124
185
203
219
221
222
222
223
221
218
217
218
218
209
201
199
199
203
203
143
102
64
69
76
120
127
117
113
96
78
77
70
89
110
164
203
201
202
199
206
210
212
209
201
199
198
192
193
182
173
167
156
144
116
102
170
169
171
173
171
173
174
173
175
174
175
174
174
175
173
176
147
185
185
184
184
184
184
183
182
184
183
183
182
182
182
183
182
182
179
181
182
148
183
197
211
220
222
224
223
220
219
215
220
219
211
207
207
208
213
219
164
112
102
105
111
107
117
108
102
84
87
82
75
88
123
167
211
213
205
204
203
206
207
206
198
201
193
185
186
178
172
161
142
136
108
124
168
169
171
171
171
171
173
172
175
173
175
172
174
175
173
175
146
183
183
183
183
182
182
180
182
181
183
184
183
183
182
182
182
181
182
181
178
170
160
200
206
215
218
217
219
220
216
217
219
217
208
197
206
213
222
224
192
163
140
130
134
130
130
115
109
110
111
117
126
141
151
175
219
223
213
205
203
201
207
205
201
192
190
180
183
174
166
155
144
135
93
163
171
168
170
171
170
171
173
172
172
172
172
173
173
175
173
174
146
182
183
183
182
183
183
183
183
182
184
183
183
182
182
182
182
182
181
181
180
173
119
196
200
213
216
217
218
217
222
221
221
219
213
214
218
228
230
232
207
185
180
171
156
144
142
144
140
122
117
123
136
148
158
183
220
223
222
209
207
206
204
201
197
189
186
184
176
171
164
151
143
136
104
147
169
169
169
170
169
169
171
171
173
172
173
171
174
172
174
174
146
182
183
184
183
183
183
183
183
182
182
184
181
182
181
183
181
181
180
180
180
178
125
185
201
204
211
212
216
217
220
220
215
217
218
221
224
227
233
233
221
205
187
157
154
145
137
142
131
115
114
94
113
149
165
191
210
219
218
216
211
208
206
206
196
190
185
175
173
164
161
150
146
130
105
165
167
168
168
169
168
171
172
170
173
172
171
174
173
174
174
174
147
183
183
183
182
181
182
182
183
182
183
181
181
182
183
180
181
182
180
180
180
172
164
164
205
201
208
210
213
215
218
217
216
217
219
221
224
228
226
223
223
207
168
141
123
132
137
130
132
105
107
94
99
137
154
184
202
206
207
217
211
204
204
200
197
192
181
173
167
162
155
150
147
99
142
165
166
167
168
168
168
170
170
171
172
169
170
171
173
174
174
174
145
181
181
182
183
181
183
181
184
182
181
181
183
181
183
181
180
180
181
179
180
180
177
139
206
207
208
205
212
213
211
207
213
213
220
221
223
215
215
213
210
182
153
145
120
130
129
114
124
117
106
119
117
104
140
162
181
173
192
205
207
205
208
204
195
189
178
169
165
159
156
155
143
102
166
165
166
166
166
168
169
169
171
171
172
171
171
171
171
174
174
174
145
182
183
183
180
182
181
183
182
182
182
182
181
182
180
181
180
181
180
180
180
181
182
142
197
202
205
204
206
210
212
209
213
220
219
215
200
198
193
188
192
179
147
137
119
127
114
111
116
124
125
128
125
121
136
138
161
147
169
179
201
202
202
202
192
183
169
164
161
158
154
154
132
125
165
165
166
165
166
167
167
169
169
168
169
172
170
170
171
173
173
173
144
182
182
180
182
182
182
181
181
182
182
181
180
182
182
179
179
181
180
181
179
180
179
171
160
201
203
206
204
209
215
216
218
221
213
193
175
152
150
160
174
160
133
146
137
166
152
142
135
151
173
152
141
135
136
132
131
135
141
154
182
192
195
196
189
178
167
164
160
158
150
149
96
146
164
164
165
165
166
166
165
167
168
170
168
170
169
169
171
170
173
172
144
182
182
181
181
179
181
182
182
181
179
180
181
180
180
181
179
180
179
179
181
180
180
181
150
196
199
201
200
209
213
214
216
213
198
175
140
139
139
146
151
140
152
165
156
180
184
182
181
176
145
134
141
139
131
138
138
140
135
139
171
176
187
193
185
171
162
158
158
151
148
131
95
161
161
162
162
164
163
164
166
166
166
167
168
168
169
169
170
170
172
173
144
180
181
182
180
182
182
181
181
181
180
181
181
181
181
179
180
178
180
180
179
180
178
180
160
175
192
199
198
198
205
208
217
216
191
170
147
146
134
125
145
135
134
121
116
109
124
134
130
106
92
90
87
88
96
111
111
113
125
141
158
168
179
187
181
173
157
161
153
150
140
106
138
156
159
161
163
162
163
164
163
165
165
167
166
166
167
168
169
169
170
173
143
181
180
182
181
181
181
181
179
181
181
180
180
181
180
179
180
180
179
178
178
178
180
179
176
120
187
193
199
203
209
211
219
204
191
181
159
139
109
102
105
94
73
56
61
66
75
81
82
71
47
38
34
48
51
58
71
86
115
136
150
163
171
176
173
162
155
158
149
141
130
77
147
153
157
159
160
160
161
161
163
164
164
164
164
165
166
168
169
170
171
172
144
179
180
181
181
180
181
181
180
180
182
179
179
180
180
180
179
178
180
177
177
177
178
179
178
135
167
187
196
201
208
206
208
205
185
170
152
138
122
130
131
122
104
118
112
95
85
86
85
88
94
109
116
134
153
162
162
155
151
149
157
162
168
168
165
153
148
143
140
136
89
122
149
152
154
157
158
158
160
161
162
163
163
165
165
163
166
167
166
169
169
171
143
180
181
180
179
178
180
180
180
180
180
179
179
179
179
180
179
179
179
176
177
177
177
176
177
162
116
174
183
196
199
202
200
198
184
168
161
168
180
184
190
189
183
189
189
179
170
173
166
165
163
164
162
168
164
160
147
156
175
164
153
152
158
161
155
153
145
144
137
126
70
147
148
149
151
154
157
157
157
159
160
162
162
163
163
164
164
164
166
167
168
170
141
181
179
178
179
179
179
179
179
179
179
179
179
179
178
178
177
178
176
175
176
175
176
175
174
175
103
153
161
189
192
191
193
188
182
171
176
186
197
180
166
176
186
177
175
176
178
168
172
155
155
154
147
142
140
130
138
162
172
166
159
153
150
149
148
143
141
134
126
85
97
139
144
146
149
153
154
154
157
158
160
161
162
162
162
162
163
164
164
167
167
170
140
179
179
180
179
179
180
180
177
179
179
179
179
178
177
176
177
176
178
174
173
173
175
172
174
168
158
105
164
176
183
180
180
172
169
171
187
192
199
192
166
149
146
143
149
142
140
134
133
116
117
119
114
105
118
130
143
162
163
157
150
145
143
147
144
139
132
126
104
64
137
138
141
145
146
147
150
154
154
156
158
157
160
159
161
160
161
162
162
165
166
168
139
180
178
180
178
178
176
179
178
178
177
178
177
176
175
175
176
175
177
173
172
174
173
171
171
170
171
94
131
151
169
173
167
169
168
172
184
184
190
190
177
155
140
125
110
99
86
80
79
71
83
96
103
120
126
138
145
154
154
152
146
142
146
141
139
136
125
102
67
78
116
128
141
139
142
146
149
150
153
154
157
158
158
160
160
160
161
162
161
165
164
167
139
178
178
178
177
178
177
178
177
178
177
176
176
176
175
176
174
172
173
173
172
172
172
172
171
172
160
128
81
135
152
167
167
165
161
166
174
173
174
172
166
160
147
131
114
100
87
69
85
81
76
97
110
122
131
139
142
144
142
144
143
140
138
137
140
131
115
66
71
159
109
107
93
115
143
146
146
149
152
153
154
157
158
157
159
159
159
158
161
161
164
165
139
178
179
179
178
176
178
178
177
177
176
176
176
174
174
173
173
174
172
171
172
169
172
179
161
146
93
138
105
76
121
159
160
156
153
164
161
166
166
163
160
157
148
136
120
97
90
84
90
81
88
97
118
129
136
140
142
144
143
140
137
129
130
130
119
119
87
50
135
155
164
46
98
87
76
126
144
148
149
152
154
156
155
156
155
157
156
157
160
161
163
164
138
178
177
177
177
178
177
177
176
177
175
175
174
174
175
175
173
171
171
174
181
189
185
149
145
149
133
139
129
95
92
126
149
142
150
149
159
162
162
163
162
156
151
141
124
115
113
98
92
103
109
123
129
132
143
151
156
155
149
146
136
125
125
113
97
84
52
95
144
153
164
133
63
103
86
59
109
149
148
151
151
153
154
154
156
156
156
158
158
161
163
163
137
177
176
177
176
177
174
176
176
174
176
174
174
174
171
171
175
181
190
197
200
152
176
161
159
152
140
140
133
190
67
99
125
137
140
159
155
165
174
175
179
175
169
157
140
140
128
124
93
124
128
133
140
148
159
163
166
150
150
144
130
104
116
92
85
49
68
140
146
153
164
156
75
83
94
71
113
96
116
148
158
159
157
156
158
154
155
157
156
158
161
163
136
177
177
176
176
176
175
175
175
173
174
173
172
186
173
170
168
179
192
198
164
181
179
144
173
142
144
141
133
196
159
43
92
103
129
133
146
165
181
193
194
194
186
175
166
153
144
147
130
147
144
151
160
165
172
176
176
160
142
125
121
96
76
71
65
46
129
146
147
152
164
167
87
76
84
78
98
127
122
125
131
144
133
150
162
151
172
163
157
159
161
161
137
176
172
178
176
175
175
174
174
172
174
175
189
183
180
169
144
131
155
143
193
179
162
158
171
120
145
141
128
199
196
123
50
72
114
140
152
157
181
194
205
201
197
189
181
176
175
171
167
167
153
158
163
174
176
180
177
162
137
120
114
83
58
54
37
113
143
148
149
154
162
166
97
78
87
87
107
122
140
145
147
152
154
154
158
173
154
167
171
166
169
172
142
192
178
155
175
175
174
178
178
188
196
204
175
198
158
160
147
140
162
186
191
174
149
172
163
122
145
140
129
203
197
189
142
68
79
117
139
150
170
184
191
192
197
191
179
180
181
176
165
169
150
155
167
171
171
164
164
148
131
102
82
55
46
40
115
138
146
148
147
157
164
166
97
77
87
92
107
125
132
143
150
151
151
151
152
167
173
176
146
142
146
136
118
196
194
162
157
161
168
160
158
171
165
182
205
189
153
146
146
144
164
186
181
163
149
183
160
111
146
141
123
205
199
196
189
161
87
87
122
136
153
171
154
172
184
180
173
167
173
165
166
161
148
149
160
154
157
154
143
124
112
78
46
53
40
106
140
145
149
149
151
159
161
164
92
81
86
90
110
128
136
137
145
153
155
149
152
162
171
172
171
169
168
168
143
202
199
175
149
158
169
175
172
168
179
188
204
188
149
141
149
139
164
183
182
156
163
186
160
112
146
139
122
179
202
197
192
184
155
88
67
93
125
120
133
143
160
158
168
158
153
145
149
147
140
149
145
133
120
135
109
90
73
45
38
60
116
134
142
149
149
152
152
160
162
163
90
79
87
93
112
128
140
142
144
151
150
151
151
162
170
169
167
167
163
167
143
204
201
179
156
158
161
168
172
177
178
189
200
187
143
134
152
147
163
180
177
160
175
189
162
122
145
141
126
147
206
200
195
190
186
156
93
77
91
103
94
102
120
133
161
156
151
143
146
136
133
138
127
115
107
104
81
63
38
30
61
123
134
141
148
149
152
152
157
160
164
157
86
80
95
96
114
134
140
142
146
151
150
148
151
162
169
170
168
166
165
163
137
204
201
182
155
153
165
173
177
166
161
186
201
181
139
136
149
154
158
174
170
163
178
192
163
126
147
140
128
109
207
203
198
195
190
184
172
103
64
63
61
88
94
97
115
123
132
125
121
115
119
118
99
90
96
82
65
33
36
83
127
135
140
148
148
152
156
156
155
163
162
149
81
88
98
93
115
133
144
145
145
150
149
150
156
161
168
170
166
166
164
166
138
205
201
177
158
151
153
162
160
149
158
185
195
175
132
134
148
154
162
162
169
167
179
193
166
135
144
140
128
100
202
208
204
199
195
188
184
176
146
63
60
79
73
82
93
97
102
111
99
101
96
94
78
79
76
46
46
75
118
125
133
140
148
151
154
155
157
161
159
165
164
137
84
94
100
94
120
137
144
151
147
151
148
153
157
163
169
169
169
167
163
162
136
202
201
176
155
143
153
159
150
148
166
190
193
165
130
135
147
154
163
158
164
169
177
191
169
138
136
137
125
105
186
208
205
205
200
194
189
180
174
161
111
86
61
65
63
72
59
71
82
76
78
63
58
56
46
66
99
124
126
132
141
149
153
155
158
160
162
159
166
167
166
119
86
93
103
96
123
139
147
150
148
149
152
147
153
159
168
169
166
165
161
158
133
202
200
178
153
136
151
153
153
151
171
191
189
152
122
139
151
155
157
165
162
171
175
193
172
138
126
142
127
116
161
210
208
207
205
203
196
192
183
178
172
145
121
107
70
45
53
53
56
54
65
51
50
76
110
123
126
130
134
142
152
157
160
161
161
165
165
165
168
170
161
106
91
103
107
103
130
142
148
149
154
150
149
151
153
157
164
166
165
160
156
156
134
193
198
180
153
133
146
153
154
150
162
191
183
145
130
142
151
152
156
159
167
171
174
191
173
145
119
139
132
123
146
203
211
210
211
206
203
200
192
177
177
172
165
161
149
143
128
112
118
121
109
92
131
131
132
133
134
140
150
156
159
163
163
166
165
169
168
169
173
173
155
101
99
108
109
114
134
145
149
152
152
153
150
147
152
157
165
168
165
166
162
157
133
188
198
175
153
127
145
143
142
143
161
189
168
141
129
145
150
152
154
161
167
172
175
188
175
151
120
133
135
127
147
194
218
213
211
211
205
206
202
193
183
179
172
167
162
159
154
147
138
137
136
136
138
140
140
141
145
155
159
162
164
167
170
171
170
173
176
174
178
174
148
100
105
110
110
124
139
148
150
152
155
156
155
149
148
154
162
167
168
166
161
158
130
182
196
169
147
136
145
144
142
151
181
182
157
136
122
145
149
151
157
159
168
171
169
185
174
153
127
130
137
130
146
194
219
218
213
214
212
211
210
205
197
186
178
174
169
169
165
159
154
150
144
141
139
145
150
153
159
161
168
168
169
172
174
173
173
173
178
179
182
179
140
104
109
114
113
131
143
151
151
154
157
156
156
152
151
153
158
166
168
166
164
163
130
181
195
166
143
130
132
128
137
166
187
169
150
134
126
141
151
153
157
161
167
169
171
186
173
154
135
123
137
133
144
194
219
217
219
217
213
216
214
211
204
196
189
183
181
175
172
170
169
169
160
156
155
156
163
168
169
172
173
171
174
174
176
176
174
176
181
184
186
183
123
110
115
119
116
139
147
152
153
153
158
159
161
159
151
151
158
165
166
167
162
162
133
172
187
157
134
117
112
120
144
175
178
161
147
128
136
147
150
152
155
157
164
165
170
188
173
156
141
119
132
133
138
197
222
223
224
218
215
218
218
211
208
205
198
195
189
187
183
179
177
176
176
172
169
171
174
175
179
177
181
181
179
181
184
181
182
185
189
193
195
181
112
116
122
121
124
139
149
157
155
155
158
160
159
158
154
152
154
164
169
166
164
162
136
165
187
151
121
103
116
134
160
174
167
151
138
131
136
147
149
150
155
159
158
165
173
191
177
152
137
118
128
138
133
194
221
231
226
225
220
219
217
216
214
211
209
202
197
194
191
186
184
187
182
182
186
188
183
184
183
183
184
184
183
184
185
186
190
194
197
201
202
155
117
121
125
118
137
147
156
156
155
155
159
159
159
158
154
151
153
165
167
168
165
163
136
