P2
# CREATOR: GIMP PNM Filter Version 1.1
92 112
255
229
237
232
254
241
248
234
251
245
225
234
242
245
229
225
221
228
226
214
220
207
207
209
209
210
216
204
206
213
206
207
203
201
202
203
207
202
202
202
210
201
207
206
206
207
209
209
208
215
205
212
213
216
218
219
222
216
212
224
209
213
223
222
216
214
215
212
216
206
208
211
204
206
198
199
198
197
196
197
195
196
194
194
195
193
193
194
193
194
193
192
160
242
234
246
246
236
242
243
240
234
240
240
235
247
224
230
222
235
230
217
222
207
211
209
211
208
210
209
209
206
202
205
208
202
203
203
201
203
200
202
204
202
203
207
199
207
206
208
207
202
207
204
212
212
216
207
208
214
208
200
209
220
214
209
215
211
215
207
212
205
207
202
200
205
200
196
198
198
194
195
194
195
193
194
195
193
193
194
191
192
193
192
159
242
243
240
243
242
242
233
243
239
241
244
237
249
230
232
220
235
227
214
215
224
211
211
213
207
202
211
208
203
203
203
208
202
202
202
203
204
201
202
206
204
206
205
200
207
208
205
205
199
195
207
202
198
194
186
179
165
182
187
198
210
208
212
208
206
212
208
205
203
204
203
204
199
199
197
197
199
195
197
194
196
194
195
194
193
192
193
191
193
193
192
161
234
245
243
234
243
240
232
254
237
244
236
229
247
222
225
224
232
230
219
211
218
214
218
211
203
201
211
208
207
207
208
209
206
204
202
202
200
202
200
204
202
203
207
196
199
198
200
194
200
196
202
203
204
200
189
171
164
163
148
126
159
202
203
202
210
209
205
203
201
201
198
203
200
197
196
198
197
195
197
196
197
193
195
193
193
192
194
191
193
193
191
159
233
236
245
231
239
243
247
244
241
249
227
231
242
228
225
218
222
232
225
208
212
218
213
209
206
203
210
208
209
207
205
207
206
206
201
206
201
202
201
200
201
205
201
196
197
187
186
180
188
196
198
198
194
182
181
186
162
159
157
125
118
142
166
189
204
204
205
198
196
201
198
199
199
197
194
195
194
195
195
195
195
196
193
193
192
193
195
192
191
192
193
160
221
232
228
222
242
226
236
223
234
239
226
233
239
220
233
222
222
233
214
214
212
215
214
205
209
205
200
205
210
207
207
207
205
203
203
202
202
202
202
197
192
196
191
178
164
149
136
137
152
158
166
171
183
160
150
160
161
170
169
166
153
102
128
129
178
196
200
203
198
201
201
198
197
199
197
196
193
196
195
195
195
196
194
193
193
193
195
193
192
192
191
160
218
225
231
223
226
231
234
228
234
223
221
229
228
225
222
221
221
225
217
221
212
211
213
206
211
212
202
204
206
206
205
204
204
204
201
202
204
201
198
187
184
188
149
127
118
109
114
118
127
130
135
134
119
121
133
132
137
139
169
157
141
132
95
123
123
175
196
196
198
200
198
199
199
197
194
196
194
195
195
195
196
197
196
195
195
193
193
192
193
194
194
161
221
226
214
221
218
228
242
244
246
221
219
223
227
227
227
222
215
224
216
218
217
212
209
205
211
206
205
206
209
205
204
201
200
202
200
200
200
201
195
186
150
145
135
91
82
105
110
107
111
110
101
107
99
107
93
99
108
104
95
119
119
104
83
90
107
113
187
196
195
197
199
201
199
199
198
195
194
196
195
194
196
195
196
194
193
194
194
192
193
192
192
160
212
218
219
215
225
225
217
227
240
233
217
225
225
229
224
220
216
216
211
210
213
209
205
209
209
208
206
208
205
205
203
203
203
197
197
193
182
180
170
150
137
102
73
73
80
85
83
82
99
96
103
84
80
87
87
90
96
92
77
70
64
65
77
81
83
84
134
204
197
203
200
199
198
200
196
196
195
196
195
195
195
194
196
195
194
194
193
194
194
194
193
161
208
210
212
214
218
217
226
216
219
225
219
221
217
222
220
216
213
212
211
212
213
210
203
211
209
208
209
204
206
205
204
203
203
198
182
166
137
109
114
121
97
76
58
54
48
63
82
78
65
60
65
69
66
65
57
67
79
81
87
72
71
41
66
71
73
74
89
165
196
196
199
197
197
200
197
197
194
197
195
195
195
195
194
196
196
195
193
195
193
194
192
161
207
205
208
214
208
209
210
219
213
217
214
217
215
215
217
214
213
213
213
209
213
210
204
206
206
207
208
204
211
199
201
197
204
183
158
122
102
92
93
108
114
125
127
102
79
61
58
69
55
52
39
36
55
58
49
52
56
80
77
84
71
66
68
80
57
55
66
117
185
196
197
199
197
200
196
198
196
197
199
196
198
194
195
198
195
194
194
194
194
194
193
161
207
207
207
206
207
207
212
212
218
213
214
211
210
211
212
211
211
215
208
212
207
208
211
208
203
203
209
203
201
199
200
190
146
107
67
67
67
51
69
94
111
134
123
119
91
62
47
45
46
54
28
32
30
54
48
46
36
46
68
88
69
45
54
70
60
49
53
75
167
196
201
199
197
199
196
198
196
196
196
197
196
196
195
195
195
196
195
194
193
194
192
161
203
207
206
206
205
203
208
209
211
207
209
209
210
207
210
206
211
209
210
209
209
209
209
208
207
202
209
198
184
158
123
107
98
66
47
52
52
72
81
82
85
108
116
91
73
53
46
30
38
36
54
49
25
32
38
35
37
35
38
44
59
55
44
43
42
54
46
47
118
180
193
195
199
196
197
198
199
197
198
198
197
197
198
197
195
196
195
195
194
193
192
161
202
201
201
207
202
205
206
206
208
209
209
207
207
207
211
209
209
209
210
211
207
208
206
209
206
201
205
166
99
98
93
74
62
35
39
41
36
47
50
55
58
61
71
69
58
46
39
42
37
24
19
36
51
32
37
37
31
29
28
26
43
44
56
53
41
44
45
39
55
140
174
193
195
197
197
195
198
196
198
198
197
198
196
195
196
195
195
195
194
194
193
161
200
201
204
204
203
206
204
208
207
208
209
207
210
209
210
210
212
209
209
212
210
206
209
210
204
193
163
116
91
90
64
63
41
42
52
40
36
34
43
56
58
38
25
37
43
40
39
23
36
33
16
21
19
29
20
22
31
35
28
24
23
35
36
58
55
45
57
42
38
78
149
188
195
199
198
196
199
201
200
196
196
197
195
196
196
197
196
196
195
195
194
162
203
203
203
201
206
204
204
208
209
206
207
207
209
207
209
210
212
205
214
218
206
217
207
179
131
114
97
95
85
75
61
70
51
60
64
63
55
47
53
55
38
43
37
35
38
34
37
26
24
31
33
13
22
16
29
28
26
21
15
25
22
22
27
34
45
40
45
46
31
49
127
178
197
202
196
195
199
199
198
197
198
197
196
195
197
196
196
193
193
194
193
162
200
202
208
204
204
206
206
205
207
208
207
210
210
211
213
212
213
209
216
224
216
198
154
104
85
78
78
88
82
67
63
57
63
86
93
85
73
52
56
75
70
64
83
103
78
51
44
37
35
35
24
19
15
28
41
38
41
32
28
23
22
15
17
31
31
35
33
46
37
43
64
164
183
195
197
196
195
196
197
198
197
198
196
197
196
195
195
195
195
194
194
162
203
205
206
204
204
212
205
206
203
209
208
207
216
214
214
213
212
213
214
225
209
153
79
67
72
66
60
60
69
62
71
87
89
76
71
57
52
44
31
46
50
52
62
70
81
69
52
36
28
37
33
38
50
46
25
20
26
21
25
26
21
22
24
23
24
28
35
37
38
40
61
125
177
194
197
197
194
197
198
198
196
196
196
197
195
195
195
196
195
194
193
162
206
204
198
201
204
203
202
201
208
208
210
210
213
214
218
213
218
216
217
235
188
72
76
67
62
48
55
74
83
75
65
72
82
59
52
48
43
39
50
34
39
46
44
51
47
37
27
29
26
16
32
56
46
22
22
26
28
35
35
30
36
38
32
23
25
21
22
32
28
22
44
70
146
192
200
195
197
198
197
198
198
197
198
196
197
197
195
194
194
195
193
161
205
203
200
203
205
202
207
203
207
205
208
211
217
215
215
213
210
214
216
229
114
64
61
66
64
65
73
81
79
73
82
73
52
54
65
53
44
57
59
51
55
51
50
39
34
25
26
27
24
27
32
18
18
14
18
21
28
28
22
29
33
34
34
28
44
26
21
28
43
26
33
55
100
201
191
194
194
197
198
200
199
197
196
195
198
195
196
195
192
193
193
160
206
205
199
204
204
202
203
202
208
203
213
212
217
217
215
212
210
222
222
197
90
63
59
64
59
80
80
72
74
79
63
44
59
81
48
55
58
62
58
57
50
43
43
40
28
21
18
25
40
56
63
49
31
25
16
27
26
27
39
35
44
40
40
39
32
27
32
30
37
40
25
44
77
171
192
191
194
197
199
196
197
197
197
195
194
194
195
194
192
192
194
161
202
205
205
201
205
208
205
199
204
204
208
211
212
222
211
215
212
223
216
170
87
66
70
71
86
70
60
60
63
49
45
54
92
56
57
50
57
61
51
45
41
30
28
39
41
49
45
34
29
57
50
43
31
29
23
24
18
14
19
16
17
19
17
28
29
34
22
24
32
40
33
36
63
127
194
195
195
194
195
195
197
197
196
196
195
194
193
192
192
194
192
160
202
202
208
203
199
206
202
203
201
206
209
207
215
211
215
211
210
212
134
90
82
69
63
65
64
50
50
61
41
41
48
71
73
54
50
47
48
55
43
47
39
44
33
31
25
29
39
57
97
85
34
24
22
18
28
31
15
11
10
12
13
19
20
22
33
36
33
30
27
45
39
35
50
100
172
184
195
196
199
197
198
195
195
195
195
195
193
193
192
191
190
161
206
202
207
205
201
200
204
202
207
207
201
206
219
207
208
206
192
175
76
63
62
63
56
51
52
43
53
50
46
41
61
55
47
41
37
59
55
40
40
40
51
48
45
46
27
37
61
56
45
37
35
30
16
17
22
25
37
14
14
16
20
21
14
26
25
27
28
33
27
23
30
41
37
65
169
183
195
198
199
196
196
196
195
195
196
195
193
192
192
192
192
158
202
203
200
202
202
207
204
203
206
203
204
203
209
204
205
203
181
88
70
58
63
47
41
41
41
39
54
43
34
48
52
42
45
36
34
51
43
37
35
30
46
40
53
38
47
58
57
59
65
80
63
45
36
31
22
25
19
17
17
19
18
19
19
22
28
27
31
30
27
30
29
39
44
45
129
188
195
197
197
197
197
196
196
193
194
194
192
194
191
190
190
159
202
206
200
207
204
201
202
201
204
201
202
203
203
204
203
167
94
71
61
57
51
37
33
37
33
42
47
35
35
44
42
43
42
27
43
46
30
37
32
39
34
36
61
69
58
58
64
70
88
83
77
61
49
40
37
31
28
22
16
14
22
18
19
24
25
23
38
34
31
34
26
32
44
45
88
186
192
197
197
197
196
197
194
194
192
193
192
191
191
191
190
159
206
200
206
208
205
203
204
203
202
198
199
199
202
202
145
95
80
71
60
47
45
29
15
20
27
36
38
35
36
44
39
39
25
34
46
36
31
29
42
39
41
56
58
56
57
52
52
53
59
41
41
33
28
26
30
32
27
26
22
28
34
24
28
34
35
34
36
32
33
40
35
30
32
45
64
133
182
191
198
196
196
194
194
195
194
194
192
191
192
190
191
160
206
200
202
200
201
200
200
201
202
197
202
198
203
191
112
59
48
48
39
36
38
37
24
21
30
35
42
35
45
43
39
28
33
37
34
24
30
37
35
48
46
51
49
57
61
58
58
53
44
45
50
42
37
33
34
31
27
25
24
36
30
30
34
31
41
51
47
45
44
39
37
40
38
33
45
111
161
195
196
197
195
195
194
195
192
194
193
191
192
192
192
159
205
201
202
200
199
202
199
197
197
201
197
198
196
196
94
63
52
51
43
39
42
51
39
33
30
40
39
34
36
32
33
37
30
29
22
27
31
28
27
53
56
62
61
71
59
54
55
50
47
33
59
57
41
36
40
29
26
26
29
31
29
35
39
43
53
62
64
63
63
46
35
42
44
37
31
70
143
192
196
196
195
193
193
194
193
195
191
192
191
192
191
158
201
204
201
199
199
201
202
198
195
199
196
195
197
168
73
58
54
43
32
36
33
41
44
41
38
50
48
49
43
48
51
35
33
23
23
24
22
29
38
48
52
60
52
59
49
51
54
56
55
75
57
46
44
47
42
38
24
26
28
32
33
40
42
43
61
70
77
73
85
76
37
30
39
31
22
36
124
190
193
196
194
193
193
192
191
191
191
192
191
192
191
160
202
200
198
202
196
200
198
199
195
198
196
193
187
125
68
65
59
61
55
51
47
41
30
32
37
53
44
51
28
31
28
30
35
44
25
20
23
42
56
43
41
56
77
64
53
55
59
68
61
45
43
42
50
53
53
43
30
31
36
37
37
42
39
57
76
77
90
90
101
105
76
31
19
13
17
26
111
196
193
196
193
193
194
192
192
192
192
191
191
189
191
159
198
197
197
197
197
197
201
198
198
195
196
194
178
93
80
59
64
46
47
53
42
45
40
32
36
46
51
32
31
32
27
21
18
14
33
47
50
55
52
49
49
45
68
74
64
66
69
59
47
38
42
53
53
57
52
48
35
33
38
47
52
48
43
57
68
84
105
99
111
120
115
50
18
12
16
20
156
192
195
195
193
194
192
193
191
193
191
191
191
191
190
157
197
195
198
198
198
197
197
197
196
194
197
193
169
92
85
66
56
56
49
46
49
47
42
30
18
30
52
51
39
38
42
40
45
49
51
52
43
39
46
47
42
50
60
68
63
64
58
55
43
48
61
56
51
60
58
53
43
40
43
50
55
41
41
60
82
98
101
107
133
146
140
102
19
15
18
60
191
191
193
193
193
192
193
193
191
191
190
191
190
187
188
158
196
197
195
198
198
197
196
198
194
197
196
194
136
91
76
65
63
53
55
50
41
33
35
37
35
28
43
46
51
48
49
50
50
45
45
49
51
53
55
45
46
51
66
83
70
60
59
52
53
64
69
69
72
71
64
60
56
50
44
39
35
41
60
78
97
105
109
119
141
151
140
138
58
14
18
94
194
192
193
194
193
191
192
192
191
191
189
189
189
188
186
158
197
194
195
198
195
196
198
195
195
194
197
188
142
82
81
77
58
49
48
36
34
27
24
22
30
28
28
27
30
40
62
78
60
50
57
46
50
49
47
47
53
61
57
58
66
72
78
76
88
96
93
82
69
60
58
51
46
39
41
50
49
71
90
101
111
114
121
128
147
154
151
156
130
8
24
120
197
192
194
193
192
193
193
192
190
190
188
187
189
188
187
156
197
197
195
195
196
194
197
194
196
195
195
189
134
53
57
55
63
66
51
44
45
41
28
21
22
34
35
29
28
27
32
39
43
43
46
48
48
52
54
53
65
63
69
75
76
78
79
81
78
81
80
78
66
66
62
49
49
42
44
60
60
80
97
109
114
122
124
147
150
159
165
164
168
49
50
140
194
193
193
193
192
191
193
193
189
191
189
188
188
185
187
157
197
197
196
195
196
197
196
196
197
196
191
190
104
65
44
37
34
34
33
34
30
26
21
21
15
20
31
33
30
31
32
35
35
42
48
52
57
56
64
76
77
92
86
82
82
87
79
76
96
85
90
96
95
78
66
59
51
47
53
71
75
97
117
114
124
131
140
150
156
163
167
168
170
119
20
135
190
193
192
192
191
191
191
191
189
191
187
188
189
187
186
155
196
196
196
195
195
195
196
196
196
192
195
187
85
59
45
57
48
40
31
24
26
26
26
18
14
21
27
44
51
46
38
45
47
52
51
49
56
72
77
74
85
86
82
95
96
83
78
78
71
85
78
74
85
78
69
65
60
55
72
91
106
114
113
120
133
140
143
152
161
163
170
170
171
147
22
161
192
193
194
192
192
190
193
192
189
189
189
187
186
188
187
156
196
196
194
194
193
193
197
195
192
195
194
172
88
50
32
31
46
51
46
55
56
39
36
25
20
35
51
78
95
75
49
49
52
51
61
64
74
80
89
87
103
99
99
115
120
114
82
90
86
73
88
85
93
83
81
77
58
74
92
108
122
134
138
139
147
148
155
162
165
169
171
166
171
168
37
166
192
191
193
191
191
189
190
191
191
190
187
188
187
187
185
154
197
196
195
195
196
196
195
194
194
194
194
173
78
38
35
22
25
25
25
22
31
39
26
32
30
42
67
97
108
92
99
78
62
68
85
96
99
106
116
120
120
117
126
130
130
130
120
80
86
72
77
95
92
73
73
65
75
80
107
126
139
143
149
148
150
155
160
166
168
171
169
166
170
174
94
119
193
192
193
190
191
189
191
190
188
187
188
186
185
185
187
156
196
196
195
194
196
195
195
194
195
194
192
185
89
33
13
10
12
9
9
11
13
27
54
44
38
49
69
91
106
135
142
132
111
121
129
130
122
129
133
132
136
141
143
140
139
140
137
117
82
101
96
77
77
73
76
73
86
101
120
144
152
157
161
160
159
162
163
166
170
172
172
168
173
175
159
97
189
191
190
189
191
190
187
189
188
188
188
187
185
185
186
155
197
196
197
196
195
195
195
194
196
192
195
193
112
31
11
4
5
8
9
9
13
21
31
37
44
55
74
101
129
148
169
161
160
158
155
152
154
144
141
144
153
149
153
157
158
151
146
145
143
98
116
136
103
86
73
99
113
120
137
154
161
169
170
169
164
166
167
170
171
175
173
175
177
177
175
78
189
190
189
189
189
190
189
188
188
186
185
186
186
185
186
155
197
197
195
194
196
194
196
196
195
193
196
196
156
31
7
2
10
16
10
18
24
29
39
42
48
61
99
120
137
155
169
180
183
183
182
174
169
165
165
162
165
164
161
162
165
160
159
162
158
156
109
88
115
82
124
124
119
136
143
156
168
170
173
174
172
172
175
176
179
181
178
175
177
177
178
100
183
190
191
190
189
189
189
191
187
186
186
186
186
185
184
154
196
195
195
195
194
196
196
194
195
195
196
194
182
49
11
3
21
26
21
28
36
40
46
46
62
86
109
120
137
155
167
184
195
197
198
195
189
184
179
177
172
168
170
170
172
175
174
171
171
164
160
152
143
143
131
133
133
139
143
152
160
172
174
166
177
178
180
182
182
181
184
179
181
181
178
148
175
188
190
188
190
187
185
187
186
186
185
185
184
184
183
154
196
197
194
195
194
196
194
195
195
194
196
195
190
125
20
6
20
32
29
33
42
46
57
57
75
99
114
118
128
152
169
187
204
202
206
206
202
197
191
183
180
178
174
175
177
177
174
178
174
178
178
174
170
154
151
150
152
156
162
169
177
180
186
191
190
195
192
193
191
191
190
187
185
182
177
165
166
187
189
186
188
186
185
189
185
186
185
185
185
183
183
155
198
198
195
193
194
195
192
194
194
193
195
195
194
182
53
14
24
36
31
37
51
56
59
72
69
95
105
120
135
149
159
182
197
209
204
203
204
201
198
189
185
183
183
187
188
189
185
183
188
190
191
183
185
167
162
159
161
160
166
173
180
184
188
197
197
196
203
198
197
194
195
188
185
183
176
170
156
186
189
189
187
186
185
186
185
185
184
185
184
184
183
152
199
194
195
197
195
192
193
193
194
195
196
195
195
193
125
22
39
27
35
46
55
64
64
66
78
101
108
125
129
128
150
185
197
201
201
204
204
199
196
193
193
191
190
194
189
182
177
189
192
195
194
191
179
165
165
169
171
166
171
172
180
190
195
193
197
201
201
200
199
194
186
187
190
188
180
174
154
187
189
188
186
186
185
185
183
185
184
186
184
182
184
153
198
195
197
195
193
193
192
193
193
193
193
193
193
193
183
133
44
36
37
46
51
73
68
75
85
103
122
125
130
150
176
175
187
202
203
200
196
197
194
196
197
197
198
199
197
197
187
189
192
194
188
194
179
165
167
171
176
167
174
178
188
197
197
197
198
200
206
202
195
191
181
183
185
190
191
179
147
188
184
184
184
186
185
185
183
183
181
185
181
181
180
151
195
191
193
194
192
192
192
195
194
191
192
193
192
192
190
178
57
45
37
45
63
77
75
98
103
110
122
124
134
154
168
176
191
200
202
202
201
200
199
200
198
202
201
204
204
200
195
187
190
182
183
183
181
166
163
170
174
171
173
176
195
199
196
194
198
199
200
194
192
183
178
179
185
190
193
185
162
183
184
184
184
183
184
183
181
181
181
181
180
179
180
150
194
193
195
193
192
193
191
192
191
192
191
191
190
192
194
187
65
42
47
55
66
68
89
98
102
109
126
138
143
154
167
186
197
190
196
200
200
201
200
201
205
207
210
210
211
203
200
195
188
185
177
175
171
168
162
163
174
171
172
178
186
191
191
192
191
190
192
191
185
178
172
181
188
193
192
186
174
181
181
184
183
182
181
181
180
181
182
182
179
178
179
150
192
191
191
192
190
187
189
190
191
190
188
191
191
190
191
188
96
50
52
54
66
75
92
92
101
115
133
143
153
169
185
197
199
198
200
202
200
199
204
207
209
209
212
213
208
204
194
201
201
194
184
181
170
167
159
162
170
168
160
170
180
181
175
178
179
179
179
176
172
174
177
186
183
189
189
177
168
179
180
182
181
182
181
181
180
181
179
180
179
178
178
150
190
191
190
191
190
190
190
191
191
190
186
190
189
190
188
196
88
55
59
59
71
76
85
95
111
127
148
160
178
196
201
203
204
201
206
201
202
203
207
210
213
215
217
212
205
202
204
205
201
200
194
186
179
169
160
160
160
156
157
159
169
168
161
162
162
162
158
158
163
171
179
170
161
159
152
152
152
171
179
178
180
180
180
180
180
180
179
180
179
176
179
146
189
190
189
190
190
187
187
188
189
188
186
187
187
188
191
186
120
55
64
60
68
86
87
99
118
146
163
184
200
210
209
205
206
206
204
203
202
205
210
208
213
214
214
204
195
192
190
193
188
178
171
172
169
162
157
157
155
141
138
143
153
156
154
148
146
139
136
141
141
140
138
121
108
105
113
116
124
150
178
178
179
179
180
178
180
179
178
177
177
176
178
148
190
192
191
186
189
186
188
186
187
186
185
187
189
188
188
190
158
59
69
62
71
83
89
103
132
155
180
202
209
213
213
205
203
201
200
200
197
206
206
202
204
204
198
190
171
172
160
149
139
134
133
124
124
120
116
123
125
120
118
126
137
145
147
139
132
127
113
107
101
74
61
71
72
66
75
85
91
114
176
177
177
178
177
178
179
179
175
177
177
177
179
148
191
189
188
186
187
186
188
187
186
185
186
187
188
221
235
209
180
66
94
68
68
85
101
119
141
158
197
213
216
213
210
205
203
199
195
193
201
200
194
183
184
182
179
163
148
128
117
112
89
82
72
60
52
58
59
70
78
82
91
110
128
140
135
135
122
102
78
72
63
46
36
34
40
43
62
66
75
111
173
177
177
178
180
178
179
177
177
179
177
177
177
149
189
186
187
188
186
185
185
186
185
185
185
185
227
226
231
234
211
137
91
75
82
95
105
122
145
173
208
220
216
207
204
199
201
195
193
191
192
182
156
156
157
160
138
129
114
114
102
81
61
47
33
29
32
38
48
56
62
64
72
99
124
133
135
131
116
84
64
44
34
31
41
63
74
81
92
95
89
118
176
175
176
178
176
178
178
178
178
177
175
178
178
146
188
185
186
187
183
186
186
185
185
184
184
196
175
100
138
214
215
196
148
102
78
106
111
130
147
181
217
222
216
210
204
203
198
193
182
178
162
150
144
136
129
119
112
101
95
85
79
73
54
43
40
41
37
37
47
53
63
70
80
98
125
136
134
126
110
68
35
30
32
40
48
56
63
71
91
104
108
162
172
174
176
176
177
177
179
178
177
177
177
177
177
146
187
186
186
184
185
184
185
185
186
185
184
194
112
77
73
129
194
197
186
149
94
102
120
134
157
188
218
218
216
211
206
199
193
184
170
157
144
124
121
111
105
104
93
91
86
80
84
77
73
69
58
46
43
46
52
55
61
77
97
114
139
150
151
139
97
20
27
36
32
29
45
59
77
74
67
106
136
167
173
172
174
176
176
177
178
178
177
176
177
176
178
147
185
185
187
185
187
183
185
185
186
188
183
185
103
88
87
116
156
172
185
179
123
104
114
130
160
197
219
219
213
213
205
195
184
169
152
138
117
107
106
103
101
103
93
88
71
50
51
57
61
55
54
56
47
32
47
51
57
84
117
136
154
168
165
153
79
28
15
20
24
25
63
70
27
41
81
113
138
166
171
171
173
173
175
177
178
177
176
177
176
175
177
148
186
187
185
187
186
184
186
183
185
186
185
188
108
93
105
145
143
133
163
180
143
107
121
135
146
195
212
219
217
211
200
194
180
162
141
124
114
109
102
95
83
60
44
37
32
25
25
16
17
32
46
28
38
48
46
61
67
97
127
151
175
191
193
182
101
24
15
11
18
35
71
116
76
50
65
116
141
168
170
171
172
173
175
175
176
178
177
177
177
176
176
148
184
185
184
186
185
186
186
184
185
186
187
192
129
100
116
174
148
116
146
160
148
103
124
133
152
197
211
215
209
207
206
195
176
158
135
116
104
88
74
61
48
41
34
33
35
12
11
11
30
49
117
88
44
37
64
88
85
107
133
161
186
204
210
200
142
31
19
22
29
41
109
113
80
91
111
132
143
168
171
171
173
172
174
175
176
176
178
177
177
176
176
147
184
184
184
184
187
186
182
184
185
186
186
190
157
115
137
187
150
138
151
152
153
105
128
145
172
199
209
209
210
208
209
199
181
163
144
123
108
95
84
74
66
61
43
45
85
32
37
23
35
92
130
84
57
58
72
97
104
123
140
166
189
216
217
209
181
73
74
76
64
92
101
96
89
116
134
141
152
168
169
171
171
172
173
172
174
174
177
177
175
175
176
147
183
184
184
185
183
184
185
185
186
186
186
188
178
139
158
189
140
122
90
87
149
114
122
155
188
202
207
209
208
210
210
201
191
177
163
146
131
118
115
112
111
110
94
89
88
79
37
32
68
108
99
83
77
75
78
103
121
138
151
168
194
213
221
211
200
87
60
69
77
77
75
83
108
129
140
147
153
168
170
171
171
172
172
173
173
174
175
175
174
177
177
146
184
183
182
183
181
181
185
184
185
183
185
186
186
178
177
185
123
100
80
73
125
115
127
160
179
196
203
207
208
208
204
203
194
193
190
176
162
147
137
126
123
124
120
107
89
85
99
81
96
86
79
75
69
66
90
120
138
155
163
176
192
210
227
216
207
134
69
63
72
83
95
106
120
137
146
151
154
165
169
169
172
171
171
172
172
174
173
174
176
177
175
145
184
184
182
182
181
182
183
183
184
184
186
186
186
195
182
193
125
96
97
112
129
125
127
162
178
195
201
205
206
207
206
205
204
205
205
202
190
173
151
138
135
133
129
123
113
103
89
78
77
79
74
69
70
82
118
136
150
165
177
187
198
213
227
224
212
172
104
94
97
99
106
121
137
145
155
157
153
166
170
171
171
171
172
172
173
172
173
172
175
176
173
145
182
183
183
182
183
184
183
182
184
183
183
185
185
197
193
190
161
109
116
147
151
152
125
158
184
198
198
205
206
208
208
209
211
212
216
213
211
202
182
170
153
145
135
122
113
102
94
87
85
84
91
93
92
124
144
151
160
177
188
197
207
215
230
239
225
197
149
117
116
126
135
139
147
150
161
158
156
165
169
168
171
171
172
172
171
172
172
174
174
175
176
146
182
181
182
181
180
181
183
181
183
184
183
184
185
182
210
189
199
136
132
166
153
186
120
170
188
200
202
205
208
210
211
212
216
215
215
219
220
215
211
198
178
170
161
155
146
139
133
129
125
120
113
113
136
152
156
164
173
183
193
202
207
221
230
239
234
218
174
147
136
130
136
143
147
156
162
161
158
165
171
169
170
171
171
171
171
172
172
172
173
173
174
144
180
181
181
181
182
180
182
182
182
181
182
182
182
185
204
204
217
167
127
141
146
176
115
161
181
196
202
204
207
206
207
208
213
212
208
219
221
214
207
213
202
195
187
176
167
159
145
138
128
128
136
151
163
165
167
173
176
188
194
202
211
220
228
241
239
227
201
160
153
150
150
153
159
160
160
161
161
165
170
168
171
171
170
172
172
170
171
172
171
174
174
146
181
182
180
180
180
181
180
180
181
179
179
180
183
183
194
214
196
208
168
137
152
165
130
150
174
192
200
200
202
200
201
206
212
211
213
216
220
210
199
212
215
206
202
184
177
165
150
145
154
166
171
167
171
173
174
178
181
180
190
202
214
222
228
240
243
235
221
176
165
166
166
164
163
162
166
168
161
163
170
168
168
170
169
171
171
172
172
170
169
172
173
143
182
181
179
181
180
179
180
179
179
180
179
179
181
182
183
214
213
180
223
227
169
146
132
164
166
195
198
198
199
201
200
205
210
211
214
217
219
217
211
212
216
212
213
202
195
188
184
179
181
181
174
175
178
180
178
171
170
176
189
202
213
224
229
239
246
240
228
207
171
173
173
177
172
169
167
170
166
165
169
169
169
169
170
170
169
169
170
169
171
170
170
144
180
181
177
180
178
181
178
180
179
176
179
178
179
181
180
195
228
230
228
233
228
183
146
164
161
183
192
197
199
198
200
206
209
212
213
216
213
215
212
204
204
206
207
208
211
204
196
189
193
190
187
180
172
172
165
156
168
178
193
200
213
222
231
239
248
233
224
212
183
174
181
188
180
177
174
176
168
160
168
167
170
170
168
169
170
168
169
169
168
170
170
144
181
180
180
180
180
178
178
179
178
181
178
180
178
177
177
179
216
232
235
225
208
210
172
156
162
167
185
190
193
192
201
201
204
210
211
213
212
213
210
204
209
211
208
208
214
210
203
198
198
190
187
177
165
162
148
141
170
182
192
207
216
223
228
234
236
224
216
210
190
176
180
184
186
185
182
179
166
162
167
166
166
168
168
169
167
167
169
168
168
170
170
142
179
179
179
180
178
179
178
175
177
176
177
177
176
177
176
177
190
209
201
187
200
202
180
155
153
166
176
186
190
194
197
198
194
206
210
210
206
213
214
211
214
208
209
209
216
217
211
210
203
196
190
179
167
152
134
144
184
197
205
211
215
216
210
210
211
205
198
190
169
163
180
186
187
189
185
183
168
159
164
165
167
166
167
168
168
167
168
168
168
167
168
142
179
177
179
177
178
177
178
176
176
174
176
175
177
176
175
175
177
202
212
233
236
232
184
143
154
164
179
186
191
190
199
196
202
209
209
209
209
218
215
215
222
214
212
213
219
220
214
208
205
195
186
176
163
144
135
164
190
202
210
204
190
185
173
170
169
168
166
153
141
137
178
184
192
190
185
179
168
159
163
164
165
166
165
167
163
164
167
167
166
168
166
140
178
176
179
177
177
178
176
177
176
176
174
175
175
176
174
174
175
182
203
225
233
234
193
143
145
159
173
181
189
193
196
198
202
203
211
208
210
212
207
211
219
220
220
218
221
222
217
210
203
193
186
173
158
139
137
166
185
184
179
166
150
136
132
133
134
132
132
127
108
142
175
183
189
191
186
176
162
158
163
164
164
165
164
166
167
168
165
167
167
166
167
140
176
175
177
176
175
177
175
175
176
177
176
174
174
174
175
174
173
174
178
186
199
194
162
141
143
149
157
170
181
190
198
196
201
206
210
210
207
211
206
205
215
215
223
222
219
217
216
209
192
189
179
166
158
154
141
156
151
139
127
82
42
36
63
109
118
113
114
110
115
177
177
180
186
187
180
172
156
158
163
163
164
164
164
165
166
165
167
165
164
165
166
139
174
175
175
175
175
174
173
174
173
174
174
172
172
172
173
172
172
173
174
165
144
137
131
144
154
141
144
167
180
183
193
193
199
204
211
216
209
210
213
213
214
219
222
218
214
213
210
209
200
188
181
169
168
169
150
128
122
110
65
59
68
66
61
87
108
105
101
105
156
184
181
180
180
183
175
163
148
160
160
162
162
163
163
165
166
165
164
163
166
164
166
139
176
175
176
173
172
173
174
173
174
172
173
175
173
173
173
172
173
173
171
170
171
173
168
150
146
137
146
164
172
179
187
188
191
201
206
210
212
211
213
217
217
217
212
211
208
211
207
206
202
193
184
179
179
184
175
106
90
89
83
88
97
98
91
97
99
93
103
127
146
186
191
179
177
176
167
159
147
160
161
163
160
163
162
163
164
163
164
164
164
164
165
138
175
175
173
174
173
173
173
174
174
174
174
172
174
172
172
172
172
170
169
170
171
172
170
148
136
130
140
165
178
181
182
177
190
200
204
208
211
210
215
216
217
214
211
212
205
207
209
204
200
180
181
182
189
193
195
173
134
126
124
119
126
119
117
116
114
102
101
127
143
168
187
182
179
171
163
153
148
160
161
159
159
160
163
162
163
164
162
162
165
165
164
138
174
175
174
173
173
172
171
170
171
172
171
171
172
171
172
171
172
171
171
169
170
170
170
155
137
120
134
154
175
176
181
179
190
193
200
204
209
211
211
210
211
210
207
205
207
208
208
203
201
188
189
196
202
203
205
199
173
160
157
143
135
118
113
119
111
101
86
109
134
146
166
175
173
166
157
147
146
159
159
160
160
160
161
161
161
161
162
162
163
164
164
137
174
173
174
174
174
173
173
173
172
171
169
171
171
170
172
170
171
170
170
170
169
170
167
159
120
119
132
156
173
186
182
184
190
192
193
198
203
204
206
204
203
202
205
207
207
203
200
200
195
197
198
203
203
205
204
201
198
182
164
139
127
126
118
115
113
94
77
69
99
126
133
155
163
164
152
143
151
160
159
160
159
158
162
161
162
163
162
161
162
164
164
137
173
172
172
174
172
172
172
172
172
172
173
172
171
173
170
169
170
169
170
169
169
167
169
157
128
114
129
145
164
180
185
182
188
190
182
198
199
199
196
200
198
198
198
201
200
199
196
195
199
200
199
194
195
189
185
193
191
174
153
124
118
110
122
102
113
91
88
92
73
99
96
126
152
156
149
139
156
158
157
159
157
161
161
160
163
161
161
161
163
163
164
137
171
172
174
173
173
170
171
172
172
171
171
172
170
170
171
169
171
169
171
169
169
169
168
165
142
123
130
131
150
174
186
185
189
191
184
185
194
190
190
194
195
193
193
194
189
191
189
192
192
194
192
188
174
170
166
171
169
153
134
117
102
111
110
97
98
95
85
86
77
70
66
101
135
150
142
138
151
158
157
157
158
160
161
161
160
159
160
159
161
163
161
137
174
173
173
173
173
171
172
171
172
172
172
171
170
169
171
170
170
170
170
169
169
169
170
170
157
116
122
117
134
168
182
184
188
187
190
186
189
189
186
187
190
189
186
184
175
176
184
187
194
189
177
157
149
131
136
147
150
144
128
111
108
126
115
111
104
106
121
109
86
62
61
105
128
146
137
135
154
157
156
158
158
158
159
161
159
160
159
159
160
162
164
137
173
172
173
172
171
172
171
172
171
172
171
170
170
170
170
170
170
168
170
168
171
170
171
170
167
142
111
111
136
147
178
182
187
190
186
192
188
192
180
183
186
183
181
179
174
178
186
191
184
171
148
127
99
86
103
122
119
125
125
119
129
162
167
160
157
150
122
111
78
61
80
109
136
146
138
134
156
156
156
157
157
158
159
158
159
159
158
159
159
160
163
135
173
171
172
170
171
172
171
171
169
171
171
171
171
170
171
170
170
170
170
170
170
171
171
171
171
170
112
105
141
137
160
173
187
186
182
186
185
185
185
181
174
180
181
182
183
185
188
183
170
149
122
83
77
73
83
103
104
114
126
127
127
111
115
122
120
103
86
55
97
107
115
130
141
143
134
138
156
155
155
156
155
158
157
159
158
161
158
158
158
158
161
134
173
172
171
171
170
171
171
172
170
169
169
170
169
170
170
169
169
170
169
171
171
172
171
170
170
169
131
90
133
128
152
171
177
182
180
180
181
179
179
182
178
180
179
182
181
178
184
180
152
132
105
54
35
36
51
72
70
71
68
63
63
66
67
66
69
66
79
102
122
132
137
135
144
141
123
151
155
154
154
154
156
157
156
158
156
157
159
160
158
158
161
134
172
172
173
171
171
171
171
170
169
171
171
170
170
169
170
169
169
170
169
169
170
168
169
169
168
165
168
90
112
134
152
163
167
175
175
177
179
177
178
176
167
169
172
178
180
188
189
176
151
129
95
75
87
98
110
123
134
127
128
139
127
105
103
101
114
118
126
126
123
143
150
148
140
137
119
152
154
154
153
153
153
155
155
156
156
156
157
158
158
158
160
135
171
171
172
173
171
170
171
169
169
170
171
169
171
171
168
169
169
169
168
168
168
169
169
168
166
165
170
134
101
117
128
147
160
165
171
166
171
170
177
177
174
177
181
185
185
185
185
172
144
124
106
120
133
139
142
149
158
169
174
176
179
163
169
159
161
146
130
119
124
146
151
143
135
127
119
152
152
151
152
152
152
153
152
155
154
153
157
158
157
160
160
133
172
170
171
170
169
170
170
170
169
169
169
168
169
170
168
170
169
168
168
168
170
169
168
167
163
164
165
168
93
93
97
136
151
151
158
166
165
166
173
173
180
179
183
178
182
183
178
167
151
135
139
152
166
174
167
151
142
144
150
147
150
144
138
131
129
114
105
104
131
145
148
138
136
116
136
151
151
150
151
151
151
153
152
153
153
151
155
155
157
159
158
132
172
171
171
170
168
168
169
170
168
168
168
169
170
170
169
166
168
168
167
167
167
168
166
165
162
162
158
175
143
93
73
120
134
139
149
155
157
162
171
168
172
179
181
175
176
173
171
162
152
153
167
173
182
189
187
174
152
138
123
120
113
103
93
89
82
85
102
116
132
141
142
137
134
90
146
149
150
150
149
150
150
152
152
152
154
154
155
156
155
157
157
132
172
171
170
169
169
169
170
168
170
168
169
168
168
168
168
167
167
167
166
165
167
166
166
163
163
159
158
164
163
107
84
101
119
123
133
141
147
159
155
157
170
170
171
169
165
165
161
151
148
161
176
178
185
188
183
178
165
146
129
116
103
87
73
83
78
78
102
121
133
140
135
127
111
101
147
147
148
149
150
150
151
150
152
152
151
151
151
153
156
156
157
131
170
170
169
171
169
169
169
169
169
168
169
168
168
167
168
165
166
166
165
164
164
165
162
162
159
158
156
159
173
159
90
86
94
117
113
128
140
148
142
143
161
165
166
162
156
153
150
150
154
164
178
177
179
178
174
170
160
143
128
110
96
83
76
77
80
92
111
128
137
137
133
118
79
139
143
145
147
147
148
147
148
149
151
150
150
148
150
152
152
156
156
133
170
168
170
170
168
167
168
170
168
168
169
168
167
165
165
165
166
164
165
165
163
163
163
160
158
157
144
142
183
165
135
97
67
99
91
120
127
139
142
149
150
150
158
156
148
146
149
148
150
164
169
173
174
174
171
163
157
146
125
108
96
88
87
84
95
114
124
134
141
134
121
99
80
142
141
144
145
146
144
147
147
150
149
151
148
148
149
151
152
152
156
129
171
168
170
168
167
167
167
167
168
165
167
165
167
166
165
164
164
164
165
164
163
163
162
161
159
135
143
145
190
173
165
139
84
78
73
108
121
117
130
130
134
138
144
149
149
147
146
143
150
159
152
162
167
168
165
162
154
143
132
117
114
103
89
100
119
125
133
142
139
125
106
55
105
137
140
142
142
143
145
145
146
147
147
148
147
149
149
148
150
152
154
128
169
168
169
169
169
167
167
167
165
166
164
167
165
165
165
163
163
162
162
162
162
166
161
145
107
127
131
169
196
179
172
154
124
96
88
96
106
101
118
121
111
130
140
142
142
135
129
133
142
153
159
165
169
168
171
170
165
160
147
139
129
128
125
124
130
140
146
146
145
117
87
44
66
108
137
139
141
143
143
144
146
147
147
147
147
147
148
147
150
151
153
128
169
167
169
168
167
167
165
165
167
166
167
164
164
162
165
162
163
162
164
166
171
144
113
115
98
121
127
177
197
183
177
170
157
125
90
102
92
93
87
89
85
117
122
134
137
129
133
138
146
152
144
164
172
177
178
184
183
176
175
164
155
162
156
158
146
145
148
149
139
116
62
79
77
42
87
135
139
141
141
142
145
145
146
146
146
145
146
146
147
149
152
128
169
166
166
166
166
166
166
166
165
165
165
163
164
162
162
161
162
172
187
170
144
156
138
135
103
125
120
180
204
188
179
177
167
140
102
93
78
91
71
83
77
102
116
120
122
121
130
139
132
140
142
163
170
182
188
191
192
194
189
180
184
177
168
163
149
151
147
138
124
93
46
71
79
62
86
74
119
137
141
146
144
144
144
145
144
145
146
146
147
148
150
127
168
167
167
166
166
165
165
163
164
164
163
163
173
173
182
174
178
193
173
160
170
132
146
126
117
128
119
171
208
196
184
181
172
162
140
113
64
96
80
76
96
92
80
100
99
101
107
122
132
136
146
159
169
176
182
182
189
188
180
175
175
176
165
164
146
142
132
121
106
64
72
64
67
63
68
108
100
104
101
130
129
126
135
139
162
160
148
145
144
148
148
126
169
168
165
165
164
165
164
163
165
164
166
178
164
157
132
144
162
150
163
169
159
122
155
120
126
132
124
155
211
200
188
184
179
172
160
139
120
85
63
58
60
72
76
84
76
85
109
115
125
131
134
147
156
163
158
156
169
166
172
162
154
147
144
147
140
137
122
87
67
79
120
67
66
66
60
92
115
127
132
130
129
137
151
156
140
151
172
169
167
167
167
140
157
169
166
166
164
164
166
167
167
175
190
181
155
170
146
132
147
165
179
164
144
136
153
119
134
131
128
143
211
199
193
187
185
175
164
153
143
127
86
58
58
58
72
82
62
81
90
100
110
122
134
130
136
135
127
135
139
143
156
152
155
140
137
133
124
112
90
88
50
136
130
63
68
68
54
90
105
111
131
138
137
139
143
148
163
160
135
142
148
148
148
133
181
143
147
164
167
174
182
188
182
157
182
181
144
160
155
136
154
178
171
155
134
147
156
116
139
138
134
137
214
205
200
190
186
183
174
162
146
143
137
125
100
92
83
80
86
89
82
98
98
102
99
104
104
108
97
104
106
111
136
119
133
123
119
111
108
98
75
56
96
150
130
64
67
66
55
99
109
111
118
133
144
139
141
150
160
164
159
157
156
156
157
130
187
159
138
147
164
159
156
157
160
180
197
178
145
142
162
139
146
169
169
155
138
163
161
123
140
138
137
130
215
210
203
197
191
186
184
174
163
153
144
133
132
109
92
95
88
86
81
63
63
85
91
93
94
82
70
97
89
87
100
98
107
113
95
96
76
61
48
88
139
149
122
63
65
67
55
97
110
113
115
130
139
140
140
147
157
159
157
157
155
158
160
134
193
171
152
151
154
161
161
163
169
180
189
179
146
136
157
150
141
165
169
154
153
172
164
128
138
142
137
129
207
213
209
203
193
189
185
178
175
164
153
142
131
129
117
90
93
95
78
73
72
63
60
75
69
60
70
78
73
81
65
73
78
85
74
72
40
38
79
132
146
151
104
60
64
70
57
99
111
116
119
127
139
139
139
146
155
159
158
155
154
152
152
130
192
171
143
146
153
158
166
166
162
175
180
182
155
131
147
162
141
153
166
149
161
177
170
138
134
143
141
132
192
219
213
209
199
192
189
184
178
172
167
153
139
129
122
115
105
101
85
78
62
59
58
48
52
56
61
60
62
60
53
50
49
53
41
28
36
99
134
138
149
151
87
59
67
68
61
100
115
118
116
125
136
138
142
148
152
158
156
152
155
152
156
128
191
171
145
146
150
162
166
165
163
172
180
178
153
126
144
156
158
153
158
159
168
179
173
141
122
146
142
130
180
220
217
212
206
198
194
190
185
176
173
163
156
145
133
117
109
109
95
102
75
60
73
57
56
42
49
51
53
40
36
51
59
48
65
82
127
134
136
145
152
147
71
63
69
70
68
99
122
126
121
122
128
132
141
148
155
159
156
155
154
155
153
128
191
168
152
137
145
157
156
151
161
171
173
169
144
120
139
145
156
152
147
154
167
179
174
150
121
146
138
132
177
223
223
219
212
206
199
193
187
183
178
172
162
156
149
139
128
122
116
108
105
98
91
95
92
87
83
81
79
70
85
90
107
116
127
132
133
139
145
149
152
141
57
61
64
68
76
104
121
129
128
126
128
129
136
143
153
159
155
155
150
149
149
126
192
171
149
133
145
151
158
158
166
170
169
151
127
117
135
144
150
156
151
153
165
176
178
151
119
142
140
136
171
222
228
223
217
213
208
200
194
188
180
178
173
163
157
151
145
135
128
127
124
123
122
118
113
110
111
106
109
117
124
126
130
132
135
136
139
144
150
154
154
121
61
64
70
72
89
111
122
128
132
132
129
130
135
144
146
156
155
154
149
146
147
125
189
170
149
127
139
148
156
155
152
152
163
149
121
117
136
147
145
156
155
161
165
177
179
155
129
140
144
140
165
214
236
231
226
220
214
207
200
196
190
180
175
172
166
158
153
143
134
126
132
134
135
134
132
133
127
125
127
127
133
133
136
139
139
145
147
153
156
157
147
106
62
67
74
74
97
116
127
130
133
132
131
127
131
138
145
156
155
156
151
147
149
124
187
170
152
126
137
141
140
148
151
165
161
143
122
129
138
143
144
153
157
165
162
173
178
161
133
129
143
141
158
215
240
240
234
230
222
217
203
203
197
187
171
174
172
162
158
152
148
146
146
143
146
144
141
140
141
141
138
139
140
142
144
146
148
149
153
158
159
154
149
89
66
68
80
77
106
122
129
133
135
138
135
133
129
137
142
151
158
158
154
147
147
122
185
166
147
129
136
139
142
145
157
168
158
136
124
123
142
144
144
152
157
165
165
170
177
164
140
123
140
144
149
216
238
245
242
234
228
223
213
207
202
199
191
180
173
167
162
157
159
155
153
154
158
154
151
148
151
153
153
154
154
153
155
153
155
157
156
160
160
158
142
84
72
77
86
85
112
127
133
134
138
138
139
137
135
136
140
151
157
156
155
150
147
121
187
161
143
131
135
137
139
149
165
167
159
133
120
128
139
141
146
151
156
164
163
171
175
163
144
122
139
141
145
217
240
249
244
241
236
232
222
218
212
207
201
190
179
170
167
167
161
163
166
171
170
167
170
167
168
166
166
162
164
165
166
166
165
167
164
165
163
154
136
79
81
91
91
99
118
129
136
136
139
142
144
144
139
138
140
148
155
157
156
153
150
125
