P2
# CREATOR: GIMP PNM Filter Version 1.1
92 112
255
241
245
240
246
251
239
246
252
244
248
248
242
242
243
226
235
226
225
227
219
216
208
210
214
213
208
208
211
207
204
209
213
212
207
205
206
211
209
206
206
205
208
211
210
206
214
216
221
219
217
219
218
220
219
230
232
226
230
236
243
219
228
240
242
225
226
224
222
223
216
215
208
212
209
205
208
199
202
199
200
200
200
200
200
199
197
198
197
195
194
194
163
248
246
247
244
245
251
248
252
246
239
244
240
236
242
229
234
228
226
232
220
220
214
211
210
216
211
208
211
206
209
207
209
212
204
208
208
210
205
208
205
210
212
207
210
208
207
219
215
216
221
221
222
226
222
219
228
227
229
228
235
218
218
229
233
223
221
229
214
215
209
212
213
209
209
204
205
199
201
200
200
200
202
199
197
199
198
196
196
196
195
196
164
239
247
235
243
239
253
239
244
241
245
241
238
238
243
234
233
228
227
229
222
219
217
212
210
215
211
214
211
206
210
210
209
211
205
207
207
208
208
207
205
209
208
207
205
203
206
213
211
213
217
213
215
217
221
223
225
224
224
224
231
218
217
225
221
218
220
216
214
217
212
211
211
206
207
201
203
199
201
200
200
199
201
197
197
199
196
196
196
194
195
195
163
239
240
250
237
249
246
225
254
245
241
232
244
241
241
241
234
227
228
225
224
225
217
212
214
213
213
209
210
204
205
205
208
205
207
203
206
203
207
207
203
206
212
205
208
203
206
207
210
210
211
212
212
217
218
219
219
222
221
224
225
213
221
230
215
216
216
215
207
214
209
211
205
205
207
203
201
201
203
199
197
197
200
198
196
197
196
197
197
195
196
197
163
231
237
241
245
238
237
246
242
235
251
240
240
242
240
238
234
235
231
230
223
222
224
218
214
217
217
201
202
206
194
205
206
208
208
208
205
202
209
205
204
202
211
207
208
201
201
202
207
211
211
210
215
215
215
215
214
220
216
214
221
208
213
215
220
208
210
209
210
211
205
208
203
206
206
201
203
201
202
198
203
200
201
198
197
197
197
196
196
196
198
197
164
230
235
245
245
243
244
244
246
243
251
246
237
229
231
235
234
221
230
228
230
218
218
221
216
223
211
194
180
180
190
190
209
208
209
209
206
204
207
203
195
204
203
207
202
203
198
191
205
204
207
210
208
211
211
213
218
215
217
214
216
211
193
183
213
210
214
209
207
210
205
205
204
206
205
200
200
198
200
198
200
198
200
199
199
197
198
197
197
196
197
199
163
228
228
234
234
240
225
247
240
246
241
231
237
230
235
230
229
227
230
223
237
213
225
216
216
208
192
188
180
170
149
143
165
180
203
208
206
207
202
200
187
173
171
181
198
202
182
152
202
199
207
209
208
212
211
207
207
212
214
212
213
204
206
198
181
205
208
204
202
207
201
200
204
203
203
203
199
200
199
197
198
199
198
198
198
196
197
198
198
196
195
196
163
226
226
220
228
236
227
241
230
225
230
226
237
235
235
226
221
229
230
227
221
210
224
214
216
206
206
194
178
173
156
159
152
177
168
201
203
208
200
193
184
131
121
135
165
163
164
126
189
197
208
208
204
209
213
209
201
210
213
215
215
211
211
192
191
174
200
206
198
195
204
208
204
203
202
203
199
201
198
199
199
200
199
199
198
198
198
198
197
197
197
197
165
220
224
220
223
223
226
222
242
244
233
238
226
221
231
229
231
225
226
223
227
213
210
215
212
209
202
201
194
176
167
159
142
151
151
155
177
192
182
160
130
96
67
91
118
115
125
113
160
191
205
174
203
209
212
209
201
215
213
211
211
204
195
197
184
176
171
205
174
180
186
202
204
203
204
200
199
199
198
199
199
199
199
199
201
199
198
196
196
197
197
196
164
219
216
224
230
219
227
224
230
236
243
235
230
223
227
235
220
225
227
225
216
218
219
222
205
182
195
193
183
164
131
119
138
138
134
133
127
136
148
134
118
69
49
56
109
89
111
87
110
164
203
139
194
205
213
206
190
209
208
212
210
194
199
202
200
190
178
172
175
194
206
203
203
204
203
203
201
199
198
198
200
198
201
198
198
199
197
198
197
197
199
196
164
216
211
214
215
215
220
230
226
219
232
226
226
220
228
228
221
224
217
222
213
213
203
210
193
165
167
157
147
127
115
120
127
116
124
119
137
118
122
120
105
92
68
48
91
106
103
75
85
99
187
143
117
187
193
193
170
190
206
211
208
195
206
209
205
187
133
137
188
182
184
206
203
203
202
204
202
200
200
199
200
199
199
198
200
200
199
198
198
196
198
198
163
212
214
211
210
217
218
217
215
230
215
219
220
222
222
218
216
222
215
208
207
207
213
208
176
141
156
161
135
111
102
106
111
121
105
100
100
115
100
89
100
86
63
54
59
92
78
57
70
74
89
76
59
76
181
167
180
146
133
182
192
201
201
205
181
124
128
143
193
139
204
205
202
200
202
204
202
201
200
202
200
200
198
200
199
201
199
199
198
198
196
197
165
209
206
212
210
210
210
215
215
215
217
216
215
220
215
207
216
214
206
206
198
210
210
196
181
157
131
128
112
99
103
105
100
109
109
96
88
102
94
88
85
72
73
57
53
61
71
55
46
70
84
79
68
42
68
114
116
106
117
114
137
184
199
152
175
169
119
138
102
174
198
201
203
203
202
204
199
200
201
201
201
200
199
199
198
203
199
199
198
196
197
197
163
206
207
208
209
210
210
211
213
212
221
214
213
212
212
206
206
211
205
209
193
203
204
196
181
147
119
113
123
110
93
75
86
106
108
83
82
91
79
81
65
65
57
58
46
45
50
47
35
35
69
67
50
51
41
34
82
84
133
171
152
96
132
165
208
172
102
84
82
177
201
208
207
202
202
201
201
202
201
202
201
201
201
199
200
200
197
200
199
197
198
197
163
207
206
207
208
208
207
210
208
212
210
210
212
211
210
209
203
210
209
208
195
171
199
183
192
143
112
99
126
123
102
107
83
82
105
91
78
75
64
73
70
65
51
40
39
37
42
45
39
28
38
59
49
47
38
42
25
55
61
142
177
137
121
189
194
179
73
61
74
170
206
203
202
200
205
202
202
202
203
200
202
201
200
201
203
200
201
199
199
197
198
197
165
205
205
205
204
210
206
209
208
206
212
210
214
212
212
210
198
209
211
190
189
159
123
124
153
115
98
93
109
99
103
83
78
69
81
89
79
70
72
59
65
68
54
48
36
28
42
42
28
27
31
42
49
39
46
46
41
48
31
49
114
137
132
185
176
167
60
48
50
177
202
206
200
198
203
201
202
201
207
200
202
200
200
200
198
199
201
199
198
198
198
199
165
207
208
204
208
205
207
208
208
209
214
210
208
209
197
206
197
183
149
128
116
95
88
89
83
71
58
91
83
78
87
79
67
67
61
87
64
68
61
61
57
57
59
52
52
36
42
42
28
25
28
34
28
45
46
48
48
50
46
43
46
79
102
178
175
157
65
39
29
147
198
203
196
203
203
204
202
201
202
205
204
201
201
201
201
200
200
200
199
199
197
200
165
205
204
204
206
207
206
211
209
207
210
208
205
199
202
184
184
150
119
115
104
107
99
92
86
82
42
48
72
69
86
80
64
51
67
71
67
64
55
47
49
46
48
50
37
38
32
36
42
23
29
24
28
21
37
44
38
36
38
40
34
34
36
78
132
171
71
28
28
70
186
205
197
203
198
201
201
199
201
200
201
202
201
201
199
200
200
200
200
198
198
198
166
208
204
205
211
211
206
207
208
214
208
209
203
208
195
192
184
134
121
121
105
132
101
92
102
82
76
57
46
77
65
94
56
62
61
58
66
66
57
46
50
42
47
34
29
23
27
30
55
33
22
21
29
23
17
29
27
26
23
24
22
29
30
36
48
87
84
34
26
26
150
206
209
205
195
202
200
202
200
201
200
200
201
201
200
200
199
199
200
199
198
200
166
207
208
208
208
202
209
206
211
206
210
208
207
204
185
189
184
146
116
110
92
91
81
96
55
69
81
73
75
34
45
109
82
65
62
68
84
64
68
46
38
40
27
29
34
27
20
21
36
58
19
17
18
24
21
24
19
22
18
19
15
17
21
17
22
36
45
34
19
33
88
197
199
195
202
203
203
201
201
202
202
201
201
200
202
199
199
199
199
198
199
200
166
209
210
210
204
202
208
208
204
205
208
209
211
205
205
190
190
179
152
112
95
100
89
76
79
78
57
57
57
57
42
45
50
44
61
66
56
65
53
49
43
44
28
30
34
30
25
23
20
34
53
11
15
20
24
20
13
15
18
25
18
15
18
22
22
31
21
25
18
20
44
192
185
178
201
203
204
203
202
202
201
200
202
201
200
200
201
199
199
198
197
197
164
209
208
211
205
203
211
202
204
208
210
200
197
192
179
176
167
161
128
102
86
74
80
81
73
79
88
71
54
57
67
66
55
65
40
45
58
74
68
54
47
40
32
25
24
24
23
24
28
23
40
44
14
16
22
21
17
11
12
15
16
17
18
13
16
12
19
21
22
17
22
123
147
161
198
204
202
201
201
200
201
200
201
200
201
199
199
199
199
198
196
197
163
206
207
211
206
205
208
208
206
205
200
190
174
146
143
140
135
126
125
118
102
98
82
70
77
79
90
81
64
58
51
53
47
62
84
74
76
65
52
46
43
34
36
32
30
26
24
24
22
35
33
38
37
12
17
19
17
20
9
10
11
11
17
14
11
16
32
32
12
16
38
37
100
147
195
201
202
200
201
200
200
201
200
200
200
200
199
199
197
197
197
196
165
211
207
203
211
208
205
203
211
200
169
132
101
109
142
116
114
108
90
83
93
87
107
93
82
78
83
91
80
67
52
57
58
48
54
71
83
81
60
31
25
31
39
53
52
64
50
37
34
26
23
22
33
28
11
24
13
17
26
24
25
25
19
24
17
25
23
9
10
10
37
31
63
128
201
199
201
201
201
199
202
201
201
199
201
201
198
200
197
197
196
195
163
211
207
206
208
210
210
205
206
198
190
98
146
137
121
126
112
85
77
77
64
51
55
76
75
81
70
63
76
55
51
50
38
47
52
47
80
63
76
78
67
40
34
35
32
28
32
30
20
15
12
12
18
30
22
15
20
21
30
15
23
21
19
23
21
28
14
9
8
14
23
33
41
99
194
200
200
201
201
199
202
200
201
199
199
199
199
198
196
195
197
193
164
213
206
206
207
206
204
208
205
199
179
122
130
134
117
102
99
100
91
77
63
59
54
57
53
56
67
69
59
59
55
48
48
53
52
62
35
45
38
56
55
38
37
29
33
35
27
26
26
25
16
12
8
14
28
24
20
18
29
15
14
15
21
21
25
31
23
18
17
23
18
27
27
61
190
200
199
201
201
200
201
201
200
199
199
198
200
197
196
195
196
195
163
210
206
211
204
203
204
204
193
192
170
152
143
159
116
90
88
76
71
61
56
51
52
57
53
47
64
58
53
54
96
65
41
50
56
65
65
52
36
35
30
41
41
53
48
46
49
47
39
28
24
24
15
14
22
31
15
14
26
21
14
19
20
13
18
22
11
16
15
17
22
27
23
33
162
200
198
201
201
202
200
202
200
200
199
197
195
197
197
198
196
195
164
207
207
208
203
210
208
195
183
183
148
137
130
138
105
84
68
58
58
52
47
43
46
45
52
59
70
70
84
84
57
63
63
57
75
58
69
66
49
43
43
32
51
56
56
56
61
61
49
42
40
31
27
24
14
21
23
16
20
17
14
13
19
14
17
18
9
17
12
18
23
51
31
25
104
186
195
201
201
201
201
201
200
199
198
199
197
196
197
195
193
194
162
208
206
212
203
207
204
197
170
154
172
155
149
122
119
104
77
66
55
54
46
45
45
50
55
59
65
79
62
53
54
39
46
58
44
61
50
47
55
50
52
46
55
71
75
78
85
91
84
74
63
52
43
41
30
22
25
17
16
16
17
13
15
19
13
25
18
20
14
16
23
41
42
26
30
108
195
199
201
200
201
200
200
199
198
199
197
196
195
196
195
194
163
208
209
204
201
204
202
195
176
172
153
149
136
119
95
98
88
69
64
59
56
50
48
54
41
50
49
50
61
53
45
55
47
42
42
57
57
74
62
66
61
55
66
87
97
99
107
112
109
100
95
89
81
68
55
39
33
22
14
14
16
13
14
22
16
18
21
17
15
23
23
30
36
26
21
38
139
199
200
198
201
199
200
197
197
198
196
198
196
194
195
196
162
202
210
206
206
204
198
193
164
156
141
132
116
114
108
89
70
72
69
61
52
45
54
44
53
61
82
69
48
53
62
54
38
35
50
46
51
64
64
77
65
75
89
115
128
123
124
142
134
126
119
118
115
108
88
72
50
38
18
10
11
12
13
11
12
10
14
16
20
19
23
26
35
34
22
24
27
173
199
200
199
199
199
198
199
197
197
196
195
196
195
195
162
206
205
205
203
202
206
201
131
151
113
127
110
106
102
90
73
80
55
63
55
49
45
54
48
51
55
48
54
74
50
51
36
45
46
48
61
66
69
77
90
102
116
140
147
147
148
162
158
142
142
139
140
142
132
110
83
50
29
10
11
13
14
9
9
10
10
10
13
16
18
17
26
35
30
32
34
123
199
198
197
200
198
198
198
198
195
197
196
194
194
194
162
204
202
200
200
201
200
199
138
124
139
122
105
72
75
73
67
55
54
53
49
50
50
47
52
53
73
70
66
50
44
42
44
46
48
53
68
76
73
98
110
125
140
157
163
155
160
177
174
166
154
161
166
164
159
143
119
80
36
18
10
13
13
11
10
9
9
9
8
9
10
10
20
27
29
37
21
143
198
197
199
198
199
197
197
196
195
196
194
194
195
193
162
201
200
199
200
202
202
186
140
133
128
119
103
84
75
59
51
51
46
41
35
38
43
53
55
66
66
50
58
51
45
42
35
40
55
58
84
81
87
112
124
136
147
159
163
163
175
187
188
179
177
183
191
187
176
163
148
121
60
26
13
11
12
13
10
8
8
9
13
14
13
13
13
17
27
36
57
183
197
197
198
198
195
194
196
197
195
196
195
195
193
194
161
202
201
200
199
200
199
190
140
131
127
110
95
65
77
56
58
46
37
37
36
42
52
51
67
62
47
56
55
57
53
52
32
50
51
66
80
98
104
120
133
136
144
164
178
185
187
195
193
188
184
197
201
200
192
183
167
143
100
49
23
17
10
11
10
8
6
6
9
10
13
14
12
16
18
31
127
192
198
198
198
198
197
195
195
196
195
195
193
193
193
192
160
200
199
199
195
195
192
173
138
138
143
134
88
74
75
62
60
46
44
44
44
48
62
69
67
53
65
69
52
44
51
43
39
37
55
73
94
108
112
128
143
145
156
180
187
190
190
199
206
197
198
203
201
206
190
192
187
171
134
77
49
24
20
14
12
11
10
8
8
10
11
9
10
14
17
28
99
195
196
197
197
197
197
196
196
196
194
193
194
193
195
193
160
201
200
200
199
199
194
166
144
148
120
121
97
62
64
62
61
47
44
48
58
64
76
68
63
71
72
62
56
56
42
28
36
54
76
92
123
119
121
138
148
151
168
185
191
198
196
201
204
200
204
211
214
214
213
204
196
191
168
127
74
49
28
27
22
12
10
11
14
12
9
7
10
14
18
24
61
183
198
198
197
196
196
198
197
195
195
195
193
193
192
192
158
202
199
199
196
199
197
179
137
119
110
106
107
85
84
71
53
50
52
62
68
63
78
68
76
83
76
68
68
51
35
46
68
75
92
117
128
131
131
142
158
169
184
190
195
197
200
206
203
204
211
212
215
210
219
214
207
203
190
160
129
70
39
29
21
16
13
14
15
10
17
27
31
31
31
22
48
172
191
196
197
196
197
196
195
195
194
193
191
191
192
192
160
200
201
201
197
198
198
185
122
111
121
130
108
96
95
86
64
77
70
60
70
80
85
80
86
79
75
68
52
52
44
65
79
88
110
131
134
138
150
156
165
176
194
200
197
201
203
202
208
208
211
217
215
213
216
212
203
204
202
183
159
131
91
75
54
30
19
19
35
21
22
31
43
38
39
39
36
162
196
197
196
195
195
194
194
195
194
194
191
192
192
192
159
200
200
199
199
198
195
189
132
118
116
103
88
81
76
76
75
55
55
76
89
94
93
97
100
88
88
79
70
51
65
77
97
112
131
137
147
156
161
167
178
189
192
196
199
199
206
204
206
205
216
212
213
213
212
214
209
211
207
199
186
154
143
119
101
71
38
33
49
40
36
28
43
42
39
36
42
116
182
195
197
196
194
193
195
193
194
192
192
191
192
191
159
202
200
199
198
196
199
194
151
142
133
125
111
105
98
75
66
63
62
94
96
104
109
114
104
99
97
92
74
88
95
118
133
138
143
149
161
164
176
177
184
194
203
201
202
205
205
203
202
211
213
210
215
219
215
214
216
215
213
208
202
186
168
158
152
126
79
47
47
50
43
43
34
24
33
41
46
78
179
192
196
195
194
195
194
195
193
194
192
192
192
192
160
199
200
200
199
197
197
193
172
139
123
116
115
117
100
78
66
65
87
99
105
120
115
118
111
117
105
86
107
109
120
140
151
167
170
172
168
177
181
185
193
204
204
206
208
209
205
203
200
208
215
213
218
218
219
220
220
221
221
209
215
207
192
185
167
146
105
66
54
48
41
53
24
24
33
49
49
68
165
190
196
195
196
194
194
194
192
192
192
191
190
190
159
201
200
199
199
197
199
198
191
194
139
110
103
96
98
90
71
72
106
118
131
132
124
126
121
116
95
115
122
129
145
160
174
181
182
180
179
185
191
196
201
206
209
205
210
212
206
203
209
212
213
216
220
218
220
222
225
226
221
221
218
217
209
205
192
161
130
81
64
50
40
46
36
26
31
31
35
64
160
195
194
194
195
194
192
194
191
191
192
190
191
190
160
202
200
200
199
198
198
196
199
200
192
138
124
139
126
112
90
93
120
129
119
126
127
121
109
113
124
129
134
145
164
184
193
195
197
195
186
195
196
195
206
211
215
218
221
215
209
210
218
218
220
222
222
223
221
217
209
223
226
224
222
215
215
207
197
171
133
92
64
47
39
38
35
35
35
28
41
53
144
193
193
193
194
192
192
193
192
192
191
191
190
189
158
201
201
199
200
198
196
198
199
199
198
189
135
119
139
129
111
125
125
128
128
130
130
111
120
141
139
139
151
166
177
196
203
205
204
203
200
201
202
207
209
217
216
218
218
215
217
218
221
219
219
218
222
220
216
218
216
215
220
218
217
215
210
204
190
163
134
90
62
47
40
31
41
33
35
25
37
45
165
193
194
193
192
192
192
192
191
190
191
190
188
189
158
201
200
200
199
198
198
199
199
198
198
197
193
160
123
134
127
153
158
153
142
132
111
145
161
150
150
152
163
175
190
200
207
210
213
210
207
206
208
214
221
220
224
226
225
225
225
214
221
224
218
223
220
214
219
212
213
214
216
207
217
213
211
201
184
155
130
104
58
47
40
35
40
35
31
32
35
51
159
192
192
193
192
191
192
190
191
191
190
187
188
189
158
202
202
200
200
199
199
199
196
197
198
197
197
199
189
160
101
138
130
126
140
167
178
171
162
158
155
163
171
190
199
206
212
215
207
203
214
211
213
220
220
227
224
225
230
226
228
226
225
224
223
220
217
218
217
208
210
211
207
191
213
213
205
196
175
144
126
103
63
49
43
39
36
31
35
33
33
50
183
192
192
191
192
191
190
191
191
188
189
189
189
188
156
200
200
199
200
200
199
197
196
195
197
197
197
199
195
180
152
189
178
171
182
192
188
182
168
167
173
177
192
209
217
219
220
223
227
226
223
227
224
228
231
230
234
234
232
231
230
231
225
226
217
219
216
215
206
209
210
206
197
196
205
203
197
188
165
139
117
91
77
50
42
41
39
35
27
29
36
49
189
191
191
191
191
190
189
191
189
188
188
189
188
189
156
200
201
200
199
199
199
198
198
198
198
196
198
197
196
161
169
212
199
203
207
201
200
189
177
180
184
190
204
218
222
223
221
225
230
229
227
228
230
231
232
229
234
235
228
228
228
225
222
225
218
218
217
210
210
206
206
204
201
194
200
196
192
175
160
131
117
82
68
58
41
47
39
38
29
31
33
50
176
191
190
190
191
189
187
189
189
188
187
188
186
185
155
199
198
198
199
196
197
196
196
198
197
196
194
196
197
151
176
209
197
205
202
203
200
192
180
187
193
202
215
220
220
227
228
230
227
230
229
231
230
233
232
231
233
220
218
224
224
227
225
227
225
225
224
217
208
211
208
204
198
195
196
194
192
183
159
136
110
89
63
54
49
46
40
38
33
29
32
65
184
190
190
189
190
188
189
189
187
185
184
186
185
185
155
199
198
198
196
195
197
198
194
196
196
196
195
195
195
156
184
207
204
210
213
210
201
197
187
194
198
210
217
224
225
230
233
229
231
229
230
237
233
227
227
221
214
216
220
213
218
218
226
228
228
230
226
226
221
216
212
207
202
199
199
195
187
187
178
146
124
95
75
53
46
46
45
40
35
29
38
85
184
187
189
188
188
188
187
187
186
184
185
185
185
183
155
195
196
195
197
195
195
192
193
193
192
193
191
195
193
174
187
207
213
212
213
208
201
197
193
191
200
214
221
222
232
233
230
228
229
229
229
227
224
223
219
213
210
207
208
208
216
221
222
225
228
225
226
222
222
219
209
203
208
200
198
197
192
192
184
172
150
108
67
54
52
46
49
40
37
38
40
102
184
187
186
187
187
185
185
185
183
185
184
182
182
182
154
196
193
193
194
194
194
192
194
195
194
194
192
196
193
180
191
212
217
218
214
211
203
197
193
189
198
209
216
218
225
226
224
222
222
219
221
219
219
216
213
206
200
204
212
213
223
224
229
231
227
224
224
223
215
214
211
207
206
203
196
196
194
195
191
187
174
141
100
65
52
50
44
44
36
36
41
112
186
185
186
185
186
185
184
185
184
184
182
183
183
181
153
193
194
194
192
194
195
192
193
192
191
192
192
192
191
187
203
212
219
219
214
216
205
199
195
189
195
203
199
212
216
214
212
207
209
208
206
207
204
201
202
203
205
216
217
220
218
222
226
228
226
222
216
214
215
214
209
207
199
185
185
188
194
197
198
196
189
169
126
74
61
48
41
48
47
35
41
129
182
182
185
185
184
184
185
184
183
183
182
181
181
182
151
194
193
194
193
191
193
190
194
190
191
190
192
194
191
193
209
211
218
211
216
205
200
191
191
191
191
188
189
196
201
194
188
190
191
190
193
187
187
193
190
202
212
208
205
211
202
193
201
198
197
200
201
208
211
206
209
208
201
168
168
182
192
197
201
198
196
188
160
106
61
60
48
45
52
38
57
169
185
181
185
183
183
184
183
184
182
182
182
180
181
177
154
192
192
193
192
191
191
189
192
194
191
188
192
192
190
192
202
211
196
197
193
180
172
173
176
180
183
174
164
171
177
179
177
173
173
166
162
161
168
178
172
181
176
168
162
153
154
154
155
166
168
168
183
189
199
193
195
196
191
182
170
188
189
191
196
199
196
194
184
143
99
56
54
50
53
49
98
182
193
198
181
183
183
182
183
183
183
182
183
182
182
181
152
193
192
191
191
192
191
188
190
190
192
188
190
189
190
191
196
183
172
156
144
126
124
123
124
122
142
136
135
144
160
166
169
160
156
157
142
133
141
135
121
99
95
87
94
93
103
112
124
135
137
137
133
149
166
164
165
159
175
178
178
183
179
183
186
185
193
195
194
173
120
73
56
58
48
47
124
187
232
224
198
179
181
181
181
182
182
181
182
182
179
181
152
192
191
191
189
193
188
190
192
189
191
188
188
188
189
193
162
146
139
133
102
89
66
61
58
57
69
88
96
116
140
158
159
159
152
146
128
109
100
98
87
67
52
45
43
40
48
59
76
86
96
102
104
121
120
121
137
142
139
157
171
176
176
178
176
180
187
195
198
189
138
94
75
57
57
55
126
210
218
162
128
183
179
180
181
180
182
180
182
182
181
181
152
193
190
191
192
188
188
190
189
191
190
190
188
190
190
194
140
120
111
114
94
54
45
37
41
44
49
55
66
81
113
144
158
154
153
139
126
96
80
79
70
59
50
39
34
41
51
57
60
66
85
91
95
104
107
116
115
114
123
130
149
160
166
172
175
185
189
191
197
187
150
96
86
59
59
86
162
207
181
73
94
174
179
179
178
180
182
182
182
180
180
181
150
192
189
189
193
188
191
187
188
191
191
191
189
189
190
192
152
124
111
101
97
84
79
71
55
43
38
44
55
67
93
133
154
155
147
144
132
113
94
83
70
59
53
44
36
42
52
61
69
75
88
97
102
99
104
98
100
103
106
114
125
142
156
171
178
185
187
192
199
186
151
100
85
69
68
122
169
166
103
70
82
162
179
177
178
180
180
180
181
181
182
180
150
191
189
189
189
190
190
189
190
190
188
191
189
189
189
190
176
137
134
122
107
82
74
66
59
51
39
41
33
32
55
128
169
175
173
159
144
123
105
92
65
58
42
35
58
65
66
74
77
70
65
55
59
70
87
105
103
105
109
112
117
129
147
168
181
187
189
195
194
184
157
120
97
69
88
144
146
132
106
75
91
159
176
176
178
178
179
180
181
180
181
181
151
191
190
189
188
189
188
187
190
189
187
188
189
191
189
193
200
167
142
112
69
91
80
49
34
26
25
14
25
38
31
105
181
197
193
180
161
137
122
92
70
57
48
62
59
36
68
26
24
21
23
30
48
58
47
51
82
96
105
112
118
131
150
167
173
190
191
192
189
184
161
117
99
71
101
136
115
115
127
87
101
160
177
175
176
178
179
180
181
180
182
182
151
191
191
189
187
188
189
190
187
189
187
189
188
191
190
193
201
176
141
113
98
45
40
90
84
34
24
25
22
32
48
111
208
225
224
214
181
150
119
94
86
81
70
43
61
121
110
29
18
16
37
33
57
35
45
61
67
78
87
101
118
132
153
171
178
187
194
192
190
180
162
113
104
61
98
126
117
125
139
98
113
162
177
177
176
177
179
178
182
180
180
180
151
187
188
188
188
189
187
188
189
188
189
190
189
190
190
192
204
187
159
135
75
77
86
155
118
26
37
30
26
57
51
130
220
240
240
228
198
161
125
106
103
104
65
84
97
136
143
40
37
27
48
53
90
59
56
63
77
85
99
113
130
150
164
178
185
190
191
194
193
186
167
127
103
68
110
92
109
125
143
112
129
174
176
176
177
176
178
179
179
180
179
181
151
187
189
187
187
187
188
185
189
189
188
189
191
191
191
192
204
194
179
160
157
141
120
133
132
94
60
57
73
86
89
155
236
243
246
226
202
171
135
118
106
90
100
84
84
123
142
103
46
47
49
99
89
83
87
99
113
122
127
137
153
168
180
189
188
193
196
192
187
183
168
136
120
86
84
68
95
117
142
123
163
175
176
175
176
176
178
179
180
180
178
179
150
186
189
188
187
187
186
186
187
188
186
188
190
190
190
192
205
205
193
184
167
163
149
105
109
121
118
111
86
86
90
197
240
243
244
219
196
168
151
139
123
101
89
93
103
101
114
122
121
127
108
102
98
102
110
119
123
134
147
156
172
186
195
201
196
195
195
195
187
177
171
142
115
83
73
75
83
107
143
139
174
173
175
174
176
177
177
178
178
179
180
180
149
187
186
187
187
186
186
189
186
187
187
185
189
189
190
191
204
212
201
194
184
176
156
137
112
100
94
80
68
88
151
221
241
245
243
218
199
180
172
158
140
124
99
88
83
93
96
87
87
80
102
108
114
114
117
123
132
144
162
175
188
199
205
203
201
198
191
186
181
172
167
152
116
82
101
92
91
124
145
170
174
173
176
176
177
176
175
177
176
177
176
180
150
187
188
186
185
187
184
185
187
186
188
186
186
188
189
186
202
214
208
200
192
181
167
143
120
105
99
100
110
141
199
230
241
246
233
213
202
197
188
176
161
145
128
105
98
95
98
98
100
106
105
108
111
119
128
143
155
167
184
193
201
208
208
207
200
193
190
182
174
165
166
140
106
86
120
99
102
138
143
175
174
172
174
175
177
177
177
176
177
178
177
179
150
186
185
184
184
184
187
185
185
185
186
186
186
187
187
188
198
214
211
197
196
189
187
176
166
152
142
134
147
188
218
235
245
248
230
218
207
207
195
185
172
166
155
140
118
116
121
122
121
115
117
124
138
148
156
170
183
195
200
203
207
205
208
202
199
194
184
178
173
161
161
130
113
88
110
91
121
143
149
173
172
172
175
175
174
174
176
176
176
177
178
178
150
186
185
185
185
184
184
184
184
184
185
184
186
185
187
186
196
216
215
202
201
196
184
179
167
158
156
174
196
207
227
240
247
247
231
220
210
207
205
193
185
177
171
164
153
140
137
139
142
148
157
159
170
178
183
194
202
209
208
205
207
203
204
202
194
188
183
170
169
162
162
130
90
87
87
115
153
146
161
173
173
173
174
173
174
175
176
175
175
175
176
179
149
185
184
185
184
184
184
184
183
183
182
183
182
184
185
185
193
219
216
211
209
206
194
189
187
188
196
203
208
213
231
243
249
250
229
220
217
209
203
200
190
180
182
183
179
174
164
161
160
154
168
175
183
195
202
208
211
209
207
203
204
200
199
193
191
182
178
169
165
159
151
116
99
102
146
165
144
148
171
171
174
172
173
174
173
174
175
172
175
176
177
177
148
184
185
185
183
182
182
184
183
184
184
182
183
180
183
183
190
220
220
207
207
207
208
204
204
204
205
209
212
212
239
246
251
245
226
219
215
203
193
187
186
181
182
190
194
188
184
187
184
184
191
194
199
203
212
207
206
202
200
197
201
196
192
195
191
181
172
164
161
154
137
106
99
109
165
168
172
165
171
172
172
172
173
173
173
173
174
174
173
174
176
176
147
184
183
183
184
183
182
183
182
183
181
183
181
183
182
181
181
218
218
213
212
210
210
206
206
209
210
206
201
222
245
249
250
241
228
221
210
200
185
171
163
170
177
191
194
203
200
207
201
207
206
209
209
206
200
195
193
197
200
199
197
194
192
189
186
179
174
163
154
150
130
114
90
118
155
184
187
167
171
171
171
172
173
172
173
173
174
174
173
174
172
175
145
183
183
182
182
182
181
182
181
181
180
180
180
182
183
183
181
218
222
218
212
214
217
217
212
207
205
198
196
241
247
250
251
238
225
213
200
196
177
176
156
151
166
184
197
207
210
212
209
216
212
207
201
203
200
201
202
199
196
199
194
191
189
186
175
178
168
155
153
147
122
114
100
137
148
164
173
166
169
169
169
171
171
172
173
173
172
172
172
172
173
174
145
183
182
181
182
181
183
179
179
179
181
179
179
180
180
181
178
216
218
223
220
222
221
219
214
211
203
189
228
243
243
244
245
230
223
211
205
201
190
182
181
148
146
174
192
206
214
218
217
222
215
210
208
203
204
207
201
202
206
199
196
188
188
187
182
176
160
153
145
142
122
105
106
149
177
184
168
167
168
168
166
170
171
171
172
172
171
172
172
171
171
173
143
182
183
181
181
181
179
181
179
181
180
179
178
179
179
182
178
209
218
222
224
226
222
217
211
206
200
209
232
232
235
236
235
219
205
199
202
205
201
198
195
164
133
164
185
200
210
217
223
223
214
213
209
204
209
212
211
208
201
198
197
192
188
185
179
170
161
151
145
138
115
94
101
142
166
170
162
167
167
167
168
167
168
171
170
170
170
171
171
172
172
173
144
180
180
180
181
180
179
179
179
178
179
179
178
177
177
178
178
201
220
224
226
224
222
210
208
201
194
218
210
207
212
207
202
189
170
171
183
194
187
197
192
177
142
163
182
196
203
213
216
213
216
216
213
211
214
214
213
207
202
202
196
190
186
179
169
168
156
148
141
128
105
99
99
123
137
144
167
165
165
166
167
168
167
169
169
170
170
171
171
171
172
172
142
180
179
179
179
179
179
179
177
178
179
177
177
176
176
177
177
190
223
223
221
221
218
211
204
196
197
184
174
174
169
166
156
148
127
132
140
138
141
152
159
159
140
167
178
185
204
213
213
210
218
217
218
214
215
212
212
208
198
201
189
191
184
178
172
162
145
146
137
115
100
91
105
139
153
164
166
166
166
167
167
167
167
168
168
170
170
170
170
169
171
169
142
178
179
178
177
176
178
178
178
177
178
177
177
178
177
177
176
183
221
221
219
217
217
211
201
203
204
161
99
150
143
135
125
125
118
100
50
40
92
121
122
132
134
178
187
190
199
208
215
220
220
213
213
215
211
202
207
206
203
195
188
188
183
178
160
153
146
143
130
107
110
100
121
155
163
163
164
165
165
164
166
166
165
169
169
168
170
169
171
168
170
171
142
177
179
178
177
176
177
176
177
176
178
176
175
177
176
176
176
178
217
218
213
215
214
203
201
205
206
212
127
75
128
122
114
111
74
49
61
59
50
73
108
116
120
200
202
199
200
206
211
215
218
213
212
208
204
196
201
203
200
189
187
181
178
169
152
148
142
141
125
103
108
90
143
163
162
162
163
164
164
164
165
164
167
168
168
166
170
169
170
168
170
171
141
178
177
176
177
177
177
178
176
175
176
176
175
177
175
176
174
176
211
211
213
215
214
202
204
208
219
222
183
141
102
124
111
100
87
76
82
87
86
84
87
81
149
216
214
207
203
202
206
211
213
210
205
201
200
199
192
198
192
184
179
175
167
161
154
148
139
134
116
98
106
89
143
162
162
164
163
164
164
163
164
166
164
165
168
166
167
167
168
168
168
168
140
179
179
177
177
178
177
176
177
176
177
175
175
175
175
176
176
173
202
206
208
203
206
207
214
222
226
226
188
177
165
144
138
114
96
109
109
110
112
120
132
146
183
226
223
219
207
205
204
208
210
207
199
200
193
190
185
187
184
179
177
166
166
152
142
136
133
130
107
90
82
95
154
161
162
161
160
163
163
163
165
165
165
166
167
167
167
165
168
167
168
170
143
176
176
177
176
177
175
176
175
175
176
176
173
174
175
176
175
173
194
201
202
202
200
207
212
215
219
219
191
182
162
142
136
142
140
125
116
127
129
139
151
164
200
223
224
223
213
205
202
203
200
197
194
189
182
184
177
177
180
176
170
165
157
147
137
141
138
129
102
88
69
120
161
161
162
162
163
163
163
163
164
163
166
165
165
167
167
166
166
165
168
169
142
176
176
176
177
177
174
176
175
176
177
175
175
175
174
174
176
174
187
196
193
188
197
201
201
200
202
202
186
152
124
139
135
138
127
119
110
108
121
148
155
181
205
210
216
214
213
206
201
202
197
194
189
181
178
177
178
175
170
172
167
159
153
144
145
140
133
126
91
79
68
141
160
158
160
161
163
164
162
163
163
164
165
166
166
164
165
165
165
166
169
169
141
177
177
176
176
177
176
175
176
174
176
174
175
175
173
175
175
174
174
191
188
183
196
194
185
171
166
178
157
131
116
120
135
131
134
109
115
89
107
130
158
171
188
190
188
193
197
201
198
189
188
188
185
179
176
172
168
168
164
159
164
151
152
139
143
141
135
124
80
83
86
152
159
159
161
160
160
163
160
163
162
163
164
164
163
165
165
165
164
165
168
167
141
175
178
176
176
175
174
176
175
175
177
175
175
174
173
174
174
174
173
192
186
190
195
181
143
126
107
142
159
126
113
116
123
118
124
116
115
110
113
114
130
147
160
161
142
161
179
188
189
189
191
184
178
174
171
167
161
166
159
157
160
154
150
144
145
138
130
102
72
74
118
156
157
158
160
160
161
160
161
162
161
162
163
164
164
164
165
164
166
164
165
168
140
175
176
176
175
174
173
175
174
174
174
175
174
174
173
174
174
174
173
187
180
181
189
163
127
88
75
99
127
119
117
123
108
116
115
118
122
128
123
114
118
135
126
131
115
121
135
164
177
181
180
182
175
167
164
160
158
157
159
160
156
150
153
146
144
142
112
94
76
74
142
153
155
156
158
159
160
161
161
161
161
161
162
162
163
163
165
164
165
164
166
167
140
175
175
175
175
176
174
174
174
174
175
173
173
174
173
174
174
173
171
174
183
184
198
167
122
89
62
56
102
138
143
164
152
144
147
150
167
144
137
127
130
121
105
96
96
73
84
134
156
173
177
177
172
166
162
156
154
157
157
155
155
154
151
150
145
133
104
88
62
105
148
149
153
154
156
157
160
159
159
160
159
160
161
161
162
162
161
164
164
164
164
164
138
175
175
175
174
174
175
174
173
173
175
174
175
173
172
173
173
172
172
170
183
190
197
168
140
105
97
109
107
116
129
143
163
164
174
162
141
130
134
133
123
114
103
101
71
43
51
94
137
154
167
172
166
165
158
151
160
153
154
156
157
144
148
145
137
115
99
83
70
133
145
146
152
153
154
154
156
157
159
158
158
160
160
161
161
161
161
161
163
164
167
165
138
177
174
173
173
175
173
174
174
173
174
174
173
174
173
173
172
172
173
170
175
188
195
180
156
133
134
150
153
128
104
91
105
108
96
93
88
90
82
74
59
51
49
59
76
88
83
96
133
147
161
170
172
158
159
157
153
154
155
153
149
147
144
137
128
92
82
68
115
140
141
144
147
150
152
153
154
154
157
158
158
159
158
158
160
160
159
160
162
164
164
165
138
175
174
173
174
173
173
174
174
174
174
174
174
172
172
172
173
172
172
176
144
182
187
180
167
158
170
186
176
175
178
159
124
102
78
69
72
86
92
104
126
140
138
132
130
132
136
133
145
151
158
165
168
168
163
155
157
159
154
154
145
145
134
126
124
80
66
66
136
135
137
142
146
148
151
152
155
155
156
156
157
159
158
158
159
158
159
159
159
163
164
165
139
175
174
174
174
174
172
173
173
172
173
171
171
173
171
171
172
171
172
172
153
162
182
175
164
171
191
203
189
176
176
182
179
175
170
170
184
177
186
169
162
150
139
142
154
164
167
161
152
157
163
163
164
164
154
154
159
158
151
150
141
136
131
111
82
59
63
106
142
135
135
141
143
145
149
150
150
152
155
156
156
157
157
157
157
157
159
159
161
161
162
166
137
173
174
173
173
172
171
171
172
171
171
173
171
172
172
171
170
170
169
172
166
134
174
171
172
178
201
205
199
152
154
154
163
166
161
163
163
161
155
140
138
134
143
158
172
181
187
180
165
163
158
161
160
160
153
149
150
145
143
140
129
132
116
92
76
72
78
132
142
133
135
137
141
143
145
149
150
151
153
154
155
156
155
156
156
156
157
158
158
161
162
163
137
174
173
173
174
173
173
174
171
172
172
172
170
170
170
170
170
170
170
169
169
134
146
170
171
178
193
201
195
170
139
116
116
117
119
115
121
120
118
116
122
141
156
167
179
188
183
179
171
164
154
151
151
152
153
148
148
143
136
134
133
122
100
96
67
61
105
138
145
132
131
136
138
139
143
145
146
149
150
153
154
154
154
155
155
156
157
156
157
159
161
162
137
173
174
172
171
172
170
172
171
172
170
171
171
170
168
170
167
169
170
168
167
164
107
164
166
177
187
197
195
172
146
126
105
90
90
89
100
107
114
121
135
143
156
166
175
180
182
177
165
156
151
151
146
147
143
141
139
135
132
127
129
110
85
73
61
88
128
140
145
144
115
132
138
139
140
142
144
146
149
151
151
152
153
155
153
153
154
156
157
158
159
161
134
172
172
171
172
170
171
171
171
171
171
170
170
170
169
170
168
168
166
168
167
167
117
116
148
159
180
192
189
178
155
129
106
91
97
100
91
97
113
121
136
147
156
162
169
169
171
169
162
157
154
148
141
142
138
138
129
128
128
119
112
91
68
58
60
124
141
140
147
156
142
96
107
124
134
140
142
144
147
149
151
152
153
152
153
153
154
154
154
157
158
160
135
172
172
171
173
173
173
172
171
171
170
171
170
169
168
168
168
168
166
166
164
166
164
84
142
160
175
192
192
186
162
138
120
111
106
88
89
97
115
124
139
148
155
159
162
165
165
161
156
152
149
143
140
138
135
134
129
121
113
103
92
75
52
57
110
129
141
141
148
153
163
142
97
89
97
124
140
143
145
147
149
149
149
150
150
150
152
152
155
156
157
160
133
172
172
172
169
171
171
170
169
167
169
169
168
168
165
166
168
167
166
165
167
179
172
125
74
142
166
187
198
196
180
151
145
123
109
101
112
117
124
132
140
152
156
159
164
160
160
157
154
140
141
142
140
138
135
129
118
118
93
81
79
48
59
105
126
139
140
142
149
152
161
164
87
64
102
79
104
136
143
145
147
148
149
148
151
151
151
151
152
155
155
157
133
174
172
171
171
172
170
169
169
168
168
167
167
168
168
168
168
174
176
182
191
166
147
151
69
101
151
177
200
205
196
181
160
150
127
137
139
138
143
146
154
165
165
169
167
163
159
157
144
139
130
131
126
120
119
121
117
102
75
74
58
56
95
125
133
143
143
144
151
152
160
161
145
69
93
100
78
104
127
151
148
146
147
148
149
149
150
150
153
153
155
157
132
171
171
171
170
169
171
168
170
168
168
168
167
168
170
176
169
163
169
187
168
148
166
132
112
52
133
171
193
205
206
195
186
167
166
172
163
165
169
172
175
181
178
175
160
158
156
150
137
122
127
123
120
93
109
108
91
80
69
56
47
89
120
133
141
141
144
149
150
155
161
165
163
91
83
95
81
116
111
109
131
141
160
157
147
148
157
157
153
152
154
156
131
177
176
171
170
169
169
169
169
168
168
168
170
182
184
164
149
125
132
124
155
165
157
112
146
99
75
149
180
193
201
194
196
195
189
190
178
180
186
193
191
183
184
184
173
153
141
137
128
119
107
108
102
79
97
100
75
55
60
58
88
117
133
141
140
142
145
149
150
155
162
171
174
116
88
93
91
98
132
139
142
138
132
121
151
167
140
161
171
161
155
155
132
183
179
153
168
169
168
168
167
173
186
195
177
189
160
153
147
128
134
158
178
164
140
120
147
100
78
116
147
163
182
189
186
189
186
188
168
182
186
180
189
186
182
176
164
152
146
119
129
114
89
70
90
66
83
82
70
46
51
101
119
132
140
141
144
146
149
152
152
158
162
170
178
129
95
102
104
108
130
138
147
151
151
150
151
151
162
169
149
172
176
174
145
187
197
169
142
148
166
161
170
167
166
169
182
197
153
133
144
127
140
163
172
154
128
133
146
96
105
81
108
142
143
169
169
167
173
168
168
167
173
176
177
160
171
155
149
148
136
108
111
96
80
50
75
66
67
76
46
41
92
115
127
138
139
146
147
148
149
150
153
161
166
172
178
132
99
104
107
112
135
141
140
146
152
151
152
147
157
167
171
157
150
151
124
192
202
181
153
153
165
168
171
168
170
180
193
191
159
126
138
130
135
160
167
151
122
151
141
95
106
80
74
85
120
158
160
153
162
162
156
161
153
144
139
146
152
125
134
122
120
94
88
65
54
53
66
73
60
44
60
93
108
129
135
139
144
146
147
148
152
154
156
159
165
175
182
128
103
109
111
116
136
141
140
144
148
154
149
149
157
166
168
168
165
163
137
199
198
180
151
151
153
163
170
170
170
177
187
185
158
120
131
135
133
158
163
147
141
159
135
93
98
107
68
65
96
108
128
136
145
140
137
143
136
126
118
124
112
93
96
86
98
68
68
56
49
57
75
68
57
65
105
120
127
131
136
144
147
150
149
153
155
156
162
164
170
180
183
125
104
110
112
122
140
145
148
144
149
147
149
149
157
165
165
164
162
161
133
198
200
181
153
146
161
168
175
171
162
170
181
187
159
118
130
136
134
153
157
140
146
163
137
95
92
103
101
61
76
83
100
113
118
120
118
123
116
107
93
106
95
72
78
65
64
50
44
45
39
60
66
74
93
105
117
123
134
140
143
149
150
149
151
154
156
161
165
167
177
182
183
119
108
116
115
126
143
148
148
149
149
152
150
149
156
163
165
164
163
164
133
201
197
176
156
142
149
160
162
151
157
169
178
175
151
109
127
138
140
146
147
147
152
163
141
94
79
100
92
76
73
56
65
74
90
100
96
101
87
76
83
65
71
45
49
48
37
38
34
36
52
70
89
87
105
115
121
131
139
143
148
151
150
150
154
161
162
165
169
174
182
187
178
115
114
120
115
129
141
154
155
151
151
149
150
153
156
164
165
164
163
163
134
199
199
176
156
134
147
156
159
153
166
175
172
161
134
106
125
134
138
141
139
146
151
161
145
99
59
94
85
77
98
133
72
51
57
58
62
70
59
66
53
44
51
37
38
38
42
48
51
64
91
96
92
111
113
124
132
137
143
148
152
154
152
156
160
163
165
169
175
181
185
191
171
114
118
122
115
134
143
151
156
154
153
150
150
155
159
165
164
162
163
159
132
192
196
177
153
129
142
150
159
159
160
156
162
150
117
106
130
135
136
141
142
143
148
162
151
103
54
85
83
79
81
184
165
168
137
102
52
54
52
40
43
55
64
60
76
69
71
85
88
89
100
110
114
117
122
137
138
147
151
154
153
154
158
160
167
170
168
175
182
188
191
191
154
115
119
125
116
138
146
152
153
153
152
151
147
151
155
163
164
159
160
156
127
183
194
177
155
128
140
146
144
148
150
155
171
146
111
116
131
137
135
138
144
148
149
163
154
113
61
79
85
81
61
162
192
194
191
173
174
147
111
119
115
108
102
93
96
99
101
105
110
114
114
118
124
131
139
143
145
152
156
159
161
164
163
166
172
174
177
179
186
192
195
195
146
117
123
127
123
144
150
154
151
156
155
152
150
150
153
157
162
159
157
155
129
180
193
174
155
123
137
140
142
147
154
173
163
138
114
122
133
134
137
140
145
152
145
161
155
129
73
70
86
82
62
138
191
189
191
189
187
183
173
166
158
146
137
129
124
121
121
122
125
128
132
136
138
143
148
152
155
157
163
164
165
167
170
173
179
181
181
188
194
195
199
195
129
122
126
129
132
144
152
153
155
156
156
150
146
148
152
160
163
160
162
158
128
173
192
166
146
131
137
141
141
148
165
168
157
126
114
120
134
136
136
139
145
153
150
156
156
132
95
64
87
83
70
126
186
191
192
193
192
192
189
179
171
161
151
143
137
132
128
127
135
135
141
146
151
151
152
157
161
167
165
167
170
174
177
182
185
189
194
194
201
200
202
190
128
126
126
125
136
146
153
153
155
157
156
155
148
146
151
152
159
161
161
157
128
